<svg width="248" height="264" viewBox="0 0 248 264" fill="none" xmlns="http://www.w3.org/2000/svg">
  <g clip-path="url(#clip0_85_302)">
    <g style="mix-blend-mode:overlay">
      <mask id="path-1-inside-1_85_302" fill="white">
        <path
          d="M367.09 91.0849C362.329 90.2577 357.509 89.8143 352.09 89.1774C351.499 88.4577 350.461 87.1921 348.664 85.005C340.921 86.3186 332.145 86.3815 324.569 89.4537C315.428 93.1611 306.311 94.0081 296.875 94.1355C283.146 94.301 269.373 94.7708 255.687 94.0727C245.595 93.5433 235.533 91.7417 225.581 89.7283C219.129 88.4147 211.789 89.4752 205.358 87.8009C191.903 84.3052 162.645 83.4367 148.111 79.941C149.254 69.1147 148.428 58.3315 149.401 47.5466C150.713 32.9716 145.043 16.7008 129.939 16.001C119.573 17.844 112.845 24.5392 109.799 34.7302C107.896 41.0433 106.923 47.674 106.012 54.2204C104.869 62.441 106.33 70.7245 105.611 77.5041C82.6785 80.386 61.1848 81.7426 40.3255 86.1068C21.475 90.0476 2.77475 90.7672 -16.16 90.0046C-26.2932 89.6025 -36.4048 88.3088 -47.7439 87.3145C-57.8786 80.0684 -70.232 77.4627 -83.7302 80.0039C-84.2158 81.5937 -84.6817 83.2034 -85.1674 84.8131C-98.4541 84.4823 -99.4271 84.7933 -104 91.5961C-99.6848 93.9486 -95.7069 97.1482 -91.2004 98.2913C-82.7605 100.411 -74.0646 101.554 -65.4298 102.699C-56.9684 103.8 -48.0841 102.191 -40.2125 106.767C-37.0193 122.465 -26.0817 132.762 -14.4668 143.906H26.0063C38.9742 149.2 52.1535 154.605 65.4188 160.049C64.1484 183.184 62.9012 206.003 61.6325 228.99C64.0642 230.071 66.1803 231.024 66.4546 231.151C69.0779 237.438 71.0041 242.083 72.9286 246.702C74.8118 267.127 75.6147 287.896 75.7006 308.652C75.7634 321.321 74.7904 334.012 74.1973 346.681C73.1186 370.283 71.7442 393.862 70.9612 417.488C70.4738 431.493 70.8769 445.519 70.8769 460.006H189.917C188.564 427.019 187.231 394.709 185.953 363.524C188.852 360.197 190.86 357.909 191.199 357.507V304.283C187.583 304.812 185.087 305.171 182.444 305.553C180.969 302.775 178.686 300.511 175.897 299.062C173.108 297.613 169.945 297.047 166.828 297.439C165.143 297.65 163.448 297.862 161.733 298.074C159.131 295.235 156.911 292.82 154.689 290.384C155.049 289.896 155.429 289.41 155.789 288.943C158.242 290.341 160.697 291.756 162.009 292.523C165.845 293.055 169.225 293.516 172.431 293.969C174.331 294.234 176.16 294.871 177.814 295.844C179.468 296.817 180.915 298.107 182.07 299.641L183.334 301.316C187.058 300.044 190.697 298.795 194.463 297.523C192.151 253.159 189.808 208.562 187.481 163.987C215.448 152.017 261.419 146.932 290.17 144.834C301.805 135.809 306.755 122.885 310.182 108.965C317.354 108.965 324.018 109.263 330.666 108.903C342.279 108.289 353.724 106.658 363.965 100.535C366.418 99.0722 368.425 96.895 371.009 94.7295C369.084 92.865 368.217 91.2751 367.09 91.0849ZM146.107 245.236C145.959 245.215 145.81 245.193 145.683 245.172C145.663 245.131 145.641 245.088 145.62 245.046C145.769 245.109 145.937 245.172 146.107 245.236ZM135.677 66.5935C132.568 71.3399 130.113 75.0473 127.045 79.7292C121.693 73.7553 114.606 69.4721 115.029 60.2076C120.254 66.294 126.707 69.1991 135.677 66.5935ZM38.7859 121.064C43.5039 123.754 49.6591 124.475 52.1354 130.3C47.3117 127.632 42.4808 124.963 37.6428 122.293C28.6528 117.907 19.5769 113.649 13.4415 105.253C21.904 110.511 30.3521 115.781 38.7859 121.064ZM12.5527 104.37C9.88811 102.568 7.2004 100.788 4.53579 98.9878C8.47076 98.9233 10.9883 100.958 12.5527 104.37ZM-27.7055 125.491C-32.0849 119.474 -34.4505 113.007 -38.5126 106.796C-39.9697 103.877 -38.6002 102.861 -37.9229 100.841C-29.6516 112.218 -22.9248 124.801 -11.67 133.89C-10.3583 134.951 -10.5698 137.895 -9.63808 141.815C-18.5455 137.378 -23.3262 131.551 -27.7055 125.491ZM65.3147 152.788C64.3632 153.021 63.5587 153.529 63.1143 153.296C42.5094 142.321 21.8616 131.369 1.36238 120.161C-1.55829 118.551 -3.8215 115.712 -6.38039 113.445C-9.18872 111.411 -11.9871 109.356 -14.8054 107.324C-10.1931 106.391 -8.39577 110.248 -5.8848 112.896C-5.20749 113.022 -4.36168 112.896 -3.85453 113.255C16.7306 128.298 39.9224 137.535 64.943 143.658C65.2189 145.459 65.6038 147.112 65.6831 148.786C65.7591 150.131 65.4419 151.494 65.3147 152.78V152.788ZM42.9753 105.172C45.1972 106.274 47.4604 107.291 49.555 108.605C63.709 117.523 77.0156 128.292 94.1712 130.977C101.407 132.1 108.854 132.079 116.195 132.228C125.502 132.418 134.79 132.269 144.113 134.282C128.078 135.275 112.021 136.268 95.0963 137.333V206H94.0209C92.9619 183.181 91.9047 160.339 90.8045 136.952C88.4141 135.555 85.8337 134.029 82.5546 132.123C81.6031 148.139 80.6929 163.33 79.7826 178.52L78.3867 178.457V130.3C65.6749 122.568 52.1354 116.89 42.9753 105.172ZM139.339 235.573C138.746 235.087 138.133 234.599 137.522 234.132C120.47 221.316 109.273 204.85 106.085 183.455C107.44 185.171 109.112 186.739 109.957 188.667C116.537 203.816 125.611 217.311 136.275 229.832C137.142 230.825 137.543 232.248 138.158 233.456C138.554 234.155 138.954 234.875 139.337 235.575L139.339 235.573ZM78.0514 185.914L77.7342 192.841C77.5363 192.837 77.3383 192.845 77.1411 192.862C77.0354 190.531 76.9296 188.23 76.8107 185.914H78.0514ZM184.823 315.043C184.823 315.064 184.823 315.064 184.801 315.064L184.611 314.451L184.823 315.043ZM160.578 325.806C174.181 330.721 186.261 339.868 188.292 356.568C188.356 357.14 187.72 357.797 186.939 359.365C185.88 357.097 184.674 355.509 184.378 353.772C182.961 345.128 178.327 339.026 170.373 335.488C163.139 332.268 156.178 328.602 148.668 325.763C127.357 317.776 107.415 306.759 88.7131 293.668C87.3602 292.884 86.0056 292.121 84.6526 291.337C83.6994 291.126 82.7479 290.892 81.7964 290.676C81.8591 290.358 81.9235 290.04 81.9863 289.723C83.065 290.019 84.1438 290.315 85.244 290.591C86.5557 291.418 87.8872 292.265 89.2087 293.091C94.8353 295.761 100.485 298.345 106.069 301.121C123.921 310.023 141.642 318.985 160.577 325.808L160.578 325.806ZM161.467 287.14C159.055 227.184 156.643 167.241 154.232 107.309C159.709 167.143 163.793 227.015 161.465 287.142L161.467 287.14ZM227.004 103.415C220.784 112.229 195.631 124.389 185.9 127.759C185.455 127.059 185.011 126.34 184.567 125.64C193.071 120.343 218.499 108.712 227.004 103.415ZM179.193 171.906H178.791V160.809H179.193V171.906ZM185.878 296.332C181.902 288.536 178.496 199.321 181.266 183.515C182.452 221.144 186.555 258.647 185.878 296.337V296.332ZM185.35 150.932C189.645 142.627 213.486 135.867 218.352 132.605C223.493 129.174 229.036 126.335 234.409 123.241C236.906 121.737 239.402 120.212 241.898 118.706C239.719 120.571 237.54 122.414 235.382 124.278C226.54 133.225 198.889 145.279 185.35 150.937V150.932ZM260.494 127.771C257.215 130.272 253.597 132.305 249.619 134.868C251.418 135.568 252.581 136.034 253.703 136.479C246.784 138.979 239.991 141.881 232.949 143.894C224.029 146.437 197.979 154.593 188.946 156.712C188.756 156.034 188.566 155.377 188.354 154.699C189.772 154.127 191.146 153.491 192.585 153.005C213.253 146.033 249.662 130.186 268.342 118.979C269.568 118.238 271.091 118.025 272.53 117.687C268.532 121.085 264.64 124.601 260.494 127.779V127.771ZM286.874 141.337C289.858 126.189 302.403 119.388 305.639 107.333C306.549 120.703 301.069 130.957 286.874 141.338V141.337Z" />
      </mask>
      <path
        d="M367.09 91.0849C362.329 90.2577 357.509 89.8143 352.09 89.1774C351.499 88.4577 350.461 87.1921 348.664 85.005C340.921 86.3186 332.145 86.3815 324.569 89.4537C315.428 93.1611 306.311 94.0081 296.875 94.1355C283.146 94.301 269.373 94.7708 255.687 94.0727C245.595 93.5433 235.533 91.7417 225.581 89.7283C219.129 88.4147 211.789 89.4752 205.358 87.8009C191.903 84.3052 162.645 83.4367 148.111 79.941C149.254 69.1147 148.428 58.3315 149.401 47.5466C150.713 32.9716 145.043 16.7008 129.939 16.001C119.573 17.844 112.845 24.5392 109.799 34.7302C107.896 41.0433 106.923 47.674 106.012 54.2204C104.869 62.441 106.33 70.7245 105.611 77.5041C82.6785 80.386 61.1848 81.7426 40.3255 86.1068C21.475 90.0476 2.77475 90.7672 -16.16 90.0046C-26.2932 89.6025 -36.4048 88.3088 -47.7439 87.3145C-57.8786 80.0684 -70.232 77.4627 -83.7302 80.0039C-84.2158 81.5937 -84.6817 83.2034 -85.1674 84.8131C-98.4541 84.4823 -99.4271 84.7933 -104 91.5961C-99.6848 93.9486 -95.7069 97.1482 -91.2004 98.2913C-82.7605 100.411 -74.0646 101.554 -65.4298 102.699C-56.9684 103.8 -48.0841 102.191 -40.2125 106.767C-37.0193 122.465 -26.0817 132.762 -14.4668 143.906H26.0063C38.9742 149.2 52.1535 154.605 65.4188 160.049C64.1484 183.184 62.9012 206.003 61.6325 228.99C64.0642 230.071 66.1803 231.024 66.4546 231.151C69.0779 237.438 71.0041 242.083 72.9286 246.702C74.8118 267.127 75.6147 287.896 75.7006 308.652C75.7634 321.321 74.7904 334.012 74.1973 346.681C73.1186 370.283 71.7442 393.862 70.9612 417.488C70.4738 431.493 70.8769 445.519 70.8769 460.006H189.917C188.564 427.019 187.231 394.709 185.953 363.524C188.852 360.197 190.86 357.909 191.199 357.507V304.283C187.583 304.812 185.087 305.171 182.444 305.553C180.969 302.775 178.686 300.511 175.897 299.062C173.108 297.613 169.945 297.047 166.828 297.439C165.143 297.65 163.448 297.862 161.733 298.074C159.131 295.235 156.911 292.82 154.689 290.384C155.049 289.896 155.429 289.41 155.789 288.943C158.242 290.341 160.697 291.756 162.009 292.523C165.845 293.055 169.225 293.516 172.431 293.969C174.331 294.234 176.16 294.871 177.814 295.844C179.468 296.817 180.915 298.107 182.07 299.641L183.334 301.316C187.058 300.044 190.697 298.795 194.463 297.523C192.151 253.159 189.808 208.562 187.481 163.987C215.448 152.017 261.419 146.932 290.17 144.834C301.805 135.809 306.755 122.885 310.182 108.965C317.354 108.965 324.018 109.263 330.666 108.903C342.279 108.289 353.724 106.658 363.965 100.535C366.418 99.0722 368.425 96.895 371.009 94.7295C369.084 92.865 368.217 91.2751 367.09 91.0849ZM146.107 245.236C145.959 245.215 145.81 245.193 145.683 245.172C145.663 245.131 145.641 245.088 145.62 245.046C145.769 245.109 145.937 245.172 146.107 245.236ZM135.677 66.5935C132.568 71.3399 130.113 75.0473 127.045 79.7292C121.693 73.7553 114.606 69.4721 115.029 60.2076C120.254 66.294 126.707 69.1991 135.677 66.5935ZM38.7859 121.064C43.5039 123.754 49.6591 124.475 52.1354 130.3C47.3117 127.632 42.4808 124.963 37.6428 122.293C28.6528 117.907 19.5769 113.649 13.4415 105.253C21.904 110.511 30.3521 115.781 38.7859 121.064ZM12.5527 104.37C9.88811 102.568 7.2004 100.788 4.53579 98.9878C8.47076 98.9233 10.9883 100.958 12.5527 104.37ZM-27.7055 125.491C-32.0849 119.474 -34.4505 113.007 -38.5126 106.796C-39.9697 103.877 -38.6002 102.861 -37.9229 100.841C-29.6516 112.218 -22.9248 124.801 -11.67 133.89C-10.3583 134.951 -10.5698 137.895 -9.63808 141.815C-18.5455 137.378 -23.3262 131.551 -27.7055 125.491ZM65.3147 152.788C64.3632 153.021 63.5587 153.529 63.1143 153.296C42.5094 142.321 21.8616 131.369 1.36238 120.161C-1.55829 118.551 -3.8215 115.712 -6.38039 113.445C-9.18872 111.411 -11.9871 109.356 -14.8054 107.324C-10.1931 106.391 -8.39577 110.248 -5.8848 112.896C-5.20749 113.022 -4.36168 112.896 -3.85453 113.255C16.7306 128.298 39.9224 137.535 64.943 143.658C65.2189 145.459 65.6038 147.112 65.6831 148.786C65.7591 150.131 65.4419 151.494 65.3147 152.78V152.788ZM42.9753 105.172C45.1972 106.274 47.4604 107.291 49.555 108.605C63.709 117.523 77.0156 128.292 94.1712 130.977C101.407 132.1 108.854 132.079 116.195 132.228C125.502 132.418 134.79 132.269 144.113 134.282C128.078 135.275 112.021 136.268 95.0963 137.333V206H94.0209C92.9619 183.181 91.9047 160.339 90.8045 136.952C88.4141 135.555 85.8337 134.029 82.5546 132.123C81.6031 148.139 80.6929 163.33 79.7826 178.52L78.3867 178.457V130.3C65.6749 122.568 52.1354 116.89 42.9753 105.172ZM139.339 235.573C138.746 235.087 138.133 234.599 137.522 234.132C120.47 221.316 109.273 204.85 106.085 183.455C107.44 185.171 109.112 186.739 109.957 188.667C116.537 203.816 125.611 217.311 136.275 229.832C137.142 230.825 137.543 232.248 138.158 233.456C138.554 234.155 138.954 234.875 139.337 235.575L139.339 235.573ZM78.0514 185.914L77.7342 192.841C77.5363 192.837 77.3383 192.845 77.1411 192.862C77.0354 190.531 76.9296 188.23 76.8107 185.914H78.0514ZM184.823 315.043C184.823 315.064 184.823 315.064 184.801 315.064L184.611 314.451L184.823 315.043ZM160.578 325.806C174.181 330.721 186.261 339.868 188.292 356.568C188.356 357.14 187.72 357.797 186.939 359.365C185.88 357.097 184.674 355.509 184.378 353.772C182.961 345.128 178.327 339.026 170.373 335.488C163.139 332.268 156.178 328.602 148.668 325.763C127.357 317.776 107.415 306.759 88.7131 293.668C87.3602 292.884 86.0056 292.121 84.6526 291.337C83.6994 291.126 82.7479 290.892 81.7964 290.676C81.8591 290.358 81.9235 290.04 81.9863 289.723C83.065 290.019 84.1438 290.315 85.244 290.591C86.5557 291.418 87.8872 292.265 89.2087 293.091C94.8353 295.761 100.485 298.345 106.069 301.121C123.921 310.023 141.642 318.985 160.577 325.808L160.578 325.806ZM161.467 287.14C159.055 227.184 156.643 167.241 154.232 107.309C159.709 167.143 163.793 227.015 161.465 287.142L161.467 287.14ZM227.004 103.415C220.784 112.229 195.631 124.389 185.9 127.759C185.455 127.059 185.011 126.34 184.567 125.64C193.071 120.343 218.499 108.712 227.004 103.415ZM179.193 171.906H178.791V160.809H179.193V171.906ZM185.878 296.332C181.902 288.536 178.496 199.321 181.266 183.515C182.452 221.144 186.555 258.647 185.878 296.337V296.332ZM185.35 150.932C189.645 142.627 213.486 135.867 218.352 132.605C223.493 129.174 229.036 126.335 234.409 123.241C236.906 121.737 239.402 120.212 241.898 118.706C239.719 120.571 237.54 122.414 235.382 124.278C226.54 133.225 198.889 145.279 185.35 150.937V150.932ZM260.494 127.771C257.215 130.272 253.597 132.305 249.619 134.868C251.418 135.568 252.581 136.034 253.703 136.479C246.784 138.979 239.991 141.881 232.949 143.894C224.029 146.437 197.979 154.593 188.946 156.712C188.756 156.034 188.566 155.377 188.354 154.699C189.772 154.127 191.146 153.491 192.585 153.005C213.253 146.033 249.662 130.186 268.342 118.979C269.568 118.238 271.091 118.025 272.53 117.687C268.532 121.085 264.64 124.601 260.494 127.779V127.771ZM286.874 141.337C289.858 126.189 302.403 119.388 305.639 107.333C306.549 120.703 301.069 130.957 286.874 141.338V141.337Z"
        stroke="#FFA5A5" stroke-opacity="0.53" stroke-width="1.2" mask="url(#path-1-inside-1_85_302)" />
    </g>
  </g>
  <defs>
    <clipPath id="clip0_85_302">
      <rect width="248" height="264" fill="white" transform="translate(0.000244141 0.000640869)" />
    </clipPath>
  </defs>
</svg>