<svg width="111" height="15" viewBox="0 0 111 15" fill="none" xmlns="http://www.w3.org/2000/svg">
  <path d="M110.086 15V0.00985753H108.685V15H110.086Z" fill="white" />
  <path d="M90.5911 15V0.00985753H89.1899V15H90.5911Z" fill="white" />
  <path d="M4.20345 15V0.00985753H2.80225V15H4.20345Z" fill="white" />
  <path d="M6.03121 15V0.00985753H4.63V15H6.03121Z" fill="white" />
  <path d="M73.8374 15V0.00985753H72.4362V15H73.8374Z" fill="white" />
  <path d="M8.83382 15V0.00934414H7.43262V15H8.83382Z" fill="white" />
  <path d="M75.726 15V0.00985753H74.3248V15H75.726Z" fill="white" />
  <path d="M80.3563 15V0.00985753H78.9551V15H80.3563Z" fill="white" />
  <path d="M51.5398 15V0.00960238H50.1385V15H51.5398Z" fill="white" />
  <path d="M14.3774 15V0.00985753H12.9762V15H14.3774Z" fill="white" />
  <path d="M53.4284 15V0.00985753H52.0272V15H53.4284Z" fill="white" />
  <path d="M17.1801 15V0.00985753H15.7789V15H17.1801Z" fill="white" />
  <path d="M72.0097 15V0.00960238H70.6085V15H72.0097Z" fill="white" />
  <path d="M57.1449 15V0.00985753H55.7437V15H57.1449Z" fill="white" />
  <path d="M21.8101 15V0.00960238H20.4089V15H21.8101Z" fill="white" />
  <path d="M23.6986 15V0.00985753H22.2974V15H23.6986Z" fill="white" />
  <path d="M84.0722 15V0.00985753H82.671V15H84.0722Z" fill="white" />
  <path d="M87.7884 15V0.00934414H86.3872V15H87.7884Z" fill="white" />
  <path d="M96.1347 15V0.00985753H94.7335V15H96.1347Z" fill="white" />
  <path d="M29.2425 15V0.00960238H27.8413V15H29.2425Z" fill="white" />
  <path d="M61.7746 15V0.00960238H60.3734V15H61.7746Z" fill="white" />
  <path d="M32.045 15V0.00960238H30.6438V15H32.045Z" fill="white" />
  <path d="M64.5772 15V0.00985753H63.176V15H64.5772Z" fill="white" />
  <path d="M100.765 15V0.00960238H99.364V15H100.765Z" fill="white" />
  <path d="M36.6749 15V0.00985753H35.2737V15H36.6749Z" fill="white" />
  <path d="M38.5634 15V0.00934414H37.1622V15H38.5634Z" fill="white" />
  <path d="M40.3912 15V0.00985753H38.99V15H40.3912Z" fill="white" />
  <path d="M102.653 15V0.00985753H101.252V15H102.653Z" fill="white" />
  <path d="M108.197 15V0.00960238H106.796V15H108.197Z" fill="white" />
  <path d="M48.7376 15V0.00960238H47.3973V15H48.7376Z" fill="white" />
  <path d="M0.487376 15V1.6015e-05H0V15H0.487376Z" fill="white" />
  <path d="M2.31489 15V0.00985753H1.82751V15H2.31489Z" fill="white" />
  <path d="M65.4913 15V0.00985753H65.0039V15H65.4913Z" fill="white" />
  <path d="M9.74763 15V0.00934414H9.26025V15H9.74763Z" fill="white" />
  <path d="M81.2698 15V0.00985753H80.7825V15H81.2698Z" fill="white" />
  <path d="M12.5499 15V0.00985753H12.0625V15H12.5499Z" fill="white" />
  <path d="M15.3524 15V0.0101179H14.865V15H15.3524Z" fill="white" />
  <path d="M94.3073 15V0.0101179H93.8199V15H94.3073Z" fill="white" />
  <path d="M19.9825 15V0.00934414H19.4951V15H19.9825Z" fill="white" />
  <path d="M24.6125 15V0.0101179H24.1251V15H24.6125Z" fill="white" />
  <path d="M26.501 15V0.00985753H26.0137V15H26.501Z" fill="white" />
  <path d="M27.4147 15V0.0101179H26.9274V15H27.4147Z" fill="white" />
  <path d="M30.2171 15V0.00934414H29.7297V15H30.2171Z" fill="white" />
  <path d="M33.9334 15V0.00985753H33.446V15H33.9334Z" fill="white" />
  <path d="M34.8474 15V0.0101179H34.36V15H34.8474Z" fill="white" />
  <path d="M42.2796 15V0.00985753H41.7922V15H42.2796Z" fill="white" />
  <path d="M43.1937 15V0.00985753H42.7063V15H43.1937Z" fill="white" />
  <path d="M68.2935 15V0.00960238H67.8062V15H68.2935Z" fill="white" />
  <path d="M88.7022 15V0.00934414H88.2148V15H88.7022Z" fill="white" />
  <path d="M45.9959 15V0.00985753H45.5085V15H45.9959Z" fill="white" />
  <path d="M49.7124 15V0.00934414H49.225V15H49.7124Z" fill="white" />
  <path d="M58.0587 15V0.00960238H57.5713V15H58.0587Z" fill="white" />
  <path d="M54.3424 15V0.0101179H53.855V15H54.3424Z" fill="white" />
  <path d="M91.5047 15V0.00985753H91.0173V15H91.5047Z" fill="white" />
  <path d="M98.0235 15V0.00960238H97.5361V15H98.0235Z" fill="white" />
  <path d="M103.567 15V0.0101179H103.08V15H103.567Z" fill="white" />
  <path d="M106.37 15V0.0101179H105.882V15H106.37Z" fill="white" />
  <path d="M111 1.6015e-05H110.513V15H111V1.6015e-05Z" fill="white" />
  <path d="M76.6398 15V0.0101179H76.1525V15H76.6398Z" fill="white" />
  <path d="M58.9725 15V0.00960238H58.546V15H58.9725Z" fill="white" />
  <path d="M59.8863 15V0.00985753H59.4598V15H59.8863Z" fill="white" />
  <path d="M67.3189 15V0.00960238H66.8925V15H67.3189Z" fill="white" />
  <path d="M93.3323 15V0.0101179H92.9059V15H93.3323Z" fill="white" />
  <path d="M66.405 15V0.0101179H65.9785V15H66.405Z" fill="white" />
  <path d="M97.0486 15V0.00960238H96.6222V15H97.0486Z" fill="white" />
  <path d="M6.94513 15V0.0101179H6.51868V15H6.94513Z" fill="white" />
  <path d="M82.1839 15V0.00985753H81.7574V15H82.1839Z" fill="white" />
  <path d="M78.4675 15V0.00985753H78.041V15H78.4675Z" fill="white" />
  <path d="M10.6613 15V0.00985753H10.2349V15H10.6613Z" fill="white" />
  <path d="M104.481 15V0.0101179H104.055V15H104.481Z" fill="white" />
  <path d="M18.0939 15V0.00960238H17.6675V15H18.0939Z" fill="white" />
  <path d="M85.9001 15V0.0101179H85.4736V15H85.9001Z" fill="white" />
  <path d="M70.1212 15V0.00985753H69.6947V15H70.1212Z" fill="white" />
  <path d="M44.1074 15V0.0101179H43.6809V15H44.1074Z" fill="white" />
  <path d="M45.0214 15V0.0101179H44.595V15H45.0214Z" fill="white" />
</svg>