<svg width="66" height="60" viewBox="0 0 66 60" fill="none" xmlns="http://www.w3.org/2000/svg">
  <path fill-rule="evenodd" clip-rule="evenodd"
    d="M30.3805 36.8973C30.3917 36.9917 30.2996 37.4944 30.2834 37.6476C30.2564 37.9084 30.2239 38.1675 30.2065 38.4323C30.1677 39.0327 30.1498 39.508 30.1762 40.1193C30.198 40.6232 30.2553 41.1716 30.4686 41.5662C30.7099 42.0117 31.1483 42.1044 31.6035 41.7658C31.8943 41.5496 32.2125 41.1653 32.4264 40.8708C32.606 40.6232 32.9371 40.0816 33.0949 39.8025C33.3042 39.4319 33.5181 39.0665 33.7218 38.6925C34.0721 38.0508 34.305 37.6499 34.6777 37.05C35.1077 36.3574 35.3664 36.0475 35.8632 35.4373C36.0821 35.1685 36.5631 34.6589 36.8061 34.4284C37.6497 33.6284 38.5882 32.965 39.6782 32.5326C40.2586 32.3021 41.2083 32.1409 41.6854 32.6744C41.7954 32.7974 41.9554 33.0239 41.9919 33.2549C41.9554 33.2246 41.9341 33.172 41.9049 33.1291C41.8746 33.0845 41.8392 33.0382 41.81 33.005C41.7601 32.9484 41.6517 32.8666 41.5507 32.8277C40.8328 32.5543 39.6053 33.2481 39.0098 33.6324C38.65 33.8646 38.3188 34.0916 37.9916 34.3598C37.9079 34.4284 37.835 34.4885 37.753 34.5583C37.666 34.632 37.5947 34.6795 37.5195 34.7607L37.0806 35.1805C36.933 35.3343 36.8101 35.4664 36.6535 35.6277C36.5053 35.7804 35.9311 36.4821 35.8609 36.5856C35.7402 36.7629 35.6207 36.9116 35.4961 37.0963C34.6625 38.3379 34.0406 39.6893 33.16 40.8777C32.6846 41.5193 31.8898 42.4023 31.0012 42.0649C30.5977 41.9116 30.3473 41.5582 30.1442 41.1733C29.7002 40.3338 29.6788 39.1157 29.9297 38.1852C30.0712 37.6596 30.115 37.5098 30.3159 37.0345C30.3356 36.9877 30.3704 36.9265 30.3805 36.8979V36.8973ZM33.4951 56.3502C33.4951 55.8498 33.5203 55.3276 33.4878 54.8341C33.4586 54.3869 33.7347 54.4835 33.7853 54.6362C33.9009 54.9845 33.7875 56.3233 33.7432 56.6807C33.7331 56.7619 33.5899 57.8062 33.5602 57.8743C33.5265 57.7879 33.4951 56.5578 33.4951 56.3502ZM27.1104 49.0105C27.0419 49.1289 26.9549 49.7689 26.9375 49.9513C26.7815 51.5743 27.244 52.9629 28.2184 54.181L28.4715 54.491C28.5304 54.5539 28.5551 54.5928 28.6023 54.6414C28.6584 54.6986 28.6826 54.7226 28.7314 54.7775C28.9733 55.0508 29.1686 55.2207 29.4134 55.4695L31.278 57.1943C31.3768 57.2869 31.4615 57.3659 31.5575 57.4608L31.9684 57.8926C32.0194 57.94 32.0447 57.9864 32.0907 58.0367L32.3523 58.3369C32.6441 58.6761 33.0292 59.2417 33.2532 59.6414C33.3177 59.7564 33.3727 59.8822 33.4423 60C33.4939 59.9377 33.5899 59.7221 33.6354 59.6414C33.8201 59.312 34.0743 58.93 34.2949 58.6435L34.607 58.2517L37.3253 55.601C37.867 55.0915 38.2009 54.7689 38.6702 54.1816C39.3813 53.2917 39.8657 52.2663 39.9595 51.0379C40.0027 50.4717 39.9645 49.535 39.7866 49.0288L39.2517 49.5578C39.2186 49.5893 39.1961 49.6099 39.1613 49.6396L38.339 50.4094C38.2963 50.4534 38.2907 50.4603 38.2408 50.4986C38.1981 50.5318 38.1897 50.5501 38.1538 50.5827L37.3023 51.3227C37.2653 51.357 37.2495 51.3696 37.2114 51.4033C36.6186 51.9175 35.8637 52.4979 35.2362 52.9674L33.9957 53.847C33.9441 53.8745 33.5046 53.9837 33.4412 53.9785C33.0197 53.9419 32.7755 53.7618 32.4707 53.5359C32.3293 53.4313 32.1867 53.3357 32.0514 53.238L30.8418 52.3275C30.4209 52.001 30.0723 51.7019 29.6738 51.3747C29.4274 51.1723 29.1613 50.9166 28.9228 50.7216C28.7325 50.5666 28.3985 50.2321 28.1808 50.0439L27.1109 49.0111L27.1104 49.0105ZM46.4637 18.5516C46.4435 18.5213 46.4424 18.5687 46.4513 18.4893L46.5086 18.3097C46.5333 18.2296 46.5563 18.1467 46.581 18.0695C46.6326 17.9111 46.6792 17.763 46.7314 17.6091C46.8325 17.3129 46.9548 17.0161 47.0676 16.7215C47.2978 16.1216 47.9096 14.8148 48.2239 14.1806C48.454 13.7168 48.8116 13.0002 49.081 12.5959C49.1753 12.4541 49.4913 11.9514 49.672 11.9766C49.6973 12.589 47.8265 16.1439 47.3466 16.9898C47.1384 17.3558 46.8555 17.7915 46.6731 18.1473C46.6102 18.2702 46.503 18.4372 46.4631 18.5516H46.4637ZM47.3719 23.1805C47.428 23.1376 47.4673 23.0701 47.5178 23.0101L47.9388 22.5097C48.0319 22.393 48.1375 22.294 48.234 22.1802C48.6426 21.697 49.3134 21.0931 49.7843 20.6556C49.9948 20.46 50.3804 20.1495 50.6285 19.955L51.5075 19.291C51.7567 19.1075 51.7836 19.1492 51.7976 18.9702C51.966 16.809 51.7842 15.0814 51.7466 12.9499C51.7224 11.594 51.7808 10.6686 51.8639 9.35843L51.9183 8.4903C51.9251 8.38507 51.9441 8.33532 51.9492 8.22151C51.8409 8.23238 51.4581 8.39651 51.3329 8.44512C51.1314 8.5229 50.9265 8.60068 50.7261 8.67788C50.3248 8.83172 49.9263 8.97984 49.5328 9.14855C48.875 9.43049 47.9652 9.95663 47.3898 10.3535C47.0244 10.6057 46.4143 11.0575 46.0736 11.3606C45.867 11.5442 45.6133 11.7638 45.4247 11.96L45.1082 12.2676C44.7849 12.5976 44.2202 13.2364 43.957 13.6162C43.6774 14.0188 43.6937 13.8947 43.8127 14.1349C44.1972 14.9086 44.5334 15.6292 44.8943 16.4207C45.4949 17.7366 46.0944 19.2584 46.5703 20.6224C46.7146 21.0359 46.8538 21.4648 46.9846 21.8869L47.3719 23.1822V23.1805ZM19.7519 19.4866L19.4583 18.571C19.3511 18.2639 19.2618 17.9597 19.1659 17.6394C18.9767 17.0075 18.8224 16.3475 18.6405 15.7173C18.5473 15.3942 18.4491 15.0945 18.3548 14.7788L17.7834 12.9024C17.7149 12.676 17.5269 12.0926 17.7048 11.9085C17.7531 11.8582 17.835 11.8284 17.9091 11.8753C18.0017 11.9337 18.1466 12.3975 18.1853 12.5096C18.2886 12.8098 18.3986 13.106 18.5024 13.4154C18.9346 14.7062 19.2899 15.9792 19.4723 17.3455C19.5212 17.7098 19.552 18.0804 19.5936 18.4498C19.6138 18.6305 19.6379 18.8152 19.6665 18.9897C19.6811 19.0777 19.689 19.1669 19.7064 19.2436C19.7215 19.3116 19.7709 19.4277 19.7519 19.4861V19.4866ZM19.2068 24.5828C19.5694 22.8791 20.2727 20.7414 20.8952 19.1292C21.5575 17.4135 22.3181 15.7304 23.0809 14.1858C23.1218 14.1023 23.3716 13.6613 23.361 13.6019C23.3525 13.5527 23.0298 13.1672 22.9737 13.0992C22.9535 13.0752 22.9462 13.0597 22.9265 13.0363L22.5639 12.6176C22.528 12.5765 22.491 12.5502 22.4545 12.509C22.226 12.2499 22.1306 12.175 21.9038 11.9502C21.8617 11.9085 21.8415 11.8776 21.7978 11.8382C21.754 11.7993 21.7119 11.769 21.6726 11.7289L21.4458 11.519C21.0075 11.1599 20.7117 10.8825 20.2037 10.5308C18.5249 9.36815 17.8457 9.14454 16.0597 8.46571C15.8593 8.38965 15.6151 8.27813 15.417 8.22266C15.4086 8.70819 15.5186 10.0539 15.5534 10.6326C15.6033 11.4664 15.6039 12.3025 15.5871 13.1386C15.5377 15.5978 15.28 17.9797 15.7313 20.4154C15.7487 20.5103 15.8082 20.8683 15.8397 20.9335L16.177 21.2366C16.4139 21.4391 16.6182 21.6444 16.8432 21.8497C17.3686 22.3284 18.2235 23.2931 18.6545 23.849C18.7494 23.9708 18.8358 24.0852 18.9301 24.2145C18.9773 24.2791 19.0104 24.3283 19.0626 24.3946C19.1131 24.4598 19.1496 24.5301 19.2057 24.5828H19.2068ZM0.960943 47.0364C1.05243 47.0718 1.61709 47.1319 1.76752 47.157C3.63662 47.467 5.11843 47.8896 6.92242 48.4901C7.84686 48.7978 8.71574 49.1775 9.57676 49.5527C10.4333 49.9256 11.2494 50.3728 12.0285 50.8057C13.0063 51.3484 13.3964 51.5955 14.5352 52.0175C16.5603 52.7679 18.7926 53.0692 20.9547 52.6947C22.9321 52.3521 24.5705 51.5829 26.1191 50.4391C26.278 50.3219 26.2684 50.3716 26.2814 50.128C26.3032 49.718 26.3661 49.289 26.461 48.8973C26.5581 48.4958 26.6344 48.4838 26.5154 48.3843C26.4699 48.3466 26.4396 48.3008 26.3981 48.2671C26.3465 48.2253 25.7773 48.1138 25.6606 48.0869C22.8502 47.443 19.9898 46.4588 17.5095 45.1108C16.3229 44.4663 15.1481 43.7669 14.0693 42.9576L13.0192 42.153C12.665 41.8739 12.3445 41.5914 12.0133 41.3026C11.8865 41.1916 11.1618 40.5357 11.0603 40.4001C10.9328 40.4133 10.4339 40.6346 10.2918 40.6952C9.08732 41.2122 7.97147 41.7955 6.86236 42.4801C5.21721 43.4958 3.56477 44.7151 2.10822 45.9732C2.08184 45.9961 2.07062 46.011 2.04367 46.0333L1.21128 46.7767C1.16694 46.8156 0.972169 46.994 0.961504 47.0369L0.960943 47.0364ZM65.9383 47.0426C65.9023 46.9672 65.3309 46.4622 65.2288 46.3678C65.1974 46.3386 65.1749 46.3272 65.1435 46.2963C64.7253 45.8914 63.7981 45.1548 63.3507 44.798C63.1268 44.619 62.8983 44.4503 62.662 44.2701C62.2438 43.951 61.7028 43.5724 61.2588 43.2727C59.2376 41.9059 57.2124 40.8125 54.8595 40.0541C54.7349 40.0141 54.7265 39.9827 54.6462 40.0593C54.379 40.3121 53.8172 40.8376 53.5377 41.0578C53.4243 41.147 53.3232 41.2477 53.2071 41.3352C53.0931 41.4215 52.9926 41.513 52.8781 41.5994C52.8097 41.6509 52.7715 41.6846 52.7036 41.7372L52.1995 42.1221C49.1433 44.4234 45.3984 46.1797 41.6102 47.1393C41.471 47.1748 41.5036 47.1868 41.4244 47.2651L40.7054 48.0606C40.6072 48.1653 40.5269 48.2768 40.4192 48.3683C40.3467 48.4301 40.3013 48.4518 40.3344 48.5639C40.3574 48.6428 40.3793 48.7149 40.4012 48.7966C40.4882 49.1203 40.5499 49.4881 40.583 49.826C40.6397 50.4019 40.5314 50.2693 40.8317 50.4854C41.7808 51.1683 42.5936 51.6492 43.7268 52.0902C44.9482 52.5648 46.3211 52.8371 47.758 52.8536C49.2516 52.8702 50.5684 52.5969 51.8818 52.184C52.4639 52.0009 53.0751 51.7407 53.5971 51.4885C54.2488 51.1734 54.585 50.9395 55.1486 50.6433C55.679 50.3642 56.1796 50.08 56.7381 49.8203C57.9404 49.261 58.8828 48.8641 60.1508 48.4278C61.6427 47.9142 64.3998 47.1633 65.9377 47.0438L65.9383 47.0426ZM48.463 33.1297C48.5607 33.041 48.6634 32.9307 48.7459 32.8346L49.1635 32.3776C49.342 32.1729 49.5699 31.9504 49.7169 31.7754L51.5265 29.8373C51.5782 29.7875 51.6186 29.7344 51.6702 29.6846C52.1176 29.2523 52.5251 28.8079 52.9623 28.3847L54.3992 26.9332C54.6541 26.6713 55.7272 25.6859 55.8698 25.5161C55.954 25.416 56.0708 25.3302 56.1667 25.2353L57.0311 24.3672C57.1479 24.2471 57.5385 23.7878 57.7041 23.98C57.8759 24.179 57.4605 24.6382 57.3836 24.7417C57.2455 24.9276 56.737 25.4692 56.5613 25.6533C56.4754 25.7431 56.3626 25.8455 56.2711 25.9404L55.7009 26.5255C55.5044 26.7131 55.3141 26.9086 55.1166 27.0962L54.5356 27.6698C54.3274 27.89 53.8649 28.3035 53.6606 28.5271L52.7704 29.3689C52.6677 29.4587 52.5739 29.5548 52.4712 29.6474L51.5546 30.4624C51.4519 30.5436 51.3441 30.6408 51.2476 30.7329L50.3147 31.5318C50.2058 31.6176 50.1132 31.7142 50.0049 31.7995L48.463 33.1285V33.1297ZM42.327 46.1997C42.5206 46.1631 42.7777 46.0659 42.9736 46.0058C44.1113 45.6552 46.1561 44.8706 47.1799 44.3347C47.552 44.1403 47.9304 43.9596 48.2935 43.7669C49.4705 43.1412 50.322 42.5773 51.3997 41.8259C52.0811 41.3512 52.8658 40.6947 53.4995 40.1359L53.8368 39.8334C53.999 39.6961 54.4144 39.2746 54.58 39.1094L54.9993 38.6856C55.0677 38.6095 55.1283 38.5352 55.1991 38.4631C55.4909 38.164 55.9085 37.6653 56.1808 37.3365C57.8383 35.3337 59.237 32.8923 60.3124 30.483C61.0034 28.9354 61.6433 27.2747 62.2141 25.6127C62.502 24.7738 62.7905 23.9325 63.0886 23.1004C63.3872 22.2672 63.6718 21.4322 63.9872 20.6121C64.4952 19.2905 65.1525 17.7515 65.7446 16.4459C65.8103 16.3012 65.9663 15.9844 66 15.8448C65.4297 15.8517 64.8639 15.8677 64.2937 15.8797C63.7436 15.8917 63.1565 15.8877 62.6177 15.9352C58.0981 16.3361 53.3968 18.2874 50.0481 21.3802L49.2673 22.1299C49.1905 22.2065 49.1293 22.2769 49.0529 22.353C49.0108 22.3947 48.9805 22.4159 48.9412 22.4593L47.8361 23.7449C47.5447 24.1167 47.579 24.0132 47.6514 24.3123C48.2048 26.6124 48.5674 28.8731 48.4675 31.3568C48.3906 33.2789 47.9455 35.4641 47.3618 37.2553C47.1266 37.9782 46.7034 39.1145 46.3756 39.7802C46.2785 39.9775 46.1898 40.1748 46.0932 40.3755C45.2861 42.0489 44.1792 43.7611 43.083 45.2195L42.327 46.2003V46.1997ZM10.0353 27.2586C9.84281 27.0911 9.25009 26.4849 9.03848 26.2733C8.8729 26.108 8.71799 25.9313 8.55072 25.7614C8.43229 25.6408 8.11685 25.3382 8.27906 25.1546C8.44688 24.9654 8.83642 25.3091 8.93689 25.3834L9.4617 25.8415L12.4624 28.7884C12.986 29.3563 13.3526 29.7143 13.8864 30.348L15.7442 32.4577C15.8453 32.5812 16.1714 32.9003 16.214 32.9918C16.1186 32.9604 15.6758 32.5029 15.5483 32.3896C15.3373 32.2021 15.1156 31.971 14.909 31.7955L13.622 30.6013C13.3127 30.3274 12.9226 29.9225 12.6016 29.64L12.0925 29.1653C12.0476 29.1167 12.0105 29.0904 11.9617 29.0464C11.8129 28.9125 11.4526 28.5402 11.3252 28.4339C11.1119 28.256 10.7544 27.8952 10.5512 27.7253L10.2902 27.4868C10.2464 27.4416 10.2032 27.4159 10.1577 27.369C10.1027 27.313 10.0853 27.3015 10.0348 27.2575L10.0353 27.2586ZM1.74001 16.4573C1.16189 16.439 0.575897 16.4253 1.21853e-05 16.419C-0.00391685 16.5036 0.943543 18.6277 1.06141 18.8947C1.74563 20.444 2.46464 22.4044 3.00966 24.0332C3.30433 24.9145 3.61922 25.7923 3.92288 26.6639C5.48495 31.1469 7.23057 34.8951 10.0264 38.2367L11.287 39.6321C11.3768 39.7127 11.4285 39.7791 11.5037 39.8523L12.0683 40.3956C12.1071 40.435 12.1452 40.459 12.1856 40.4974C13.3251 41.5742 14.3752 42.3228 15.6516 43.191C15.9996 43.4277 16.3695 43.6376 16.7388 43.8641C17.7368 44.4766 19.1748 45.1566 20.2536 45.6255C21.0574 45.9749 21.9459 46.3021 22.8143 46.5783C23.174 46.6927 25.17 47.2943 25.5494 47.336C25.5107 47.2685 25.3973 47.1599 25.3412 47.0924C24.2051 45.7262 23.4828 44.83 22.45 43.2304C21.017 41.0115 19.7333 38.347 19.1232 35.7141C18.888 34.6989 18.6781 33.753 18.5557 32.6699C18.3004 30.4018 18.4918 27.7871 18.9739 25.6328C18.9947 25.5401 18.9874 25.5298 18.9425 25.4663C18.9054 25.4143 18.8852 25.38 18.8549 25.3348C18.5226 24.8355 18.064 24.2333 17.6852 23.8004L16.8337 22.8551C16.4627 22.4679 15.8593 21.9023 15.4417 21.5477C14.2243 20.5143 13.1494 19.7989 11.699 19.0097C10.1695 18.1776 8.36493 17.497 6.50145 17.0389C5.5175 16.797 4.50774 16.6192 3.44859 16.5231C2.88786 16.4722 2.30692 16.4756 1.74058 16.4573H1.74001ZM32.3691 38.8469L32.4084 38.4597C32.5392 37.4909 32.6178 36.4872 32.7149 35.5065C32.771 34.9397 32.8109 34.3512 32.8524 33.7828C32.8945 33.2057 32.9461 32.6281 32.9933 32.0511C33.1246 30.4532 33.2694 28.3555 33.275 26.7388C33.2773 26.1166 33.2593 25.4823 33.2677 24.8636L33.971 24.4392C34.0412 25.3216 34.0081 27.4519 33.952 28.3658C33.7864 31.0531 33.6051 32.9621 33.1027 35.5545C32.8956 36.6251 32.5757 37.81 32.3686 38.8469H32.3691ZM25.1829 29.9482C25.2031 29.9059 25.5696 29.6177 25.6376 29.5554L26.2892 28.9268C26.5541 28.6735 26.7629 28.4373 27.0503 28.1891L27.3832 27.8666C27.4567 27.8054 27.5381 27.7322 27.6066 27.6687C27.6891 27.5921 27.748 27.5297 27.8311 27.4565C28.3486 26.9961 29.1192 26.315 29.689 25.8827C30.1009 25.5698 31.3403 24.684 31.6944 24.4587C32.4359 23.9863 33.0707 23.5877 33.8212 23.1422C34.003 23.0341 34.1866 22.9397 34.369 22.8345C35.1267 22.397 36.4564 21.761 37.2602 21.4311C37.6621 21.2658 38.0606 21.0982 38.4692 20.9284C38.669 20.8454 38.8936 20.7768 39.099 20.703C39.31 20.6276 39.5222 20.5561 39.7327 20.4823C40.1553 20.3336 42.0705 19.72 42.4684 19.8218C42.4802 19.9121 42.4533 19.9053 42.3904 19.9441C42.0587 20.1495 41.7343 20.2816 41.3683 20.4314C40.9602 20.5984 40.5325 20.7305 40.129 20.9026C39.726 21.0742 39.3314 21.2441 38.9284 21.4128C38.2773 21.685 37.2731 22.1985 36.6181 22.5257C36.4306 22.6195 36.2229 22.7132 36.0467 22.8105L34.41 23.7426C33.8571 24.052 32.354 25.0128 31.7859 25.4028C30.9277 25.9919 30.1065 26.5506 29.2551 27.1574C29.0889 27.2758 28.9138 27.3896 28.7409 27.5011C27.9697 27.9992 26.878 28.6952 26.1657 29.2105C26.0832 29.27 25.9996 29.3289 25.9193 29.3849C25.6471 29.5742 25.6695 29.5616 25.4231 29.7618C25.3664 29.8081 25.2413 29.9351 25.1829 29.9477V29.9482ZM31.0647 13.4812C31.1449 13.5235 31.3453 13.8398 31.3947 13.9118C31.6916 14.3419 31.9902 14.8795 32.2176 15.3587C33.1375 17.3009 33.5271 19.9476 33.7864 22.1253C33.8111 22.3347 33.856 22.6292 33.8571 22.8311C33.7976 22.8808 33.2425 23.2205 33.1813 23.2251C33.1414 22.5726 33.009 21.1606 32.9231 20.5166C32.6357 18.3692 32.5364 17.6743 31.8959 15.6229C31.7236 15.0711 31.5081 14.5478 31.2858 14.0239C31.2392 13.9135 31.0742 13.5853 31.0652 13.4818L31.0647 13.4812ZM33.4524 0.00228757C33.403 0.037173 33.2183 0.284802 33.1667 0.351141C32.1581 1.65219 31.1865 2.98127 30.248 4.34237C29.9073 4.83706 29.5767 5.33632 29.2343 5.84702C27.6475 8.21351 25.8789 11.1919 24.5559 13.766C23.7426 15.349 22.812 17.2957 22.1705 18.9473C21.1815 21.4934 20.3311 23.988 19.8843 26.7542C19.3561 30.0249 19.4712 32.7414 20.2884 35.8324C20.6331 37.1346 21.1354 38.3756 21.6591 39.5103C22.5852 41.5182 24.1681 43.9533 25.5943 45.6335C25.6432 45.6913 25.692 45.7599 25.7414 45.8148C25.7913 45.8708 25.8385 45.9252 25.8845 45.9841C26.0417 46.1865 26.3285 46.4816 26.4638 46.6549L27.3686 47.6397C27.5718 47.8599 27.7699 48.064 27.9821 48.2751C28.0926 48.3849 28.1942 48.4827 28.3076 48.5896L29.2685 49.5018C29.3628 49.6019 29.4352 49.6528 29.5222 49.7317L30.2665 50.3911C30.7784 50.8406 31.4587 51.3856 31.9981 51.7951C32.1974 51.9466 33.2313 52.7204 33.4524 52.8325C33.7521 52.6901 35.3299 51.4668 35.6252 51.2346L36.6546 50.3768L38.215 48.9568C38.4614 48.7063 38.8649 48.3603 39.0878 48.0966C39.1315 48.0446 39.1983 47.9966 39.2483 47.9451L39.8551 47.3029C39.9522 47.1919 40.0554 47.0878 40.1514 46.974L40.6762 46.3901C40.7043 46.3587 40.7178 46.3335 40.7458 46.3026C41.0197 45.9984 41.347 45.5923 41.6046 45.2709C41.7051 45.1457 41.7831 45.0502 41.8813 44.9226C42.4651 44.162 42.9046 43.5478 43.4501 42.7232C44.8214 40.6489 45.9406 38.2418 46.6237 35.8067C48.2413 30.0432 46.8841 24.2757 44.7259 18.9233C43.6623 16.2852 42.4005 13.7551 41.0147 11.2949C39.974 9.44765 38.8251 7.57413 37.6655 5.83501L37.1575 5.07611C36.9947 4.82562 36.8173 4.58371 36.6501 4.33208C36.1112 3.51885 35.1413 2.18634 34.5447 1.40285C34.3645 1.16666 34.1866 0.933327 34.0036 0.693133C33.9127 0.573607 33.8234 0.457513 33.7302 0.340847C33.6809 0.278511 33.4996 0.031454 33.4518 0L33.4524 0.00228757Z"
    fill="#1752FE" />
</svg>