<svg width="24" height="24" viewBox="0 0 24 24" fill="none" xmlns="http://www.w3.org/2000/svg">
<path d="M12.482 11.7098C12.2277 11.3474 11.7527 11.3361 11.5253 11.7154C11.4015 11.9247 11.3565 12.1814 11.2687 12.4391C11.352 12.6957 11.3925 12.9624 11.5186 13.1819C11.7437 13.5758 12.2367 13.5634 12.491 13.1819C12.7454 12.8004 12.7387 12.0756 12.482 11.7098ZM12.482 11.7098C12.2277 11.3474 11.7527 11.3361 11.5253 11.7154C11.4015 11.9247 11.3565 12.1814 11.2687 12.4391C11.352 12.6957 11.3925 12.9624 11.5186 13.1819C11.7437 13.5758 12.2367 13.5634 12.491 13.1819C12.7454 12.8004 12.7387 12.0756 12.482 11.7098ZM20.6985 3.71878C16.2582 -1.06231 8.64054 -1.25929 3.73429 3.27869C-1.05378 7.70976 -1.26763 15.3215 3.25932 20.2421C7.69622 25.0603 15.3398 25.2742 20.2618 20.7193C25.0701 16.2714 25.2637 8.63605 20.6996 3.71878H20.6985ZM17.0472 15.3564C17.0247 15.6659 16.9887 15.9743 16.9752 16.2838C16.9572 16.7103 16.8176 16.8589 16.3922 16.8589H7.87067C7.73898 16.8589 7.60729 16.8589 7.4756 16.8589C7.37008 16.8623 7.26722 16.8254 7.18782 16.7559C7.10841 16.6863 7.0584 16.5892 7.04789 16.4841C6.99499 16.0553 6.97249 15.6242 6.9421 15.1932C6.9421 15.1605 6.9691 15.1256 6.99161 15.075H17.0472C17.0472 15.1785 17.0472 15.2663 17.0472 15.3564ZM18.3033 11.479C17.9657 12.3288 17.6089 13.2235 17.2465 14.1352H6.75977L5.70625 11.4802C4.9859 11.2798 4.67188 10.851 4.80582 10.331C4.86181 10.0998 5.00612 9.8996 5.20786 9.77338C5.4096 9.64717 5.65274 9.60495 5.88522 9.65575C6.42211 9.78406 6.6731 10.2601 6.5234 10.9343C6.97362 11.2719 7.41484 11.6726 8.07891 11.6884C8.37605 11.0131 8.28036 10.3378 8.22746 9.66248C7.45196 9.33159 7.37994 8.74408 7.59605 8.31189C7.70057 8.10914 7.87815 7.95361 8.09292 7.87673C8.3077 7.79984 8.54365 7.80735 8.75311 7.89772C9.23259 8.10143 9.40255 8.60002 9.17857 9.21229C9.50047 9.65123 9.81788 10.1127 10.4167 10.331C11.0436 9.5432 11.2045 8.5989 11.4747 7.69963C10.9389 7.12113 11.0312 6.59666 11.4128 6.24438C11.5823 6.09112 11.8044 6.0093 12.0329 6.01601C12.2613 6.02272 12.4783 6.11746 12.6385 6.2804C13.0223 6.66082 12.993 7.16616 12.5349 7.68163C12.7848 8.58203 12.9705 9.52069 13.5806 10.3288C14.185 10.1386 14.4911 9.66025 14.8288 9.22918C14.535 8.47285 14.9076 8.02941 15.3128 7.87859C15.5317 7.79877 15.7731 7.80692 15.9862 7.90137C16.1992 7.99582 16.3673 8.16922 16.4552 8.38507C16.6578 8.89041 16.4226 9.34847 15.7911 9.63885C15.7236 10.3074 15.6482 10.9895 15.9194 11.6783C16.5835 11.6929 17.0124 11.2697 17.4828 10.9444C17.2791 10.1307 17.7271 9.72439 18.1807 9.6411C18.4111 9.60459 18.6467 9.65792 18.839 9.79006C19.0313 9.92221 19.1655 10.1231 19.2139 10.3513C19.3208 10.8679 19.0057 11.2843 18.3 11.4768L18.3033 11.479ZM11.5287 11.7176C11.4049 11.927 11.3599 12.1836 11.2721 12.4413C11.3554 12.698 11.3959 12.9647 11.5219 13.1842C11.747 13.5781 12.24 13.5657 12.4944 13.1842C12.7488 12.8026 12.742 12.0744 12.4854 11.7086C12.2288 11.3429 11.7572 11.3361 11.5253 11.7154L11.5287 11.7176Z" fill="#0050CD"/>
</svg>
