<svg width="24" height="24" viewBox="0 0 24 24" fill="none" xmlns="http://www.w3.org/2000/svg">
<path d="M12.4438 7.04054C12.4258 6.77717 12.41 6.52843 12.3932 6.27294H11.6053C11.5884 6.54419 11.5726 6.7918 11.558 7.04166L10.7859 7.09118V7.87902L11.5546 7.92181C11.5749 8.19192 11.5929 8.44516 11.612 8.70965H12.3943C12.4134 8.43953 12.4303 8.19078 12.4472 7.92966L13.2137 7.87564V7.09343L12.4438 7.04054ZM14.0533 8.31685C14.0533 8.50594 14.0533 8.6725 14.0533 8.8402C14.0477 9.29715 13.8215 9.53124 13.3645 9.53349C12.4595 9.53349 11.5539 9.53349 10.6474 9.53349C10.177 9.53349 9.9496 9.30052 9.94622 8.83119C9.94622 8.66011 9.94622 8.49356 9.94622 8.31573H8.29615V17.3197H11.1708C11.1764 17.2262 11.1832 17.1475 11.1832 17.0687C11.1832 16.6455 11.1832 16.2212 11.1832 15.798C11.1832 15.3748 11.2507 15.2972 11.6739 15.2972H12.3977C12.7173 15.2972 12.8107 15.3917 12.813 15.7192C12.813 16.1694 12.813 16.6095 12.813 17.0552C12.813 17.1407 12.8231 17.2251 12.8276 17.3197H15.7045V8.31573L14.0533 8.31685ZM11.1663 14.1334C11.1595 14.3529 11.0616 14.4586 10.8467 14.462C10.5191 14.462 10.1905 14.462 9.86293 14.462C9.64908 14.462 9.54777 14.3495 9.54439 14.1323C9.53989 13.8111 9.53989 13.4904 9.54439 13.17C9.54439 12.9449 9.65695 12.8436 9.88206 12.8402C10.1957 12.8402 10.509 12.8402 10.8219 12.8402C11.0628 12.8402 11.1596 12.946 11.1596 13.1925C11.1596 13.3455 11.1596 13.4986 11.1596 13.6517C11.1596 13.8047 11.1708 13.9724 11.1663 14.1334ZM11.1663 11.7012C11.1686 11.7418 11.1623 11.7825 11.1477 11.8206C11.1331 11.8586 11.1105 11.8931 11.0816 11.9217C11.0526 11.9503 11.0179 11.9725 10.9797 11.9867C10.9415 12.0008 10.9008 12.0068 10.8601 12.004C10.5225 12.013 10.1848 12.0141 9.85392 12.004C9.81156 12.0066 9.76914 12 9.72958 11.9847C9.69001 11.9693 9.65424 11.9456 9.62471 11.9151C9.59519 11.8847 9.57263 11.8481 9.55857 11.8081C9.54451 11.768 9.53928 11.7254 9.54327 11.6832C9.54327 11.3545 9.54327 11.027 9.54327 10.6984C9.54327 10.48 9.64681 10.3877 9.87192 10.3832C10.0396 10.3832 10.2096 10.3832 10.375 10.3832H10.8556C10.896 10.378 10.937 10.382 10.9757 10.3947C11.0144 10.4074 11.0497 10.4287 11.079 10.4569C11.1084 10.485 11.1311 10.5194 11.1454 10.5575C11.1597 10.5956 11.1653 10.6365 11.1618 10.677C11.1719 11.0158 11.1708 11.3579 11.1652 11.7012H11.1663ZM12.8344 10.6939C12.8344 10.4755 12.939 10.3832 13.1641 10.3799C13.4853 10.3799 13.8065 10.3799 14.1276 10.3799C14.3595 10.3799 14.4506 10.48 14.4563 10.7175C14.4563 10.8706 14.4563 11.0237 14.4563 11.1767C14.4563 11.3298 14.4563 11.5144 14.4563 11.6798C14.4607 11.7222 14.4559 11.7651 14.4422 11.8055C14.4284 11.8458 14.4061 11.8827 14.3766 11.9136C14.3471 11.9444 14.3113 11.9685 14.2716 11.9841C14.2319 11.9997 14.1893 12.0065 14.1467 12.004C13.8091 12.0141 13.4714 12.0141 13.1405 12.004C13.098 12.0062 13.0555 11.9991 13.016 11.9833C12.9765 11.9675 12.9409 11.9433 12.9117 11.9123C12.8825 11.8814 12.8603 11.8445 12.8468 11.8041C12.8332 11.7638 12.8286 11.721 12.8332 11.6787C12.831 11.3455 12.8276 11.0225 12.8332 10.6939H12.8344ZM14.4551 14.1334C14.4551 14.3585 14.3426 14.4553 14.1175 14.4632H13.6369C13.4771 14.4632 13.3161 14.4632 13.1563 14.4632C13.114 14.4682 13.0711 14.4637 13.0308 14.4501C12.9905 14.4364 12.9537 14.414 12.9232 14.3843C12.8927 14.3547 12.8692 14.3185 12.8544 14.2786C12.8396 14.2387 12.8339 14.196 12.8377 14.1536C12.8332 13.8182 12.8332 13.4832 12.8377 13.1486C12.8341 13.1063 12.8399 13.0637 12.8548 13.0239C12.8697 12.9842 12.8932 12.9482 12.9237 12.9187C12.9542 12.8892 12.9909 12.8668 13.0311 12.8532C13.0714 12.8396 13.1141 12.8352 13.1563 12.8402C13.4849 12.8402 13.8125 12.8402 14.1411 12.8402C14.355 12.8402 14.4551 12.9527 14.4585 13.17C14.4615 13.4919 14.46 13.813 14.454 14.1334H14.4551ZM14.0545 8.31685C14.0545 8.50594 14.0545 8.6725 14.0545 8.8402C14.0488 9.29715 13.8226 9.53124 13.3656 9.53349C12.4607 9.53349 11.555 9.53349 10.6486 9.53349C10.1781 9.53349 9.95072 9.30052 9.94735 8.83119C9.94735 8.66011 9.94735 8.49356 9.94735 8.31573H8.29728V17.3197H11.1719C11.1776 17.2262 11.1843 17.1475 11.1843 17.0687C11.1843 16.6455 11.1843 16.2212 11.1843 15.798C11.1843 15.3748 11.2518 15.2972 11.675 15.2972H12.3988C12.7184 15.2972 12.8119 15.3917 12.8141 15.7192C12.8141 16.1694 12.8141 16.6095 12.8141 17.0552C12.8141 17.1407 12.8242 17.2251 12.8287 17.3197H15.7056V8.31573L14.0545 8.31685ZM11.1674 14.1334C11.1607 14.3529 11.0628 14.4586 10.8478 14.462C10.5202 14.462 10.1916 14.462 9.86406 14.462C9.6502 14.462 9.5489 14.3495 9.54552 14.1323C9.54102 13.8111 9.54102 13.4904 9.54552 13.17C9.54552 12.9449 9.65807 12.8436 9.88318 12.8402C10.1968 12.8402 10.5101 12.8402 10.823 12.8402C11.0639 12.8402 11.1607 12.946 11.1607 13.1925C11.1607 13.3455 11.1607 13.4986 11.1607 13.6517C11.1607 13.8047 11.1708 13.9724 11.1663 14.1334H11.1674ZM11.1674 11.7012C11.1698 11.7418 11.1634 11.7825 11.1488 11.8206C11.1342 11.8586 11.1117 11.8931 11.0827 11.9217C11.0537 11.9503 11.019 11.9725 10.9808 11.9867C10.9427 12.0008 10.9019 12.0068 10.8613 12.004C10.5236 12.013 10.186 12.0141 9.85504 12.004C9.8126 12.0068 9.77005 12.0003 9.73034 11.985C9.69064 11.9698 9.65472 11.9461 9.62507 11.9156C9.59542 11.8851 9.57275 11.8485 9.55863 11.8084C9.5445 11.7683 9.53926 11.7255 9.54327 11.6832C9.54327 11.3545 9.54327 11.027 9.54327 10.6984C9.54327 10.48 9.64681 10.3877 9.87192 10.3832C10.0396 10.3832 10.2096 10.3832 10.375 10.3832H10.8556C10.896 10.378 10.937 10.382 10.9757 10.3947C11.0144 10.4074 11.0497 10.4287 11.079 10.4569C11.1084 10.485 11.1311 10.5194 11.1454 10.5575C11.1597 10.5956 11.1653 10.6365 11.1618 10.677C11.1719 11.0158 11.1708 11.3579 11.1652 11.7012H11.1674ZM12.8355 10.6939C12.8355 10.4755 12.9402 10.3832 13.1653 10.3799C13.4864 10.3799 13.8076 10.3799 14.1287 10.3799C14.3606 10.3799 14.4518 10.48 14.4574 10.7175C14.4574 10.8706 14.4574 11.0237 14.4574 11.1767C14.4574 11.3298 14.4574 11.5144 14.4574 11.6798C14.4619 11.7222 14.4571 11.7651 14.4433 11.8055C14.4296 11.8458 14.4072 11.8827 14.3777 11.9136C14.3483 11.9444 14.3124 11.9685 14.2728 11.9841C14.2331 11.9997 14.1904 12.0065 14.1479 12.004C13.8102 12.0141 13.4725 12.0141 13.1416 12.004C13.0991 12.0062 13.0567 11.9991 13.0172 11.9833C12.9776 11.9675 12.9421 11.9433 12.9128 11.9123C12.8836 11.8814 12.8615 11.8445 12.8479 11.8041C12.8344 11.7638 12.8297 11.721 12.8344 11.6787C12.831 11.3455 12.8276 11.0225 12.8332 10.6939H12.8355ZM14.4563 14.1334C14.4563 14.3585 14.3437 14.4553 14.1186 14.4632H13.638C13.4782 14.4632 13.3172 14.4632 13.1574 14.4632C13.1151 14.4682 13.0723 14.4637 13.032 14.4501C12.9916 14.4364 12.9549 14.414 12.9244 14.3843C12.8938 14.3547 12.8703 14.3185 12.8555 14.2786C12.8408 14.2387 12.835 14.196 12.8389 14.1536C12.8344 13.8182 12.8344 13.4832 12.8389 13.1486C12.8352 13.1063 12.8411 13.0637 12.8559 13.0239C12.8708 12.9842 12.8943 12.9482 12.9248 12.9187C12.9553 12.8892 12.992 12.8668 13.0323 12.8532C13.0725 12.8396 13.1152 12.8352 13.1574 12.8402C13.4861 12.8402 13.8136 12.8402 14.1423 12.8402C14.3561 12.8402 14.4563 12.9527 14.4596 13.17C14.4619 13.4919 14.46 13.813 14.454 14.1334H14.4563ZM12.4461 7.04279C12.428 6.77942 12.4123 6.53068 12.3954 6.2752H11.6075C11.5906 6.54644 11.5749 6.79406 11.5602 7.04392L10.7881 7.09343V7.88128L11.5569 7.92406C11.5771 8.19418 11.5951 8.44741 11.6143 8.7119H12.3965C12.4157 8.44179 12.4325 8.19303 12.4494 7.93192L13.2159 7.8779V7.09568L12.4461 7.04279ZM12.4461 7.04279C12.428 6.77942 12.4123 6.53068 12.3954 6.2752H11.6075C11.5906 6.54644 11.5749 6.79406 11.5602 7.04392L10.7881 7.09343V7.88128L11.5569 7.92406C11.5771 8.19418 11.5951 8.44741 11.6143 8.7119H12.3965C12.4157 8.44179 12.4325 8.19303 12.4494 7.93192L13.2159 7.8779V7.09568L12.4461 7.04279ZM14.0556 8.31911C14.0556 8.50819 14.0556 8.67475 14.0556 8.84245C14.05 9.2994 13.8237 9.53349 13.3667 9.53574C12.4618 9.53574 11.5561 9.53574 10.6497 9.53574C10.1792 9.53574 9.95185 9.30277 9.94847 8.83344C9.94847 8.66236 9.94847 8.49581 9.94847 8.31798H8.29841V17.3219H11.1731C11.1787 17.2285 11.1854 17.1497 11.1854 17.0709C11.1854 16.6478 11.1854 16.2234 11.1854 15.8003C11.1854 15.3771 11.253 15.2994 11.6762 15.2994H12.3999C12.7195 15.2994 12.813 15.3939 12.8152 15.7214C12.8152 16.1716 12.8152 16.6117 12.8152 17.0574C12.8152 17.143 12.8254 17.2274 12.8299 17.3219H15.7068V8.31798L14.0556 8.31911ZM11.1685 14.1356C11.1618 14.3551 11.0639 14.4609 10.8489 14.4643C10.5214 14.4643 10.1927 14.4643 9.86518 14.4643C9.65133 14.4643 9.55002 14.3517 9.54665 14.1345C9.54214 13.8134 9.54214 13.4926 9.54665 13.1722C9.54665 12.9471 9.6592 12.8458 9.88431 12.8425C10.198 12.8425 10.5112 12.8425 10.8241 12.8425C11.065 12.8425 11.1618 12.9482 11.1618 13.1947C11.1618 13.3478 11.1618 13.5009 11.1618 13.6539C11.1618 13.807 11.1708 13.9724 11.1663 14.1334L11.1685 14.1356ZM11.1685 11.7034C11.1709 11.7441 11.1645 11.7848 11.1499 11.8228C11.1353 11.8608 11.1128 11.8953 11.0838 11.924C11.0549 11.9526 11.0201 11.9747 10.982 11.9889C10.9438 12.0031 10.903 12.009 10.8624 12.0062C10.5247 12.0152 10.1871 12.0164 9.85617 12.0062C9.81343 12.0092 9.77053 12.0029 9.73051 11.9875C9.69049 11.9722 9.65431 11.9483 9.62449 11.9176C9.59468 11.8868 9.57197 11.8499 9.55794 11.8094C9.54391 11.7689 9.53889 11.7258 9.54327 11.6832C9.54327 11.3545 9.54327 11.027 9.54327 10.6984C9.54327 10.48 9.64681 10.3877 9.87192 10.3832C10.0396 10.3832 10.2096 10.3832 10.375 10.3832H10.8556C10.896 10.378 10.937 10.382 10.9757 10.3947C11.0144 10.4074 11.0497 10.4287 11.079 10.4569C11.1084 10.485 11.1311 10.5194 11.1454 10.5575C11.1597 10.5956 11.1653 10.6365 11.1618 10.677C11.1719 11.0158 11.1708 11.3579 11.1652 11.7012L11.1685 11.7034ZM12.8366 10.6961C12.8366 10.4778 12.9413 10.3855 13.1664 10.3821C13.4875 10.3821 13.8087 10.3821 14.1299 10.3821C14.3617 10.3821 14.4529 10.4823 14.4585 10.7198C14.4585 10.8728 14.4585 11.0259 14.4585 11.179C14.4585 11.332 14.4585 11.5166 14.4585 11.6821C14.463 11.7245 14.4582 11.7674 14.4444 11.8077C14.4307 11.8481 14.4083 11.885 14.3789 11.9158C14.3494 11.9467 14.3136 11.9707 14.2739 11.9864C14.2342 12.002 14.1916 12.0087 14.149 12.0062C13.8113 12.0164 13.4737 12.0164 13.1428 12.0062C13.1003 12.0084 13.0578 12.0014 13.0183 11.9855C12.9788 11.9697 12.9432 11.9455 12.914 11.9146C12.8847 11.8836 12.8626 11.8467 12.849 11.8064C12.8355 11.766 12.8309 11.7232 12.8355 11.6809C12.831 11.3455 12.8276 11.0225 12.8332 10.6939L12.8366 10.6961ZM14.4574 14.1356C14.4574 14.3607 14.3448 14.4575 14.1197 14.4654H13.6391C13.4793 14.4654 13.3184 14.4654 13.1585 14.4654C13.1163 14.4704 13.0734 14.466 13.0331 14.4523C12.9928 14.4387 12.956 14.4162 12.9255 14.3866C12.895 14.3569 12.8714 14.3208 12.8566 14.2809C12.8419 14.241 12.8362 14.1983 12.84 14.1559C12.8355 13.8205 12.8355 13.4855 12.84 13.1508C12.8364 13.1085 12.8422 13.066 12.8571 13.0262C12.8719 12.9864 12.8955 12.9505 12.926 12.921C12.9565 12.8914 12.9932 12.8691 13.0334 12.8555C13.0736 12.8419 13.1164 12.8375 13.1585 12.8425C13.4872 12.8425 13.8147 12.8425 14.1434 12.8425C14.3572 12.8425 14.4574 12.955 14.4608 13.1722C14.4623 13.4926 14.46 13.813 14.454 14.1334L14.4574 14.1356ZM14.0567 8.31911C14.0567 8.50819 14.0567 8.67475 14.0567 8.84245C14.0511 9.2994 13.8248 9.53349 13.3679 9.53574C12.4629 9.53574 11.5573 9.53574 10.6508 9.53574C10.1803 9.53574 9.95298 9.30277 9.9496 8.83344C9.9496 8.66236 9.9496 8.49581 9.9496 8.31798H8.29953V17.3219H11.1742C11.1798 17.2285 11.1866 17.1497 11.1866 17.0709C11.1866 16.6478 11.1866 16.2234 11.1866 15.8003C11.1866 15.3771 11.2541 15.2994 11.6773 15.2994H12.401C12.7207 15.2994 12.8141 15.3939 12.8164 15.7214C12.8164 16.1716 12.8164 16.6117 12.8164 17.0574C12.8164 17.143 12.8265 17.2274 12.831 17.3219H15.7079V8.31798L14.0567 8.31911ZM11.1697 14.1356C11.1629 14.3551 11.065 14.4609 10.85 14.4643C10.5225 14.4643 10.1938 14.4643 9.86631 14.4643C9.65246 14.4643 9.55115 14.3517 9.54777 14.1345C9.54327 13.8134 9.54327 13.4926 9.54777 13.1722C9.54777 12.9471 9.66033 12.8458 9.88544 12.8425C10.1991 12.8425 10.5123 12.8425 10.8252 12.8425C11.0661 12.8425 11.1629 12.9482 11.1629 13.1947C11.1629 13.3478 11.1629 13.5009 11.1629 13.6539C11.1629 13.807 11.1708 13.9724 11.1663 14.1334L11.1697 14.1356ZM11.1697 11.7034C11.172 11.7441 11.1657 11.7848 11.151 11.8228C11.1364 11.8608 11.1139 11.8953 11.085 11.924C11.056 11.9526 11.0213 11.9747 10.9831 11.9889C10.9449 12.0031 10.9042 12.009 10.8635 12.0062C10.5259 12.0152 10.1882 12.0164 9.8573 12.0062C9.81446 12.0094 9.77144 12.0032 9.73128 11.9879C9.69112 11.9727 9.65479 11.9488 9.62485 11.918C9.59491 11.8872 9.57209 11.8502 9.55799 11.8097C9.5439 11.7691 9.53887 11.7259 9.54327 11.6832C9.54327 11.3545 9.54327 11.027 9.54327 10.6984C9.54327 10.48 9.64681 10.3877 9.87192 10.3832C10.0396 10.3832 10.2096 10.3832 10.375 10.3832H10.8556C10.896 10.378 10.937 10.382 10.9757 10.3947C11.0144 10.4074 11.0497 10.4287 11.079 10.4569C11.1084 10.485 11.1311 10.5194 11.1454 10.5575C11.1597 10.5956 11.1653 10.6365 11.1618 10.677C11.1719 11.0158 11.1708 11.3579 11.1652 11.7012L11.1697 11.7034ZM12.8377 10.6961C12.8377 10.4778 12.9424 10.3855 13.1675 10.3821C13.4887 10.3821 13.8098 10.3821 14.131 10.3821C14.3629 10.3821 14.454 10.4823 14.4596 10.7198C14.4596 10.8728 14.4596 11.0259 14.4596 11.179C14.4596 11.332 14.4596 11.5166 14.4596 11.6821C14.4641 11.7245 14.4593 11.7674 14.4456 11.8077C14.4318 11.8481 14.4094 11.885 14.38 11.9158C14.3505 11.9467 14.3147 11.9707 14.275 11.9864C14.2353 12.002 14.1927 12.0087 14.1501 12.0062C13.8125 12.0164 13.4748 12.0164 13.1439 12.0062C13.1014 12.0084 13.0589 12.0014 13.0194 11.9855C12.9799 11.9697 12.9443 11.9455 12.9151 11.9146C12.8859 11.8836 12.8637 11.8467 12.8502 11.8064C12.8366 11.766 12.832 11.7232 12.8366 11.6809C12.831 11.3455 12.8276 11.0225 12.8332 10.6939L12.8377 10.6961ZM14.4585 14.1356C14.4585 14.3607 14.346 14.4575 14.1208 14.4654H13.6402C13.4804 14.4654 13.3195 14.4654 13.1596 14.4654C13.1174 14.4704 13.0745 14.466 13.0342 14.4523C12.9939 14.4387 12.9571 14.4162 12.9266 14.3866C12.8961 14.3569 12.8726 14.3208 12.8578 14.2809C12.843 14.241 12.8373 14.1983 12.8411 14.1559C12.8366 13.8205 12.8366 13.4855 12.8411 13.1508C12.8375 13.1085 12.8433 13.066 12.8582 13.0262C12.8731 12.9864 12.8966 12.9505 12.9271 12.921C12.9576 12.8914 12.9943 12.8691 13.0345 12.8555C13.0747 12.8419 13.1175 12.8375 13.1596 12.8425C13.4883 12.8425 13.8158 12.8425 14.1445 12.8425C14.3583 12.8425 14.4585 12.955 14.4619 13.1722C14.4626 13.4926 14.46 13.813 14.454 14.1334L14.4585 14.1356ZM11.6143 8.70852H12.3965C12.4157 8.43841 12.4325 8.18965 12.4494 7.92854L13.2159 7.87452V7.0923L12.4483 7.04279C12.4303 6.77942 12.4145 6.53068 12.3977 6.2752H11.6098C11.5929 6.54644 11.5771 6.79406 11.5625 7.04392L10.7904 7.09343V7.88128L11.5591 7.92406C11.5692 8.19418 11.5906 8.44516 11.6098 8.70627L11.6143 8.70852ZM20.703 3.71921C16.2639 -1.06188 8.6462 -1.25997 3.73995 3.27914C-1.04925 7.70907 -1.26197 15.3219 3.26497 20.2414C7.70187 25.0597 15.3455 25.2746 20.2675 20.7198C25.069 16.2696 25.2649 8.63423 20.6986 3.71695L20.703 3.71921ZM17.7474 18.5678H6.25555C6.25555 18.2493 6.24993 17.9499 6.25555 17.6517C6.25393 17.6128 6.26044 17.5741 6.27468 17.5379C6.28891 17.5017 6.31055 17.4689 6.33821 17.4415C6.36587 17.4142 6.39894 17.3929 6.43529 17.3791C6.47165 17.3653 6.51047 17.3592 6.5493 17.3613C6.70125 17.3534 6.85433 17.3613 7.03442 17.3613C7.04005 17.2487 7.04907 17.1497 7.04907 17.0518C7.04907 13.9687 7.04907 10.886 7.04907 7.80362C7.04907 7.28365 7.23927 7.09456 7.76377 7.09343C8.39971 7.09343 9.03451 7.09343 9.67044 7.09343H9.94171V6.20205C9.94171 5.65281 10.1668 5.43446 10.7149 5.43446H13.3454C13.8057 5.43446 14.0455 5.67644 14.05 6.13789C14.05 6.44402 14.05 6.75017 14.05 7.08107C14.1546 7.08107 14.239 7.0923 14.3246 7.0923H16.274C16.7366 7.0923 16.9494 7.30051 16.9494 7.76084V17.359C17.1272 17.359 17.2791 17.359 17.43 17.359C17.4704 17.3548 17.5112 17.3593 17.5497 17.3723C17.5882 17.3852 17.6235 17.4063 17.6532 17.434C17.6828 17.4617 17.7062 17.4955 17.7217 17.5331C17.7371 17.5706 17.7444 17.6111 17.7429 17.6517C17.7496 17.9499 17.7429 18.2482 17.7429 18.5656L17.7474 18.5678ZM14.0578 8.84245C14.0522 9.2994 13.826 9.53349 13.369 9.53574C12.4641 9.53574 11.5584 9.53574 10.6519 9.53574C10.1815 9.53574 9.9541 9.30277 9.95073 8.83344C9.95073 8.66236 9.95073 8.49581 9.95073 8.31798H8.30066V17.3219H11.1753C11.1809 17.2285 11.1877 17.1497 11.1877 17.0709C11.1877 16.6478 11.1877 16.2234 11.1877 15.8003C11.1877 15.3771 11.2552 15.2994 11.6784 15.2994H12.4021C12.7218 15.2994 12.8152 15.3939 12.8175 15.7214C12.8175 16.1716 12.8175 16.6117 12.8175 17.0574C12.8175 17.143 12.8276 17.2274 12.8321 17.3219H15.709V8.31798H14.0556C14.0533 8.50594 14.0545 8.6725 14.0533 8.8402L14.0578 8.84245ZM11.1708 14.1323C11.164 14.3517 11.0661 14.4575 10.8512 14.4609C10.5236 14.4609 10.1949 14.4609 9.86741 14.4609C9.65356 14.4609 9.55228 14.3484 9.5489 14.1311C9.5444 13.81 9.5444 13.4892 9.5489 13.1688C9.5489 12.9437 9.66145 12.8425 9.88656 12.8391C10.2002 12.8391 10.5135 12.8391 10.8264 12.8391C11.0672 12.8391 11.164 12.9449 11.164 13.1913C11.164 13.3444 11.164 13.4975 11.164 13.6506C11.164 13.8036 11.1708 13.9724 11.1663 14.1334L11.1708 14.1323ZM11.1708 11.7001C11.1731 11.7407 11.1668 11.7814 11.1522 11.8194C11.1376 11.8574 11.115 11.8919 11.0861 11.9206C11.0571 11.9492 11.0224 11.9713 10.9842 11.9855C10.946 11.9997 10.9053 12.0056 10.8647 12.0028C10.527 12.0118 10.1893 12.013 9.85842 12.0028C9.81581 12.0061 9.77299 12.0001 9.73295 11.9851C9.69292 11.9702 9.65662 11.9466 9.62661 11.9162C9.5966 11.8857 9.5736 11.8491 9.5592 11.8089C9.54481 11.7687 9.53937 11.7258 9.54327 11.6832C9.54327 11.3545 9.54327 11.027 9.54327 10.6984C9.54327 10.48 9.64681 10.3877 9.87192 10.3832C10.0396 10.3832 10.2096 10.3832 10.375 10.3832H10.8556C10.896 10.378 10.937 10.382 10.9757 10.3947C11.0144 10.4074 11.0497 10.4287 11.079 10.4569C11.1084 10.485 11.1311 10.5194 11.1454 10.5575C11.1597 10.5956 11.1653 10.6365 11.1618 10.677C11.1719 11.0158 11.1708 11.3579 11.1652 11.7012L11.1708 11.7001ZM14.4596 14.1323C14.4596 14.3574 14.3471 14.4541 14.122 14.462H13.6414C13.4815 14.462 13.3206 14.462 13.1608 14.462C13.1185 14.4671 13.0757 14.4626 13.0353 14.4489C12.995 14.4353 12.9583 14.4129 12.9277 14.3832C12.8972 14.3535 12.8737 14.3174 12.8589 14.2775C12.8441 14.2376 12.8384 14.1949 12.8422 14.1525C12.8377 13.8171 12.8377 13.4821 12.8422 13.1475C12.8386 13.1052 12.8444 13.0626 12.8593 13.0228C12.8742 12.9831 12.8977 12.9471 12.9282 12.9176C12.9587 12.888 12.9954 12.8657 13.0356 12.8521C13.0759 12.8385 13.1186 12.8341 13.1608 12.8391C13.4894 12.8391 13.8169 12.8391 14.1456 12.8391C14.3595 12.8391 14.4596 12.9516 14.463 13.1688C14.463 13.4915 14.46 13.813 14.454 14.1334L14.4596 14.1323ZM14.4596 10.7164C14.4596 10.8695 14.4596 11.0225 14.4596 11.1756C14.4596 11.3287 14.4596 11.5132 14.4596 11.6787C14.4641 11.7211 14.4593 11.764 14.4456 11.8043C14.4318 11.8447 14.4094 11.8816 14.38 11.9125C14.3505 11.9433 14.3147 11.9674 14.275 11.983C14.2353 11.9986 14.1927 12.0054 14.1501 12.0028C13.8125 12.013 13.4748 12.013 13.1439 12.0028C13.1014 12.0051 13.0589 11.998 13.0194 11.9822C12.9799 11.9664 12.9443 11.9421 12.9151 11.9112C12.8859 11.8803 12.8637 11.8433 12.8502 11.803C12.8366 11.7627 12.832 11.7199 12.8366 11.6776C12.8366 11.3489 12.8366 11.0214 12.8366 10.6928C12.8366 10.4744 12.9413 10.3821 13.1664 10.3787C13.4875 10.3787 13.8087 10.3787 14.1299 10.3787C14.3583 10.3832 14.4495 10.48 14.4551 10.7175L14.4596 10.7164ZM11.6143 8.70514H12.3965C12.4157 8.43503 12.4325 8.1863 12.4494 7.92519L13.2159 7.87114V7.08892L12.4483 7.03941C12.4303 6.77604 12.4145 6.5273 12.3977 6.27182H11.6098C11.5929 6.54306 11.5771 6.79068 11.5625 7.04054L10.7904 7.09005V7.8779L11.5591 7.92068C11.5692 8.19417 11.5906 8.44516 11.6098 8.70627L11.6143 8.70514ZM12.4483 7.03941C12.4303 6.77604 12.4145 6.5273 12.3977 6.27182H11.6098C11.5929 6.54306 11.5771 6.79068 11.5625 7.04054L10.7904 7.09005V7.8779L11.5591 7.92068C11.5794 8.1908 11.5974 8.44403 11.6165 8.70852H12.3988C12.4179 8.43841 12.4348 8.18965 12.4517 7.92854L13.2182 7.87452V7.0923L12.4483 7.03941ZM14.0578 8.31573C14.0578 8.50481 14.0578 8.67137 14.0578 8.83907C14.0522 9.29602 13.826 9.53011 13.369 9.53236C12.4641 9.53236 11.5584 9.53236 10.6519 9.53236C10.1815 9.53236 9.9541 9.29939 9.95073 8.83006C9.95073 8.65898 9.95073 8.49243 9.95073 8.3146H8.30066V17.3185H11.1753C11.1809 17.2251 11.1877 17.1463 11.1877 17.0676C11.1877 16.6444 11.1877 16.2201 11.1877 15.7969C11.1877 15.3737 11.2552 15.296 11.6784 15.296H12.4021C12.7218 15.296 12.8152 15.3906 12.8175 15.7181C12.8175 16.1683 12.8175 16.6083 12.8175 17.054C12.8175 17.1396 12.8276 17.224 12.8321 17.3185H15.709V8.3146L14.0578 8.31573ZM11.1708 14.1323C11.164 14.3517 11.0661 14.4575 10.8512 14.4609C10.5236 14.4609 10.1949 14.4609 9.86741 14.4609C9.65356 14.4609 9.55228 14.3484 9.5489 14.1311C9.5444 13.81 9.5444 13.4892 9.5489 13.1688C9.5489 12.9437 9.66145 12.8425 9.88656 12.8391C10.2002 12.8391 10.5135 12.8391 10.8264 12.8391C11.0672 12.8391 11.164 12.9449 11.164 13.1913C11.164 13.3444 11.164 13.4975 11.164 13.6506C11.164 13.8036 11.1708 13.9724 11.1663 14.1334L11.1708 14.1323ZM11.1708 11.7001C11.1731 11.7407 11.1668 11.7814 11.1522 11.8194C11.1376 11.8574 11.115 11.8919 11.0861 11.9206C11.0571 11.9492 11.0224 11.9713 10.9842 11.9855C10.946 11.9997 10.9053 12.0056 10.8647 12.0028C10.527 12.0118 10.1893 12.013 9.85842 12.0028C9.81581 12.0061 9.77299 12.0001 9.73295 11.9851C9.69292 11.9702 9.65662 11.9466 9.62661 11.9162C9.5966 11.8857 9.5736 11.8491 9.5592 11.8089C9.54481 11.7687 9.53937 11.7258 9.54327 11.6832C9.54327 11.3545 9.54327 11.027 9.54327 10.6984C9.54327 10.48 9.64681 10.3877 9.87192 10.3832C10.0396 10.3832 10.2096 10.3832 10.375 10.3832H10.8556C10.896 10.378 10.937 10.382 10.9757 10.3947C11.0144 10.4074 11.0497 10.4287 11.079 10.4569C11.1084 10.485 11.1311 10.5194 11.1454 10.5575C11.1597 10.5956 11.1653 10.6365 11.1618 10.677C11.1719 11.0158 11.1708 11.3579 11.1652 11.7012L11.1708 11.7001ZM12.8389 10.6928C12.8389 10.4744 12.9435 10.3821 13.1686 10.3787C13.4898 10.3787 13.811 10.3787 14.1321 10.3787C14.364 10.3787 14.4551 10.4789 14.4608 10.7164C14.4608 10.8695 14.4608 11.0225 14.4608 11.1756C14.4608 11.3287 14.4608 11.5132 14.4608 11.6787C14.4653 11.7211 14.4605 11.764 14.4467 11.8043C14.4329 11.8447 14.4106 11.8816 14.3811 11.9125C14.3516 11.9433 14.3158 11.9674 14.2761 11.983C14.2364 11.9986 14.1938 12.0054 14.1512 12.0028C13.8136 12.013 13.4759 12.013 13.145 12.0028C13.1025 12.0051 13.06 11.998 13.0205 11.9822C12.981 11.9664 12.9454 11.9421 12.9162 11.9112C12.887 11.8803 12.8648 11.8433 12.8513 11.803C12.8377 11.7627 12.8331 11.7199 12.8377 11.6776C12.831 11.3455 12.8276 11.0225 12.8332 10.6939L12.8389 10.6928ZM14.4596 14.1323C14.4596 14.3574 14.3471 14.4541 14.122 14.462H13.6414C13.4815 14.462 13.3206 14.462 13.1608 14.462C13.1185 14.4671 13.0757 14.4626 13.0353 14.4489C12.995 14.4353 12.9583 14.4129 12.9277 14.3832C12.8972 14.3535 12.8737 14.3174 12.8589 14.2775C12.8441 14.2376 12.8384 14.1949 12.8422 14.1525C12.8377 13.8171 12.8377 13.4821 12.8422 13.1475C12.8386 13.1052 12.8444 13.0626 12.8593 13.0228C12.8742 12.9831 12.8977 12.9471 12.9282 12.9176C12.9587 12.888 12.9954 12.8657 13.0356 12.8521C13.0759 12.8385 13.1186 12.8341 13.1608 12.8391C13.4894 12.8391 13.8169 12.8391 14.1456 12.8391C14.3595 12.8391 14.4596 12.9516 14.463 13.1688C14.463 13.4915 14.46 13.813 14.454 14.1334L14.4596 14.1323ZM14.059 8.31573C14.059 8.50481 14.059 8.67137 14.059 8.83907C14.0533 9.29602 13.8271 9.53011 13.3701 9.53236C12.4652 9.53236 11.5595 9.53236 10.6531 9.53236C10.1826 9.53236 9.9552 9.29939 9.95183 8.83006C9.95183 8.65898 9.95183 8.49243 9.95183 8.3146H8.30179V17.3185H11.1764C11.1821 17.2251 11.1888 17.1463 11.1888 17.0676C11.1888 16.6444 11.1888 16.2201 11.1888 15.7969C11.1888 15.3737 11.2563 15.296 11.6795 15.296H12.4033C12.7229 15.296 12.8164 15.3906 12.8186 15.7181C12.8186 16.1683 12.8186 16.6083 12.8186 17.054C12.8186 17.1396 12.8287 17.224 12.8332 17.3185H15.7101V8.3146L14.059 8.31573ZM11.1719 14.1323C11.1652 14.3517 11.0672 14.4575 10.8523 14.4609C10.5247 14.4609 10.1961 14.4609 9.86854 14.4609C9.65468 14.4609 9.5534 14.3484 9.55003 14.1311C9.54552 13.81 9.54552 13.4892 9.55003 13.1688C9.55003 12.9437 9.66258 12.8425 9.88769 12.8391C10.2013 12.8391 10.5146 12.8391 10.8275 12.8391C11.0684 12.8391 11.1652 12.9449 11.1652 13.1913C11.1652 13.3444 11.1652 13.4975 11.1652 13.6506C11.1652 13.8036 11.1708 13.9724 11.1663 14.1334L11.1719 14.1323ZM11.1719 11.7001C11.1743 11.7407 11.1679 11.7814 11.1533 11.8194C11.1387 11.8574 11.1162 11.8919 11.0872 11.9206C11.0583 11.9492 11.0235 11.9713 10.9853 11.9855C10.9472 11.9997 10.9064 12.0056 10.8658 12.0028C10.5281 12.0118 10.1905 12.013 9.85955 12.0028C9.81685 12.0063 9.7739 12.0004 9.73372 11.9855C9.69355 11.9706 9.6571 11.9471 9.62697 11.9166C9.59683 11.8862 9.57375 11.8495 9.55929 11.8092C9.54483 11.7689 9.53935 11.7259 9.54327 11.6832C9.54327 11.3545 9.54327 11.027 9.54327 10.6984C9.54327 10.48 9.64681 10.3877 9.87192 10.3832C10.0396 10.3832 10.2096 10.3832 10.375 10.3832H10.8556C10.896 10.378 10.937 10.382 10.9757 10.3947C11.0144 10.4074 11.0497 10.4287 11.079 10.4569C11.1084 10.485 11.1311 10.5194 11.1454 10.5575C11.1597 10.5956 11.1653 10.6365 11.1618 10.677C11.1719 11.0158 11.1708 11.3579 11.1652 11.7012L11.1719 11.7001ZM12.84 10.6928C12.84 10.4744 12.9447 10.3821 13.1698 10.3787C13.4909 10.3787 13.8121 10.3787 14.1332 10.3787C14.3651 10.3787 14.4563 10.4789 14.4619 10.7164C14.4619 10.8695 14.4619 11.0225 14.4619 11.1756C14.4619 11.3287 14.4619 11.5132 14.4619 11.6787C14.4664 11.7211 14.4616 11.764 14.4478 11.8043C14.4341 11.8447 14.4117 11.8816 14.3822 11.9125C14.3528 11.9433 14.317 11.9674 14.2773 11.983C14.2376 11.9986 14.1949 12.0054 14.1524 12.0028C13.8147 12.013 13.477 12.013 13.1461 12.0028C13.1036 12.0051 13.0612 11.998 13.0217 11.9822C12.9822 11.9664 12.9466 11.9421 12.9173 11.9112C12.8881 11.8803 12.866 11.8433 12.8524 11.803C12.8389 11.7627 12.8342 11.7199 12.8389 11.6776C12.831 11.3455 12.8276 11.0225 12.8332 10.6939L12.84 10.6928ZM14.4608 14.1323C14.4608 14.3574 14.3482 14.4541 14.1231 14.462H13.6425C13.4827 14.462 13.3217 14.462 13.1619 14.462C13.1196 14.4671 13.0768 14.4626 13.0365 14.4489C12.9962 14.4353 12.9594 14.4129 12.9289 14.3832C12.8983 14.3535 12.8748 14.3174 12.86 14.2775C12.8452 14.2376 12.8396 14.1949 12.8434 14.1525C12.8389 13.8171 12.8389 13.4821 12.8434 13.1475C12.8397 13.1052 12.8456 13.0626 12.8604 13.0228C12.8753 12.9831 12.8988 12.9471 12.9293 12.9176C12.9598 12.888 12.9965 12.8657 13.0368 12.8521C13.077 12.8385 13.1197 12.8341 13.1619 12.8391C13.4905 12.8391 13.8181 12.8391 14.1467 12.8391C14.3606 12.8391 14.4608 12.9516 14.4641 13.1688C14.4634 13.4915 14.46 13.813 14.454 14.1334L14.4608 14.1323ZM12.4506 7.04166C12.4325 6.7783 12.4168 6.52956 12.3999 6.27407H11.612C11.5951 6.54531 11.5794 6.79293 11.5647 7.04279L10.7926 7.0923V7.88015L11.5614 7.92293C11.5816 8.19305 11.5996 8.44629 11.6188 8.71078H12.401C12.4201 8.44066 12.4371 8.19191 12.4539 7.93079L13.2204 7.87677V7.09456L12.4506 7.04166ZM12.4506 7.04166C12.4325 6.7783 12.4168 6.52956 12.3999 6.27407H11.612C11.5951 6.54531 11.5794 6.79293 11.5647 7.04279L10.7926 7.0923V7.88015L11.5614 7.92293C11.5816 8.19305 11.5996 8.44629 11.6188 8.71078H12.401C12.4201 8.44066 12.4371 8.19191 12.4539 7.93079L13.2204 7.87677V7.09456L12.4506 7.04166ZM14.0601 8.31798C14.0601 8.50706 14.0601 8.67363 14.0601 8.84132C14.0544 9.29827 13.8282 9.53237 13.3712 9.53462C12.4663 9.53462 11.5606 9.53462 10.6542 9.53462C10.1837 9.53462 9.95633 9.30164 9.95295 8.83231C9.95295 8.66124 9.95295 8.49468 9.95295 8.31685H8.30291V17.3208H11.1776C11.1832 17.2274 11.1899 17.1486 11.1899 17.0698C11.1899 16.6466 11.1899 16.2223 11.1899 15.7991C11.1899 15.3759 11.2575 15.2983 11.6807 15.2983H12.4044C12.724 15.2983 12.8175 15.3928 12.8197 15.7203C12.8197 16.1705 12.8197 16.6106 12.8197 17.0563C12.8197 17.1418 12.8299 17.2263 12.8344 17.3208H15.7113V8.31685L14.0601 8.31798ZM11.1731 14.1345C11.1663 14.354 11.0684 14.4598 10.8534 14.4632C10.5259 14.4632 10.1972 14.4632 9.86966 14.4632C9.65581 14.4632 9.55453 14.3506 9.55115 14.1334C9.54665 13.8123 9.54665 13.4915 9.55115 13.1711C9.55115 12.946 9.66371 12.8447 9.88882 12.8413C10.2025 12.8413 10.5157 12.8413 10.8286 12.8413C11.0695 12.8413 11.1663 12.9471 11.1663 13.1936C11.1663 13.3467 11.1663 13.4997 11.1663 13.6528C11.1663 13.8059 11.1708 13.9724 11.1663 14.1334L11.1731 14.1345ZM11.1731 11.7023C11.1754 11.743 11.169 11.7837 11.1544 11.8217C11.1398 11.8597 11.1173 11.8942 11.0883 11.9228C11.0594 11.9515 11.0246 11.9736 10.9865 11.9878C10.9483 12.002 10.9075 12.0079 10.8669 12.0051C10.5292 12.0141 10.1916 12.0152 9.86068 12.0051C9.81768 12.0088 9.77438 12.0029 9.73389 11.988C9.6934 11.9731 9.65669 11.9494 9.62639 11.9187C9.59609 11.8879 9.57294 11.8509 9.55857 11.8102C9.5442 11.7695 9.53897 11.7261 9.54327 11.6832C9.54327 11.3545 9.54327 11.027 9.54327 10.6984C9.54327 10.48 9.64681 10.3877 9.87192 10.3832C10.0396 10.3832 10.2096 10.3832 10.375 10.3832H10.8556C10.896 10.378 10.937 10.382 10.9757 10.3947C11.0144 10.4074 11.0497 10.4287 11.079 10.4569C11.1084 10.485 11.1311 10.5194 11.1454 10.5575C11.1597 10.5956 11.1653 10.6365 11.1618 10.677C11.1719 11.0158 11.1708 11.3579 11.1652 11.7012L11.1731 11.7023ZM12.8411 10.695C12.8411 10.4767 12.9458 10.3844 13.1709 10.381C13.4921 10.381 13.8132 10.381 14.1344 10.381C14.3662 10.381 14.4574 10.4812 14.463 10.7186C14.463 10.8717 14.463 11.0248 14.463 11.1778C14.463 11.3309 14.463 11.5155 14.463 11.6809C14.4675 11.7234 14.4627 11.7662 14.449 11.8066C14.4352 11.847 14.4128 11.8839 14.3834 11.9147C14.3539 11.9456 14.3181 11.9696 14.2784 11.9852C14.2387 12.0008 14.1961 12.0076 14.1535 12.0051C13.8158 12.0152 13.4782 12.0152 13.1473 12.0051C13.1048 12.0073 13.0623 12.0002 13.0228 11.9844C12.9833 11.9686 12.9477 11.9444 12.9185 11.9135C12.8892 11.8825 12.8671 11.8456 12.8535 11.8052C12.84 11.7649 12.8354 11.7221 12.84 11.6798C12.831 11.3455 12.8276 11.0225 12.8332 10.6939L12.8411 10.695ZM14.4619 14.1345C14.4619 14.3596 14.3493 14.4564 14.1242 14.4643H13.6436C13.4838 14.4643 13.3228 14.4643 13.163 14.4643C13.1207 14.4693 13.0779 14.4648 13.0376 14.4512C12.9973 14.4376 12.9605 14.4151 12.93 14.3854C12.8995 14.3558 12.8759 14.3197 12.8612 14.2798C12.8464 14.2399 12.8407 14.1972 12.8445 14.1548C12.84 13.8194 12.84 13.4844 12.8445 13.1497C12.8409 13.1074 12.8467 13.0648 12.8616 13.0251C12.8764 12.9853 12.9 12.9494 12.9305 12.9198C12.961 12.8903 12.9977 12.8679 13.0379 12.8544C13.0781 12.8408 13.1208 12.8363 13.163 12.8413C13.4917 12.8413 13.8192 12.8413 14.1479 12.8413C14.3617 12.8413 14.4619 12.9539 14.4653 13.1711C14.4638 13.4922 14.46 13.813 14.454 14.1334L14.4619 14.1345ZM14.0612 8.31798C14.0612 8.50706 14.0612 8.67363 14.0612 8.84132C14.0556 9.29827 13.8293 9.53237 13.3724 9.53462C12.4674 9.53462 11.5617 9.53462 10.6553 9.53462C10.1848 9.53462 9.95746 9.30164 9.95408 8.83231C9.95408 8.66124 9.95408 8.49468 9.95408 8.31685H8.30404V17.3208H11.1787C11.1843 17.2274 11.1911 17.1486 11.1911 17.0698C11.1911 16.6466 11.1911 16.2223 11.1911 15.7991C11.1911 15.3759 11.2586 15.2983 11.6818 15.2983H12.4055C12.7252 15.2983 12.8186 15.3928 12.8209 15.7203C12.8209 16.1705 12.8209 16.6106 12.8209 17.0563C12.8209 17.1418 12.831 17.2263 12.8355 17.3208H15.7124V8.31685L14.0612 8.31798ZM11.1742 14.1345C11.1674 14.354 11.0695 14.4598 10.8545 14.4632C10.527 14.4632 10.1983 14.4632 9.87079 14.4632C9.65694 14.4632 9.55566 14.3506 9.55228 14.1334C9.54778 13.8123 9.54778 13.4915 9.55228 13.1711C9.55228 12.946 9.66483 12.8447 9.88994 12.8413C10.2036 12.8413 10.5169 12.8413 10.8298 12.8413C11.0706 12.8413 11.1674 12.9471 11.1674 13.1936C11.1674 13.3467 11.1674 13.4997 11.1674 13.6528C11.1674 13.8059 11.1708 13.9724 11.1663 14.1334L11.1742 14.1345ZM11.1742 11.7023C11.1765 11.743 11.1702 11.7837 11.1555 11.8217C11.1409 11.8597 11.1184 11.8942 11.0895 11.9228C11.0605 11.9515 11.0258 11.9736 10.9876 11.9878C10.9494 12.002 10.9087 12.0079 10.868 12.0051C10.5304 12.0141 10.1927 12.0152 9.8618 12.0051C9.81871 12.009 9.77529 12.0032 9.73466 11.9884C9.69403 11.9735 9.65718 11.9499 9.62675 11.9191C9.59632 11.8884 9.57306 11.8513 9.55863 11.8105C9.5442 11.7697 9.53895 11.7262 9.54327 11.6832C9.54327 11.3545 9.54327 11.027 9.54327 10.6984C9.54327 10.48 9.64681 10.3877 9.87192 10.3832C10.0396 10.3832 10.2096 10.3832 10.375 10.3832H10.8556C10.896 10.378 10.937 10.382 10.9757 10.3947C11.0144 10.4074 11.0497 10.4287 11.079 10.4569C11.1084 10.485 11.1311 10.5194 11.1454 10.5575C11.1597 10.5956 11.1653 10.6365 11.1618 10.677C11.1719 11.0158 11.1708 11.3579 11.1652 11.7012L11.1742 11.7023ZM12.8422 10.695C12.8422 10.4767 12.9469 10.3844 13.172 10.381C13.4932 10.381 13.8143 10.381 14.1355 10.381C14.3674 10.381 14.4585 10.4812 14.4641 10.7186C14.4641 10.8717 14.4641 11.0248 14.4641 11.1778C14.4641 11.3309 14.4641 11.5155 14.4641 11.6809C14.4686 11.7234 14.4638 11.7662 14.4501 11.8066C14.4363 11.847 14.4139 11.8839 14.3845 11.9147C14.355 11.9456 14.3192 11.9696 14.2795 11.9852C14.2398 12.0008 14.1972 12.0076 14.1546 12.0051C13.817 12.0152 13.4793 12.0152 13.1484 12.0051C13.1059 12.0073 13.0634 12.0002 13.0239 11.9844C12.9844 11.9686 12.9488 11.9444 12.9196 11.9135C12.8904 11.8825 12.8682 11.8456 12.8547 11.8052C12.8411 11.7649 12.8365 11.7221 12.8411 11.6798C12.831 11.3455 12.8276 11.0225 12.8332 10.6939L12.8422 10.695ZM14.463 14.1345C14.463 14.3596 14.3505 14.4564 14.1254 14.4643H13.6447C13.4849 14.4643 13.324 14.4643 13.1641 14.4643C13.1219 14.4693 13.079 14.4648 13.0387 14.4512C12.9984 14.4376 12.9616 14.4151 12.9311 14.3854C12.9006 14.3558 12.8771 14.3197 12.8623 14.2798C12.8475 14.2399 12.8418 14.1972 12.8456 14.1548C12.8411 13.8194 12.8411 13.4844 12.8456 13.1497C12.842 13.1074 12.8478 13.0648 12.8627 13.0251C12.8775 12.9853 12.9011 12.9494 12.9316 12.9198C12.9621 12.8903 12.9988 12.8679 13.039 12.8544C13.0792 12.8408 13.122 12.8363 13.1641 12.8413C13.4928 12.8413 13.8203 12.8413 14.149 12.8413C14.3628 12.8413 14.463 12.9539 14.4664 13.1711C14.4641 13.4922 14.46 13.813 14.454 14.1334L14.463 14.1345ZM12.4528 7.04392C12.4348 6.78055 12.419 6.53181 12.4021 6.27632H11.6143C11.5974 6.54757 11.5816 6.79518 11.567 7.04504L10.7949 7.09456V7.8824L11.5636 7.92519C11.5839 8.1953 11.6019 8.44854 11.621 8.71303H12.4033C12.4224 8.44291 12.4393 8.19416 12.4562 7.93304L13.2227 7.87902V7.09681L12.4528 7.04392Z" fill="#FF5252"/>
</svg>
