<svg width="24" height="24" viewBox="0 0 24 24" fill="none" xmlns="http://www.w3.org/2000/svg">
<path d="M24.0002 11.9569C24.0087 14.3312 23.3127 16.6548 22.0002 18.6334C20.6876 20.612 18.8177 22.1568 16.6269 23.0722C14.4361 23.9877 12.0229 24.2326 9.69287 23.7761C7.36281 23.3195 5.22055 22.182 3.53722 20.5075C1.85389 18.8329 0.705173 16.6967 0.236423 14.369C-0.232327 12.0414 -2.72989e-05 9.62702 0.903923 7.43146C1.80787 5.23589 3.34284 3.35783 5.31456 2.03497C7.28627 0.712113 9.60612 0.00391707 11.9805 6.30281e-06C15.1584 -0.00324752 18.2081 1.25346 20.4611 3.49471C22.7141 5.73597 23.9868 8.77897 24.0002 11.9569ZM8.4508 11.0972C8.88861 11.04 9.30017 10.9406 9.71173 10.9434C10.368 10.9481 10.6305 11.2181 10.5733 11.8809C10.5264 12.435 10.3858 12.9834 10.2545 13.5281C9.9733 14.7084 9.58892 15.8719 9.4108 17.0672C9.2233 18.3647 10.0624 19.2141 11.3739 19.3256C12.3114 19.4053 13.1449 19.0866 14.0055 18.7988C14.5389 18.6197 14.6177 18.2831 14.6383 17.85C14.2099 17.9081 13.8124 18.0019 13.4195 18.0066C12.6949 18.0141 12.4127 17.7178 12.482 16.9913C12.5374 16.4522 12.6808 15.9216 12.8064 15.3919C13.083 14.2266 13.4514 13.0772 13.638 11.8988C13.8424 10.6144 13.0858 9.78469 11.8014 9.63188C10.8639 9.51938 10.0202 9.84658 9.16142 10.1166C8.64767 10.2778 8.43674 10.5816 8.4508 11.0972ZM13.0783 8.04845C14.0683 8.04095 14.8952 7.26658 14.8989 6.34221C14.8989 5.39815 14.0552 4.60313 13.0502 4.61438C12.0452 4.62563 11.2249 5.41219 11.2399 6.37031C11.253 7.29656 12.0855 8.05595 13.0783 8.04845Z" fill="#EDB21C"/>
</svg>
