<svg width="24" height="24" viewBox="0 0 24 24" fill="none" xmlns="http://www.w3.org/2000/svg">
<path d="M8.67868 16.2622C8.55342 16.2673 8.42842 16.2472 8.31112 16.203C8.19382 16.1587 8.08663 16.0914 7.99591 16.0048C7.9052 15.9183 7.83281 15.8144 7.78309 15.6994C7.73337 15.5843 7.70731 15.4604 7.70648 15.3351C7.70565 15.2097 7.73006 15.0855 7.77826 14.9697C7.82645 14.854 7.89742 14.7492 7.98698 14.6615C8.07654 14.5738 8.18285 14.505 8.29955 14.4592C8.41626 14.4134 8.54097 14.3916 8.66629 14.3951C8.90845 14.4017 9.13857 14.5022 9.30808 14.6752C9.47758 14.8483 9.57321 15.0804 9.57481 15.3227C9.57642 15.5649 9.48388 15.7983 9.31668 15.9736C9.14948 16.1489 8.92073 16.2524 8.67868 16.2622ZM15.3193 9.59943C15.0773 9.58969 14.8485 9.48632 14.6812 9.31113C14.5139 9.13594 14.4212 8.90263 14.4227 8.66041C14.4241 8.4182 14.5196 8.18602 14.689 8.01285C14.8584 7.83969 15.0884 7.73907 15.3305 7.73225C15.4559 7.72873 15.5806 7.75047 15.6974 7.79617C15.8141 7.84186 15.9204 7.91058 16.0101 7.99824C16.0997 8.08589 16.1708 8.1907 16.219 8.30639C16.2673 8.42209 16.2918 8.54632 16.291 8.67168C16.2903 8.79704 16.2643 8.92095 16.2146 9.03606C16.165 9.15116 16.0927 9.25509 16.002 9.34166C15.9113 9.42823 15.8041 9.49568 15.6869 9.53996C15.5696 9.58425 15.4446 9.60447 15.3193 9.59943ZM15.3193 9.59943C15.0773 9.58969 14.8485 9.48632 14.6812 9.31113C14.5139 9.13594 14.4212 8.90263 14.4227 8.66041C14.4241 8.4182 14.5196 8.18602 14.689 8.01285C14.8584 7.83969 15.0884 7.73907 15.3305 7.73225C15.4559 7.72873 15.5806 7.75047 15.6974 7.79617C15.8141 7.84186 15.9204 7.91058 16.0101 7.99824C16.0997 8.08589 16.1708 8.1907 16.219 8.30639C16.2673 8.42209 16.2918 8.54632 16.291 8.67168C16.2903 8.79704 16.2643 8.92095 16.2146 9.03606C16.165 9.15116 16.0927 9.25509 16.002 9.34166C15.9113 9.42823 15.8041 9.49568 15.6869 9.53996C15.5696 9.58425 15.4446 9.60447 15.3193 9.59943ZM8.67868 16.2622C8.55342 16.2673 8.42842 16.2472 8.31112 16.203C8.19382 16.1587 8.08663 16.0914 7.99591 16.0048C7.9052 15.9183 7.83281 15.8144 7.78309 15.6994C7.73337 15.5843 7.70731 15.4604 7.70648 15.3351C7.70565 15.2097 7.73006 15.0855 7.77826 14.9697C7.82645 14.854 7.89742 14.7492 7.98698 14.6615C8.07654 14.5738 8.18285 14.505 8.29955 14.4592C8.41626 14.4134 8.54097 14.3916 8.66629 14.3951C8.90845 14.4017 9.13857 14.5022 9.30808 14.6752C9.47758 14.8483 9.57321 15.0804 9.57481 15.3227C9.57642 15.5649 9.48388 15.7983 9.31668 15.9736C9.14948 16.1489 8.92073 16.2524 8.67868 16.2622ZM20.6993 20.2813C16.2591 25.0623 8.64152 25.2593 3.73534 20.7214C-1.05266 16.2904 -1.26651 8.6788 3.26037 3.75823C7.6972 -1.05992 15.3407 -1.27376 20.2626 3.28103C25.0697 7.7289 25.2656 15.3641 20.6993 20.2813ZM9.83911 6.7756C9.18742 6.32541 8.47495 6.27702 7.68032 6.63605C7.81313 6.74859 7.95158 6.84315 8.07538 6.9602C8.27273 7.14477 8.4637 7.33536 8.64829 7.53194C8.71946 7.5988 8.77644 7.67925 8.81588 7.76858C8.85532 7.8579 8.8764 7.95427 8.87784 8.0519C8.87929 8.14953 8.86106 8.24644 8.82429 8.33689C8.78752 8.42735 8.73295 8.50949 8.66378 8.57842C8.59463 8.64735 8.5123 8.70167 8.42173 8.73815C8.33115 8.77462 8.23415 8.7925 8.13652 8.79074C8.03889 8.78897 7.94261 8.7676 7.85341 8.72787C7.76421 8.68814 7.68391 8.63087 7.61729 8.55949C7.34378 8.29725 7.08042 8.02488 6.81142 7.75814C6.76077 7.70749 6.70674 7.66135 6.6347 7.59495C6.27791 8.38278 6.29705 9.13686 6.78215 9.82903C7.37868 10.6911 8.22507 10.9545 9.25268 10.7226L9.9674 11.4677L11.5229 9.94045L10.7451 9.20213C10.9297 8.17682 10.672 7.35522 9.83911 6.78011V6.7756ZM16.8781 7.0007C16.5317 6.67756 16.0928 6.47119 15.6229 6.41062C15.1531 6.35005 14.6761 6.43833 14.259 6.66306C13.3361 7.15826 12.9422 8.0744 13.1335 9.27753L9.23468 13.1244C8.01348 12.9545 7.12318 13.3495 6.63808 14.3095C6.42629 14.733 6.35222 15.2121 6.42622 15.6797C6.50022 16.1474 6.71861 16.5802 7.05081 16.9176C7.38301 17.255 7.81237 17.4801 8.27884 17.5613C8.74531 17.6426 9.22552 17.576 9.65225 17.3708C10.6236 16.9038 11.0276 16.0203 10.8622 14.6933L14.743 10.8667C16.079 11.004 16.9299 10.6112 17.3903 9.61294C17.5911 9.18025 17.6497 8.69504 17.5577 8.22696C17.4657 7.75887 17.2278 7.33195 16.8781 7.00746V7.0007ZM17.2406 14.188C16.6463 13.2966 15.7887 13.0276 14.734 13.264L14.0249 12.5122L12.474 14.0394L13.2517 14.7935C13.0682 15.8132 13.3282 16.6359 14.1634 17.2099C14.8229 17.6601 15.5433 17.7073 16.3176 17.3933C16.2512 17.3213 16.2051 17.2639 16.1465 17.2099C15.8798 16.9409 15.6052 16.6786 15.3441 16.404C15.2081 16.2672 15.1321 16.0819 15.1327 15.889C15.1333 15.6961 15.2106 15.5113 15.3474 15.3754C15.4843 15.2394 15.6696 15.1634 15.8625 15.164C16.0554 15.1646 16.2402 15.2419 16.3762 15.3787C16.7059 15.6973 17.0245 16.0281 17.37 16.3759C17.7167 15.6061 17.693 14.8723 17.2406 14.1947V14.188ZM15.3216 9.59267C15.0795 9.58293 14.8507 9.47956 14.6834 9.30437C14.5162 9.12918 14.4235 8.89587 14.4249 8.65365C14.4264 8.41144 14.5219 8.17926 14.6913 8.00609C14.8607 7.83293 15.0907 7.73234 15.3328 7.72552C15.4581 7.72199 15.5829 7.74372 15.6996 7.78941C15.8163 7.8351 15.9227 7.90382 16.0123 7.99148C16.1019 8.07913 16.173 8.18394 16.2213 8.29963C16.2695 8.41533 16.294 8.53956 16.2933 8.66492C16.2925 8.79028 16.2665 8.91419 16.2169 9.0293C16.1672 9.1444 16.0949 9.24836 16.0042 9.33493C15.9136 9.4215 15.8064 9.48892 15.6891 9.5332C15.5718 9.57749 15.4468 9.5977 15.3216 9.59267ZM8.68093 16.2555C8.55568 16.2606 8.43068 16.2404 8.31338 16.1962C8.19608 16.152 8.08888 16.0846 7.99817 15.9981C7.90745 15.9116 7.83507 15.8077 7.78535 15.6926C7.73562 15.5775 7.70957 15.4536 7.70873 15.3283C7.7079 15.2029 7.73232 15.0787 7.78051 14.963C7.8287 14.8473 7.89968 14.7425 7.98924 14.6547C8.0788 14.567 8.18511 14.4982 8.30181 14.4525C8.41851 14.4067 8.54323 14.3849 8.66854 14.3883C8.9107 14.395 9.1408 14.4954 9.3103 14.6685C9.47981 14.8415 9.57546 15.0737 9.57707 15.3159C9.57867 15.5581 9.48613 15.7915 9.31893 15.9668C9.15174 16.1421 8.92298 16.2456 8.68093 16.2555Z" fill="#FF7A00"/>
</svg>
