<svg width="24" height="24" viewBox="0 0 24 24" fill="none" xmlns="http://www.w3.org/2000/svg">
<path d="M23.9911 12.3213C23.7315 19.0137 18.1844 24.2594 11.6495 23.9897C4.98197 23.7143 -0.244858 18.1853 0.00912211 11.675C0.267597 5.00616 5.78549 -0.233996 12.2957 0.00766796C18.9913 0.254952 24.244 5.7851 23.9911 12.3213ZM16.8381 15.8597C15.4895 14.5232 14.1916 13.2283 12.8565 11.8986L16.7167 8.0545C16.8264 7.94522 16.8918 7.79922 16.9003 7.64463C16.9088 7.49003 16.8598 7.33776 16.7628 7.21711L16.7561 7.20698C16.7007 7.13781 16.6313 7.08111 16.5525 7.04061C16.4737 7.0001 16.3872 6.97669 16.2988 6.97192C16.2103 6.96714 16.1218 6.98113 16.0391 7.01292C15.9564 7.04471 15.8813 7.0936 15.8188 7.15641C14.4916 8.49286 13.2105 9.781 11.9001 11.1017L7.9668 7.16766C7.91267 7.11353 7.84821 7.07083 7.77725 7.04211C7.70629 7.0134 7.63029 6.99925 7.55375 7.00051C7.47722 7.00177 7.40171 7.01841 7.33174 7.04944C7.26176 7.08047 7.19874 7.12525 7.14641 7.18113L7.13855 7.18901C7.03897 7.29661 6.98477 7.4385 6.98728 7.58511C6.98979 7.73171 7.04882 7.8717 7.15204 7.97582L11.1887 12.0088L7.24194 15.9428C7.1357 16.0498 7.07608 16.1945 7.07608 16.3452C7.07608 16.496 7.1357 16.6407 7.24194 16.7477L7.27903 16.7847C7.33208 16.838 7.39512 16.8803 7.46454 16.9091C7.53397 16.938 7.60842 16.9529 7.6836 16.9529C7.75878 16.9529 7.83322 16.938 7.90265 16.9091C7.97208 16.8803 8.03512 16.838 8.08817 16.7847L12.0653 12.8012L15.9683 16.7251C16.079 16.8365 16.2286 16.9005 16.3855 16.9039C16.5425 16.9072 16.6946 16.8496 16.81 16.7431L16.819 16.7353C16.879 16.6798 16.9271 16.6128 16.9607 16.5382C16.9942 16.4637 17.0124 16.3832 17.0142 16.3015C17.016 16.2198 17.0013 16.1386 16.971 16.0627C16.9408 15.9868 16.8956 15.9177 16.8381 15.8597Z" fill="#FF2626"/>
</svg>
