<svg width="24" height="24" viewBox="0 0 24 24" fill="none" xmlns="http://www.w3.org/2000/svg">
<path d="M13.8717 9.36425L13.8413 9.27984H12.4659C12.3117 8.81726 12.1711 8.39293 12.0293 7.96862H11.9674C11.821 8.39856 11.6736 8.82737 11.5172 9.29445H10.1441C10.1441 9.31921 10.1339 9.34284 10.1294 9.36647L11.2313 10.2016L10.8227 11.5263L10.8858 11.5668L12 10.7733L13.1255 11.5612L13.1806 11.5128C13.0444 11.0784 12.9094 10.6439 12.7698 10.2016L13.8717 9.36425ZM13.8717 9.36425L13.8413 9.27984H12.4659C12.3117 8.81726 12.1711 8.39293 12.0293 7.96862H11.9674C11.821 8.39856 11.6736 8.82737 11.5172 9.29445H10.1441C10.1441 9.31921 10.1339 9.34284 10.1294 9.36647L11.2313 10.2016L10.8227 11.5263L10.8858 11.5668L12 10.7733L13.1255 11.5612L13.1806 11.5128C13.0444 11.0784 12.9094 10.6439 12.7698 10.2016L13.8717 9.36425ZM20.6977 3.71876C16.2588 -1.06233 8.64155 -1.25928 3.73558 3.2787C-1.05334 7.70864 -1.26605 15.3215 3.26063 20.2421C7.69727 25.0592 15.3404 25.2742 20.2621 20.7193C25.0713 16.2714 25.2649 8.63604 20.6977 3.71876ZM17.1265 15.5904C16.6538 16.2928 15.947 16.6687 15.1603 16.8713C14.5162 17.0436 13.8577 17.1566 13.193 17.2089C12.0337 17.2877 10.87 17.2967 9.71639 17.0964C9.01409 16.9726 8.31965 16.7981 7.72765 16.3896C7.39001 16.1555 7.11314 15.8268 6.82727 15.5252C6.73273 15.425 6.69898 15.2674 6.6427 15.147C8.25551 13.6625 15.4147 13.6523 17.3685 15.1357C17.2966 15.2918 17.2158 15.4436 17.1265 15.5904ZM17.4079 14.5291C13.7951 13.1369 10.2049 13.1346 6.59206 14.5291V13.9157C8.31292 12.4076 15.5587 12.4008 17.4079 13.9157V14.5291ZM17.83 13.5657C15.9999 12.5651 14.0236 12.2613 11.9955 12.2624C9.96738 12.2635 8.00454 12.5618 6.16888 13.5679L4.54144 12.1915C4.60791 12.0673 4.68313 11.9481 4.76654 11.8347C5.17016 11.3829 5.432 10.8224 5.51948 10.223C5.54761 10.044 5.59827 9.86958 5.63878 9.69288C5.73445 9.27195 6.00344 9.04348 6.42662 8.9917C6.8498 8.93993 7.27746 8.89377 7.70177 8.8375C8.80586 8.68893 9.79855 8.295 10.6382 7.53755C10.9265 7.29203 11.2348 7.07105 11.5599 6.8769C11.6878 6.79019 11.8387 6.74385 11.9932 6.74385C12.1477 6.74385 12.2987 6.79019 12.4265 6.8769C12.7391 7.05993 13.0348 7.27049 13.31 7.50606C14.2442 8.36819 15.3685 8.7441 16.6021 8.88253C16.9465 8.9208 17.2897 8.95793 17.6319 9.00857C17.798 9.02411 17.9548 9.09251 18.0792 9.20372C18.2035 9.31494 18.289 9.4631 18.3229 9.62647C18.3826 9.85157 18.4433 10.089 18.4839 10.3243C18.5771 10.8719 18.8216 11.3825 19.1895 11.7987C19.2842 11.9222 19.3721 12.0506 19.4529 12.1836L17.83 13.5657ZM13.8413 9.27984H12.4659C12.3117 8.81726 12.1711 8.39293 12.0293 7.96862H11.9674C11.821 8.39856 11.6736 8.82737 11.5172 9.29445H10.1441C10.1441 9.31921 10.1339 9.34284 10.1294 9.36647L11.2313 10.2016L10.8227 11.5263L10.8858 11.5668L12 10.7733L13.1255 11.5612L13.1806 11.5128C13.0444 11.0784 12.9094 10.6439 12.7698 10.2016L13.8762 9.36199L13.8413 9.27984ZM13.8717 9.36425L13.8413 9.27984H12.4659C12.3117 8.81726 12.1711 8.39293 12.0293 7.96862H11.9674C11.821 8.39856 11.6736 8.82737 11.5172 9.29445H10.1441C10.1441 9.31921 10.1339 9.34284 10.1294 9.36647L11.2313 10.2016L10.8227 11.5263L10.8858 11.5668L12 10.7733L13.1255 11.5612L13.1806 11.5128C13.0444 11.0784 12.9094 10.6439 12.7698 10.2016L13.8717 9.36425ZM13.8717 9.36425L13.8413 9.27984H12.4659C12.3117 8.81726 12.1711 8.39293 12.0293 7.96862H11.9674C11.821 8.39856 11.6736 8.82737 11.5172 9.29445H10.1441C10.1441 9.31921 10.1339 9.34284 10.1294 9.36647L11.2313 10.2016L10.8227 11.5263L10.8858 11.5668L12 10.7733L13.1255 11.5612L13.1806 11.5128C13.0444 11.0784 12.9094 10.6439 12.7698 10.2016L13.8717 9.36425Z" fill="white"/>
</svg>
