<svg width="24" height="25" viewBox="0 0 24 25" fill="none" xmlns="http://www.w3.org/2000/svg">
<path d="M11.8781 24.0012C5.25858 23.9581 -0.0576596 18.5124 0.000472232 11.8329C0.0567288 5.2696 5.48737 -0.0428693 12.12 0.000260772C18.7527 0.0433908 24.0577 5.48713 23.9995 12.1685C23.9433 18.7393 18.5183 24.0387 11.8781 24.0012ZM5.61862 11.7841C5.80614 12.011 5.99367 12.2886 6.2337 12.5249C7.30883 13.6125 8.38896 14.6938 9.47408 15.769C10.2636 16.5509 10.4304 16.5528 11.2237 15.769C13.4102 13.5899 15.5929 11.4066 17.7719 9.21882C17.9874 8.97957 18.1902 8.72919 18.3795 8.46873C17.9688 7.53113 17.6463 7.4355 17.0012 8.01307C16.7931 8.20059 16.6018 8.40685 16.403 8.60562L10.3085 14.7057C9.18342 13.56 8.13892 12.4555 7.05692 11.381C6.39685 10.7246 6.01429 10.8315 5.61862 11.7841Z" fill="white"/>
</svg>
