<svg width="425" height="526" viewBox="0 0 425 526" fill="none" xmlns="http://www.w3.org/2000/svg">
  <g filter="url(#filter0_d_308_1600)">
    <rect x="301.5" y="123.5" width="279" height="178" rx="14.5" transform="rotate(90 301.5 123.5)"
      fill="url(#paint0_linear_308_1600)" stroke="#E6E127" />
    <g clip-path="url(#clip0_308_1600)">
      <line x1="103.646" y1="199.646" x2="182.646" y2="120.646" stroke="#474807" stroke-opacity="0.15" />
      <line x1="116.646" y1="227.646" x2="226.646" y2="117.646" stroke="#474807" stroke-opacity="0.15" />
      <line x1="309.354" y1="69.3536" x2="219.354" y2="159.354" stroke="#474807" stroke-opacity="0.15" />
      <line x1="322.354" y1="106.354" x2="112.354" y2="316.354" stroke="#474807" stroke-opacity="0.15" />
      <line x1="115.354" y1="72.6464" x2="170.354" y2="127.646" stroke="#474807" stroke-opacity="0.15" />
      <line x1="103.354" y1="97.6464" x2="171.354" y2="165.646" stroke="#474807" stroke-opacity="0.15" />
      <line x1="153.354" y1="73.6464" x2="226.354" y2="146.646" stroke="#474807" stroke-opacity="0.15" />
      <line x1="199.354" y1="75.6464" x2="273.354" y2="149.646" stroke="#474807" stroke-opacity="0.15" />
      <line x1="319.646" y1="203.354" x2="277.646" y2="161.354" stroke="#474807" stroke-opacity="0.15" />
      <line x1="308.646" y1="231.354" x2="232.646" y2="155.354" stroke="#474807" stroke-opacity="0.15" />
      <line x1="311.646" y1="268.354" x2="177.646" y2="134.354" stroke="#474807" stroke-opacity="0.15" />
      <line x1="312.646" y1="310.354" x2="176.646" y2="174.354" stroke="#474807" stroke-opacity="0.15" />
    </g>
    <path
      d="M217.145 339.698L210.934 334.608L208.015 337.002L210.276 338.834L205.053 343.09L200.671 339.565L211.221 331L221.689 339.531L209.2 349.692L207.086 347.963L217.145 339.698Z"
      fill="#003281" />
    <path
      d="M211.153 356.661L200.711 348.163L213.172 337.97L215.288 339.697L205.229 347.963L211.452 353.054L214.373 350.663L212.11 348.848L217.35 344.591L221.73 348.117L211.153 356.661Z"
      fill="#003281" />
    <path d="M200.648 356.732V353.253L202.812 351.472L204.966 353.267L200.648 356.732Z" fill="#003281" />
    <path d="M221.773 331.077V334.617L219.671 336.318L217.501 334.525L221.773 331.077Z" fill="#003281" />
    <g clip-path="url(#clip1_308_1600)">
      <path
        d="M235.904 347.627C238.379 347.845 240.589 348.137 242.803 348.218C245.342 348.336 247.886 348.286 250.418 348.068V303.376C250.423 302.611 250.235 301.857 249.871 301.185C249.497 300.494 248.986 299.887 248.371 299.4C247.705 298.869 246.951 298.459 246.144 298.189C245.266 297.89 244.343 297.741 243.416 297.748H219.001C218.072 297.741 217.148 297.89 216.268 298.189C215.463 298.46 214.711 298.87 214.046 299.4C213.43 299.887 212.92 300.494 212.545 301.185C212.181 301.856 211.992 302.611 211.998 303.376V429.267H230.034V370.307H232.378V429.267H250.418V360.026H243.173C240.635 357.586 238.245 355.327 237.548 351.888C235.931 350.944 234.121 351.203 232.376 351.036V359.031H230.032V350.719C228.811 350.539 227.601 350.329 226.412 350.03C225.427 349.775 224.555 349.077 223.619 348.564C224.618 347.077 224.83 347.004 227.731 347.081C227.84 346.728 227.939 346.373 228.047 346.024C228.702 345.899 229.368 345.831 230.035 345.82V309.025H232.38V346.053C233.65 346.33 234.849 346.865 235.904 347.627Z"
        fill="url(#paint1_linear_308_1600)" fill-opacity="0.1" />
      <path
        d="M262.265 382.543C261.845 381.531 261.425 380.515 260.851 379.136L259.799 378.664C260.074 373.629 260.346 368.628 260.625 363.561C257.977 362.472 255.349 361.394 252.756 360.331V429.267H261.818C261.818 426.096 261.728 423.022 261.836 419.953C262.007 414.782 262.306 409.613 262.54 404.442C262.667 401.67 262.884 398.889 262.87 396.112C262.853 391.567 262.676 387.017 262.265 382.543ZM252.756 297.75V347.787C253.55 347.674 254.345 347.533 255.141 347.365C259.7 346.408 264.393 346.112 269.403 345.482C269.562 343.994 269.241 342.179 269.493 340.384C269.692 338.95 269.904 337.498 270.321 336.115C270.441 335.699 270.6 335.295 270.795 334.908V297.75H252.756Z"
        fill="url(#paint2_linear_308_1600)" fill-opacity="0.1" />
      <path
        d="M287.289 364.424C287.797 374.191 288.311 383.959 288.812 393.676C287.991 393.958 287.195 394.229 286.381 394.506C286.034 394.048 285.673 393.568 285.306 393.082C284.2 392.923 283.093 392.774 281.725 392.583C281.435 392.414 280.897 392.102 280.364 391.798C280.283 391.898 280.202 392.007 280.125 392.111C280.608 392.646 281.091 393.177 281.661 393.799C282.822 393.653 283.946 393.508 285.068 393.368C285.428 394.034 285.795 394.706 286.187 395.436C286.766 395.35 287.308 395.273 288.099 395.155V406.814C288.026 406.905 287.591 407.405 286.956 408.135C287.233 414.963 287.521 422.044 287.819 429.267H295.951V361.962C292.769 362.577 289.719 363.38 287.289 364.424ZM273.761 297.75V309.025H277.886V333.814C278.804 335.175 279.133 337.102 278.97 338.912C278.758 341.276 278.939 343.639 278.686 346.007C281.859 346.772 288.255 346.965 291.196 347.732C292.601 348.099 294.205 347.859 295.614 348.154L295.953 348.221V309.025H298.266V297.75H273.761Z"
        fill="url(#paint3_linear_308_1600)" fill-opacity="0.1" />
      <path
        d="M338.453 301.185C338.078 300.494 337.569 299.887 336.954 299.4C336.288 298.87 335.536 298.46 334.73 298.189C333.851 297.89 332.929 297.741 332.001 297.748H307.583C306.655 297.741 305.732 297.89 304.854 298.189C304.047 298.459 303.293 298.869 302.628 299.4C302.012 299.886 301.503 300.493 301.131 301.185C300.764 301.856 300.574 302.61 300.58 303.376V348.98C301.118 349.038 301.652 349.084 302.188 349.107C305.18 349.258 308.188 349.157 311.189 349.121C313.248 349.094 315.241 348.908 317.238 348.102C317.685 347.921 318.148 347.779 318.62 347.678V309.025H320.965V347.328C321.488 347.269 322.004 347.211 322.501 347.124C322.893 347.601 323.119 347.889 323.251 348.037C324.434 348.177 325.488 348.272 326.526 348.453C326.771 348.499 326.96 348.843 327.38 349.252C326.82 349.728 326.377 350.205 325.844 350.527C324.321 351.438 322.671 351.897 320.965 352.137V359.031H318.62V352.352C318.603 352.355 318.587 352.355 318.57 352.352C317.116 352.429 315.661 352.366 314.094 352.366C313.347 355.415 312.264 358.246 309.725 360.224C307.136 360.414 303.911 360.713 300.587 361.181V429.26H318.626V370.307H320.972V429.267H339V303.376C339.006 302.611 338.818 301.856 338.453 301.185Z"
        fill="url(#paint4_linear_308_1600)" fill-opacity="0.1" />
      <path
        d="M244.569 358.011C244.628 358.06 244.673 358.123 244.703 358.194C244.965 358.771 244.241 359.311 243.727 358.943C242.584 358.129 241.839 357.18 241.137 356.205C240.202 354.914 239.378 353.545 238.508 352.215C238.508 352.215 238.515 352.215 238.523 352.215C238.532 352.187 238.542 352.16 238.551 352.132C238.588 352.017 238.656 351.915 238.748 351.837C238.84 351.759 238.952 351.709 239.071 351.692C239.19 351.675 239.312 351.692 239.422 351.741C239.531 351.79 239.626 351.869 239.693 351.969C241.149 354.109 242.502 356.334 244.569 358.011Z"
        fill="url(#paint5_linear_308_1600)" fill-opacity="0.1" />
      <path
        d="M249.75 351.67C249.18 351.288 248.608 350.906 248.036 350.514C248.876 350.503 249.415 350.94 249.75 351.67Z"
        fill="url(#paint6_linear_308_1600)" fill-opacity="0.1" />
      <path
        d="M249.942 351.86C251.752 352.989 253.559 354.12 255.364 355.252C256.373 355.832 257.691 355.986 258.222 357.235C257.189 356.663 256.156 356.09 255.122 355.514C253.2 354.57 251.256 353.662 249.942 351.86Z"
        fill="url(#paint7_linear_308_1600)" fill-opacity="0.1" />
      <path
        d="M260.964 360.096C261.037 360.461 261.089 360.829 261.121 361.199C261.116 361.487 261.089 361.774 261.04 362.058C260.837 362.108 260.667 362.216 260.571 362.166C256.161 359.811 251.744 357.463 247.354 355.058C246.731 354.71 246.246 354.103 245.704 353.615C245.103 353.179 244.506 352.738 243.902 352.301C244.892 352.104 245.273 352.931 245.812 353.495C245.958 353.527 246.14 353.495 246.247 353.573C250.648 356.802 255.612 358.786 260.964 360.096Z"
        fill="url(#paint8_linear_308_1600)" fill-opacity="0.1" />
      <path
        d="M263.501 369.169H263.768C263.744 369.665 263.721 370.16 263.698 370.655C263.66 370.655 263.617 370.655 263.571 370.655C263.552 370.159 263.528 369.665 263.501 369.169Z"
        fill="url(#paint9_linear_308_1600)" fill-opacity="0.1" />
      <path
        d="M271.681 342.196C272.798 343.499 274.181 344.122 276.098 343.565C275.436 344.585 274.908 345.379 274.253 346.385C273.105 345.1 271.589 344.184 271.681 342.196Z"
        fill="url(#paint10_linear_308_1600)" fill-opacity="0.1" />
      <path
        d="M264.73 357.629C264.525 361.07 264.334 364.327 264.137 367.586C264.041 367.578 263.94 367.574 263.84 367.571V357.238C261.118 355.581 258.222 354.361 256.261 351.847C256.735 352.083 257.221 352.3 257.668 352.582C260.697 354.493 263.544 356.804 267.217 357.382C268.766 357.625 270.36 357.621 271.931 357.652C273.921 357.69 275.909 357.659 277.904 358.093C274.477 358.306 271.038 358.519 267.418 358.747V373.479H267.187C266.96 368.584 266.733 363.684 266.498 358.665C265.985 358.361 265.434 358.035 264.73 357.629Z"
        fill="url(#paint11_linear_308_1600)" fill-opacity="0.1" />
      <path
        d="M276.225 378.593C276.409 378.806 276.498 379.112 276.629 379.37C276.714 379.522 276.803 379.676 276.883 379.823C276.756 379.718 276.629 379.614 276.493 379.518C272.843 376.764 270.448 373.233 269.766 368.64C270.054 369.011 270.412 369.347 270.594 369.762C272 373.009 273.946 375.906 276.225 378.593Z"
        fill="url(#paint12_linear_308_1600)" fill-opacity="0.1" />
      <path
        d="M278.239 381.884C278.239 381.876 278.232 381.865 278.228 381.857C278.258 381.869 278.296 381.884 278.331 381.9C278.3 381.893 278.266 381.888 278.239 381.884Z"
        fill="url(#paint13_linear_308_1600)" fill-opacity="0.1" />
      <path
        d="M280.068 352.301C281.243 365.14 282.117 377.99 281.617 390.891C281.101 378.025 280.585 365.162 280.068 352.301Z"
        fill="url(#paint14_linear_308_1600)" fill-opacity="0.1" />
      <path
        d="M282.567 399.023C282.537 398.92 282.505 398.819 282.475 398.718C282.736 398.652 282.999 398.583 283.26 398.513C284.031 398.084 284.805 397.646 285.579 397.214L283.43 398.695C283.145 398.808 282.852 398.916 282.567 399.023Z"
        fill="url(#paint15_linear_308_1600)" fill-opacity="0.1" />
      <path d="M285.413 363.783H285.324V366.165H285.413V363.783Z" fill="url(#paint16_linear_308_1600)"
        fill-opacity="0.1" />
      <path d="M286.611 396.886L286.572 396.758L286.615 396.886C286.615 396.886 286.615 396.886 286.611 396.886Z"
        fill="url(#paint17_linear_308_1600)" fill-opacity="0.1" />
      <path
        d="M285.856 368.655C286.11 376.73 286.988 384.777 286.842 392.863C285.991 391.188 285.263 372.047 285.856 368.655Z"
        fill="url(#paint18_linear_308_1600)" fill-opacity="0.1" />
      <path
        d="M269.76 395.908C273.583 397.82 277.375 399.741 281.428 401.201C285.291 402.603 287.012 404.918 287.358 407.804C287.373 407.931 287.231 408.07 287.069 408.406C286.842 407.92 286.583 407.579 286.522 407.203C286.218 405.351 285.224 404.04 283.522 403.283C281.975 402.591 280.489 401.805 278.878 401.194C274.319 399.481 270.052 397.115 266.047 394.311C265.758 394.14 265.47 393.978 265.18 393.811C264.976 393.765 264.772 393.714 264.569 393.669C264.584 393.602 264.595 393.533 264.61 393.463C264.841 393.53 265.072 393.591 265.307 393.653C265.589 393.827 265.873 394.009 266.155 394.187C267.356 394.756 268.565 395.313 269.76 395.908Z"
        fill="url(#paint19_linear_308_1600)" fill-opacity="0.1" />
      <path
        d="M286.846 356.69C286.753 356.539 286.657 356.385 286.56 356.233C288.382 355.096 293.824 352.602 295.642 351.465C294.313 353.357 288.929 355.972 286.846 356.69Z"
        fill="url(#paint20_linear_308_1600)" fill-opacity="0.1" />
      <path
        d="M297.435 355.944C295.545 357.856 289.626 360.45 286.73 361.663C287.647 359.879 292.749 358.431 293.792 357.731C294.89 356.995 296.077 356.385 297.228 355.72C297.763 355.398 298.294 355.07 298.83 354.748C298.364 355.147 297.899 355.545 297.435 355.944Z"
        fill="url(#paint21_linear_308_1600)" fill-opacity="0.1" />
      <path
        d="M304.491 354.807C304.752 354.648 305.076 354.602 305.379 354.528C304.524 355.256 303.693 356.014 302.803 356.695C302.102 357.231 301.328 357.668 300.476 358.218C300.857 358.368 301.111 358.465 301.351 358.562C299.872 359.1 298.416 359.722 296.909 360.155C295.005 360.701 289.426 362.449 287.493 362.904C287.45 362.758 287.408 362.619 287.366 362.471C287.667 362.344 287.964 362.216 288.271 362.108C292.7 360.611 300.494 357.212 304.491 354.807Z"
        fill="url(#paint22_linear_308_1600)" fill-opacity="0.1" />
      <path
        d="M248.984 283.824L248.965 288.063H247.411V283.639C247.412 283.571 247.399 283.504 247.373 283.441C247.347 283.379 247.309 283.322 247.26 283.275C247.213 283.226 247.156 283.187 247.094 283.161C247.031 283.135 246.964 283.122 246.896 283.123C246.828 283.122 246.761 283.135 246.699 283.161C246.636 283.187 246.58 283.226 246.533 283.275C246.484 283.322 246.446 283.378 246.42 283.441C246.394 283.504 246.381 283.571 246.382 283.639V292.634C246.381 292.701 246.393 292.768 246.419 292.83C246.445 292.892 246.484 292.948 246.533 292.994C246.581 293.042 246.637 293.079 246.7 293.105C246.762 293.13 246.829 293.143 246.896 293.142C246.963 293.143 247.03 293.13 247.093 293.105C247.155 293.08 247.212 293.042 247.26 292.994C247.309 292.948 247.347 292.892 247.373 292.83C247.399 292.768 247.412 292.701 247.411 292.634V288.847H248.984V292.449C248.986 292.816 248.889 293.177 248.703 293.493C248.52 293.81 248.258 294.074 247.942 294.257C247.625 294.444 247.264 294.541 246.897 294.539C246.532 294.541 246.173 294.444 245.859 294.257C245.543 294.074 245.28 293.81 245.097 293.493C244.912 293.177 244.815 292.816 244.817 292.449V283.824C244.815 283.457 244.912 283.097 245.097 282.781C245.28 282.463 245.542 282.2 245.859 282.017C246.173 281.83 246.532 281.733 246.897 281.735C247.264 281.733 247.625 281.83 247.942 282.017C248.258 282.2 248.521 282.463 248.703 282.781C248.889 283.097 248.986 283.457 248.984 283.824Z"
        fill="url(#paint23_linear_308_1600)" fill-opacity="0.1" />
      <path d="M256.972 281.94H258.517V294.324H256.972V281.94Z" fill="url(#paint24_linear_308_1600)"
        fill-opacity="0.1" />
      <path
        d="M270.506 283.944L270.497 292.338C270.497 292.553 270.497 292.701 270.487 292.781C270.479 293.048 270.436 293.312 270.36 293.567C270.191 294.071 269.789 294.324 269.156 294.324H266.507V281.94H269.201C269.821 281.94 270.213 282.195 270.378 282.705C270.46 282.958 270.503 283.222 270.505 283.489C270.502 283.577 270.506 283.722 270.506 283.944ZM268.933 292.101V284.187C268.933 283.904 268.841 283.713 268.658 283.615C268.583 283.577 268.502 283.555 268.418 283.55H268.05V292.738H268.381C268.478 292.741 268.573 292.718 268.658 292.673C268.841 292.566 268.939 292.371 268.939 292.098L268.933 292.101Z"
        fill="url(#paint25_linear_308_1600)" fill-opacity="0.1" />
      <path
        d="M283.12 294.324H281.575L281.4 292.736H280.214L280.039 294.324H278.495L280.039 281.94H281.575L283.12 294.324ZM280.802 285.634L280.407 291.193H281.207L280.802 285.634Z"
        fill="url(#paint26_linear_308_1600)" fill-opacity="0.1" />
      <path
        d="M295.109 283.944L295.1 292.338C295.1 292.553 295.1 292.701 295.091 292.781C295.082 293.048 295.039 293.311 294.964 293.567C294.795 294.071 294.393 294.324 293.759 294.324H291.111V281.94H293.805C294.425 281.94 294.817 282.195 294.983 282.705C295.062 282.958 295.103 283.223 295.102 283.489C295.106 283.577 295.109 283.722 295.109 283.944ZM293.536 292.101V284.187C293.536 283.904 293.444 283.713 293.261 283.615C293.186 283.578 293.105 283.556 293.022 283.55H292.654V292.738H292.984C293.08 292.741 293.176 292.719 293.261 292.673C293.444 292.567 293.536 292.375 293.536 292.098V292.101Z"
        fill="url(#paint27_linear_308_1600)" fill-opacity="0.1" />
    </g>
    <g filter="url(#filter1_d_308_1600)">
      <path
        d="M185.636 369.316V363.143H188.793C189.604 363.143 190.21 363.293 190.609 363.593C191.009 363.887 191.209 364.275 191.209 364.757C191.209 365.074 191.124 365.353 190.953 365.594C190.789 365.83 190.554 366.018 190.248 366.159C189.948 366.294 189.589 366.362 189.172 366.362L189.348 365.938C189.783 365.938 190.163 366.006 190.486 366.141C190.809 366.271 191.059 366.462 191.235 366.714C191.418 366.961 191.509 367.264 191.509 367.623C191.509 368.158 191.291 368.575 190.856 368.875C190.427 369.169 189.798 369.316 188.969 369.316H185.636ZM187.364 368.055H188.828C189.128 368.055 189.354 368.005 189.507 367.905C189.666 367.799 189.745 367.64 189.745 367.429C189.745 367.217 189.666 367.061 189.507 366.961C189.354 366.855 189.128 366.803 188.828 366.803H187.241V365.594H188.563C188.857 365.594 189.078 365.544 189.225 365.445C189.372 365.345 189.445 365.195 189.445 364.995C189.445 364.795 189.372 364.648 189.225 364.554C189.078 364.454 188.857 364.404 188.563 364.404H187.364V368.055ZM191.672 369.316L194.397 363.143H196.117L198.851 369.316H197.034L194.9 363.998H195.588L193.454 369.316H191.672ZM193.163 368.117L193.612 366.829H196.628L197.078 368.117H193.163ZM199.346 369.316V363.143H200.783L204.187 367.252H203.508V363.143H205.219V369.316H203.781L200.377 365.206H201.056V369.316H199.346ZM209.528 369.439C209.04 369.439 208.587 369.363 208.17 369.21C207.758 369.051 207.4 368.828 207.094 368.54C206.794 368.252 206.559 367.914 206.389 367.526C206.218 367.132 206.133 366.7 206.133 366.229C206.133 365.759 206.218 365.33 206.389 364.942C206.559 364.548 206.794 364.207 207.094 363.919C207.4 363.631 207.758 363.41 208.17 363.258C208.587 363.099 209.04 363.019 209.528 363.019C210.098 363.019 210.607 363.119 211.053 363.319C211.506 363.519 211.882 363.807 212.182 364.184L211.071 365.189C210.871 364.954 210.651 364.774 210.41 364.651C210.175 364.527 209.91 364.466 209.616 364.466C209.363 364.466 209.131 364.507 208.919 364.589C208.708 364.671 208.526 364.792 208.373 364.951C208.226 365.104 208.108 365.289 208.02 365.506C207.938 365.724 207.896 365.965 207.896 366.229C207.896 366.494 207.938 366.735 208.02 366.952C208.108 367.17 208.226 367.358 208.373 367.517C208.526 367.67 208.708 367.787 208.919 367.87C209.131 367.952 209.363 367.993 209.616 367.993C209.91 367.993 210.175 367.931 210.41 367.808C210.651 367.684 210.871 367.505 211.071 367.27L212.182 368.275C211.882 368.646 211.506 368.934 211.053 369.139C210.607 369.339 210.098 369.439 209.528 369.439ZM215.944 369.439C215.451 369.439 214.995 369.36 214.578 369.201C214.16 369.042 213.796 368.819 213.484 368.531C213.178 368.237 212.94 367.896 212.77 367.508C212.599 367.12 212.514 366.694 212.514 366.229C212.514 365.765 212.599 365.339 212.77 364.951C212.94 364.563 213.178 364.225 213.484 363.937C213.796 363.643 214.16 363.416 214.578 363.258C214.995 363.099 215.451 363.019 215.944 363.019C216.444 363.019 216.9 363.099 217.311 363.258C217.729 363.416 218.09 363.643 218.396 363.937C218.702 364.225 218.94 364.563 219.11 364.951C219.287 365.339 219.375 365.765 219.375 366.229C219.375 366.694 219.287 367.123 219.11 367.517C218.94 367.905 218.702 368.243 218.396 368.531C218.09 368.819 217.729 369.042 217.311 369.201C216.9 369.36 216.444 369.439 215.944 369.439ZM215.944 367.993C216.18 367.993 216.397 367.952 216.597 367.87C216.803 367.787 216.979 367.67 217.126 367.517C217.279 367.358 217.397 367.17 217.479 366.952C217.567 366.735 217.611 366.494 217.611 366.229C217.611 365.959 217.567 365.718 217.479 365.506C217.397 365.289 217.279 365.104 217.126 364.951C216.979 364.792 216.803 364.671 216.597 364.589C216.397 364.507 216.18 364.466 215.944 364.466C215.709 364.466 215.489 364.507 215.283 364.589C215.083 364.671 214.907 364.792 214.754 364.951C214.607 365.104 214.489 365.289 214.401 365.506C214.319 365.718 214.278 365.959 214.278 366.229C214.278 366.494 214.319 366.735 214.401 366.952C214.489 367.17 214.607 367.358 214.754 367.517C214.907 367.67 215.083 367.787 215.283 367.87C215.489 367.952 215.709 367.993 215.944 367.993ZM222.856 369.316V363.143H225.774C226.456 363.143 227.056 363.269 227.573 363.522C228.091 363.775 228.493 364.131 228.782 364.589C229.075 365.048 229.222 365.594 229.222 366.229C229.222 366.858 229.075 367.405 228.782 367.87C228.493 368.328 228.091 368.684 227.573 368.937C227.056 369.189 226.456 369.316 225.774 369.316H222.856ZM224.602 367.923H225.704C226.057 367.923 226.362 367.858 226.621 367.729C226.886 367.593 227.091 367.399 227.238 367.146C227.385 366.888 227.459 366.582 227.459 366.229C227.459 365.871 227.385 365.565 227.238 365.312C227.091 365.059 226.886 364.868 226.621 364.739C226.362 364.604 226.057 364.536 225.704 364.536H224.602V367.923ZM233.254 369.439C232.76 369.439 232.304 369.36 231.887 369.201C231.47 369.042 231.105 368.819 230.794 368.531C230.488 368.237 230.25 367.896 230.079 367.508C229.909 367.12 229.824 366.694 229.824 366.229C229.824 365.765 229.909 365.339 230.079 364.951C230.25 364.563 230.488 364.225 230.794 363.937C231.105 363.643 231.47 363.416 231.887 363.258C232.304 363.099 232.76 363.019 233.254 363.019C233.754 363.019 234.209 363.099 234.621 363.258C235.038 363.416 235.4 363.643 235.705 363.937C236.011 364.225 236.249 364.563 236.42 364.951C236.596 365.339 236.684 365.765 236.684 366.229C236.684 366.694 236.596 367.123 236.42 367.517C236.249 367.905 236.011 368.243 235.705 368.531C235.4 368.819 235.038 369.042 234.621 369.201C234.209 369.36 233.754 369.439 233.254 369.439ZM233.254 367.993C233.489 367.993 233.707 367.952 233.907 367.87C234.112 367.787 234.289 367.67 234.436 367.517C234.588 367.358 234.706 367.17 234.788 366.952C234.877 366.735 234.921 366.494 234.921 366.229C234.921 365.959 234.877 365.718 234.788 365.506C234.706 365.289 234.588 365.104 234.436 364.951C234.289 364.792 234.112 364.671 233.907 364.589C233.707 364.507 233.489 364.466 233.254 364.466C233.019 364.466 232.798 364.507 232.593 364.589C232.393 364.671 232.216 364.792 232.063 364.951C231.916 365.104 231.799 365.289 231.711 365.506C231.628 365.718 231.587 365.959 231.587 366.229C231.587 366.494 231.628 366.735 231.711 366.952C231.799 367.17 231.916 367.358 232.063 367.517C232.216 367.67 232.393 367.787 232.593 367.87C232.798 367.952 233.019 367.993 233.254 367.993ZM194.458 378.316V372.143H197.615C198.427 372.143 199.032 372.293 199.432 372.593C199.832 372.887 200.032 373.275 200.032 373.757C200.032 374.074 199.946 374.353 199.776 374.594C199.611 374.83 199.376 375.018 199.07 375.159C198.771 375.294 198.412 375.362 197.995 375.362L198.171 374.938C198.606 374.938 198.985 375.006 199.309 375.141C199.632 375.271 199.882 375.462 200.058 375.714C200.24 375.961 200.332 376.264 200.332 376.623C200.332 377.158 200.114 377.575 199.679 377.875C199.25 378.169 198.621 378.316 197.792 378.316H194.458ZM196.187 377.055H197.651C197.951 377.055 198.177 377.005 198.33 376.905C198.488 376.799 198.568 376.64 198.568 376.429C198.568 376.217 198.488 376.061 198.33 375.961C198.177 375.855 197.951 375.803 197.651 375.803H196.063V374.594H197.386C197.68 374.594 197.901 374.544 198.048 374.445C198.195 374.345 198.268 374.195 198.268 373.995C198.268 373.795 198.195 373.648 198.048 373.554C197.901 373.454 197.68 373.404 197.386 373.404H196.187V377.055ZM201.236 378.316V372.143H204.058C204.622 372.143 205.107 372.234 205.513 372.416C205.924 372.599 206.242 372.863 206.465 373.21C206.689 373.551 206.8 373.957 206.8 374.427C206.8 374.891 206.689 375.294 206.465 375.635C206.242 375.97 205.924 376.229 205.513 376.411C205.107 376.587 204.622 376.676 204.058 376.676H202.206L202.982 375.944V378.316H201.236ZM205.054 378.316L203.52 376.067H205.381L206.924 378.316H205.054ZM202.982 376.129L202.206 375.326H203.952C204.316 375.326 204.587 375.247 204.763 375.088C204.945 374.93 205.037 374.709 205.037 374.427C205.037 374.139 204.945 373.915 204.763 373.757C204.587 373.598 204.316 373.519 203.952 373.519H202.206L202.982 372.716V376.129ZM207.023 378.316L209.748 372.143H211.467L214.201 378.316H212.384L210.25 372.998H210.938L208.804 378.316H207.023ZM208.513 377.117L208.963 375.829H211.979L212.428 377.117H208.513ZM216.865 378.439C216.36 378.439 215.872 378.378 215.401 378.254C214.937 378.125 214.558 377.96 214.264 377.76L214.837 376.473C215.113 376.649 215.431 376.796 215.789 376.914C216.154 377.025 216.515 377.081 216.874 377.081C217.115 377.081 217.309 377.061 217.456 377.02C217.603 376.972 217.709 376.914 217.774 376.843C217.844 376.767 217.879 376.679 217.879 376.579C217.879 376.437 217.815 376.326 217.685 376.243C217.556 376.161 217.389 376.094 217.183 376.041C216.977 375.988 216.748 375.935 216.495 375.882C216.248 375.829 215.998 375.761 215.745 375.679C215.498 375.597 215.272 375.491 215.066 375.362C214.861 375.226 214.693 375.053 214.564 374.841C214.434 374.624 214.37 374.35 214.37 374.021C214.37 373.651 214.47 373.316 214.67 373.016C214.875 372.716 215.181 372.475 215.587 372.293C215.992 372.111 216.498 372.019 217.103 372.019C217.509 372.019 217.906 372.067 218.294 372.161C218.688 372.249 219.038 372.381 219.343 372.557L218.805 373.854C218.511 373.695 218.22 373.577 217.932 373.501C217.644 373.419 217.365 373.378 217.095 373.378C216.854 373.378 216.66 373.404 216.513 373.457C216.366 373.504 216.26 373.569 216.195 373.651C216.13 373.733 216.098 373.827 216.098 373.933C216.098 374.068 216.16 374.177 216.283 374.259C216.413 374.336 216.58 374.4 216.786 374.453C216.998 374.5 217.227 374.55 217.474 374.603C217.727 374.656 217.976 374.724 218.223 374.806C218.476 374.883 218.705 374.988 218.911 375.124C219.117 375.253 219.282 375.426 219.405 375.644C219.534 375.855 219.599 376.123 219.599 376.446C219.599 376.805 219.496 377.137 219.29 377.443C219.09 377.743 218.788 377.984 218.382 378.166C217.982 378.348 217.477 378.439 216.865 378.439ZM220.406 378.316V372.143H222.152V378.316H220.406ZM223.394 378.316V372.143H225.14V376.931H228.085V378.316H223.394Z"
        fill="#003281" />
    </g>
    <rect x="222.612" y="147.768" width="32.9615" height="21.8442" rx="3.65309" transform="rotate(90 222.612 147.768)"
      fill="#AFAFAF" fill-opacity="0.2" />
    <rect x="222.612" y="147.768" width="32.9615" height="21.8442" rx="3.65309" transform="rotate(90 222.612 147.768)"
      fill="url(#paint28_linear_308_1600)" />
    <rect x="222.612" y="147.768" width="32.9615" height="21.8442" rx="3.65309" transform="rotate(90 222.612 147.768)"
      stroke="#A2A2A2" stroke-width="0.46477" />
    <g clip-path="url(#clip2_308_1600)">
      <path fill-rule="evenodd" clip-rule="evenodd"
        d="M222.186 151.641L221.964 151.86L215.768 157.98L218.798 164.292L219.047 164.427L218.949 164.608L219.056 164.83L218.75 164.977L215.779 170.478L221.964 176.587L222.186 176.806L222.045 177.084C219.91 181.302 215.459 190.072 214.771 191.345L214.019 190.939C214.685 189.706 218.953 181.297 221.142 176.976L214.95 170.862L214.721 170.636L214.874 170.354L217.99 164.585L214.865 158.075L214.733 157.8L214.95 157.586L221.142 151.471C218.953 147.15 214.685 138.741 214.019 137.508L214.771 137.102C215.459 138.375 219.91 147.145 222.045 151.363L222.186 151.641ZM200.582 151.666L200.803 151.885L207 158.004L203.97 164.317L203.721 164.451L203.818 164.632L203.712 164.855L204.018 165.002L206.989 170.503L200.803 176.611L200.582 176.83L200.722 177.109C202.858 181.327 207.309 190.096 207.997 191.37L208.749 190.963C208.083 189.73 203.815 181.322 201.626 177.001L207.818 170.886L208.046 170.661L207.894 170.379L204.778 164.609L207.903 158.099L208.035 157.824L207.818 157.61L201.626 151.495C203.815 147.174 208.083 138.766 208.749 137.533L207.997 137.126C207.309 138.4 202.858 147.169 200.722 151.387L200.582 151.666Z"
        fill="#919191" />
    </g>
    <rect x="222.612" y="147.768" width="32.9615" height="21.8442" rx="3.65309" transform="rotate(90 222.612 147.768)"
      stroke="#A2A2A2" stroke-width="0.46477" />
    <path
      d="M180.389 253V245.39H181.28L184.694 251.141H184.215L187.585 245.39H188.477L188.488 253H187.444L187.433 247.032H187.683L184.683 252.076H184.183L181.161 247.032H181.433V253H180.389ZM194.196 253V251.782L194.141 251.554V249.478C194.141 249.036 194.011 248.695 193.75 248.456C193.496 248.21 193.112 248.086 192.598 248.086C192.257 248.086 191.924 248.144 191.598 248.26C191.271 248.369 190.996 248.518 190.771 248.706L190.337 247.923C190.634 247.684 190.989 247.503 191.402 247.38C191.822 247.249 192.261 247.184 192.717 247.184C193.507 247.184 194.116 247.376 194.544 247.76C194.971 248.144 195.185 248.731 195.185 249.521V253H194.196ZM192.304 253.065C191.877 253.065 191.5 252.993 191.174 252.848C190.855 252.703 190.608 252.504 190.434 252.25C190.26 251.989 190.174 251.696 190.174 251.369C190.174 251.058 190.246 250.775 190.391 250.521C190.543 250.268 190.786 250.065 191.119 249.913C191.46 249.761 191.916 249.684 192.489 249.684H194.315V250.434H192.532C192.011 250.434 191.659 250.521 191.478 250.695C191.297 250.869 191.206 251.079 191.206 251.326C191.206 251.609 191.319 251.837 191.543 252.011C191.768 252.177 192.08 252.261 192.478 252.261C192.869 252.261 193.21 252.174 193.5 252C193.797 251.826 194.011 251.572 194.141 251.239L194.348 251.956C194.21 252.297 193.967 252.569 193.62 252.772C193.272 252.967 192.833 253.065 192.304 253.065ZM198.769 253.065C198.29 253.065 197.834 253 197.399 252.87C196.971 252.739 196.634 252.58 196.388 252.391L196.823 251.565C197.069 251.732 197.373 251.873 197.736 251.989C198.098 252.105 198.468 252.163 198.845 252.163C199.33 252.163 199.678 252.094 199.888 251.956C200.106 251.819 200.214 251.627 200.214 251.38C200.214 251.199 200.149 251.058 200.019 250.956C199.888 250.855 199.714 250.779 199.497 250.728C199.287 250.677 199.051 250.634 198.79 250.598C198.529 250.554 198.269 250.503 198.008 250.445C197.747 250.38 197.508 250.293 197.29 250.184C197.073 250.069 196.899 249.913 196.768 249.717C196.638 249.514 196.573 249.246 196.573 248.913C196.573 248.565 196.671 248.26 196.866 247.999C197.062 247.739 197.337 247.539 197.692 247.402C198.055 247.257 198.482 247.184 198.975 247.184C199.352 247.184 199.732 247.231 200.117 247.325C200.508 247.412 200.827 247.539 201.073 247.706L200.627 248.532C200.367 248.358 200.095 248.239 199.812 248.173C199.53 248.108 199.247 248.076 198.964 248.076C198.508 248.076 198.167 248.152 197.942 248.304C197.718 248.449 197.605 248.637 197.605 248.869C197.605 249.065 197.671 249.217 197.801 249.326C197.939 249.427 198.113 249.507 198.323 249.565C198.54 249.623 198.779 249.674 199.04 249.717C199.301 249.753 199.562 249.804 199.823 249.869C200.084 249.927 200.319 250.011 200.53 250.119C200.747 250.228 200.921 250.38 201.051 250.576C201.189 250.771 201.258 251.032 201.258 251.359C201.258 251.706 201.157 252.007 200.954 252.261C200.751 252.514 200.464 252.714 200.095 252.859C199.725 252.996 199.283 253.065 198.769 253.065ZM204.541 253.065C203.961 253.065 203.512 252.909 203.193 252.598C202.874 252.286 202.714 251.84 202.714 251.261V245.977H203.758V251.217C203.758 251.529 203.834 251.768 203.986 251.935C204.146 252.101 204.37 252.185 204.66 252.185C204.986 252.185 205.258 252.094 205.476 251.913L205.802 252.663C205.642 252.801 205.45 252.902 205.226 252.967C205.008 253.033 204.78 253.065 204.541 253.065ZM201.736 248.097V247.238H205.41V248.097H201.736ZM209.438 253.065C208.822 253.065 208.278 252.938 207.807 252.685C207.343 252.431 206.981 252.083 206.72 251.641C206.466 251.199 206.34 250.692 206.34 250.119C206.34 249.547 206.463 249.039 206.709 248.597C206.963 248.155 207.307 247.811 207.742 247.565C208.184 247.311 208.681 247.184 209.231 247.184C209.789 247.184 210.282 247.307 210.71 247.554C211.137 247.8 211.471 248.148 211.71 248.597C211.956 249.039 212.079 249.558 212.079 250.152C212.079 250.195 212.076 250.246 212.069 250.304C212.069 250.362 212.065 250.416 212.058 250.467H207.155V249.717H211.514L211.09 249.978C211.097 249.608 211.021 249.279 210.862 248.989C210.702 248.699 210.481 248.474 210.199 248.315C209.923 248.148 209.601 248.065 209.231 248.065C208.869 248.065 208.546 248.148 208.264 248.315C207.981 248.474 207.76 248.702 207.601 249C207.441 249.289 207.362 249.623 207.362 250V250.174C207.362 250.558 207.448 250.902 207.622 251.206C207.804 251.503 208.054 251.735 208.372 251.902C208.691 252.069 209.057 252.152 209.47 252.152C209.811 252.152 210.119 252.094 210.394 251.978C210.677 251.862 210.924 251.688 211.134 251.456L211.71 252.13C211.449 252.435 211.123 252.667 210.731 252.826C210.347 252.986 209.916 253.065 209.438 253.065ZM213.529 253V247.238H214.529V248.804L214.431 248.413C214.59 248.014 214.858 247.71 215.235 247.499C215.612 247.289 216.076 247.184 216.627 247.184V248.195C216.583 248.188 216.54 248.184 216.496 248.184C216.46 248.184 216.424 248.184 216.388 248.184C215.83 248.184 215.387 248.351 215.061 248.684C214.735 249.018 214.572 249.5 214.572 250.13V253H213.529ZM221.277 253.087C220.697 253.087 220.161 252.993 219.668 252.804C219.182 252.609 218.758 252.337 218.396 251.989C218.041 251.634 217.762 251.221 217.559 250.75C217.356 250.279 217.254 249.761 217.254 249.195C217.254 248.63 217.356 248.112 217.559 247.641C217.762 247.17 218.044 246.76 218.407 246.412C218.769 246.057 219.193 245.785 219.679 245.597C220.171 245.401 220.708 245.303 221.288 245.303C221.875 245.303 222.414 245.405 222.907 245.608C223.407 245.804 223.831 246.097 224.179 246.488L223.473 247.173C223.183 246.869 222.857 246.644 222.494 246.499C222.132 246.347 221.744 246.271 221.331 246.271C220.903 246.271 220.505 246.343 220.135 246.488C219.773 246.633 219.458 246.836 219.189 247.097C218.921 247.358 218.711 247.67 218.559 248.032C218.414 248.387 218.342 248.775 218.342 249.195C218.342 249.616 218.414 250.007 218.559 250.369C218.711 250.724 218.921 251.032 219.189 251.293C219.458 251.554 219.773 251.757 220.135 251.902C220.505 252.047 220.903 252.119 221.331 252.119C221.744 252.119 222.132 252.047 222.494 251.902C222.857 251.75 223.183 251.518 223.473 251.206L224.179 251.891C223.831 252.283 223.407 252.58 222.907 252.783C222.414 252.986 221.871 253.087 221.277 253.087ZM229.08 253V251.782L229.026 251.554V249.478C229.026 249.036 228.895 248.695 228.634 248.456C228.381 248.21 227.996 248.086 227.482 248.086C227.141 248.086 226.808 248.144 226.482 248.26C226.156 248.369 225.88 248.518 225.656 248.706L225.221 247.923C225.518 247.684 225.873 247.503 226.286 247.38C226.706 247.249 227.145 247.184 227.601 247.184C228.391 247.184 229 247.376 229.428 247.76C229.855 248.144 230.069 248.731 230.069 249.521V253H229.08ZM227.188 253.065C226.761 253.065 226.384 252.993 226.058 252.848C225.739 252.703 225.493 252.504 225.319 252.25C225.145 251.989 225.058 251.696 225.058 251.369C225.058 251.058 225.13 250.775 225.275 250.521C225.427 250.268 225.67 250.065 226.003 249.913C226.344 249.761 226.801 249.684 227.373 249.684H229.199V250.434H227.417C226.895 250.434 226.543 250.521 226.362 250.695C226.181 250.869 226.09 251.079 226.09 251.326C226.09 251.609 226.203 251.837 226.427 252.011C226.652 252.177 226.964 252.261 227.362 252.261C227.754 252.261 228.094 252.174 228.384 252C228.681 251.826 228.895 251.572 229.026 251.239L229.232 251.956C229.094 252.297 228.852 252.569 228.504 252.772C228.156 252.967 227.717 253.065 227.188 253.065ZM232 253V247.238H233.001V248.804L232.903 248.413C233.062 248.014 233.33 247.71 233.707 247.499C234.084 247.289 234.548 247.184 235.099 247.184V248.195C235.055 248.188 235.012 248.184 234.968 248.184C234.932 248.184 234.896 248.184 234.859 248.184C234.301 248.184 233.859 248.351 233.533 248.684C233.207 249.018 233.044 249.5 233.044 250.13V253H232ZM238.712 253.065C238.154 253.065 237.654 252.942 237.212 252.696C236.777 252.449 236.433 252.105 236.18 251.663C235.926 251.221 235.799 250.706 235.799 250.119C235.799 249.532 235.926 249.021 236.18 248.586C236.433 248.144 236.777 247.8 237.212 247.554C237.654 247.307 238.154 247.184 238.712 247.184C239.198 247.184 239.636 247.293 240.028 247.51C240.419 247.728 240.731 248.054 240.963 248.489C241.202 248.923 241.321 249.467 241.321 250.119C241.321 250.771 241.205 251.315 240.974 251.75C240.749 252.185 240.441 252.514 240.05 252.739C239.658 252.957 239.213 253.065 238.712 253.065ZM238.799 252.152C239.162 252.152 239.488 252.069 239.778 251.902C240.075 251.735 240.307 251.5 240.474 251.195C240.647 250.884 240.734 250.525 240.734 250.119C240.734 249.706 240.647 249.351 240.474 249.054C240.307 248.75 240.075 248.514 239.778 248.347C239.488 248.181 239.162 248.097 238.799 248.097C238.43 248.097 238.1 248.181 237.81 248.347C237.52 248.514 237.288 248.75 237.114 249.054C236.941 249.351 236.854 249.706 236.854 250.119C236.854 250.525 236.941 250.884 237.114 251.195C237.288 251.5 237.52 251.735 237.81 251.902C238.1 252.069 238.43 252.152 238.799 252.152ZM240.767 253V251.445L240.832 250.108L240.724 248.771V244.934H241.767V253H240.767Z"
      fill="#161616" />
  </g>
  <defs>
    <filter id="filter0_d_308_1600" x="0" y="7.15256e-07" width="425" height="526" filterUnits="userSpaceOnUse"
      color-interpolation-filters="sRGB">
      <feFlood flood-opacity="0" result="BackgroundImageFix" />
      <feColorMatrix in="SourceAlpha" type="matrix" values="0 0 0 0 0 0 0 0 0 0 0 0 0 0 0 0 0 0 127 0"
        result="hardAlpha" />
      <feOffset />
      <feGaussianBlur stdDeviation="61.5" />
      <feComposite in2="hardAlpha" operator="out" />
      <feColorMatrix type="matrix" values="0 0 0 0 0.816054 0 0 0 0 0.825 0 0 0 0 0.388438 0 0 0 0.28 0" />
      <feBlend mode="normal" in2="BackgroundImageFix" result="effect1_dropShadow_308_1600" />
      <feBlend mode="normal" in="SourceGraphic" in2="effect1_dropShadow_308_1600" result="shape" />
    </filter>
    <filter id="filter1_d_308_1600" x="164.162" y="341.546" width="93.9959" height="58.3671"
      filterUnits="userSpaceOnUse" color-interpolation-filters="sRGB">
      <feFlood flood-opacity="0" result="BackgroundImageFix" />
      <feColorMatrix in="SourceAlpha" type="matrix" values="0 0 0 0 0 0 0 0 0 0 0 0 0 0 0 0 0 0 127 0"
        result="hardAlpha" />
      <feOffset />
      <feGaussianBlur stdDeviation="10.7368" />
      <feComposite in2="hardAlpha" operator="out" />
      <feColorMatrix type="matrix" values="0 0 0 0 1 0 0 0 0 1 0 0 0 0 1 0 0 0 0.25 0" />
      <feBlend mode="normal" in2="BackgroundImageFix" result="effect1_dropShadow_308_1600" />
      <feBlend mode="normal" in="SourceGraphic" in2="effect1_dropShadow_308_1600" result="shape" />
    </filter>
    <linearGradient id="paint0_linear_308_1600" x1="292.833" y1="212.5" x2="597" y2="212.5"
      gradientUnits="userSpaceOnUse">
      <stop stop-color="#F0EB28" />
      <stop offset="1" stop-color="white" />
    </linearGradient>
    <linearGradient id="paint1_linear_308_1600" x1="248.906" y1="339.883" x2="191.86" y2="346.093"
      gradientUnits="userSpaceOnUse">
      <stop stop-color="#0050CD" />
      <stop offset="1" stop-color="#0050CD" stop-opacity="0" />
    </linearGradient>
    <linearGradient id="paint2_linear_308_1600" x1="270.085" y1="339.884" x2="243.054" y2="341.266"
      gradientUnits="userSpaceOnUse">
      <stop stop-color="#0050CD" />
      <stop offset="1" stop-color="#0050CD" stop-opacity="0" />
    </linearGradient>
    <linearGradient id="paint3_linear_308_1600" x1="297.302" y1="339.884" x2="260.663" y2="342.428"
      gradientUnits="userSpaceOnUse">
      <stop stop-color="#0050CD" />
      <stop offset="1" stop-color="#0050CD" stop-opacity="0" />
    </linearGradient>
    <linearGradient id="paint4_linear_308_1600" x1="337.487" y1="339.883" x2="280.442" y2="346.093"
      gradientUnits="userSpaceOnUse">
      <stop stop-color="#0050CD" />
      <stop offset="1" stop-color="#0050CD" stop-opacity="0" />
    </linearGradient>
    <linearGradient id="paint5_linear_308_1600" x1="244.512" y1="354.049" x2="235.973" y2="356.746"
      gradientUnits="userSpaceOnUse">
      <stop stop-color="#0050CD" />
      <stop offset="1" stop-color="#0050CD" stop-opacity="0" />
    </linearGradient>
    <linearGradient id="paint6_linear_308_1600" x1="249.683" y1="350.884" x2="247.709" y2="351.975"
      gradientUnits="userSpaceOnUse">
      <stop stop-color="#0050CD" />
      <stop offset="1" stop-color="#0050CD" stop-opacity="0" />
    </linearGradient>
    <linearGradient id="paint7_linear_308_1600" x1="257.896" y1="353.582" x2="248.54" y2="358.954"
      gradientUnits="userSpaceOnUse">
      <stop stop-color="#0050CD" />
      <stop offset="1" stop-color="#0050CD" stop-opacity="0" />
    </linearGradient>
    <linearGradient id="paint8_linear_308_1600" x1="260.444" y1="355.446" x2="242.219" y2="367.25"
      gradientUnits="userSpaceOnUse">
      <stop stop-color="#0050CD" />
      <stop offset="1" stop-color="#0050CD" stop-opacity="0" />
    </linearGradient>
    <linearGradient id="paint9_linear_308_1600" x1="263.757" y1="369.645" x2="263.358" y2="369.672"
      gradientUnits="userSpaceOnUse">
      <stop stop-color="#0050CD" />
      <stop offset="1" stop-color="#0050CD" stop-opacity="0" />
    </linearGradient>
    <linearGradient id="paint10_linear_308_1600" x1="275.924" y1="343.538" x2="270.172" y2="345.801"
      gradientUnits="userSpaceOnUse">
      <stop stop-color="#0050CD" />
      <stop offset="1" stop-color="#0050CD" stop-opacity="0" />
    </linearGradient>
    <linearGradient id="paint11_linear_308_1600" x1="277.052" y1="358.778" x2="248.505" y2="369.422"
      gradientUnits="userSpaceOnUse">
      <stop stop-color="#0050CD" />
      <stop offset="1" stop-color="#0050CD" stop-opacity="0" />
    </linearGradient>
    <linearGradient id="paint12_linear_308_1600" x1="276.602" y1="372.223" x2="266.48" y2="374.623"
      gradientUnits="userSpaceOnUse">
      <stop stop-color="#0050CD" />
      <stop offset="1" stop-color="#0050CD" stop-opacity="0" />
    </linearGradient>
    <linearGradient id="paint13_linear_308_1600" x1="278.327" y1="381.871" x2="278.24" y2="381.948"
      gradientUnits="userSpaceOnUse">
      <stop stop-color="#0050CD" />
      <stop offset="1" stop-color="#0050CD" stop-opacity="0" />
    </linearGradient>
    <linearGradient id="paint14_linear_308_1600" x1="281.694" y1="364.664" x2="279.152" y2="364.706"
      gradientUnits="userSpaceOnUse">
      <stop stop-color="#0050CD" />
      <stop offset="1" stop-color="#0050CD" stop-opacity="0" />
    </linearGradient>
    <linearGradient id="paint15_linear_308_1600" x1="285.457" y1="397.794" x2="282.147" y2="399.911"
      gradientUnits="userSpaceOnUse">
      <stop stop-color="#0050CD" />
      <stop offset="1" stop-color="#0050CD" stop-opacity="0" />
    </linearGradient>
    <linearGradient id="paint16_linear_308_1600" x1="285.41" y1="364.546" x2="285.276" y2="364.548"
      gradientUnits="userSpaceOnUse">
      <stop stop-color="#0050CD" />
      <stop offset="1" stop-color="#0050CD" stop-opacity="0" />
    </linearGradient>
    <linearGradient id="paint17_linear_308_1600" x1="286.613" y1="396.799" x2="286.55" y2="396.807"
      gradientUnits="userSpaceOnUse">
      <stop stop-color="#0050CD" />
      <stop offset="1" stop-color="#0050CD" stop-opacity="0" />
    </linearGradient>
    <linearGradient id="paint18_linear_308_1600" x1="286.811" y1="376.411" x2="284.981" y2="376.445"
      gradientUnits="userSpaceOnUse">
      <stop stop-color="#0050CD" />
      <stop offset="1" stop-color="#0050CD" stop-opacity="0" />
    </linearGradient>
    <linearGradient id="paint19_linear_308_1600" x1="286.461" y1="398.251" x2="260.582" y2="412.96"
      gradientUnits="userSpaceOnUse">
      <stop stop-color="#0050CD" />
      <stop offset="1" stop-color="#0050CD" stop-opacity="0" />
    </linearGradient>
    <linearGradient id="paint20_linear_308_1600" x1="295.284" y1="353.139" x2="285.674" y2="359.365"
      gradientUnits="userSpaceOnUse">
      <stop stop-color="#0050CD" />
      <stop offset="1" stop-color="#0050CD" stop-opacity="0" />
    </linearGradient>
    <linearGradient id="paint21_linear_308_1600" x1="298.354" y1="356.964" x2="285.599" y2="365.281"
      gradientUnits="userSpaceOnUse">
      <stop stop-color="#0050CD" />
      <stop offset="1" stop-color="#0050CD" stop-opacity="0" />
    </linearGradient>
    <linearGradient id="paint22_linear_308_1600" x1="304.67" y1="357.211" x2="288.191" y2="370.418"
      gradientUnits="userSpaceOnUse">
      <stop stop-color="#0050CD" />
      <stop offset="1" stop-color="#0050CD" stop-opacity="0" />
    </linearGradient>
    <linearGradient id="paint23_linear_308_1600" x1="248.82" y1="285.837" x2="242.65" y2="286.585"
      gradientUnits="userSpaceOnUse">
      <stop stop-color="#0050CD" />
      <stop offset="1" stop-color="#0050CD" stop-opacity="0" />
    </linearGradient>
    <linearGradient id="paint24_linear_308_1600" x1="258.456" y1="285.907" x2="256.14" y2="286.015"
      gradientUnits="userSpaceOnUse">
      <stop stop-color="#0050CD" />
      <stop offset="1" stop-color="#0050CD" stop-opacity="0" />
    </linearGradient>
    <linearGradient id="paint25_linear_308_1600" x1="270.349" y1="285.907" x2="264.426" y2="286.62"
      gradientUnits="userSpaceOnUse">
      <stop stop-color="#0050CD" />
      <stop offset="1" stop-color="#0050CD" stop-opacity="0" />
    </linearGradient>
    <linearGradient id="paint26_linear_308_1600" x1="282.938" y1="285.907" x2="276.121" y2="286.856"
      gradientUnits="userSpaceOnUse">
      <stop stop-color="#0050CD" />
      <stop offset="1" stop-color="#0050CD" stop-opacity="0" />
    </linearGradient>
    <linearGradient id="paint27_linear_308_1600" x1="294.951" y1="285.907" x2="289.03" y2="286.62"
      gradientUnits="userSpaceOnUse">
      <stop stop-color="#0050CD" />
      <stop offset="1" stop-color="#0050CD" stop-opacity="0" />
    </linearGradient>
    <linearGradient id="paint28_linear_308_1600" x1="228.366" y1="142.014" x2="251.028" y2="174.51"
      gradientUnits="userSpaceOnUse">
      <stop stop-color="#8B8B8B" />
      <stop offset="0.423384" stop-color="white" />
      <stop offset="0.551508" stop-color="white" />
      <stop offset="1" stop-color="#8B8B8B" />
    </linearGradient>
    <clipPath id="clip0_308_1600">
      <rect x="124" y="124" width="177" height="237" rx="14" fill="white" />
    </clipPath>
    <clipPath id="clip1_308_1600">
      <path d="M212 282H302V386C302 394.837 294.837 402 286 402H212V282Z" fill="white" />
    </clipPath>
    <clipPath id="clip2_308_1600">
      <rect x="222.379" y="148" width="32.4967" height="21.3794" rx="3.4207" transform="rotate(90 222.379 148)"
        fill="white" />
    </clipPath>
  </defs>
</svg>