<svg width="93" height="89" viewBox="0 0 93 89" fill="none" xmlns="http://www.w3.org/2000/svg">
  <g filter="url(#filter0_d_336_1249)">
    <path
      d="M64.3768 45.7377C65.9884 46.0346 66.7602 45.7377 67.2331 44.6557C67.2314 44.4495 67.1577 44.2505 67.0247 44.0929C66.8917 43.9354 66.7078 43.8294 66.5048 43.7932C66.0244 43.6627 65.7747 43.3316 65.5988 42.7774L66.1038 41.9792C67.8516 41.7125 69.0849 42.7812 69.1738 44.4079C69.2589 45.9533 68.1694 46.9823 66.8699 47.5157C65.9241 47.894 65.2715 47.9621 64.1044 47.8694C63.7488 49.7345 63.4254 51.6336 62.4777 53.3247C61.5444 55.0437 60.3296 56.5942 58.8838 57.9117C57.4405 59.1941 55.8081 60.1947 54.0036 61.0989C53.9287 61.4503 53.8756 61.8059 53.8447 62.1638C53.822 63.0453 53.8447 63.9287 53.8447 64.812V65.7048C53.0654 65.9356 49.846 65.9658 48.8378 65.7729C48.5786 64.8271 48.8832 63.7981 48.6486 62.7351C46.2749 63.168 43.8421 63.1628 41.4702 62.72C41.2186 63.7471 41.4986 64.7647 41.2943 65.7256C40.5944 65.9337 37.1821 65.9658 36.1304 65.7653C35.9772 64.237 36.1625 62.667 36.0169 61.0478C33.83 60.061 31.8524 58.6645 30.1909 56.9337C28.515 55.1613 27.3536 53.109 26.4665 50.7748H23.1166C22.9274 49.8593 23.0296 49.0138 23.0125 48.1778C22.9936 47.2963 23.0125 46.4129 23.0125 45.5296V42.8985C24.2004 42.7245 25.3335 42.8985 26.4835 42.7774C27.2004 40.7856 28.15 38.9338 29.5346 37.3676C30.9192 35.8014 32.4211 34.3771 34.3429 33.3594V28.5227C34.7439 28.1444 35.073 28.2939 35.4059 28.379C36.6387 28.6924 37.7551 29.3544 38.6216 30.2856C38.8448 35.3096 41.2413 38.6992 46.1669 40.0782C48.4368 40.7118 50.6688 40.3487 52.7873 39.3688C54.9059 38.389 56.4323 36.7377 57.4349 34.5416C58.7078 35.3734 59.8469 36.3939 60.8132 37.5681C61.8105 38.7075 62.6005 40.0129 63.1473 41.425C63.658 42.8171 63.9701 44.3001 64.3768 45.7377ZM30.225 41.5384C30.8076 42.3783 31.5188 42.5901 32.353 42.3688C32.6319 42.3048 32.8828 42.1531 33.0691 41.9358C33.2553 41.7186 33.367 41.4474 33.3877 41.162C33.4822 40.2862 33.0869 39.6488 32.317 39.2705C31.1065 39.1683 30.887 39.2705 30.225 40.1709V41.5384Z"
      fill="#161616" />
    <path
      d="M48.3952 38.2774C44.0446 38.3909 40.7533 34.5246 40.7552 30.5675C40.7571 26.6104 44.3056 22.92 48.3933 23.0013C52.8649 23.094 55.9594 26.2529 56.0654 30.6224C56.1732 35.0391 52.3787 38.4079 48.3952 38.2774ZM49.0496 34.7213L49.6757 34.4679C50.6839 34.0593 51.0811 33.4181 50.9998 32.3399C50.9812 31.9448 50.8558 31.5622 50.637 31.2328C50.4181 30.9033 50.114 30.6394 49.7571 30.4691C49.3125 30.2365 48.851 30.0303 48.4122 29.7863C47.8239 29.4591 47.7861 29.3399 47.9109 28.4622C48.1663 28.4149 48.4784 28.2731 48.7451 28.3241C49.3125 28.4319 49.2312 29.0637 49.4714 29.4591C49.6979 29.5578 49.9422 29.6088 50.1893 29.6088C50.4363 29.6088 50.6807 29.5578 50.9071 29.4591C51.0774 29.007 50.9544 28.6344 50.8088 28.239C50.5194 27.4559 49.846 27.1324 49.2047 26.8525L48.9834 25.8197L48.2627 25.9086L48.0509 26.8544C47.9201 26.9148 47.7862 26.9685 47.6499 27.0152C46.6417 27.2989 46.1366 27.9931 46.095 29.0089C46.0648 29.9698 46.4733 30.6942 47.3945 31.1066C48.0206 31.3884 48.6221 31.7232 49.2293 32.0297V33.2005L48.0017 33.3897L47.1846 32.0656L45.9929 32.1299C45.7867 33.6091 46.0402 33.959 47.8598 34.8329C47.945 35.0788 48.032 35.338 48.1322 35.6274L48.8075 35.5877C48.8945 35.251 48.9702 34.9937 49.0496 34.7213Z"
      fill="#161616" />
    <path d="M32.2376 29.8563V32.1961L30.9816 33.1835C30.9343 31.9067 30.9419 30.8021 30.9816 29.5574L32.2376 29.8563Z"
      fill="#161616" />
  </g>
  <defs>
    <filter id="filter0_d_336_1249" x="0" y="0" width="92.1785" height="88.8999" filterUnits="userSpaceOnUse"
      color-interpolation-filters="sRGB">
      <feFlood flood-opacity="0" result="BackgroundImageFix" />
      <feColorMatrix in="SourceAlpha" type="matrix" values="0 0 0 0 0 0 0 0 0 0 0 0 0 0 0 0 0 0 127 0"
        result="hardAlpha" />
      <feOffset />
      <feGaussianBlur stdDeviation="11.5" />
      <feComposite in2="hardAlpha" operator="out" />
      <feColorMatrix type="matrix" values="0 0 0 0 1 0 0 0 0 1 0 0 0 0 1 0 0 0 0.22 0" />
      <feBlend mode="normal" in2="BackgroundImageFix" result="effect1_dropShadow_336_1249" />
      <feBlend mode="normal" in="SourceGraphic" in2="effect1_dropShadow_336_1249" result="shape" />
    </filter>
  </defs>
</svg>