<svg width="25" height="34" viewBox="0 0 25 34" fill="none" xmlns="http://www.w3.org/2000/svg">
<path d="M0.699005 11.5861C0.450115 13.4647 0.456312 15.3685 0.717425 17.2453C0.863636 18.3169 1.01791 19.4164 1.18599 20.5135C1.30112 21.2958 1.57742 21.4509 2.34301 21.3062C4.53042 20.8942 6.71782 20.7669 8.90523 21.1905C9.42906 21.2923 9.82049 21.1384 10.007 20.6119C10.8981 18.1225 11.7339 15.617 11.5405 12.9147C11.3874 10.7332 11.0639 8.58644 9.95058 6.6503C9.76999 6.33254 9.56319 6.03058 9.33235 5.7476C7.79886 3.89594 5.73695 3.67489 3.85808 5.16896C2.13118 6.5415 1.26428 8.43368 0.864787 10.5411C0.800317 10.886 0.746206 11.2332 0.699005 11.5861Z" fill="white"/>
<path d="M9.89876 24.7468L2.15304 25.771C2.24744 26.8901 2.26816 27.9872 2.45352 29.0543C2.61815 29.987 2.85876 30.9453 3.27552 31.7878C4.10674 33.4635 5.55733 34.0561 7.46843 33.6869C9.2621 33.3397 10.3075 32.2032 10.5331 30.3551C10.7139 28.8795 10.4272 26.264 9.89876 24.7468Z" fill="white"/>
<path d="M24.818 8.04365C25.0664 9.9222 25.0602 11.8259 24.7996 13.7028C24.6534 14.7745 24.4991 15.8739 24.331 16.9722C24.2159 17.7533 23.9396 17.9084 23.1798 17.7638C20.9924 17.3518 18.805 17.2245 16.6176 17.648C16.0937 17.7499 15.7023 17.5959 15.5158 17.0694C14.6247 14.58 13.7889 12.0745 13.9823 9.37223C14.1354 7.19074 14.4589 5.04396 15.5722 3.10782C15.7528 2.79006 15.9596 2.4881 16.1904 2.20512C17.7239 0.353456 19.7858 0.132413 21.6647 1.62648C23.3916 3.00018 24.2574 4.8912 24.658 6.99863C24.7167 7.3435 24.7674 7.69068 24.818 8.04365Z" fill="white"/>
<path d="M15.6182 21.2044L23.364 22.2274C23.2695 23.3465 23.2488 24.4437 23.0635 25.5107C22.8988 26.4435 22.6582 27.4017 22.2403 28.2442C21.4103 29.9211 19.9597 30.5125 18.0486 30.1433C16.2549 29.7961 15.2095 28.6597 14.9839 26.8115C14.8031 25.3371 15.0898 22.7216 15.6182 21.2044Z" fill="white"/>
</svg>
