<svg width="15" height="15" viewBox="0 0 15 15" fill="none" xmlns="http://www.w3.org/2000/svg">
  <path
    d="M6.97182 9.02544C7.01766 9.05355 7.07094 9.07408 7.10874 9.10978C8.00169 9.95495 8.89285 10.804 9.78937 11.647C10.1763 12.0097 10.2954 12.4291 10.1272 12.9158C10.0885 13.0317 10.0247 13.1387 9.93968 13.2299C9.66376 13.511 9.38486 13.7922 9.08572 14.0523C8.53091 14.5333 7.83292 14.5117 7.2915 14.0095C6.91616 13.6617 6.54737 13.3066 6.17531 12.9566C4.45669 11.3332 2.73757 9.71006 1.01795 8.08721C0.622676 7.71524 0.500045 7.28338 0.683099 6.79247C0.752553 6.61768 0.861196 6.45914 1.00158 6.32772C3.09386 4.34087 5.19049 2.3586 7.2915 0.380935C7.83262 -0.128805 8.59192 -0.12515 9.13692 0.380935C9.36036 0.587119 9.58121 0.79602 9.79949 1.00764C10.3439 1.53453 10.3439 2.21971 9.79532 2.74239C8.90099 3.59411 8.00486 4.44405 7.10696 5.29221C7.06975 5.32764 7.03433 5.36447 6.97212 5.42717L7.17571 5.42717C9.35331 5.42717 11.5312 5.44038 13.7085 5.41986C14.5032 5.41255 14.9646 5.9147 14.9884 6.52678C15.0063 7.00475 15.0045 7.48272 14.9759 7.95928C14.9461 8.4783 14.5068 8.98045 13.7808 8.9768C11.5833 8.96527 9.38575 8.97258 7.18821 8.97258L7.0129 8.97258L6.97182 9.02544Z"
    fill="white" />
</svg>