<svg width="15" height="15" viewBox="0 0 15 15" fill="none" xmlns="http://www.w3.org/2000/svg">
  <path
    d="M8.4282 9.02544C8.38236 9.05355 8.32908 9.07408 8.29128 9.10978C7.39834 9.95495 6.50718 10.804 5.61066 11.647C5.22371 12.0097 5.10466 12.4291 5.27283 12.9158C5.31148 13.0317 5.37535 13.1387 5.46035 13.2299C5.73627 13.511 6.01516 13.7922 6.3143 14.0523C6.86912 14.5333 7.5671 14.5117 8.10853 14.0095C8.48386 13.6617 8.85265 13.3066 9.22471 12.9566C10.9433 11.3332 12.6625 9.71006 14.3821 8.08721C14.7773 7.71524 14.9 7.28338 14.7169 6.79247C14.6475 6.61768 14.5388 6.45914 14.3984 6.32772C12.3062 4.34087 10.2095 2.3586 8.10853 0.380935C7.5674 -0.128805 6.8081 -0.12515 6.2631 0.380935C6.03967 0.587119 5.81881 0.79602 5.60054 1.00764C5.05614 1.53453 5.05614 2.21971 5.6047 2.74239C6.49904 3.59411 7.39516 4.44405 8.29307 5.29221C8.33027 5.32764 8.3657 5.36447 8.4279 5.42717L8.22431 5.42717C6.04671 5.42717 3.86882 5.44038 1.69152 5.41986C0.896794 5.41255 0.435438 5.9147 0.411626 6.52678C0.393767 7.00475 0.395552 7.48272 0.424126 7.95928C0.453891 8.4783 0.893223 8.98045 1.61919 8.9768C3.81673 8.96527 6.01427 8.97258 8.21181 8.97258L8.38713 8.97258L8.4282 9.02544Z"
    fill="white" />
</svg>