<svg width="16" height="17" viewBox="0 0 16 17" fill="none" xmlns="http://www.w3.org/2000/svg">
<path d="M7.07983 10.3359C7.13076 10.3672 7.18996 10.39 7.23196 10.4297C8.22412 11.3687 9.2143 12.3122 10.2104 13.2487C10.6404 13.6517 10.7727 14.1178 10.5858 14.6586C10.5429 14.7874 10.4719 14.9062 10.3774 15.0075C10.0709 15.3199 9.76098 15.6323 9.42861 15.9213C8.81215 16.4558 8.0366 16.4318 7.43502 15.8738C7.01798 15.4874 6.60822 15.0928 6.19482 14.7039C4.28524 12.9001 2.3751 11.0966 0.46442 9.29347C0.0252229 8.88016 -0.111034 8.40032 0.0923592 7.85487C0.16953 7.66066 0.290245 7.4845 0.44623 7.33848C2.77098 5.13086 5.10057 2.92835 7.43502 0.730939C8.03627 0.164561 8.87994 0.168623 9.48549 0.730939C9.73375 0.960032 9.97915 1.19214 10.2217 1.42728C10.8266 2.01271 10.8266 2.77403 10.217 3.35477C9.22334 4.30113 8.22765 5.24551 7.22998 6.18791C7.18864 6.22728 7.14928 6.2682 7.08016 6.33787L7.30637 6.33787C9.72593 6.33787 12.1458 6.35255 14.565 6.32974C15.4481 6.32162 15.9607 6.87956 15.9871 7.55966C16.007 8.09073 16.005 8.62181 15.9732 9.15132C15.9402 9.72801 15.452 10.286 14.6454 10.2819C12.2037 10.2691 9.76198 10.2772 7.32026 10.2772L7.12547 10.2772L7.07983 10.3359Z" fill="white"/>
</svg>
