<svg width="44" height="27" viewBox="0 0 44 27" fill="none" xmlns="http://www.w3.org/2000/svg">
<path d="M32.1208 19.6478V14.0231C32.5312 13.8941 32.9936 13.7559 33.4515 13.605C34.9838 13.1015 36.4982 12.5515 37.7734 11.5099C38.0861 11.2545 38.3155 10.8918 38.5602 10.6055C38.3388 9.92011 37.8872 9.57016 37.4194 9.24203C36.2071 8.41219 34.8617 7.80258 33.4434 7.44047C31.6468 6.96873 29.8375 6.49062 28.0032 6.23248C25.1044 5.82527 22.1786 5.6871 19.2502 5.95342C17.4123 6.12249 15.5663 6.28792 13.7544 6.62605C11.2194 7.09871 8.73627 7.78679 6.55159 9.28202C6.10354 9.58834 5.68148 9.92465 5.48344 10.4737C5.57305 11.0618 5.99959 11.4235 6.44047 11.6644C7.57493 12.2852 8.72463 12.9033 9.92629 13.3641C11.076 13.8041 12.2875 14.0995 13.4927 14.3585C14.6415 14.6049 15.8172 14.7221 16.9822 14.893C17.4042 14.953 17.8299 14.9839 18.363 15.0466V9.75104L18.5109 9.69287L28.988 17.9526L18.4078 26.3077C18.3182 24.3725 18.4213 22.5437 18.3532 20.6576C17.8155 20.5876 17.32 20.5313 16.8244 20.4549C15.1174 20.1913 13.3915 20.0086 11.7104 19.6269C10.0586 19.2482 8.43241 18.7624 6.84192 18.1725C4.92249 17.4663 3.18854 16.411 1.76196 14.8857C-0.20318 12.7851 -0.58134 9.72923 0.915141 7.27323C1.81124 5.80163 3.1294 4.76542 4.60348 3.91918C6.19763 3.00386 7.902 2.36032 9.65298 1.86767C10.981 1.49318 12.3493 1.25594 13.706 0.993255C17.5135 0.25791 21.3623 0.217002 25.2128 0.397885C26.8177 0.473328 28.419 0.707839 30.0123 0.943258C31.1777 1.11158 32.3338 1.34124 33.4757 1.63133C35.9391 2.25942 38.3146 3.13112 40.4446 4.57181C41.6158 5.36624 42.6446 6.35155 43.3121 7.63863C44.5667 10.0692 44.064 13.0478 42.14 15.0012C40.7 16.4555 38.993 17.489 37.0995 18.1825C35.6783 18.7052 34.2212 19.1287 32.7767 19.5832C32.5832 19.6378 32.3708 19.6232 32.1208 19.6478Z" fill="white"/>
</svg>
