<svg width="20" height="20" viewBox="0 0 20 20" fill="none" xmlns="http://www.w3.org/2000/svg">
<path d="M10.4024 9.75798C10.1904 9.45598 9.79462 9.44658 9.60516 9.76265C9.50199 9.9371 9.46447 10.151 9.39131 10.3657C9.46071 10.5796 9.49448 10.8018 9.59953 10.9847C9.78711 11.313 10.1979 11.3027 10.4099 10.9847C10.6219 10.6668 10.6163 10.0628 10.4024 9.75798ZM10.4024 9.75798C10.1904 9.45598 9.79462 9.44658 9.60516 9.76265C9.50199 9.9371 9.46447 10.151 9.39131 10.3657C9.46071 10.5796 9.49448 10.8018 9.59953 10.9847C9.78711 11.313 10.1979 11.3027 10.4099 10.9847C10.6219 10.6668 10.6163 10.0628 10.4024 9.75798ZM17.2493 3.09893C13.5492 -0.885246 7.20123 -1.04939 3.11277 2.7322C-0.877214 6.42469 -1.05542 12.7677 2.71696 16.8681C6.41431 20.8833 12.7838 21.0615 16.8854 17.2658C20.8923 13.5592 21.0536 7.19659 17.2503 3.09893H17.2493ZM14.2067 12.7968C14.1879 13.0547 14.1579 13.3117 14.1467 13.5696C14.1317 13.925 14.0153 14.0488 13.6608 14.0488H6.55968C6.44994 14.0488 6.3402 14.0488 6.23047 14.0488C6.14253 14.0517 6.05681 14.021 5.99065 13.963C5.92448 13.905 5.8828 13.8241 5.87405 13.7365C5.82996 13.3792 5.81121 13.02 5.78589 12.6608C5.78589 12.6336 5.80839 12.6045 5.82715 12.5623H14.2067C14.2067 12.6486 14.2067 12.7217 14.2067 12.7968ZM15.2534 9.56571C14.972 10.2738 14.6747 11.0194 14.3727 11.7791H5.63395L4.75603 9.56665C4.15575 9.3997 3.89407 9.04237 4.00568 8.60906C4.05234 8.41633 4.1726 8.24952 4.34072 8.14435C4.50883 8.03917 4.71144 8.00399 4.90517 8.04632C5.35257 8.15324 5.56172 8.54996 5.43698 9.11176C5.81215 9.39313 6.17983 9.72701 6.73321 9.74014C6.98082 9.17741 6.90108 8.61467 6.857 8.05193C6.21076 7.77619 6.15075 7.28661 6.33083 6.92646C6.41793 6.7575 6.56591 6.62789 6.74489 6.56383C6.92386 6.49976 7.12049 6.50602 7.29503 6.58132C7.69459 6.75108 7.83622 7.16656 7.64958 7.67678C7.91782 8.04255 8.18232 8.42711 8.6813 8.60906C9.20374 7.95253 9.33785 7.16563 9.56296 6.41625C9.1165 5.93417 9.1934 5.49712 9.51136 5.20356C9.65262 5.07585 9.83775 5.00766 10.0281 5.01326C10.2184 5.01885 10.3993 5.0978 10.5328 5.23358C10.8526 5.55059 10.8282 5.9717 10.4465 6.40125C10.6547 7.15157 10.8095 7.93377 11.3178 8.60718C11.8215 8.44868 12.0766 8.05007 12.358 7.69086C12.1132 7.06059 12.4237 6.69106 12.7613 6.56538C12.9438 6.49886 13.1449 6.50566 13.3225 6.58437C13.5 6.66308 13.6401 6.80757 13.7133 6.98744C13.8822 7.40855 13.6861 7.79026 13.16 8.03224C13.1037 8.58935 13.0408 9.15773 13.2669 9.73172C13.8202 9.74391 14.1776 9.39126 14.5697 9.12021C14.3999 8.44211 14.7732 8.10352 15.1512 8.03412C15.3432 8.00369 15.5396 8.04813 15.6998 8.15825C15.86 8.26837 15.9718 8.43577 16.0122 8.62594C16.1013 9.05643 15.8387 9.40345 15.2506 9.56383L15.2534 9.56571ZM9.60797 9.76453C9.5048 9.93898 9.46728 10.1528 9.39412 10.3676C9.46353 10.5815 9.49729 10.8037 9.60234 10.9866C9.78993 11.3149 10.2008 11.3046 10.4127 10.9866C10.6247 10.6687 10.6191 10.0619 10.4052 9.75704C10.1914 9.45223 9.79837 9.44658 9.60516 9.76265L9.60797 9.76453Z" fill="white"/>
</svg>
