<svg width="20" height="20" viewBox="0 0 20 20" fill="none" xmlns="http://www.w3.org/2000/svg">
<path d="M10.3682 5.86703C10.3532 5.64757 10.3401 5.44028 10.326 5.22738H9.66931C9.65524 5.45341 9.64209 5.65976 9.62989 5.86797L8.98636 5.90923V6.56576L9.6271 6.60141C9.64399 6.82651 9.65897 7.03754 9.67492 7.25794H10.3269C10.3429 7.03285 10.357 6.82556 10.371 6.60796L11.0099 6.56295V5.91111L10.3682 5.86703ZM11.7097 6.93062C11.7097 7.08818 11.7097 7.22698 11.7097 7.36673C11.705 7.74752 11.5165 7.94259 11.1356 7.94447C10.3813 7.94447 9.62647 7.94447 8.87097 7.94447C8.47884 7.94447 8.28934 7.75032 8.28652 7.35922C8.28652 7.21666 8.28652 7.07787 8.28652 6.92968H6.91122V14.4329H9.30719C9.31188 14.355 9.31752 14.2894 9.31752 14.2237C9.31752 13.8711 9.31752 13.5175 9.31752 13.1648C9.31752 12.8122 9.37379 12.7475 9.72652 12.7475H10.3298C10.5962 12.7475 10.674 12.8262 10.6759 13.0992C10.6759 13.4743 10.6759 13.841 10.6759 14.2124C10.6759 14.2837 10.6843 14.3541 10.6881 14.4329H13.0859V6.92968L11.7097 6.93062ZM9.30343 11.7777C9.2978 11.9606 9.2162 12.0487 9.03702 12.0515C8.76403 12.0515 8.4901 12.0515 8.2171 12.0515C8.03886 12.0515 7.95442 11.9577 7.95161 11.7767C7.94785 11.5091 7.94785 11.2418 7.95161 10.9748C7.95161 10.7872 8.04542 10.7028 8.23304 10.7C8.49447 10.7 8.75559 10.7 9.01638 10.7C9.21714 10.7 9.29782 10.7882 9.29782 10.9936C9.29782 11.1211 9.29782 11.2487 9.29782 11.3762C9.29782 11.5038 9.30718 11.6435 9.30343 11.7777ZM9.30343 9.75086C9.30537 9.78474 9.3001 9.81865 9.28792 9.85033C9.27575 9.88201 9.25695 9.91075 9.23282 9.93461C9.20868 9.95848 9.17974 9.97692 9.14792 9.98874C9.1161 10.0006 9.08213 10.0055 9.04826 10.0032C8.76683 10.0107 8.4854 10.0116 8.20959 10.0032C8.17429 10.0054 8.13893 9.99988 8.10595 9.9871C8.07297 9.97432 8.04316 9.95454 8.01855 9.92914C7.99395 9.90374 7.97514 9.8733 7.96343 9.83993C7.95171 9.80657 7.94735 9.77107 7.95067 9.73586C7.95067 9.46199 7.95067 9.18907 7.95067 8.9152C7.95067 8.73325 8.03697 8.65634 8.22459 8.65258C8.36437 8.65258 8.50603 8.65258 8.64393 8.65258H9.04451C9.07815 8.64825 9.11235 8.65152 9.14457 8.66213C9.17679 8.67275 9.20621 8.69045 9.23069 8.71393C9.25517 8.73741 9.27409 8.76608 9.28602 8.79783C9.29796 8.82957 9.30262 8.8636 9.29967 8.89739C9.30812 9.17969 9.30718 9.4648 9.30249 9.75086H9.30343ZM10.6937 8.91145C10.6937 8.72949 10.781 8.65258 10.9686 8.64977C11.2363 8.64977 11.504 8.64977 11.7716 8.64977C11.9649 8.64977 12.0409 8.73324 12.0456 8.93114C12.0456 9.05869 12.0456 9.18625 12.0456 9.31381C12.0456 9.44136 12.0456 9.59517 12.0456 9.73304C12.0493 9.76839 12.0453 9.80412 12.0338 9.83776C12.0224 9.8714 12.0037 9.90215 11.9792 9.92786C11.9546 9.95356 11.9247 9.97361 11.8917 9.98662C11.8586 9.99962 11.8231 10.0053 11.7876 10.0032C11.5061 10.0116 11.2247 10.0116 10.9489 10.0032C10.9135 10.005 10.8781 9.99914 10.8451 9.98595C10.8122 9.97277 10.7826 9.95258 10.7582 9.92681C10.7338 9.90103 10.7154 9.87025 10.7041 9.83663C10.6928 9.80302 10.6889 9.76736 10.6928 9.73211C10.6909 9.45449 10.6881 9.18531 10.6928 8.91145H10.6937ZM12.0446 11.7777C12.0446 11.9652 11.9508 12.0459 11.7632 12.0525H11.3626C11.2294 12.0525 11.0953 12.0525 10.962 12.0525C10.9268 12.0567 10.8911 12.0529 10.8575 12.0416C10.8239 12.0302 10.7932 12.0115 10.7678 11.9868C10.7424 11.9621 10.7228 11.932 10.7104 11.8987C10.6981 11.8654 10.6934 11.8299 10.6965 11.7945C10.6928 11.515 10.6928 11.2359 10.6965 10.957C10.6935 10.9218 10.6984 10.8863 10.7108 10.8531C10.7232 10.82 10.7428 10.79 10.7682 10.7654C10.7936 10.7408 10.8242 10.7222 10.8577 10.7109C10.8913 10.6996 10.9269 10.6959 10.962 10.7C11.236 10.7 11.509 10.7 11.7829 10.7C11.9611 10.7 12.0446 10.7938 12.0474 10.9748C12.0499 11.2431 12.0487 11.5107 12.0437 11.7777H12.0446ZM11.7107 6.93062C11.7107 7.08818 11.7107 7.22698 11.7107 7.36673C11.706 7.74752 11.5174 7.94259 11.1365 7.94447C10.3823 7.94447 9.62741 7.94447 8.87191 7.94447C8.47977 7.94447 8.29028 7.75032 8.28746 7.35922C8.28746 7.21666 8.28746 7.07787 8.28746 6.92968H6.91216V14.4329H9.30813C9.31282 14.355 9.31845 14.2894 9.31845 14.2237C9.31845 13.8711 9.31845 13.5175 9.31845 13.1648C9.31845 12.8122 9.37473 12.7475 9.72746 12.7475H10.3307C10.5971 12.7475 10.675 12.8262 10.6769 13.0992C10.6769 13.4743 10.6769 13.841 10.6769 14.2124C10.6769 14.2837 10.6853 14.3541 10.689 14.4329H13.0869V6.92968L11.7107 6.93062ZM9.30437 11.7777C9.29874 11.9606 9.21714 12.0487 9.03796 12.0515C8.76496 12.0515 8.49103 12.0515 8.21804 12.0515C8.0398 12.0515 7.95536 11.9577 7.95255 11.7767C7.94879 11.5091 7.94879 11.2418 7.95255 10.9748C7.95255 10.7872 8.04636 10.7028 8.23398 10.7C8.49541 10.7 8.75652 10.7 9.01732 10.7C9.21808 10.7 9.29876 10.7882 9.29876 10.9936C9.29876 11.1211 9.29876 11.2487 9.29876 11.3762C9.29876 11.5038 9.30718 11.6435 9.30343 11.7777H9.30437ZM9.30437 9.75086C9.30631 9.78474 9.30102 9.81865 9.28884 9.85033C9.27667 9.88201 9.25789 9.91075 9.23376 9.93461C9.20962 9.95848 9.18068 9.97692 9.14886 9.98874C9.11704 10.0006 9.08307 10.0055 9.0492 10.0032C8.76777 10.0107 8.48634 10.0116 8.21053 10.0032C8.17515 10.0055 8.13969 10.0001 8.10659 9.98739C8.0735 9.97468 8.04356 9.95493 8.01885 9.92951C7.99414 9.90409 7.97524 9.87362 7.96347 9.84018C7.9517 9.80675 7.94733 9.77115 7.95067 9.73586C7.95067 9.46199 7.95067 9.18907 7.95067 8.9152C7.95067 8.73325 8.03697 8.65634 8.22459 8.65258C8.36437 8.65258 8.50603 8.65258 8.64393 8.65258H9.04451C9.07815 8.64825 9.11235 8.65152 9.14457 8.66213C9.17679 8.67275 9.20621 8.69045 9.23069 8.71393C9.25517 8.73741 9.27409 8.76608 9.28602 8.79783C9.29796 8.82957 9.30262 8.8636 9.29967 8.89739C9.30812 9.17969 9.30718 9.4648 9.30249 9.75086H9.30437ZM10.6947 8.91145C10.6947 8.72949 10.7819 8.65258 10.9695 8.64977C11.2372 8.64977 11.5049 8.64977 11.7726 8.64977C11.9658 8.64977 12.0418 8.73324 12.0465 8.93114C12.0465 9.05869 12.0465 9.18625 12.0465 9.31381C12.0465 9.44136 12.0465 9.59517 12.0465 9.73304C12.0502 9.76839 12.0462 9.80412 12.0348 9.83776C12.0233 9.8714 12.0046 9.90215 11.9801 9.92786C11.9555 9.95356 11.9257 9.97361 11.8926 9.98662C11.8595 9.99962 11.824 10.0053 11.7885 10.0032C11.5071 10.0116 11.2256 10.0116 10.9498 10.0032C10.9144 10.005 10.879 9.99914 10.8461 9.98595C10.8132 9.97277 10.7835 9.95258 10.7591 9.92681C10.7348 9.90103 10.7163 9.87025 10.705 9.83663C10.6937 9.80302 10.6899 9.76736 10.6937 9.73211C10.6909 9.45449 10.6881 9.18531 10.6928 8.91145H10.6947ZM12.0456 11.7777C12.0456 11.9652 11.9517 12.0459 11.7641 12.0525H11.3635C11.2303 12.0525 11.0962 12.0525 10.963 12.0525C10.9278 12.0567 10.892 12.0529 10.8584 12.0416C10.8248 12.0302 10.7942 12.0115 10.7687 11.9868C10.7433 11.9621 10.7237 11.932 10.7114 11.8987C10.6991 11.8654 10.6943 11.8299 10.6975 11.7945C10.6937 11.515 10.6937 11.2359 10.6975 10.957C10.6945 10.9218 10.6993 10.8863 10.7117 10.8531C10.7241 10.82 10.7437 10.79 10.7692 10.7654C10.7946 10.7408 10.8252 10.7222 10.8587 10.7109C10.8922 10.6996 10.9278 10.6959 10.963 10.7C11.2369 10.7 11.5099 10.7 11.7838 10.7C11.9621 10.7 12.0456 10.7938 12.0484 10.9748C12.0502 11.2431 12.0487 11.5107 12.0437 11.7777H12.0456ZM10.3701 5.86891C10.3551 5.64944 10.3419 5.44216 10.3279 5.22926H9.67119C9.65712 5.45529 9.64397 5.66164 9.63177 5.86985L8.98823 5.91111V6.56764L9.62895 6.60329C9.64584 6.82839 9.66085 7.03941 9.6768 7.25982H10.3288C10.3448 7.03473 10.3588 6.82743 10.3729 6.60984L11.0117 6.56482V5.91299L10.3701 5.86891ZM10.3701 5.86891C10.3551 5.64944 10.3419 5.44216 10.3279 5.22926H9.67119C9.65712 5.45529 9.64397 5.66164 9.63177 5.86985L8.98823 5.91111V6.56764L9.62895 6.60329C9.64584 6.82839 9.66085 7.03941 9.6768 7.25982H10.3288C10.3448 7.03473 10.3588 6.82743 10.3729 6.60984L11.0117 6.56482V5.91299L10.3701 5.86891ZM11.7116 6.9325C11.7116 7.09006 11.7116 7.22886 11.7116 7.36861C11.7069 7.74939 11.5183 7.94447 11.1375 7.94634C10.3832 7.94634 9.62835 7.94634 8.87285 7.94634C8.48071 7.94634 8.29121 7.7522 8.2884 7.3611C8.2884 7.21854 8.2884 7.07974 8.2884 6.93156H6.9131V14.4347H9.30906C9.31375 14.3569 9.31939 14.2912 9.31939 14.2256C9.31939 13.8729 9.31939 13.5193 9.31939 13.1667C9.31939 12.814 9.37567 12.7493 9.7284 12.7493H10.3316C10.598 12.7493 10.6759 12.8281 10.6778 13.101C10.6778 13.4762 10.6778 13.8429 10.6778 14.2143C10.6778 14.2856 10.6862 14.356 10.69 14.4347H13.0878V6.93156L11.7116 6.9325ZM9.30531 11.7795C9.29968 11.9624 9.21808 12.0506 9.0389 12.0534C8.7659 12.0534 8.49197 12.0534 8.21898 12.0534C8.04074 12.0534 7.9563 11.9596 7.95349 11.7786C7.94973 11.511 7.94973 11.2437 7.95349 10.9767C7.95349 10.7891 8.0473 10.7047 8.23492 10.7019C8.49634 10.7019 8.75744 10.7019 9.01824 10.7019C9.219 10.7019 9.29967 10.7901 9.29967 10.9955C9.29967 11.123 9.29967 11.2506 9.29967 11.3781C9.29967 11.5057 9.30718 11.6435 9.30343 11.7777L9.30531 11.7795ZM9.30531 9.75274C9.30725 9.78662 9.30195 9.82053 9.28978 9.8522C9.2776 9.88388 9.25883 9.91263 9.2347 9.93649C9.21056 9.96036 9.18161 9.9788 9.14979 9.99062C9.11797 10.0024 9.08401 10.0074 9.05014 10.005C8.76871 10.0126 8.48728 10.0135 8.21147 10.005C8.17584 10.0076 8.14009 10.0022 8.10673 9.98948C8.07337 9.97672 8.04322 9.9568 8.01837 9.93116C7.99352 9.90551 7.97459 9.87475 7.9629 9.84101C7.9512 9.80727 7.94702 9.77138 7.95067 9.73586C7.95067 9.46199 7.95067 9.18907 7.95067 8.9152C7.95067 8.73325 8.03697 8.65634 8.22459 8.65258C8.36437 8.65258 8.50603 8.65258 8.64393 8.65258H9.04451C9.07815 8.64825 9.11235 8.65152 9.14457 8.66213C9.17679 8.67275 9.20621 8.69045 9.23069 8.71393C9.25517 8.73741 9.27409 8.76608 9.28602 8.79783C9.29796 8.82957 9.30262 8.8636 9.29967 8.89739C9.30812 9.17969 9.30718 9.4648 9.30249 9.75086L9.30531 9.75274ZM10.6956 8.91332C10.6956 8.73137 10.7828 8.65446 10.9705 8.65165C11.2381 8.65165 11.5058 8.65165 11.7735 8.65165C11.9668 8.65165 12.0427 8.73512 12.0474 8.93301C12.0474 9.06057 12.0474 9.18813 12.0474 9.31568C12.0474 9.44324 12.0474 9.59705 12.0474 9.73492C12.0512 9.77027 12.0472 9.80599 12.0357 9.83963C12.0242 9.87327 12.0056 9.90403 11.981 9.92974C11.9565 9.95544 11.9266 9.97549 11.8935 9.98849C11.8605 10.0015 11.8249 10.0072 11.7894 10.005C11.508 10.0135 11.2266 10.0135 10.9508 10.005C10.9154 10.0069 10.8799 10.001 10.847 9.98781C10.8141 9.97462 10.7844 9.95446 10.7601 9.92868C10.7357 9.90291 10.7173 9.87213 10.706 9.83851C10.6947 9.8049 10.6908 9.76923 10.6947 9.73398C10.6909 9.45449 10.6881 9.18531 10.6928 8.91145L10.6956 8.91332ZM12.0465 11.7795C12.0465 11.9671 11.9527 12.0478 11.7651 12.0543H11.3645C11.2313 12.0543 11.0971 12.0543 10.9639 12.0543C10.9287 12.0585 10.893 12.0548 10.8594 12.0434C10.8258 12.0321 10.7951 12.0134 10.7697 11.9886C10.7442 11.9639 10.7246 11.9338 10.7123 11.9006C10.7 11.8673 10.6952 11.8317 10.6984 11.7964C10.6947 11.5169 10.6947 11.2378 10.6984 10.9589C10.6954 10.9236 10.7003 10.8882 10.7126 10.855C10.725 10.8219 10.7447 10.7919 10.7701 10.7673C10.7955 10.7427 10.8261 10.7241 10.8596 10.7128C10.8931 10.7014 10.9288 10.6977 10.9639 10.7019C11.2379 10.7019 11.5108 10.7019 11.7848 10.7019C11.963 10.7019 12.0465 10.7957 12.0493 10.9767C12.0506 11.2437 12.0487 11.5107 12.0437 11.7777L12.0465 11.7795ZM11.7125 6.9325C11.7125 7.09006 11.7125 7.22886 11.7125 7.36861C11.7078 7.74939 11.5193 7.94447 11.1384 7.94634C10.3841 7.94634 9.62929 7.94634 8.87379 7.94634C8.48165 7.94634 8.29215 7.7522 8.28934 7.3611C8.28934 7.21854 8.28934 7.07974 8.28934 6.93156H6.91404V14.4347H9.31C9.31469 14.3569 9.32033 14.2912 9.32033 14.2256C9.32033 13.8729 9.32033 13.5193 9.32033 13.1667C9.32033 12.814 9.37661 12.7493 9.72934 12.7493H10.3325C10.599 12.7493 10.6769 12.8281 10.6787 13.101C10.6787 13.4762 10.6787 13.8429 10.6787 14.2143C10.6787 14.2856 10.6872 14.356 10.6909 14.4347H13.0888V6.93156L11.7125 6.9325ZM9.30625 11.7795C9.30062 11.9624 9.21902 12.0506 9.03984 12.0534C8.76684 12.0534 8.49291 12.0534 8.21992 12.0534C8.04168 12.0534 7.95724 11.9596 7.95442 11.7786C7.95067 11.511 7.95067 11.2437 7.95442 10.9767C7.95442 10.7891 8.04824 10.7047 8.23586 10.7019C8.49728 10.7019 8.75838 10.7019 9.01918 10.7019C9.21993 10.7019 9.30061 10.7901 9.30061 10.9955C9.30061 11.123 9.30061 11.2506 9.30061 11.3781C9.30061 11.5057 9.30718 11.6435 9.30343 11.7777L9.30625 11.7795ZM9.30625 9.75274C9.30819 9.78662 9.30289 9.82053 9.29072 9.8522C9.27854 9.88388 9.25977 9.91263 9.23564 9.93649C9.2115 9.96036 9.18255 9.9788 9.15073 9.99062C9.11891 10.0024 9.08495 10.0074 9.05108 10.005C8.76965 10.0126 8.48821 10.0135 8.21241 10.005C8.1767 10.0077 8.14085 10.0025 8.10737 9.9898C8.0739 9.9771 8.04362 9.95721 8.01867 9.93155C7.99371 9.90588 7.97469 9.87507 7.96294 9.84126C7.9512 9.80745 7.947 9.77147 7.95067 9.73586C7.95067 9.46199 7.95067 9.18907 7.95067 8.9152C7.95067 8.73325 8.03697 8.65634 8.22459 8.65258C8.36437 8.65258 8.50603 8.65258 8.64393 8.65258H9.04451C9.07815 8.64825 9.11235 8.65152 9.14457 8.66213C9.17679 8.67275 9.20621 8.69045 9.23069 8.71393C9.25517 8.73741 9.27409 8.76608 9.28602 8.79783C9.29796 8.82957 9.30262 8.8636 9.29967 8.89739C9.30812 9.17969 9.30718 9.4648 9.30249 9.75086L9.30625 9.75274ZM10.6965 8.91332C10.6965 8.73137 10.7838 8.65446 10.9714 8.65165C11.2391 8.65165 11.5068 8.65165 11.7744 8.65165C11.9677 8.65165 12.0437 8.73512 12.0484 8.93301C12.0484 9.06057 12.0484 9.18813 12.0484 9.31568C12.0484 9.44324 12.0484 9.59705 12.0484 9.73492C12.0521 9.77027 12.0481 9.80599 12.0366 9.83963C12.0252 9.87327 12.0065 9.90403 11.982 9.92974C11.9574 9.95544 11.9276 9.97549 11.8945 9.98849C11.8614 10.0015 11.8259 10.0072 11.7904 10.005C11.509 10.0135 11.2275 10.0135 10.9517 10.005C10.9163 10.0069 10.8809 10.001 10.848 9.98781C10.815 9.97462 10.7854 9.95446 10.761 9.92868C10.7367 9.90291 10.7182 9.87213 10.7069 9.83851C10.6956 9.8049 10.6918 9.76923 10.6956 9.73398C10.6909 9.45449 10.6881 9.18531 10.6928 8.91145L10.6965 8.91332ZM12.0474 11.7795C12.0474 11.9671 11.9536 12.0478 11.766 12.0543H11.3654C11.2322 12.0543 11.0981 12.0543 10.9648 12.0543C10.9296 12.0585 10.8939 12.0548 10.8603 12.0434C10.8267 12.0321 10.7961 12.0134 10.7706 11.9886C10.7452 11.9639 10.7256 11.9338 10.7132 11.9006C10.7009 11.8673 10.6962 11.8317 10.6994 11.7964C10.6956 11.5169 10.6956 11.2378 10.6994 10.9589C10.6963 10.9236 10.7012 10.8882 10.7136 10.855C10.726 10.8219 10.7456 10.7919 10.771 10.7673C10.7965 10.7427 10.827 10.7241 10.8606 10.7128C10.8941 10.7014 10.9297 10.6977 10.9648 10.7019C11.2388 10.7019 11.5118 10.7019 11.7857 10.7019C11.9639 10.7019 12.0474 10.7957 12.0502 10.9767C12.0509 11.2437 12.0487 11.5107 12.0437 11.7777L12.0474 11.7795ZM9.6768 7.257H10.3288C10.3448 7.03191 10.3588 6.82462 10.3729 6.60702L11.0117 6.56201V5.91017L10.372 5.86891C10.357 5.64944 10.3438 5.44216 10.3298 5.22926H9.67307C9.65899 5.45529 9.64585 5.66164 9.63365 5.86985L8.99011 5.91111V6.56764L9.63083 6.60329C9.63928 6.82839 9.65712 7.03753 9.67307 7.25513L9.6768 7.257ZM17.2521 3.0993C13.5522 -0.884891 7.20298 -1.04996 3.11372 2.73258C-0.877986 6.42414 -1.05529 12.7681 2.71783 16.8676C6.4159 20.8828 12.7867 21.0619 16.8891 17.2662C20.8911 13.5578 21.0543 7.19509 17.2484 3.09742L17.2521 3.0993ZM14.7886 15.473H5.21042C5.21042 15.2075 5.20573 14.9581 5.21042 14.7095C5.20907 14.6772 5.2145 14.6448 5.22636 14.6147C5.23823 14.5845 5.25626 14.5572 5.27932 14.5344C5.30237 14.5116 5.32993 14.4939 5.36023 14.4824C5.39053 14.4709 5.42289 14.4658 5.45526 14.4675C5.58191 14.461 5.7095 14.4675 5.85959 14.4675C5.86429 14.3738 5.8718 14.2912 5.8718 14.2096C5.8718 11.6404 5.8718 9.07152 5.8718 6.50293C5.8718 6.06962 6.03033 5.91205 6.46749 5.91111C6.99753 5.91111 7.52663 5.91111 8.05666 5.91111H8.28277V5.1683C8.28277 4.71061 8.47038 4.52865 8.92724 4.52865H11.1196C11.5033 4.52865 11.7032 4.7303 11.7069 5.11484C11.7069 5.36995 11.7069 5.62507 11.7069 5.90081C11.7941 5.90081 11.8645 5.91017 11.9358 5.91017H13.5606C13.9462 5.91017 14.1235 6.08368 14.1235 6.46728V14.4657C14.2717 14.4657 14.3984 14.4657 14.5241 14.4657C14.5578 14.4622 14.5918 14.4659 14.6239 14.4767C14.656 14.4875 14.6854 14.505 14.7101 14.5281C14.7348 14.5513 14.7543 14.5794 14.7672 14.6107C14.7801 14.642 14.7861 14.6757 14.7849 14.7095C14.7905 14.9581 14.7849 15.2066 14.7849 15.4711L14.7886 15.473ZM11.7135 7.36861C11.7088 7.74939 11.5202 7.94447 11.1393 7.94634C10.3851 7.94634 9.63023 7.94634 8.87473 7.94634C8.48259 7.94634 8.29309 7.7522 8.29028 7.3611C8.29028 7.21854 8.29028 7.07974 8.29028 6.93156H6.91498V14.4347H9.31094C9.31563 14.3569 9.32127 14.2912 9.32127 14.2256C9.32127 13.8729 9.32127 13.5193 9.32127 13.1667C9.32127 12.814 9.37755 12.7493 9.73028 12.7493H10.3335C10.5999 12.7493 10.6778 12.8281 10.6797 13.101C10.6797 13.4762 10.6797 13.8429 10.6797 14.2143C10.6797 14.2856 10.6881 14.356 10.6919 14.4347H13.0897V6.93156H11.7116C11.7097 7.08819 11.7107 7.22698 11.7097 7.36673L11.7135 7.36861ZM9.30719 11.7767C9.30156 11.9596 9.21996 12.0478 9.04077 12.0506C8.76778 12.0506 8.49383 12.0506 8.22084 12.0506C8.04259 12.0506 7.95818 11.9568 7.95536 11.7758C7.95161 11.5082 7.95161 11.2409 7.95536 10.9739C7.95536 10.7863 8.04918 10.7019 8.2368 10.6991C8.49822 10.6991 8.75932 10.6991 9.02012 10.6991C9.22087 10.6991 9.30155 10.7872 9.30155 10.9926C9.30155 11.1202 9.30155 11.2477 9.30155 11.3753C9.30155 11.5029 9.30718 11.6435 9.30343 11.7777L9.30719 11.7767ZM9.30719 9.74992C9.30913 9.7838 9.30383 9.81771 9.29166 9.84939C9.27948 9.88107 9.26071 9.90981 9.23658 9.93368C9.21244 9.95754 9.18349 9.97599 9.15167 9.98781C9.11985 9.99963 9.08589 10.0045 9.05202 10.0022C8.77058 10.0097 8.48915 10.0107 8.21335 10.0022C8.17783 10.005 8.14214 9.99993 8.10877 9.98746C8.0754 9.97499 8.04514 9.95537 8.02013 9.93001C7.99512 9.90465 7.97595 9.87415 7.96395 9.84062C7.95195 9.80708 7.94742 9.77133 7.95067 9.73586C7.95067 9.46199 7.95067 9.18907 7.95067 8.9152C7.95067 8.73325 8.03697 8.65634 8.22459 8.65258C8.36437 8.65258 8.50603 8.65258 8.64393 8.65258H9.04451C9.07815 8.64825 9.11235 8.65152 9.14457 8.66213C9.17679 8.67275 9.20621 8.69045 9.23069 8.71393C9.25517 8.73741 9.27409 8.76608 9.28602 8.79783C9.29796 8.82957 9.30262 8.8636 9.29967 8.89739C9.30812 9.17969 9.30718 9.4648 9.30249 9.75086L9.30719 9.74992ZM12.0484 11.7767C12.0484 11.9643 11.9546 12.045 11.7669 12.0515H11.3664C11.2331 12.0515 11.099 12.0515 10.9658 12.0515C10.9306 12.0557 10.8948 12.052 10.8612 12.0406C10.8276 12.0293 10.797 12.0105 10.7716 11.9858C10.7461 11.9611 10.7265 11.931 10.7142 11.8978C10.7019 11.8645 10.6971 11.8289 10.7003 11.7936C10.6966 11.5141 10.6966 11.2349 10.7003 10.9561C10.6973 10.9208 10.7021 10.8853 10.7145 10.8522C10.7269 10.8191 10.7465 10.7891 10.772 10.7645C10.7974 10.7399 10.828 10.7213 10.8615 10.7099C10.895 10.6986 10.9306 10.6949 10.9658 10.6991C11.2397 10.6991 11.5127 10.6991 11.7866 10.6991C11.9649 10.6991 12.0484 10.7929 12.0512 10.9739C12.0512 11.2427 12.0487 11.5107 12.0437 11.7777L12.0484 11.7767ZM12.0484 8.9302C12.0484 9.05775 12.0484 9.18531 12.0484 9.31287C12.0484 9.44042 12.0484 9.59423 12.0484 9.73211C12.0521 9.76745 12.0481 9.80318 12.0366 9.83682C12.0252 9.87046 12.0065 9.90122 11.982 9.92692C11.9574 9.95263 11.9276 9.97267 11.8945 9.98568C11.8614 9.99868 11.8259 10.0043 11.7904 10.0022C11.509 10.0107 11.2275 10.0107 10.9517 10.0022C10.9163 10.0041 10.8809 9.9982 10.848 9.98501C10.815 9.97183 10.7854 9.95165 10.761 9.92587C10.7367 9.90009 10.7182 9.86931 10.7069 9.8357C10.6956 9.80208 10.6918 9.76642 10.6956 9.73117C10.6956 9.4573 10.6956 9.18437 10.6956 8.91051C10.6956 8.72855 10.7828 8.65164 10.9705 8.64883C11.2381 8.64883 11.5058 8.64883 11.7735 8.64883C11.9639 8.65258 12.0399 8.73324 12.0446 8.93114L12.0484 8.9302ZM9.6768 7.25419H10.3288C10.3448 7.02909 10.3588 6.82182 10.3729 6.60423L11.0117 6.55919V5.90736L10.372 5.86609C10.357 5.64663 10.3438 5.43934 10.3298 5.22644H9.67307C9.65899 5.45248 9.64585 5.65882 9.63365 5.86703L8.99011 5.9083V6.56482L9.63083 6.60048C9.63928 6.82838 9.65712 7.03753 9.67307 7.25513L9.6768 7.25419ZM10.372 5.86609C10.357 5.64663 10.3438 5.43934 10.3298 5.22644H9.67307C9.65899 5.45248 9.64585 5.65882 9.63365 5.86703L8.99011 5.9083V6.56482L9.63083 6.60048C9.64772 6.82557 9.66273 7.0366 9.67868 7.257H10.3307C10.3466 7.03191 10.3607 6.82462 10.3748 6.60702L11.0136 6.56201V5.91017L10.372 5.86609ZM11.7135 6.92968C11.7135 7.08725 11.7135 7.22605 11.7135 7.36579C11.7088 7.74658 11.5202 7.94165 11.1393 7.94353C10.3851 7.94353 9.63023 7.94353 8.87473 7.94353C8.48259 7.94353 8.29309 7.74938 8.29028 7.35828C8.29028 7.21572 8.29028 7.07693 8.29028 6.92874H6.91498V14.4319H9.31094C9.31563 14.3541 9.32127 14.2884 9.32127 14.2228C9.32127 13.8701 9.32127 13.5165 9.32127 13.1639C9.32127 12.8112 9.37755 12.7465 9.73028 12.7465H10.3335C10.5999 12.7465 10.6778 12.8253 10.6797 13.0982C10.6797 13.4734 10.6797 13.8401 10.6797 14.2115C10.6797 14.2828 10.6881 14.3531 10.6919 14.4319H13.0897V6.92874L11.7135 6.92968ZM9.30719 11.7767C9.30156 11.9596 9.21996 12.0478 9.04077 12.0506C8.76778 12.0506 8.49383 12.0506 8.22084 12.0506C8.04259 12.0506 7.95818 11.9568 7.95536 11.7758C7.95161 11.5082 7.95161 11.2409 7.95536 10.9739C7.95536 10.7863 8.04918 10.7019 8.2368 10.6991C8.49822 10.6991 8.75932 10.6991 9.02012 10.6991C9.22087 10.6991 9.30155 10.7872 9.30155 10.9926C9.30155 11.1202 9.30155 11.2477 9.30155 11.3753C9.30155 11.5029 9.30718 11.6435 9.30343 11.7777L9.30719 11.7767ZM9.30719 9.74992C9.30913 9.7838 9.30383 9.81771 9.29166 9.84939C9.27948 9.88107 9.26071 9.90981 9.23658 9.93368C9.21244 9.95754 9.18349 9.97599 9.15167 9.98781C9.11985 9.99963 9.08589 10.0045 9.05202 10.0022C8.77058 10.0097 8.48915 10.0107 8.21335 10.0022C8.17783 10.005 8.14214 9.99993 8.10877 9.98746C8.0754 9.97499 8.04514 9.95537 8.02013 9.93001C7.99512 9.90465 7.97595 9.87415 7.96395 9.84062C7.95195 9.80708 7.94742 9.77133 7.95067 9.73586C7.95067 9.46199 7.95067 9.18907 7.95067 8.9152C7.95067 8.73325 8.03697 8.65634 8.22459 8.65258C8.36437 8.65258 8.50603 8.65258 8.64393 8.65258H9.04451C9.07815 8.64825 9.11235 8.65152 9.14457 8.66213C9.17679 8.67275 9.20621 8.69045 9.23069 8.71393C9.25517 8.73741 9.27409 8.76608 9.28602 8.79783C9.29796 8.82957 9.30262 8.8636 9.29967 8.89739C9.30812 9.17969 9.30718 9.4648 9.30249 9.75086L9.30719 9.74992ZM10.6975 8.91051C10.6975 8.72855 10.7847 8.65164 10.9723 8.64883C11.24 8.64883 11.5077 8.64883 11.7754 8.64883C11.9686 8.64883 12.0446 8.7323 12.0493 8.9302C12.0493 9.05775 12.0493 9.18531 12.0493 9.31287C12.0493 9.44042 12.0493 9.59423 12.0493 9.73211C12.053 9.76745 12.0491 9.80318 12.0376 9.83682C12.0261 9.87046 12.0075 9.90122 11.9829 9.92692C11.9584 9.95263 11.9285 9.97267 11.8954 9.98568C11.8623 9.99868 11.8268 10.0043 11.7913 10.0022C11.5099 10.0107 11.2285 10.0107 10.9527 10.0022C10.9172 10.0041 10.8818 9.9982 10.8489 9.98501C10.816 9.97183 10.7863 9.95165 10.762 9.92587C10.7376 9.90009 10.7191 9.86931 10.7078 9.8357C10.6965 9.80208 10.6927 9.76642 10.6965 9.73117C10.6909 9.45449 10.6881 9.18531 10.6928 8.91145L10.6975 8.91051ZM12.0484 11.7767C12.0484 11.9643 11.9546 12.045 11.7669 12.0515H11.3664C11.2331 12.0515 11.099 12.0515 10.9658 12.0515C10.9306 12.0557 10.8948 12.052 10.8612 12.0406C10.8276 12.0293 10.797 12.0105 10.7716 11.9858C10.7461 11.9611 10.7265 11.931 10.7142 11.8978C10.7019 11.8645 10.6971 11.8289 10.7003 11.7936C10.6966 11.5141 10.6966 11.2349 10.7003 10.9561C10.6973 10.9208 10.7021 10.8853 10.7145 10.8522C10.7269 10.8191 10.7465 10.7891 10.772 10.7645C10.7974 10.7399 10.828 10.7213 10.8615 10.7099C10.895 10.6986 10.9306 10.6949 10.9658 10.6991C11.2397 10.6991 11.5127 10.6991 11.7866 10.6991C11.9649 10.6991 12.0484 10.7929 12.0512 10.9739C12.0512 11.2427 12.0487 11.5107 12.0437 11.7777L12.0484 11.7767ZM11.7144 6.92968C11.7144 7.08725 11.7144 7.22605 11.7144 7.36579C11.7097 7.74658 11.5212 7.94165 11.1403 7.94353C10.386 7.94353 9.63116 7.94353 8.87566 7.94353C8.48353 7.94353 8.29401 7.74938 8.29119 7.35828C8.29119 7.21572 8.29119 7.07693 8.29119 6.92874H6.91592V14.4319H9.31188C9.31657 14.3541 9.32221 14.2884 9.32221 14.2228C9.32221 13.8701 9.32221 13.5165 9.32221 13.1639C9.32221 12.8112 9.37849 12.7465 9.73122 12.7465H10.3344C10.6008 12.7465 10.6787 12.8253 10.6806 13.0982C10.6806 13.4734 10.6806 13.8401 10.6806 14.2115C10.6806 14.2828 10.689 14.3531 10.6928 14.4319H13.0906V6.92874L11.7144 6.92968ZM9.30813 11.7767C9.3025 11.9596 9.22087 12.0478 9.04169 12.0506C8.7687 12.0506 8.49477 12.0506 8.22177 12.0506C8.04353 12.0506 7.95912 11.9568 7.9563 11.7758C7.95255 11.5082 7.95255 11.2409 7.9563 10.9739C7.9563 10.7863 8.05011 10.7019 8.23774 10.6991C8.49916 10.6991 8.76026 10.6991 9.02105 10.6991C9.22181 10.6991 9.30249 10.7872 9.30249 10.9926C9.30249 11.1202 9.30249 11.2477 9.30249 11.3753C9.30249 11.5029 9.30718 11.6435 9.30343 11.7777L9.30813 11.7767ZM9.30813 9.74992C9.31007 9.7838 9.30477 9.81771 9.2926 9.84939C9.28042 9.88107 9.26165 9.90981 9.23751 9.93368C9.21338 9.95754 9.18443 9.97599 9.15261 9.98781C9.12079 9.99963 9.08683 10.0045 9.05296 10.0022C8.77152 10.0097 8.49009 10.0107 8.21429 10.0022C8.17869 10.0051 8.1429 10.0002 8.10941 9.98776C8.07593 9.97535 8.04555 9.95578 8.02043 9.9304C7.99532 9.90502 7.97607 9.87445 7.96402 9.84085C7.95197 9.80724 7.9474 9.77141 7.95067 9.73586C7.95067 9.46199 7.95067 9.18907 7.95067 8.9152C7.95067 8.73325 8.03697 8.65634 8.22459 8.65258C8.36437 8.65258 8.50603 8.65258 8.64393 8.65258H9.04451C9.07815 8.64825 9.11235 8.65152 9.14457 8.66213C9.17679 8.67275 9.20621 8.69045 9.23069 8.71393C9.25517 8.73741 9.27409 8.76608 9.28602 8.79783C9.29796 8.82957 9.30262 8.8636 9.29967 8.89739C9.30812 9.17969 9.30718 9.4648 9.30249 9.75086L9.30813 9.74992ZM10.6984 8.91051C10.6984 8.72855 10.7857 8.65164 10.9733 8.64883C11.241 8.64883 11.5086 8.64883 11.7763 8.64883C11.9696 8.64883 12.0456 8.7323 12.0502 8.9302C12.0502 9.05775 12.0502 9.18531 12.0502 9.31287C12.0502 9.44042 12.0502 9.59423 12.0502 9.73211C12.054 9.76745 12.05 9.80318 12.0385 9.83682C12.0271 9.87046 12.0084 9.90122 11.9839 9.92692C11.9593 9.95263 11.9294 9.97267 11.8964 9.98568C11.8633 9.99868 11.8278 10.0043 11.7923 10.0022C11.5108 10.0107 11.2294 10.0107 10.9536 10.0022C10.9182 10.0041 10.8828 9.9982 10.8498 9.98501C10.8169 9.97183 10.7873 9.95165 10.7629 9.92587C10.7385 9.90009 10.7201 9.86931 10.7088 9.8357C10.6975 9.80208 10.6936 9.76642 10.6975 9.73117C10.6909 9.45449 10.6881 9.18531 10.6928 8.91145L10.6984 8.91051ZM12.0493 11.7767C12.0493 11.9643 11.9555 12.045 11.7679 12.0515H11.3673C11.2341 12.0515 11.0999 12.0515 10.9667 12.0515C10.9315 12.0557 10.8958 12.052 10.8622 12.0406C10.8286 12.0293 10.7979 12.0105 10.7725 11.9858C10.7471 11.9611 10.7275 11.931 10.7151 11.8978C10.7028 11.8645 10.6981 11.8289 10.7012 11.7936C10.6975 11.5141 10.6975 11.2349 10.7012 10.9561C10.6982 10.9208 10.7031 10.8853 10.7155 10.8522C10.7279 10.8191 10.7475 10.7891 10.7729 10.7645C10.7983 10.7399 10.8289 10.7213 10.8624 10.7099C10.896 10.6986 10.9316 10.6949 10.9667 10.6991C11.2406 10.6991 11.5136 10.6991 11.7876 10.6991C11.9658 10.6991 12.0493 10.7929 12.0521 10.9739C12.0515 11.2427 12.0487 11.5107 12.0437 11.7777L12.0493 11.7767ZM10.3738 5.86797C10.3588 5.6485 10.3457 5.44122 10.3316 5.22832H9.67492C9.66085 5.45435 9.64772 5.6607 9.63553 5.86891L8.99199 5.91017V6.5667L9.63271 6.60235C9.6496 6.82745 9.66461 7.03848 9.68056 7.25888H10.3325C10.3485 7.03379 10.3626 6.82649 10.3767 6.6089L11.0155 6.56388V5.91205L10.3738 5.86797ZM10.3738 5.86797C10.3588 5.6485 10.3457 5.44122 10.3316 5.22832H9.67492C9.66085 5.45435 9.64772 5.6607 9.63553 5.86891L8.99199 5.91017V6.5667L9.63271 6.60235C9.6496 6.82745 9.66461 7.03848 9.68056 7.25888H10.3325C10.3485 7.03379 10.3626 6.82649 10.3767 6.6089L11.0155 6.56388V5.91205L10.3738 5.86797ZM11.7153 6.93156C11.7153 7.08912 11.7153 7.22792 11.7153 7.36767C11.7106 7.74846 11.5221 7.94353 11.1412 7.94541C10.387 7.94541 9.6321 7.94541 8.8766 7.94541C8.48447 7.94541 8.29495 7.75126 8.29213 7.36016C8.29213 7.2176 8.29213 7.07881 8.29213 6.93062H6.91686V14.4338H9.31282C9.31751 14.356 9.32313 14.2903 9.32313 14.2246C9.32313 13.872 9.32313 13.5184 9.32313 13.1658C9.32313 12.8131 9.37942 12.7484 9.73216 12.7484H10.3354C10.6018 12.7484 10.6797 12.8272 10.6815 13.1001C10.6815 13.4753 10.6815 13.842 10.6815 14.2134C10.6815 14.2847 10.69 14.355 10.6937 14.4338H13.0916V6.93062L11.7153 6.93156ZM9.30906 11.7786C9.30344 11.9615 9.22181 12.0496 9.04263 12.0525C8.76964 12.0525 8.49571 12.0525 8.22271 12.0525C8.04447 12.0525 7.96006 11.9587 7.95724 11.7777C7.95349 11.5101 7.95349 11.2427 7.95724 10.9758C7.95724 10.7882 8.05105 10.7038 8.23868 10.701C8.5001 10.701 8.7612 10.701 9.02199 10.701C9.22275 10.701 9.30343 10.7891 9.30343 10.9945C9.30343 11.1221 9.30343 11.2496 9.30343 11.3772C9.30343 11.5047 9.30718 11.6435 9.30343 11.7777L9.30906 11.7786ZM9.30906 9.7518C9.31101 9.78568 9.30571 9.81959 9.29354 9.85127C9.28136 9.88295 9.26259 9.91169 9.23845 9.93555C9.21432 9.95942 9.18537 9.97786 9.15355 9.98968C9.12173 10.0015 9.08776 10.0064 9.0539 10.0041C8.77246 10.0116 8.49103 10.0126 8.21522 10.0041C8.17938 10.0072 8.1433 10.0023 8.10955 9.98987C8.0758 9.97742 8.04521 9.95768 8.01995 9.93207C7.99469 9.90646 7.9754 9.87561 7.96343 9.84169C7.95145 9.80778 7.94709 9.77165 7.95067 9.73586C7.95067 9.46199 7.95067 9.18907 7.95067 8.9152C7.95067 8.73325 8.03697 8.65634 8.22459 8.65258C8.36437 8.65258 8.50603 8.65258 8.64393 8.65258H9.04451C9.07815 8.64825 9.11235 8.65152 9.14457 8.66213C9.17679 8.67275 9.20621 8.69045 9.23069 8.71393C9.25517 8.73741 9.27409 8.76608 9.28602 8.79783C9.29796 8.82957 9.30262 8.8636 9.29967 8.89739C9.30812 9.17969 9.30718 9.4648 9.30249 9.75086L9.30906 9.7518ZM10.6994 8.91238C10.6994 8.73043 10.7866 8.65352 10.9742 8.65071C11.2419 8.65071 11.5096 8.65071 11.7773 8.65071C11.9705 8.65071 12.0465 8.73418 12.0512 8.93208C12.0512 9.05963 12.0512 9.18719 12.0512 9.31475C12.0512 9.4423 12.0512 9.59611 12.0512 9.73398C12.0549 9.76933 12.0509 9.80505 12.0395 9.8387C12.028 9.87234 12.0093 9.90309 11.9848 9.9288C11.9602 9.9545 11.9304 9.97455 11.8973 9.98755C11.8642 10.0006 11.8287 10.0062 11.7932 10.0041C11.5118 10.0126 11.2303 10.0126 10.9545 10.0041C10.9191 10.0059 10.8837 10.0001 10.8508 9.98687C10.8179 9.97368 10.7882 9.95352 10.7638 9.92774C10.7395 9.90197 10.721 9.87119 10.7097 9.83757C10.6984 9.80396 10.6946 9.7683 10.6984 9.73304C10.6909 9.45449 10.6881 9.18531 10.6928 8.91145L10.6994 8.91238ZM12.0502 11.7786C12.0502 11.9662 11.9564 12.0468 11.7688 12.0534H11.3682C11.235 12.0534 11.1009 12.0534 10.9677 12.0534C10.9324 12.0576 10.8967 12.0539 10.8631 12.0425C10.8295 12.0311 10.7989 12.0124 10.7734 11.9877C10.748 11.963 10.7284 11.9329 10.7161 11.8996C10.7037 11.8664 10.699 11.8308 10.7022 11.7955C10.6984 11.516 10.6984 11.2368 10.7022 10.9579C10.6991 10.9227 10.704 10.8872 10.7164 10.8541C10.7288 10.8209 10.7484 10.791 10.7738 10.7664C10.7992 10.7418 10.8298 10.7231 10.8634 10.7118C10.8969 10.7005 10.9325 10.6968 10.9677 10.701C11.2416 10.701 11.5146 10.701 11.7885 10.701C11.9668 10.701 12.0503 10.7947 12.0531 10.9758C12.0518 11.2434 12.0487 11.5107 12.0437 11.7777L12.0502 11.7786ZM11.7163 6.93156C11.7163 7.08912 11.7163 7.22792 11.7163 7.36767C11.7116 7.74846 11.523 7.94353 11.1422 7.94541C10.3879 7.94541 9.63302 7.94541 8.87752 7.94541C8.48539 7.94541 8.29589 7.75126 8.29307 7.36016C8.29307 7.2176 8.29307 7.07881 8.29307 6.93062H6.9178V14.4338H9.31376C9.31845 14.356 9.32407 14.2903 9.32407 14.2246C9.32407 13.872 9.32407 13.5184 9.32407 13.1658C9.32407 12.8131 9.38036 12.7484 9.7331 12.7484H10.3363C10.6027 12.7484 10.6806 12.8272 10.6825 13.1001C10.6825 13.4753 10.6825 13.842 10.6825 14.2134C10.6825 14.2847 10.6909 14.355 10.6947 14.4338H13.0925V6.93062L11.7163 6.93156ZM9.31 11.7786C9.30437 11.9615 9.22275 12.0496 9.04357 12.0525C8.77058 12.0525 8.49665 12.0525 8.22365 12.0525C8.04541 12.0525 7.96099 11.9587 7.95818 11.7777C7.95443 11.5101 7.95443 11.2427 7.95818 10.9758C7.95818 10.7882 8.05199 10.7038 8.23962 10.701C8.50104 10.701 8.76214 10.701 9.02293 10.701C9.22369 10.701 9.30437 10.7891 9.30437 10.9945C9.30437 11.1221 9.30437 11.2496 9.30437 11.3772C9.30437 11.5047 9.30718 11.6435 9.30343 11.7777L9.31 11.7786ZM9.31 9.7518C9.31195 9.78568 9.30665 9.81959 9.29447 9.85127C9.2823 9.88295 9.26353 9.91169 9.23939 9.93555C9.21526 9.95942 9.18631 9.97786 9.15449 9.98968C9.12267 10.0015 9.0887 10.0064 9.05484 10.0041C8.7734 10.0116 8.49197 10.0126 8.21616 10.0041C8.18025 10.0073 8.14406 10.0026 8.11019 9.99019C8.07632 9.9778 8.04561 9.95809 8.02025 9.93246C7.99489 9.90684 7.9755 9.87593 7.96347 9.84195C7.95144 9.80796 7.94707 9.77173 7.95067 9.73586C7.95067 9.46199 7.95067 9.18907 7.95067 8.9152C7.95067 8.73325 8.03697 8.65634 8.22459 8.65258C8.36437 8.65258 8.50603 8.65258 8.64393 8.65258H9.04451C9.07815 8.64825 9.11235 8.65152 9.14457 8.66213C9.17679 8.67275 9.20621 8.69045 9.23069 8.71393C9.25517 8.73741 9.27409 8.76608 9.28602 8.79783C9.29796 8.82957 9.30262 8.8636 9.29967 8.89739C9.30812 9.17969 9.30718 9.4648 9.30249 9.75086L9.31 9.7518ZM10.7003 8.91238C10.7003 8.73043 10.7875 8.65352 10.9752 8.65071C11.2428 8.65071 11.5105 8.65071 11.7782 8.65071C11.9715 8.65071 12.0474 8.73418 12.0521 8.93208C12.0521 9.05963 12.0521 9.18719 12.0521 9.31475C12.0521 9.4423 12.0521 9.59611 12.0521 9.73398C12.0559 9.76933 12.0519 9.80505 12.0404 9.8387C12.0289 9.87234 12.0103 9.90309 11.9857 9.9288C11.9612 9.9545 11.9313 9.97455 11.8982 9.98755C11.8652 10.0006 11.8296 10.0062 11.7941 10.0041C11.5127 10.0126 11.2313 10.0126 10.9555 10.0041C10.92 10.0059 10.8846 10.0001 10.8517 9.98687C10.8188 9.97368 10.7891 9.95352 10.7648 9.92774C10.7404 9.90197 10.7219 9.87119 10.7107 9.83757C10.6994 9.80396 10.6955 9.7683 10.6994 9.73304C10.6909 9.45449 10.6881 9.18531 10.6928 8.91145L10.7003 8.91238ZM12.0512 11.7786C12.0512 11.9662 11.9574 12.0468 11.7698 12.0534H11.3692C11.236 12.0534 11.1018 12.0534 10.9686 12.0534C10.9334 12.0576 10.8977 12.0539 10.8641 12.0425C10.8305 12.0311 10.7998 12.0124 10.7744 11.9877C10.7489 11.963 10.7293 11.9329 10.717 11.8996C10.7047 11.8664 10.6999 11.8308 10.7031 11.7955C10.6994 11.516 10.6994 11.2368 10.7031 10.9579C10.7001 10.9227 10.7049 10.8872 10.7173 10.8541C10.7297 10.8209 10.7493 10.791 10.7748 10.7664C10.8002 10.7418 10.8308 10.7231 10.8643 10.7118C10.8978 10.7005 10.9335 10.6968 10.9686 10.701C11.2425 10.701 11.5155 10.701 11.7894 10.701C11.9677 10.701 12.0512 10.7947 12.054 10.9758C12.0521 11.2434 12.0487 11.5107 12.0437 11.7777L12.0512 11.7786ZM10.3757 5.86985C10.3607 5.65038 10.3476 5.4431 10.3335 5.2302H9.6768C9.66273 5.45623 9.6496 5.66258 9.63741 5.87079L8.99387 5.91205V6.56858L9.63459 6.60423C9.65148 6.82933 9.66649 7.04035 9.68243 7.26076H10.3344C10.3504 7.03566 10.3644 6.82837 10.3785 6.61078L11.0174 6.56576V5.91393L10.3757 5.86985Z" fill="white"/>
</svg>
