<svg width="20" height="20" viewBox="0 0 20 20" fill="none" xmlns="http://www.w3.org/2000/svg">
<path d="M20.0002 9.96407C20.0073 11.9427 19.4273 13.879 18.3335 15.5278C17.2397 17.1767 15.6814 18.464 13.8558 19.2269C12.0301 19.9897 10.0192 20.1938 8.07743 19.8134C6.13571 19.4329 4.35049 18.485 2.94772 17.0896C1.54495 15.6941 0.587685 13.9139 0.19706 11.9742C-0.193565 10.0345 1.7941e-05 8.02252 0.75331 6.19288C1.5066 4.36324 2.78574 2.79819 4.42884 1.69581C6.07194 0.593428 8.00514 0.00326423 9.98378 5.25234e-06C12.6321 -0.00270627 15.1734 1.04455 17.0509 2.91226C18.9285 4.77997 19.989 7.3158 20.0002 9.96407ZM7.04237 9.24767C7.40722 9.20001 7.75018 9.11719 8.09315 9.11954C8.64002 9.12344 8.85878 9.34844 8.81112 9.90079C8.77206 10.3625 8.65487 10.8195 8.5455 11.2734C8.31112 12.257 7.99081 13.2266 7.84237 14.2227C7.68612 15.3039 8.38534 16.0117 9.4783 16.1047C10.2596 16.1711 10.9541 15.9055 11.6713 15.6656C12.1158 15.5164 12.1814 15.236 12.1986 14.875C11.8416 14.9235 11.5103 15.0016 11.183 15.0055C10.5791 15.0117 10.3439 14.7648 10.4017 14.1594C10.4478 13.7102 10.5674 13.268 10.6721 12.8266C10.9025 11.8555 11.2096 10.8977 11.365 9.91564C11.5353 8.84533 10.9049 8.15391 9.83456 8.02657C9.05331 7.93282 8.35018 8.20549 7.63456 8.43049C7.20643 8.56486 7.03065 8.81798 7.04237 9.24767ZM10.8986 6.70704C11.7236 6.70079 12.4127 6.05549 12.4158 5.28517C12.4158 4.49845 11.7127 3.83594 10.8752 3.84532C10.0377 3.85469 9.35409 4.51016 9.36659 5.3086C9.37753 6.08047 10.0713 6.71329 10.8986 6.70704Z" fill="white"/>
</svg>
