<svg width="20" height="20" viewBox="0 0 20 20" fill="none" xmlns="http://www.w3.org/2000/svg">
<path d="M7.23223 13.5519C7.12785 13.5561 7.02369 13.5393 6.92594 13.5025C6.82819 13.4656 6.73886 13.4095 6.66326 13.3374C6.58767 13.2653 6.52734 13.1787 6.48591 13.0828C6.44448 12.9869 6.42276 12.8837 6.42207 12.7792C6.42137 12.6748 6.44172 12.5712 6.48188 12.4748C6.52204 12.3784 6.58119 12.291 6.65582 12.2179C6.73045 12.1448 6.81904 12.0875 6.9163 12.0493C7.01355 12.0112 7.11748 11.993 7.2219 11.9959C7.42371 12.0014 7.61548 12.0851 7.75673 12.2294C7.89799 12.3736 7.97767 12.567 7.97901 12.7689C7.98035 12.9707 7.90323 13.1652 7.7639 13.3113C7.62457 13.4574 7.43394 13.5436 7.23223 13.5519ZM12.7661 7.99952C12.5644 7.99141 12.3737 7.90527 12.2343 7.75928C12.0949 7.61329 12.0177 7.41886 12.0189 7.21701C12.0201 7.01516 12.0997 6.82168 12.2408 6.67738C12.382 6.53308 12.5737 6.44923 12.7754 6.44355C12.8799 6.4406 12.9838 6.45873 13.0811 6.49681C13.1784 6.53488 13.267 6.59215 13.3417 6.6652C13.4164 6.73824 13.4756 6.82558 13.5159 6.922C13.5561 7.01841 13.5765 7.12193 13.5759 7.2264C13.5752 7.33086 13.5536 7.43412 13.5122 7.53005C13.4708 7.62597 13.4105 7.71257 13.335 7.78472C13.2594 7.85686 13.1701 7.91307 13.0724 7.94997C12.9746 7.98687 12.8705 8.00372 12.7661 7.99952ZM12.7661 7.99952C12.5644 7.99141 12.3737 7.90527 12.2343 7.75928C12.0949 7.61329 12.0177 7.41886 12.0189 7.21701C12.0201 7.01516 12.0997 6.82168 12.2408 6.67738C12.382 6.53308 12.5737 6.44923 12.7754 6.44355C12.8799 6.4406 12.9838 6.45873 13.0811 6.49681C13.1784 6.53488 13.267 6.59215 13.3417 6.6652C13.4164 6.73824 13.4756 6.82558 13.5159 6.922C13.5561 7.01841 13.5765 7.12193 13.5759 7.2264C13.5752 7.33086 13.5536 7.43412 13.5122 7.53005C13.4708 7.62597 13.4105 7.71257 13.335 7.78472C13.2594 7.85686 13.1701 7.91307 13.0724 7.94997C12.9746 7.98687 12.8705 8.00372 12.7661 7.99952ZM7.23223 13.5519C7.12785 13.5561 7.02369 13.5393 6.92594 13.5025C6.82819 13.4656 6.73886 13.4095 6.66326 13.3374C6.58767 13.2653 6.52734 13.1787 6.48591 13.0828C6.44448 12.9869 6.42276 12.8837 6.42207 12.7792C6.42137 12.6748 6.44172 12.5712 6.48188 12.4748C6.52204 12.3784 6.58119 12.291 6.65582 12.2179C6.73045 12.1448 6.81904 12.0875 6.9163 12.0493C7.01355 12.0112 7.11748 11.993 7.2219 11.9959C7.42371 12.0014 7.61548 12.0851 7.75673 12.2294C7.89799 12.3736 7.97767 12.567 7.97901 12.7689C7.98035 12.9707 7.90323 13.1652 7.7639 13.3113C7.62457 13.4574 7.43394 13.5436 7.23223 13.5519ZM17.2494 16.9011C13.5493 20.8852 7.20126 21.0494 3.11278 17.2678C-0.877218 13.5753 -1.05542 7.23233 2.71697 3.13186C6.41434 -0.883269 12.7839 -1.06147 16.8855 2.73419C20.8915 6.44075 21.0547 12.8034 17.2494 16.9011ZM8.19925 5.64634C7.65619 5.27118 7.06245 5.23085 6.40027 5.53004C6.51094 5.62383 6.62631 5.70262 6.72949 5.80016C6.89394 5.95398 7.05308 6.1128 7.20691 6.27662C7.26621 6.33233 7.3137 6.39938 7.34657 6.47382C7.37943 6.54825 7.397 6.62856 7.3982 6.70992C7.39941 6.79128 7.38422 6.87203 7.35357 6.94741C7.32293 7.02279 7.27745 7.09124 7.21982 7.14868C7.16219 7.20613 7.09359 7.25139 7.0181 7.28179C6.94262 7.31218 6.86179 7.32709 6.78044 7.32562C6.69908 7.32414 6.61884 7.30633 6.54451 7.27323C6.47018 7.24012 6.40326 7.1924 6.34774 7.13291C6.11982 6.91438 5.90035 6.6874 5.67618 6.46512C5.63397 6.42291 5.58895 6.38446 5.52892 6.32913C5.23159 6.98565 5.24754 7.61405 5.65179 8.19086C6.1489 8.90928 6.85423 9.12875 7.71057 8.93554L8.30617 9.55644L9.60241 8.28371L8.95428 7.66844C9.1081 6.81402 8.89333 6.12936 8.19925 5.65009V5.64634ZM14.0651 5.83391C13.7765 5.56463 13.4106 5.39266 13.0191 5.34218C12.6276 5.29171 12.23 5.36528 11.8825 5.55255C11.1134 5.96522 10.7851 6.72866 10.9446 7.73127L7.69557 10.937C6.6779 10.7954 5.93599 11.1246 5.53173 11.9246C5.35524 12.2775 5.29351 12.6767 5.35518 13.0664C5.41685 13.4562 5.59885 13.8168 5.87568 14.098C6.15251 14.3791 6.51031 14.5667 6.89903 14.6344C7.28775 14.7022 7.68793 14.6467 8.04354 14.4757C8.85298 14.0865 9.1897 13.3502 9.05183 12.2444L12.2858 9.05559C13.3992 9.17002 14.1083 8.8427 14.4919 8.01079C14.6593 7.65021 14.7081 7.24587 14.6315 6.8558C14.5548 6.46573 14.3565 6.10996 14.0651 5.83955V5.83391ZM14.3671 11.8233C13.8719 11.0805 13.1572 10.8564 12.2784 11.0533L11.6874 10.4268L10.395 11.6995L11.0431 12.3279C10.8902 13.1776 11.1069 13.8632 11.8028 14.3416C12.3524 14.7167 12.9527 14.7561 13.598 14.4944C13.5427 14.4344 13.5042 14.3866 13.4555 14.3416C13.2332 14.1174 13.0043 13.8989 12.7867 13.67C12.6734 13.556 12.61 13.4016 12.6106 13.2408C12.6111 13.0801 12.6755 12.9261 12.7895 12.8128C12.9036 12.6995 13.058 12.6361 13.2187 12.6367C13.3795 12.6372 13.5335 12.7016 13.6468 12.8156C13.9216 13.081 14.1871 13.3568 14.475 13.6466C14.7639 13.0051 14.7442 12.3936 14.3671 11.829V11.8233ZM12.768 7.99389C12.5663 7.98577 12.3756 7.89964 12.2362 7.75364C12.0968 7.60765 12.0196 7.41323 12.0208 7.21138C12.022 7.00953 12.1016 6.81605 12.2427 6.67175C12.3839 6.52744 12.5755 6.44362 12.7773 6.43794C12.8818 6.43499 12.9857 6.4531 13.083 6.49117C13.1803 6.52925 13.2689 6.58652 13.3436 6.65956C13.4183 6.73261 13.4775 6.81995 13.5177 6.91636C13.5579 7.01278 13.5784 7.1163 13.5777 7.22077C13.5771 7.32523 13.5554 7.42849 13.5141 7.52441C13.4727 7.62034 13.4124 7.70696 13.3369 7.77911C13.2613 7.85125 13.172 7.90744 13.0742 7.94434C12.9765 7.98124 12.8723 7.99809 12.768 7.99389ZM7.23411 13.5462C7.12973 13.5505 7.02556 13.5337 6.92781 13.4968C6.83006 13.46 6.74074 13.4038 6.66514 13.3317C6.58954 13.2596 6.52922 13.1731 6.48779 13.0772C6.44635 12.9813 6.42464 12.878 6.42395 12.7736C6.42325 12.6691 6.4436 12.5656 6.48376 12.4692C6.52392 12.3727 6.58306 12.2854 6.6577 12.2123C6.73233 12.1392 6.82092 12.0819 6.91817 12.0437C7.01543 12.0056 7.11936 11.9874 7.22378 11.9903C7.42558 11.9958 7.61733 12.0795 7.75859 12.2237C7.89984 12.368 7.97955 12.5614 7.98089 12.7633C7.98223 12.9651 7.90511 13.1596 7.76578 13.3057C7.62645 13.4518 7.43582 13.538 7.23411 13.5462Z" fill="white"/>
</svg>
