<svg width="20" height="20" viewBox="0 0 20 20" fill="none" xmlns="http://www.w3.org/2000/svg">
<path d="M11.5597 7.80354L11.5344 7.7332H10.3883C10.2598 7.34772 10.1426 6.99411 10.0244 6.64052H9.97279C9.85087 6.9988 9.728 7.35615 9.59763 7.74538H8.4534C8.4534 7.76601 8.44495 7.7857 8.4412 7.80539L9.3594 8.50134L9.01893 9.60526L9.07146 9.63901L10 8.97778L10.9379 9.63432L10.9839 9.594C10.8704 9.23196 10.7578 8.86994 10.6415 8.50134L11.5597 7.80354ZM11.5597 7.80354L11.5344 7.7332H10.3883C10.2598 7.34772 10.1426 6.99411 10.0244 6.64052H9.97279C9.85087 6.9988 9.728 7.35615 9.59763 7.74538H8.4534C8.4534 7.76601 8.44495 7.7857 8.4412 7.80539L9.3594 8.50134L9.01893 9.60526L9.07146 9.63901L10 8.97778L10.9379 9.63432L10.9839 9.594C10.8704 9.23196 10.7578 8.86994 10.6415 8.50134L11.5597 7.80354ZM17.2481 3.09897C13.549 -0.885273 7.20129 -1.0494 3.11298 2.73225C-0.877779 6.42387 -1.05504 12.7679 2.71719 16.8684C6.41439 20.8827 12.7837 21.0618 16.8851 17.2661C20.8928 13.5595 21.0541 7.1967 17.2481 3.09897ZM14.2721 12.992C13.8782 13.5773 13.2892 13.8906 12.6336 14.0594C12.0969 14.203 11.5481 14.2972 10.9942 14.3408C10.0281 14.4064 9.05834 14.4139 8.09699 14.247C7.51175 14.1438 6.93305 13.9984 6.43971 13.658C6.15834 13.4629 5.92762 13.189 5.68939 12.9377C5.61061 12.8542 5.58248 12.7229 5.53559 12.6225C6.8796 11.3854 12.8456 11.377 14.4738 12.6131C14.4138 12.7432 14.3465 12.8697 14.2721 12.992ZM14.5066 12.1076C11.4959 10.9474 8.50404 10.9455 5.49338 12.1076V11.5964C6.92743 10.3396 12.9656 10.334 14.5066 11.5964V12.1076ZM14.8583 11.3047C13.3333 10.4709 11.6863 10.2177 9.99624 10.2187C8.30615 10.2196 6.67045 10.4681 5.14073 11.3066L3.78453 10.1596C3.83992 10.0561 3.90261 9.95677 3.97211 9.86225C4.30847 9.48578 4.52667 9.0187 4.59956 8.51915C4.62301 8.37003 4.66522 8.22465 4.69899 8.0774C4.77871 7.72662 5.00287 7.53623 5.35552 7.49309C5.70817 7.44994 6.06455 7.41148 6.41814 7.36458C7.33822 7.24078 8.16546 6.9125 8.86513 6.28129C9.10539 6.07669 9.36232 5.89254 9.63326 5.73075C9.73982 5.65849 9.86562 5.61988 9.99436 5.61988C10.1231 5.61988 10.2489 5.65849 10.3554 5.73075C10.616 5.88328 10.8624 6.05874 11.0917 6.25505C11.8702 6.97349 12.8071 7.28675 13.8351 7.40211C14.1221 7.434 14.4081 7.46494 14.6932 7.50715C14.8317 7.52009 14.9623 7.57709 15.066 7.66977C15.1696 7.76245 15.2408 7.88592 15.2691 8.02206C15.3188 8.20964 15.3695 8.40753 15.4032 8.60356C15.481 9.0599 15.6846 9.48546 15.9913 9.83223C16.0702 9.93513 16.1434 10.0422 16.2108 10.153L14.8583 11.3047ZM11.5344 7.7332H10.3883C10.2598 7.34772 10.1426 6.99411 10.0244 6.64052H9.97279C9.85087 6.9988 9.728 7.35615 9.59763 7.74538H8.4534C8.4534 7.76601 8.44495 7.7857 8.4412 7.80539L9.3594 8.50134L9.01893 9.60526L9.07146 9.63901L10 8.97778L10.9379 9.63432L10.9839 9.594C10.8704 9.23196 10.7578 8.86994 10.6415 8.50134L11.5635 7.80166L11.5344 7.7332ZM11.5597 7.80354L11.5344 7.7332H10.3883C10.2598 7.34772 10.1426 6.99411 10.0244 6.64052H9.97279C9.85087 6.9988 9.728 7.35615 9.59763 7.74538H8.4534C8.4534 7.76601 8.44495 7.7857 8.4412 7.80539L9.3594 8.50134L9.01893 9.60526L9.07146 9.63901L10 8.97778L10.9379 9.63432L10.9839 9.594C10.8704 9.23196 10.7578 8.86994 10.6415 8.50134L11.5597 7.80354ZM11.5597 7.80354L11.5344 7.7332H10.3883C10.2598 7.34772 10.1426 6.99411 10.0244 6.64052H9.97279C9.85087 6.9988 9.728 7.35615 9.59763 7.74538H8.4534C8.4534 7.76601 8.44495 7.7857 8.4412 7.80539L9.3594 8.50134L9.01893 9.60526L9.07146 9.63901L10 8.97778L10.9379 9.63432L10.9839 9.594C10.8704 9.23196 10.7578 8.86994 10.6415 8.50134L11.5597 7.80354Z" fill="white"/>
</svg>
