<svg width="20" height="20" viewBox="0 0 20 20" fill="none" xmlns="http://www.w3.org/2000/svg">
<path d="M19.9927 10.268C19.7764 15.845 15.1537 20.2165 9.70786 19.9917C4.1515 19.7622 -0.204255 15.1547 0.00739841 9.72943C0.222798 4.17211 4.82111 -0.194691 10.2464 0.00669514C15.8261 0.212765 20.2034 4.82123 19.9927 10.268ZM14.0318 13.2167C12.9079 12.103 11.8263 11.0239 10.7137 9.91583L13.9306 6.71239C14.022 6.62132 14.0765 6.49966 14.0836 6.37083C14.0907 6.242 14.0499 6.11511 13.969 6.01456L13.9634 6.00613C13.9172 5.94848 13.8594 5.90123 13.7938 5.86748C13.7281 5.83372 13.656 5.81422 13.5823 5.81024C13.5086 5.80626 13.4348 5.81791 13.3659 5.8444C13.297 5.87089 13.2344 5.91164 13.1823 5.96398C12.0763 7.07769 11.0087 8.15114 9.9167 9.25174L6.63889 5.97336C6.59378 5.92824 6.54006 5.89266 6.48093 5.86873C6.4218 5.8448 6.35846 5.83302 6.29468 5.83407C6.2309 5.83511 6.16798 5.84898 6.10966 5.87484C6.05135 5.9007 5.99883 5.93801 5.95523 5.98458L5.94868 5.99115C5.86569 6.08081 5.82052 6.19906 5.82261 6.32123C5.82471 6.4434 5.8739 6.56005 5.95991 6.64682L9.32388 10.0076L6.03483 13.286C5.9463 13.3751 5.89661 13.4957 5.89661 13.6213C5.89661 13.747 5.9463 13.8675 6.03483 13.9567L6.06574 13.9876C6.10995 14.032 6.16248 14.0672 6.22034 14.0913C6.27819 14.1153 6.34023 14.1277 6.40289 14.1277C6.46554 14.1277 6.52758 14.1153 6.58543 14.0913C6.64329 14.0672 6.69583 14.032 6.74003 13.9876L10.0544 10.668L13.3069 13.9379C13.3992 14.0307 13.5238 14.0841 13.6546 14.0869C13.7854 14.0897 13.9122 14.0417 14.0083 13.9529L14.0158 13.9464C14.0658 13.9001 14.1059 13.8443 14.1339 13.7822C14.1618 13.7201 14.177 13.653 14.1785 13.5849C14.18 13.5168 14.1677 13.4491 14.1425 13.3859C14.1173 13.3226 14.0797 13.2651 14.0318 13.2167Z" fill="white"/>
</svg>
