<svg width="20" height="20" viewBox="0 0 20 20" fill="none" xmlns="http://www.w3.org/2000/svg">
<path d="M9.89842 19.9998C4.38215 19.9639 -0.0480496 15.4261 0.000393527 9.86015C0.047274 4.39108 4.5728 -0.0357223 10.1 0.000217297C15.6272 0.0361569 20.048 4.57234 19.9996 10.1399C19.9527 15.6152 15.4319 20.0311 9.89842 19.9998ZM4.68219 9.81952C4.83845 10.0086 4.99473 10.2399 5.19475 10.4368C6.09069 11.3431 6.9908 12.2441 7.89507 13.14C8.55296 13.7916 8.69203 13.7932 9.35305 13.14C11.1751 11.3243 12.9941 9.50493 14.8099 7.68191C14.9895 7.48254 15.1585 7.27391 15.3162 7.05687C14.974 6.27557 14.7052 6.19589 14.1677 6.67717C13.9942 6.83343 13.8348 7.0053 13.6692 7.17094L8.59046 12.2541C7.65285 11.2993 6.78244 10.3789 5.88077 9.48358C5.33071 8.93667 5.01191 9.02573 4.68219 9.81952Z" fill="white"/>
</svg>
