<svg width="1515" height="284" viewBox="0 0 1515 284" fill="none" xmlns="http://www.w3.org/2000/svg">
  <path fill-rule="evenodd" clip-rule="evenodd"
    d="M674.069 11.3817H667.728V215.749H658.504V122.121H650.048V62.3294L585.481 62.5216V122.313H566.84V195.755C565.832 195.079 563.873 192.87 562.847 191.867C561.808 190.85 562.027 190.724 562.035 188.834C562.152 162.239 561.808 135.639 562.039 109.045C562.059 106.689 561.089 105.949 559.303 103.9L555.474 99.6555C554.784 98.7902 551.04 95.0704 550.001 94.3646C549.416 93.9679 550.04 94.143 549.165 94.0471C547.097 93.8206 543.342 94.0513 541.09 94.0513C540.93 93.3641 540.628 93.0915 540.284 92.5502C538.232 89.3184 527.052 70.9081 526.101 70.2114C525.818 71.2732 524.868 72.2839 524.31 73.2262L513.188 90.9375C512.622 91.8162 511.566 93.0721 511.305 94.0513C508.936 94.0513 506.556 94.0737 504.188 94.0452C502.441 94.0242 502.65 94.1814 501.667 94.9832C499.288 96.9225 496.793 99.9205 494.735 102.275C494.153 102.942 493.681 103.589 493.131 104.323C491.972 105.87 490.723 106.862 490.735 109.039C490.747 111.412 490.743 113.786 490.743 116.16C490.743 118.719 490.551 120.558 490.551 123.081C490.551 125.516 490.551 127.952 490.551 130.387C489.503 129.685 488.552 128.609 487.476 127.888C486.654 129.116 483.033 131.725 481.663 133.03C479.736 134.866 477.638 136.423 475.705 138.221C473.384 140.38 470.742 142.245 468.502 144.472C467.351 145.618 467.088 145.386 464.992 145.383C462.773 145.38 458.108 145.131 456.17 145.4C455.482 145.495 453.875 146.427 453.142 146.793C449.674 148.525 446.557 150.456 443.473 152.691C442.973 153.053 442.753 153.457 441.933 153.457H435.399V130.771H386.781V188.64H378.71V112.507H314.526V172.106H307.608V149.228C307.608 145.602 307.416 142.653 307.416 139.038H260.912L261.104 158.84H204.223V193.062H160.409V178.258H132.353L132.545 182.104C132.545 185.74 132.195 190.824 132.573 194.187C133.205 199.814 132.545 229.842 132.545 237.281H118.901V192.293C118.901 191.85 118.768 191.716 118.325 191.716H91.998V241.126H85.2719V259.967H77.5853V200.752H-2.35602V227.475H-29.8356L-30.7637 249.041C-30.8508 249.638 -30.7256 249.97 -31.3729 249.97H-57.892V216.709H-93.8272V256.314H-122.652C-122.672 255.444 -122.844 255.55 -122.844 254.584V225.745H-191.255V270.925H-213.931C-213.931 262.709 -213.739 255.114 -213.739 246.893H-251.212V268.81C-251.952 268.872 -252.268 269.14 -252.876 269.452C-255.432 270.765 -258.17 271.807 -260.756 273.104C-261.233 273.344 -261.836 273.711 -262.299 273.867L-265.992 274.787C-269.965 275.327 -276.862 275.619 -280.986 275.935C-286.588 276.365 -292.336 276.997 -298.098 277.271L-310.922 278.284C-314.639 278.781 -319.901 278.928 -323.879 279.356L-336.724 280.348C-340.779 280.452 -345.737 281.252 -349.602 281.306L-362.465 282.28C-368.2 282.72 -373.864 283.344 -379.577 283.616C-380.866 283.678 -382.675 283.999 -383.999 283.999H2025C2022.92 283.999 2014.88 283.189 2011.74 283.037C2010.43 282.974 2008.68 282.671 2007.32 282.652L1967.15 279.588C1965.62 279.472 1964.14 279.494 1962.66 279.274L1909.23 275.237C1906.83 274.878 1897.4 274.705 1895.9 274.153C1893.86 273.398 1894.96 265.218 1894.01 262.971C1893.86 262.594 1893.36 261.995 1893.23 262.216L1867.62 261.89C1866.87 263.435 1867.22 266.982 1867.23 269.006C1867.24 270.153 1867.06 270.646 1867.04 271.502L1850.51 271.31V229.975C1850.51 229.532 1850.38 229.398 1849.94 229.398H1781.91V268.619H1767.11L1767.35 251.701C1767.34 250.957 1760.97 251.316 1760.19 251.316C1757.5 251.316 1755.48 251.123 1752.89 251.123V220.939H1716.96V251.892H1683.71V227.86L1675.44 227.866C1674.42 227.836 1674 227.659 1672.76 227.665L1664.3 227.675C1663.11 227.673 1662.81 227.476 1661.61 227.476V191.909H1590.32V173.644H1536.7V209.212H1526.71V160.956H1463.3V194.985H1409.11V225.361H1403.73C1403.28 225.361 1403.15 225.227 1403.15 224.784V157.88H1350.5C1350.05 157.88 1349.92 157.746 1349.92 157.303V132.886H1309.95V177.489C1307.42 177.489 1304.96 177.105 1302.45 177.105V115.391H1255.18V139.615C1249.9 139.615 1244.92 140.025 1239.61 139.998C1238.1 139.99 1237.43 140.202 1235.97 140.194C1234.65 140.186 1233.23 140.146 1231.92 140.185L1228.09 140.384C1226.89 140.383 1225.24 140.281 1224.1 140.436C1221.65 140.773 1213.78 140.667 1210.59 140.762C1209.64 140.791 1209.63 140.938 1208.68 140.967L1202.72 140.96C1201.86 141.006 1201.8 141.148 1200.81 141.16C1199.47 141.177 1198.1 141.155 1196.76 141.153C1195.19 141.149 1194.33 141.356 1192.92 141.35C1191.64 141.344 1190.36 141.346 1189.08 141.345C1187.52 141.343 1186.56 141.542 1185.24 141.544L1169.45 141.894C1167 142.168 1163.91 141.725 1161.41 141.932L1145.84 142.306C1140.4 142.306 1135.44 142.498 1129.89 142.498V189.217C1129.89 189.659 1129.75 189.793 1129.31 189.793H1118.55V86.7445C1118.55 86.3013 1118.42 86.1677 1117.97 86.1677H1055.52C1055.08 86.1677 1054.94 86.3013 1054.94 86.7445V171.145H1037.26V135.001C1037.26 134.557 1037.13 134.424 1036.69 134.424H1011.71V97.3184C1010.84 97.3379 1010.94 97.5107 1009.98 97.5107H935.416V120.581C935.416 121.198 934.409 121.997 934.08 122.513C932.758 124.585 931.628 126.909 930.545 129.166C929.278 131.806 927.488 136.565 926.384 138.653C919.945 138.653 914.144 138.845 907.743 138.845V180.565H904.092C904.092 178.297 903.9 176.722 903.9 174.412V129.232C903.9 120.508 903.708 112.398 903.708 103.662C903.708 95.0106 903.708 86.3592 903.708 77.7078H894.676C894.676 71.9992 891.518 65.3754 887.615 61.5093C877.622 51.6115 862.834 52.3794 853.698 62.6648C850.265 66.5296 847.788 72.2325 847.788 77.7078H840.101V110.391C839.137 110.391 838.765 110.579 837.803 110.591C836.971 110.601 836.121 110.566 835.289 110.576L830.493 110.776V118.85H818.963V194.215H813.006V57.7134H773.804V77.5159H765.156C763.164 77.5159 761.933 77.3236 759.968 77.3236V9.6499H742.865V1.19073C737.721 1.19073 733.219 0.998474 728.068 0.998474H674C674 4.45909 674 7.9196 674 11.3802L674.069 11.3817Z"
    fill="url(#paint0_linear_26_294)" />
  <defs>
    <linearGradient id="paint0_linear_26_294" x1="820.5" y1="0.998474" x2="820.5" y2="283.999"
      gradientUnits="userSpaceOnUse">
      <stop offset="0.213542" stop-color="#E0E0E0" stop-opacity="0.35" />
      <stop offset="0.798299" stop-color="#E0E0E0" stop-opacity="0.15" />
      <stop offset="0.921875" stop-color="#E0E0E0" stop-opacity="0" />
    </linearGradient>
  </defs>
</svg>