<svg width="18" height="18" viewBox="0 0 18 18" fill="none" xmlns="http://www.w3.org/2000/svg">
<path d="M16.8016 13.5524C16.1174 14.7445 15.1575 15.7552 14.0026 16.4995C12.8478 17.2438 11.5317 17.7001 10.165 17.8298C8.79839 17.9596 7.42109 17.7591 6.14894 17.2452C4.87678 16.7314 3.74696 15.9191 2.85442 14.8768C1.96189 13.8344 1.33274 12.5924 1.01986 11.2552C0.706983 9.918 0.719518 8.52464 1.05642 7.19227C1.39332 5.85989 2.04473 4.62744 2.9559 3.59851C3.86708 2.56959 5.01137 1.77428 6.29261 1.27941C7.94613 0.64075 9.75588 0.530064 11.4731 0.962567C13.1904 1.39507 14.7308 2.34953 15.8827 3.69476C17.0345 5.03999 17.7413 6.70995 17.9059 8.4751C18.0704 10.2403 17.6847 12.014 16.8016 13.5524ZM2.66544 5.5217C1.7709 7.09486 1.45907 8.93261 1.7849 10.7114C2.11072 12.4901 3.0533 14.0957 4.44663 15.2456C5.83995 16.3954 7.59468 17.0156 9.40182 16.997C11.209 16.9785 12.9526 16.3223 14.3257 15.1441C15.6988 13.9658 16.6133 12.3411 16.9082 10.556C17.2031 8.77086 16.8594 6.93985 15.9377 5.38535C15.0159 3.83086 13.5753 2.65258 11.8694 2.05802C10.1636 1.46346 8.30191 1.49074 6.61223 2.13506C4.94331 2.76978 3.54734 3.96763 2.66544 5.5217Z" fill="white"/>
</svg>
