<svg width="42" height="39" viewBox="0 0 42 39" fill="none" xmlns="http://www.w3.org/2000/svg">
<g filter="url(#filter0_d_221_872)">
<path d="M16.1142 23.705C16.3611 23.8377 16.5932 23.9696 16.8323 24.0892C17.0715 24.2089 17.3184 24.3148 17.6258 24.4568C17.3114 24.9678 17.0202 25.4543 16.7114 25.9278C16.6734 25.9855 16.5215 26.0136 16.4427 25.9884C14.9212 25.4972 13.4894 24.7514 12.2054 23.7814C12.1243 23.702 12.0754 23.5942 12.0682 23.4795C11.7397 19.7856 12.6514 16.416 14.6328 13.3369C14.707 13.2167 14.8159 13.1232 14.9444 13.0695C16.0101 12.7142 17.0821 12.3769 18.1505 12.0295C18.4023 11.9473 18.562 12.0381 18.6274 12.2875C18.7787 12.8641 19.1065 12.9499 19.6776 12.9095C20.7222 12.8375 21.7787 12.9153 22.8295 12.9499C23.0173 12.9564 23.0954 12.8987 23.1714 12.7336C23.5365 11.948 23.5498 11.9192 24.3742 12.157C25.2394 12.4064 26.0912 12.7084 26.9374 13.022C27.1385 13.1065 27.3101 13.2512 27.4298 13.4371C29.3775 16.4643 30.2539 19.7856 29.936 23.4131C29.9109 23.5927 29.8198 23.7556 29.6814 23.8687C28.4551 24.7766 27.0984 25.4835 25.66 25.9639C25.4265 26.0432 25.2978 26.0072 25.1761 25.7916C24.9257 25.3498 24.657 24.9188 24.3869 24.4691L25.8858 23.7202C25.7128 23.4384 25.551 23.3749 25.2788 23.4946C22.4279 24.7509 19.57 24.7372 16.7191 23.4946C16.4469 23.3742 16.2851 23.4384 16.1142 23.705ZM22.3906 19.707C22.3906 20.6187 22.9597 21.4022 23.7271 21.5399C24.7765 21.7287 25.6966 20.7773 25.6143 19.5938C25.5475 18.6352 24.9004 17.9029 24.0851 17.864C23.1454 17.8157 22.3934 18.6345 22.3906 19.707ZM16.4054 19.7221C16.4096 20.6317 16.9892 21.4116 17.7587 21.542C18.7829 21.7157 19.6706 20.817 19.6312 19.6464C19.5967 18.6172 18.8821 17.8446 17.9817 17.859C17.0982 17.8763 16.4005 18.7001 16.4054 19.7221Z" fill="white"/>
</g>
<defs>
<filter id="filter0_d_221_872" x="0.00256348" y="0" width="41.9972" height="38.0025" filterUnits="userSpaceOnUse" color-interpolation-filters="sRGB">
<feFlood flood-opacity="0" result="BackgroundImageFix"/>
<feColorMatrix in="SourceAlpha" type="matrix" values="0 0 0 0 0 0 0 0 0 0 0 0 0 0 0 0 0 0 127 0" result="hardAlpha"/>
<feOffset/>
<feGaussianBlur stdDeviation="6"/>
<feComposite in2="hardAlpha" operator="out"/>
<feColorMatrix type="matrix" values="0 0 0 0 1 0 0 0 0 1 0 0 0 0 1 0 0 0 0.25 0"/>
<feBlend mode="normal" in2="BackgroundImageFix" result="effect1_dropShadow_221_872"/>
<feBlend mode="normal" in="SourceGraphic" in2="effect1_dropShadow_221_872" result="shape"/>
</filter>
</defs>
</svg>
