<svg width="10" height="14" viewBox="0 0 10 14" fill="none" xmlns="http://www.w3.org/2000/svg">
<path d="M1.71587 1.7591C1.83252 1.26236 2.19452 0.994894 2.55703 0.695217C3.20203 0.167371 3.90092 -0.066254 4.71802 0.0161708C5.14122 0.0587479 5.57174 0.02217 5.9986 0.0243534C6.10323 0.0243534 6.21779 0.0101579 6.30986 0.048368C7.1505 0.397718 7.93884 0.820224 8.37302 1.76511C8.59168 1.7853 8.64975 1.95943 8.64766 2.2018C8.64086 2.88357 8.64766 3.56644 8.64242 4.24768C8.64242 4.37977 8.60685 4.51132 8.58279 4.68054C9.00128 5.41199 9.44227 6.17456 9.88064 6.93767C9.92563 7.01573 10.003 7.0976 9.99991 7.17512C9.99468 7.30175 9.96957 7.47371 9.88848 7.53703C9.82519 7.5867 9.63739 7.53703 9.55369 7.46716C9.44907 7.38146 9.39676 7.23079 9.32561 7.10634C9.02482 6.58504 8.72508 6.0632 8.39342 5.48623V9.33782C8.63301 9.37494 8.6487 9.57581 8.64713 9.79961C8.6419 10.4639 8.63981 11.1277 8.64713 11.7915C8.65027 12.036 8.60738 12.2281 8.35053 12.2674C8.0602 13.4476 7.37335 14 6.21465 14H3.78269C2.67212 14 1.96225 13.417 1.69442 12.2685C1.41821 12.2341 1.39258 12.0207 1.3952 11.7723C1.40252 11.108 1.40043 10.4443 1.3952 9.7805C1.3952 9.56216 1.41926 9.37603 1.6646 9.33672V5.49769C1.59607 5.59867 1.55109 5.65709 1.51394 5.7215C1.20008 6.26736 0.886207 6.81322 0.572338 7.35908C0.467715 7.54194 0.333274 7.67513 0.128737 7.53976C-0.0622001 7.41367 -0.0104117 7.23625 0.0895031 7.06321C0.552459 6.26189 1.01228 5.45894 1.4496 4.69582C1.42815 4.49331 1.39729 4.33446 1.39729 4.17562C1.39206 3.51185 1.39729 2.84754 1.39258 2.18378C1.39415 1.94633 1.46582 1.79076 1.71587 1.7591ZM5.02143 2.9316H3.63674C3.61948 2.9316 3.60169 2.9316 3.58443 2.9316C3.07596 2.95562 2.83376 3.36065 3.05086 3.83719C3.21145 4.18927 3.38722 4.5337 3.552 4.8836C3.67755 5.14998 3.87842 5.2657 4.16038 5.2657C4.73546 5.26024 5.31088 5.26024 5.88666 5.2657C6.18169 5.26897 6.38048 5.13579 6.50655 4.85958C6.65616 4.53207 6.82042 4.21055 6.97107 3.88467C7.22374 3.34372 6.98572 2.93979 6.40768 2.93324C5.9442 2.92724 5.48281 2.93433 5.02143 2.93433V2.9316ZM5.06955 11.6654C5.73914 11.6572 6.42965 11.5387 7.03908 11.1124C7.24832 10.9661 7.30064 10.7958 7.17352 10.5567C7.01135 10.2456 6.86279 9.9268 6.71736 9.60638C6.61274 9.3793 6.47307 9.30233 6.23453 9.39731C5.45464 9.71609 4.58821 9.71609 3.80832 9.39731C3.58809 9.31052 3.44214 9.36238 3.33752 9.58455C3.19785 9.8875 3.04981 10.185 2.90595 10.4863C2.73071 10.852 2.7553 10.9546 3.09323 11.1724C3.68539 11.5513 4.3419 11.6599 5.06955 11.6643V11.6654ZM2.25363 5.16472V8.56215L2.77308 8.29303V5.71822L2.25363 5.16472ZM7.79027 5.16472L7.27239 5.70129V8.29413L7.79027 8.5627V5.16472Z" fill="black"/>
</svg>
