<svg width="12" height="9" viewBox="0 0 12 9" fill="none" xmlns="http://www.w3.org/2000/svg">
<path d="M2.93912 7.08437H2.12668C1.63659 7.08437 1.52977 6.97784 1.5293 6.4916C1.5293 6.24824 1.5293 6.00489 1.5293 5.74449H0.801195C0.801195 6.09722 0.801195 6.44237 0.801195 6.7861C0.801195 7.09622 0.637207 7.28986 0.391226 7.28229C0.152741 7.27471 0 7.08721 0 6.78941C0 5.43216 0 4.0749 0 2.71765C0 2.40233 0.15602 2.2191 0.410435 2.22431C0.656416 2.22999 0.798852 2.40517 0.800726 2.71103C0.800726 3.05713 0.800726 3.40323 0.800726 3.7659H1.53117V3.21573C1.53117 2.47619 1.56069 2.44683 2.30145 2.44683H2.71563C2.71563 2.19116 2.71563 1.96438 2.71563 1.73664C2.71891 1.39196 2.85947 1.24472 3.19963 1.24093C3.60538 1.2362 4.0116 1.24093 4.41782 1.24093H4.65959V0.810079C4.54995 0.810079 4.44406 0.814814 4.33864 0.810079C4.09594 0.797769 3.93476 0.635374 3.93476 0.40906C3.93373 0.355434 3.94347 0.302161 3.96339 0.252446C3.98331 0.202731 4.013 0.15761 4.05066 0.119817C4.08832 0.0820237 4.13318 0.0523385 4.18251 0.0325573C4.23185 0.0127761 4.28464 0.00331637 4.3377 0.0047346C5.20449 -0.0015782 6.07128 -0.0015782 6.93807 0.0047346C6.99131 0.0037935 7.04416 0.0140812 7.09324 0.03495C7.14232 0.0558189 7.18655 0.086809 7.2231 0.125932C7.25966 0.165054 7.28773 0.211446 7.30554 0.262155C7.32334 0.312865 7.33048 0.366767 7.32649 0.420422C7.3204 0.639161 7.16672 0.794465 6.93573 0.808669C6.83593 0.814824 6.7352 0.808669 6.61666 0.808669V1.23998C6.97743 1.23998 7.33399 1.23998 7.69101 1.23998C8.12066 1.23998 8.24623 1.36971 8.2467 1.80814C8.24717 2.24656 8.2467 2.6902 8.2467 3.16318C8.48096 3.16318 8.69555 3.16318 8.91108 3.16318C9.32667 3.16318 9.4499 3.29149 9.45224 3.71903C9.45224 3.87432 9.45224 4.02961 9.45224 4.19579H9.84393C9.84393 4.01966 9.84674 3.84212 9.84393 3.66457C9.83972 3.46903 9.89079 3.30428 10.0782 3.21148C10.2558 3.12247 10.409 3.18259 10.5552 3.29574C10.9644 3.61138 11.375 3.92609 11.7869 4.23983C11.8568 4.29008 11.9129 4.35737 11.95 4.43545C11.9871 4.51352 12.004 4.59982 11.9992 4.6863C11.995 5.57025 12.0067 6.45467 11.988 7.33768C11.9762 7.50562 11.9046 7.66356 11.7865 7.78225C11.3938 8.15486 10.9745 8.49813 10.5655 8.85275C10.4273 8.97301 10.2778 9.04498 10.0969 8.9607C9.91609 8.87642 9.84394 8.71639 9.84628 8.51848C9.84628 8.37076 9.84628 8.22305 9.84628 8.06492H9.45458C9.45458 8.2311 9.45973 8.38686 9.45458 8.54216C9.44193 8.84422 9.29481 8.99621 9.00057 8.99668C7.57903 8.99952 6.15749 8.99669 4.73689 9C4.53402 9 4.4033 8.90104 4.28476 8.75237C3.83824 8.20032 3.39407 7.65016 2.93912 7.08437Z" fill="black"/>
</svg>
