<svg width="9" height="12" viewBox="0 0 9 12" fill="none" xmlns="http://www.w3.org/2000/svg">
<path d="M7.06568 0.707521H0.933485C0.902241 0.707427 0.871285 0.713473 0.842393 0.725286C0.813501 0.7371 0.787241 0.754458 0.765116 0.776373C0.74299 0.798288 0.725435 0.824318 0.713457 0.852986C0.701479 0.881654 0.695312 0.912392 0.695313 0.943432V11.5414C0.695313 11.5473 0.697653 11.5529 0.701823 11.5571C0.705994 11.5612 0.711653 11.5635 0.717551 11.5635H7.2809C7.2868 11.5635 7.29246 11.5612 7.29663 11.5571C7.3008 11.5529 7.30314 11.5473 7.30314 11.5414V0.943432C7.30314 0.880866 7.27813 0.820858 7.23359 0.776617C7.18906 0.732375 7.12866 0.707521 7.06568 0.707521ZM1.25487 1.37035C1.25478 1.36738 1.25528 1.36444 1.25636 1.36168C1.25743 1.35892 1.25905 1.3564 1.26112 1.35427C1.2632 1.35214 1.26569 1.35045 1.26843 1.34929C1.27118 1.34814 1.27413 1.34755 1.27711 1.34755H6.71704C6.72313 1.34755 6.72897 1.34994 6.73327 1.35422C6.73758 1.35849 6.73999 1.3643 6.73999 1.37035V4.67876C6.73999 4.68481 6.73758 4.6906 6.73327 4.69488C6.72897 4.69915 6.72313 4.70156 6.71704 4.70156H1.27711C1.27413 4.70156 1.27118 4.70097 1.26843 4.69982C1.26569 4.69866 1.2632 4.69697 1.26112 4.69484C1.25905 4.69271 1.25743 4.69019 1.25636 4.68743C1.25528 4.68467 1.25478 4.68172 1.25487 4.67876V1.37035Z" fill="white"/>
<path d="M7.62956 11.1345H0.374656C0.362374 11.1345 0.352417 11.1444 0.352417 11.1566V11.9705C0.352417 11.9827 0.362374 11.9926 0.374656 11.9926H7.62956C7.64185 11.9926 7.6518 11.9827 7.6518 11.9705V11.1566C7.6518 11.1444 7.64185 11.1345 7.62956 11.1345Z" fill="white"/>
<path d="M8.15399 11.2906C8.12548 11.2908 8.09738 11.2839 8.0722 11.2706C7.88425 11.178 7.87277 10.8009 7.91868 9.99131C7.92299 9.91077 7.92801 9.83381 7.93088 9.76681C7.93128 9.75837 7.92871 9.75005 7.9236 9.74329C7.9185 9.73652 7.91118 9.73173 7.9029 9.72975C7.77019 9.69483 7.40073 9.70124 7.03343 9.74828C7.02375 9.7495 7.01396 9.74691 7.00618 9.74104C6.9984 9.73518 6.99324 9.72652 6.99182 9.71693L6.97317 9.57438C6.97235 9.56964 6.97251 9.56479 6.97364 9.56012C6.97476 9.55544 6.97683 9.55103 6.97972 9.54717C6.9826 9.54331 6.98623 9.54006 6.99041 9.53763C6.99459 9.53521 6.99922 9.53365 7.00402 9.53304C7.30101 9.49455 7.92299 9.43611 8.08942 9.58578C8.10873 9.60214 8.12405 9.62262 8.13424 9.64571C8.14443 9.66879 8.14921 9.69388 8.14824 9.71907C8.14824 9.79889 8.14035 9.89653 8.13462 10.0042C8.1217 10.2272 8.10735 10.4795 8.11237 10.6955C8.11739 10.9499 8.14825 11.0397 8.16403 11.0697C8.17209 11.0648 8.17976 11.0593 8.18698 11.0533C8.26805 10.9856 8.50765 10.5258 8.19272 7.44265C8.02055 5.75567 7.76229 4.07011 7.72284 3.95536C7.72284 3.95536 7.72284 3.95537 7.72284 3.95893L7.88497 3.89479C7.88989 3.8928 7.89519 3.89188 7.90049 3.89213C7.9058 3.89238 7.91099 3.89378 7.9157 3.89622C7.92041 3.89866 7.92453 3.90209 7.92777 3.90628C7.93101 3.91046 7.93329 3.91529 7.93446 3.92044C8.00118 4.21479 8.24509 5.85688 8.4022 7.38351C8.50407 8.3756 8.55931 9.19307 8.56505 9.81171C8.57509 10.8715 8.44166 11.1195 8.32472 11.2172C8.27834 11.2609 8.21785 11.2869 8.15399 11.2906Z" fill="white"/>
<path d="M7.20025 2.83811L7.04491 2.94698C7.03487 2.95401 7.03248 2.9678 7.03956 2.97777L7.65363 3.84261C7.66071 3.85258 7.67459 3.85497 7.68463 3.84793L7.83997 3.73907C7.85 3.73203 7.8524 3.71824 7.84532 3.70827L7.23125 2.84343C7.22417 2.83346 7.21028 2.83108 7.20025 2.83811Z" fill="white"/>
<path d="M7.97036 4.2269L7.84625 4.29318C7.80828 4.31072 7.76486 4.31262 7.72547 4.29847C7.68609 4.28432 7.65394 4.25525 7.63606 4.21763L7.39 3.76507C7.36884 3.72977 7.3624 3.68766 7.37205 3.64772C7.3817 3.60778 7.40667 3.57317 7.44165 3.55125L7.6748 3.42582C7.69713 3.41608 7.72138 3.41142 7.74576 3.41219C7.77015 3.41297 7.79404 3.41915 7.81571 3.43029C7.83737 3.44143 7.85626 3.45725 7.87097 3.47657C7.88569 3.4959 7.89588 3.51824 7.90077 3.54198L8.0378 4.05372C8.04744 4.08593 8.04604 4.12041 8.03384 4.15175C8.02164 4.18309 7.99931 4.20952 7.97036 4.2269Z" fill="white"/>
</svg>
