<svg width="219" height="29" viewBox="0 0 219 29" fill="none" xmlns="http://www.w3.org/2000/svg">
<path d="M70.5838 0C68.6355 0 66.9206 1.28481 66.3731 3.15461L60.4798 23.2819C59.6574 26.0909 61.7637 28.9023 64.6906 28.9023C66.6389 28.9023 68.3538 27.6175 68.9013 25.7477L74.7945 5.62039C75.617 2.81141 73.5107 0 70.5838 0Z" fill="black" fill-opacity="0.25"/>
<path d="M82.5501 0C80.6017 0 78.8867 1.28496 78.3394 3.15489L72.4477 23.2838C71.6258 26.0919 73.7315 28.9023 76.6575 28.9023C78.6053 28.9023 80.3198 27.6178 80.8671 25.7485L86.7607 5.6202C87.5831 2.81133 85.4769 0 82.5501 0Z" fill="black" fill-opacity="0.25"/>
<path d="M58.6167 0C56.6689 0 54.9544 1.28447 54.407 3.1538L48.5135 23.2821C47.691 26.091 49.7972 28.9023 52.7241 28.9023C54.6724 28.9023 56.3874 27.6174 56.9347 25.7474L62.8264 5.61855C63.6484 2.81039 61.5426 0 58.6167 0Z" fill="black" fill-opacity="0.25"/>
<path d="M94.5178 0C92.5701 0 90.8558 1.28439 90.3085 3.1536L84.4144 23.2837C83.5922 26.0918 85.6978 28.9023 88.6238 28.9023C90.5714 28.9023 92.2858 27.6179 92.8331 25.7487L98.7272 5.61859C99.5494 2.81051 97.4438 0 94.5178 0Z" fill="black" fill-opacity="0.25"/>
<path d="M106.484 0C104.536 0 102.822 1.28439 102.275 3.1536L96.3807 23.2837C95.5585 26.0918 97.6641 28.9023 100.59 28.9023C102.538 28.9023 104.252 27.6179 104.799 25.7487L110.694 5.6186C111.516 2.81052 109.41 0 106.484 0Z" fill="black" fill-opacity="0.25"/>
<path d="M34.6841 0C32.7364 0 31.022 1.28439 30.4747 3.1536L24.5806 23.2837C23.7584 26.0918 25.864 28.9023 28.79 28.9023C30.7377 28.9023 32.4521 27.6179 32.9994 25.7487L38.8935 5.6186C39.7157 2.81052 37.6101 0 34.6841 0Z" fill="black" fill-opacity="0.25"/>
<path d="M10.7496 0C8.80128 0 7.08634 1.28481 6.53887 3.15461L0.64562 23.2819C-0.176844 26.0909 1.92943 28.9023 4.85634 28.9023C6.80464 28.9023 8.51958 27.6175 9.06706 25.7477L14.9603 5.6204C15.7828 2.81143 13.6765 0 10.7496 0Z" fill="black" fill-opacity="0.25"/>
<path d="M22.7178 0C20.7701 0 19.0557 1.28439 18.5084 3.1536L12.6143 23.2837C11.7921 26.0918 13.8977 28.9023 16.8237 28.9023C18.7714 28.9023 20.4858 27.6179 21.0331 25.7487L26.9271 5.6186C27.7493 2.81053 25.6437 0 22.7178 0Z" fill="black" fill-opacity="0.25"/>
<path d="M118.451 0C116.503 0 114.788 1.28481 114.241 3.15461L108.348 23.2819C107.525 26.0909 109.631 28.9023 112.558 28.9023C114.507 28.9023 116.221 27.6175 116.769 25.7477L122.662 5.62039C123.485 2.81141 121.378 0 118.451 0Z" fill="black" fill-opacity="0.25"/>
<path d="M46.6501 0C44.7025 0 42.9881 1.28439 42.4408 3.1536L36.5467 23.2837C35.7245 26.0918 37.8301 28.9023 40.7561 28.9023C42.7038 28.9023 44.4181 27.6179 44.9655 25.7487L50.8595 5.6186C51.6817 2.81052 49.5761 0 46.6501 0Z" fill="black" fill-opacity="0.25"/>
<path d="M130.418 0C128.469 0 126.754 1.28481 126.207 3.15461L120.314 23.2819C119.491 26.0909 121.597 28.9023 124.524 28.9023C126.473 28.9023 128.188 27.6175 128.735 25.7477L134.628 5.6204C135.451 2.81142 133.344 0 130.418 0Z" fill="black" fill-opacity="0.25"/>
<path d="M214.35 0C212.402 0 210.688 1.2844 210.14 3.1536L204.246 23.2837C203.424 26.0918 205.53 28.9023 208.456 28.9023C210.403 28.9023 212.118 27.6179 212.665 25.7487L218.559 5.6186C219.381 2.81052 217.276 0 214.35 0Z" fill="black" fill-opacity="0.25"/>
<path d="M202.382 0C200.433 0 198.718 1.28496 198.171 3.1549L192.279 23.2838C191.457 26.0919 193.563 28.9023 196.489 28.9023C198.437 28.9023 200.151 27.6178 200.699 25.7485L206.592 5.6202C207.415 2.81132 205.308 0 202.382 0Z" fill="black" fill-opacity="0.25"/>
<path d="M142.471 0C140.473 0 138.714 1.31766 138.152 3.23527L132.325 23.1382C131.481 26.019 133.642 28.9023 136.643 28.9023C138.641 28.9023 140.4 27.5847 140.962 25.6671L146.789 5.76409C147.633 2.8833 145.473 0 142.471 0Z" fill="black" fill-opacity="0.25"/>
<path d="M154.562 0C152.63 0 150.93 1.27413 150.387 3.1284L144.472 23.3286C143.656 26.1143 145.745 28.9023 148.648 28.9023C150.58 28.9023 152.281 27.6282 152.823 25.7739L158.738 5.5737C159.554 2.78806 157.465 0 154.562 0Z" fill="black" fill-opacity="0.25"/>
<path d="M166.482 0C164.534 0 162.82 1.2844 162.272 3.1536L156.378 23.2837C155.556 26.0918 157.662 28.9023 160.588 28.9023C162.535 28.9023 164.25 27.6179 164.797 25.7487L170.691 5.6186C171.513 2.81052 169.408 0 166.482 0Z" fill="black" fill-opacity="0.25"/>
<path d="M178.448 0C176.5 0 174.786 1.28439 174.239 3.1536L168.345 23.2837C167.522 26.0918 169.628 28.9023 172.554 28.9023C174.502 28.9023 176.216 27.6179 176.763 25.7487L182.657 5.6186C183.48 2.81052 181.374 0 178.448 0Z" fill="black" fill-opacity="0.25"/>
<path d="M190.415 0C188.467 0 186.752 1.2848 186.205 3.15461L180.311 23.2819C179.489 26.0909 181.595 28.9023 184.522 28.9023C186.47 28.9023 188.185 27.6175 188.733 25.7477L194.626 5.62039C195.449 2.81141 193.342 0 190.415 0Z" fill="black" fill-opacity="0.25"/>
<path d="M70.5838 0C68.6355 0 66.9206 1.28481 66.3731 3.15461L60.4798 23.2819C59.6574 26.0909 61.7637 28.9023 64.6906 28.9023C66.6389 28.9023 68.3538 27.6175 68.9013 25.7477L74.7945 5.62039C75.617 2.81141 73.5107 0 70.5838 0Z" fill="#FF2626"/>
<path d="M82.5501 0C80.6017 0 78.8867 1.28496 78.3394 3.15489L72.4477 23.2838C71.6258 26.0919 73.7315 28.9023 76.6575 28.9023C78.6053 28.9023 80.3198 27.6178 80.8671 25.7485L86.7607 5.6202C87.5831 2.81133 85.4769 0 82.5501 0Z" fill="#FF2626"/>
<path d="M58.6167 0C56.6689 0 54.9544 1.28447 54.407 3.1538L48.5135 23.2821C47.691 26.091 49.7972 28.9023 52.7241 28.9023C54.6724 28.9023 56.3874 27.6174 56.9347 25.7474L62.8264 5.61855C63.6484 2.81039 61.5426 0 58.6167 0Z" fill="#FF2626"/>
<path d="M94.5178 0C92.5701 0 90.8558 1.28439 90.3085 3.1536L84.4144 23.2837C83.5922 26.0918 85.6978 28.9023 88.6238 28.9023C90.5714 28.9023 92.2858 27.6179 92.8331 25.7487L98.7272 5.61859C99.5494 2.81051 97.4438 0 94.5178 0Z" fill="#FF2626"/>
<path d="M106.484 0C104.536 0 102.822 1.28439 102.275 3.1536L96.3807 23.2837C95.5585 26.0918 97.6641 28.9023 100.59 28.9023C102.538 28.9023 104.252 27.6179 104.799 25.7487L110.694 5.6186C111.516 2.81052 109.41 0 106.484 0Z" fill="#FF2626"/>
<path d="M34.6841 0C32.7364 0 31.022 1.28439 30.4747 3.1536L24.5806 23.2837C23.7584 26.0918 25.864 28.9023 28.79 28.9023C30.7377 28.9023 32.4521 27.6179 32.9994 25.7487L38.8935 5.6186C39.7157 2.81052 37.6101 0 34.6841 0Z" fill="#FF2626"/>
<path d="M10.7496 0C8.80128 0 7.08634 1.28481 6.53887 3.15461L0.64562 23.2819C-0.176844 26.0909 1.92943 28.9023 4.85634 28.9023C6.80464 28.9023 8.51958 27.6175 9.06706 25.7477L14.9603 5.6204C15.7828 2.81143 13.6765 0 10.7496 0Z" fill="#FF2626"/>
<path d="M22.7178 0C20.7701 0 19.0557 1.28439 18.5084 3.1536L12.6143 23.2837C11.7921 26.0918 13.8977 28.9023 16.8237 28.9023C18.7714 28.9023 20.4858 27.6179 21.0331 25.7487L26.9271 5.6186C27.7493 2.81053 25.6437 0 22.7178 0Z" fill="#FF2626"/>
<path d="M118.451 0C116.503 0 114.788 1.28481 114.241 3.15461L108.348 23.2819C107.525 26.0909 109.631 28.9023 112.558 28.9023C114.507 28.9023 116.221 27.6175 116.769 25.7477L122.662 5.62039C123.485 2.81141 121.378 0 118.451 0Z" fill="#FF2626"/>
<path d="M46.6501 0C44.7025 0 42.9881 1.28439 42.4408 3.1536L36.5467 23.2837C35.7245 26.0918 37.8301 28.9023 40.7561 28.9023C42.7038 28.9023 44.4181 27.6179 44.9655 25.7487L50.8595 5.6186C51.6817 2.81052 49.5761 0 46.6501 0Z" fill="#FF2626"/>
<path d="M130.418 0C128.469 0 126.754 1.28481 126.207 3.15461L120.314 23.2819C119.491 26.0909 121.597 28.9023 124.524 28.9023C126.473 28.9023 128.188 27.6175 128.735 25.7477L134.628 5.6204C135.451 2.81142 133.344 0 130.418 0Z" fill="#FF2626"/>
<path d="M214.35 0C212.402 0 210.688 1.2844 210.14 3.1536L204.246 23.2837C203.424 26.0918 205.53 28.9023 208.456 28.9023C210.403 28.9023 212.118 27.6179 212.665 25.7487L218.559 5.6186C219.381 2.81052 217.276 0 214.35 0Z" fill="#FF2626"/>
<path d="M202.382 0C200.433 0 198.718 1.28496 198.171 3.1549L192.279 23.2838C191.457 26.0919 193.563 28.9023 196.489 28.9023C198.437 28.9023 200.151 27.6178 200.699 25.7485L206.592 5.6202C207.415 2.81132 205.308 0 202.382 0Z" fill="#FF2626"/>
<path d="M142.471 0C140.473 0 138.714 1.31766 138.152 3.23527L132.325 23.1382C131.481 26.019 133.642 28.9023 136.643 28.9023C138.641 28.9023 140.4 27.5847 140.962 25.6671L146.789 5.76409C147.633 2.8833 145.473 0 142.471 0Z" fill="#FF2626"/>
<path d="M154.562 0C152.63 0 150.93 1.27413 150.387 3.1284L144.472 23.3286C143.656 26.1143 145.745 28.9023 148.648 28.9023C150.58 28.9023 152.281 27.6282 152.823 25.7739L158.738 5.5737C159.554 2.78806 157.465 0 154.562 0Z" fill="#FF2626"/>
<path d="M166.482 0C164.534 0 162.82 1.2844 162.272 3.1536L156.378 23.2837C155.556 26.0918 157.662 28.9023 160.588 28.9023C162.535 28.9023 164.25 27.6179 164.797 25.7487L170.691 5.6186C171.513 2.81052 169.408 0 166.482 0Z" fill="#FF2626"/>
<path d="M178.448 0C176.5 0 174.786 1.28439 174.239 3.1536L168.345 23.2837C167.522 26.0918 169.628 28.9023 172.554 28.9023C174.502 28.9023 176.216 27.6179 176.763 25.7487L182.657 5.6186C183.48 2.81052 181.374 0 178.448 0Z" fill="#FF2626"/>
<path d="M190.415 0C188.467 0 186.752 1.2848 186.205 3.15461L180.311 23.2819C179.489 26.0909 181.595 28.9023 184.522 28.9023C186.47 28.9023 188.185 27.6175 188.733 25.7477L194.626 5.62039C195.449 2.81141 193.342 0 190.415 0Z" fill="#FF2626"/>
</svg>
