<svg width="61" height="57" viewBox="0 0 61 57" fill="none" xmlns="http://www.w3.org/2000/svg">
<g filter="url(#filter0_d_221_1059)">
<path d="M39.7754 28.8579C39.7754 28.7869 39.771 28.7366 39.7754 28.6869C39.7841 28.5857 39.8008 28.4857 39.8102 28.3839C39.9017 27.339 39.8574 26.305 39.4152 25.3092C39.1407 24.691 38.6992 24.1861 37.9419 23.9285C36.95 23.5915 36.0024 23.8073 35.2014 24.5479C34.4484 25.2431 34.0062 26.0801 33.6301 26.9481C33.177 27.993 32.0391 28.5106 30.7466 28.259C30.1032 28.1336 29.4454 28.0366 28.9124 27.6105C28.542 29.5234 28.3881 31.3853 28.778 33.2472C29.5085 33.7733 30.3356 34.0436 31.2789 34.0418C31.6092 34.0418 31.8133 34.1315 31.8539 34.4055C31.7763 34.7043 31.517 34.7994 31.2222 34.7576C30.6195 34.6721 30.0255 34.5467 29.4272 34.4394C29.3059 34.4176 29.1832 34.4018 29.0641 34.3836C29.3887 35.1437 29.7678 35.8783 30.3465 36.5347C30.5484 36.7638 30.3276 37.1002 30.0067 37.068C29.8341 37.0376 29.6809 36.9554 29.5761 36.8371C28.5936 35.7322 28.1129 34.4624 27.8798 33.1187C27.7948 32.6272 27.7477 32.1314 27.6816 31.6374L27.5864 31.6126C27.2299 31.9465 26.8501 32.2659 26.5263 32.6211C26.3448 32.8211 26.1632 32.9393 25.8975 32.8151C25.6317 32.6908 25.607 32.4629 25.7791 32.2696C26.0289 31.9742 26.3078 31.6967 26.6127 31.4398C26.9409 31.1756 27.3229 30.9586 27.7055 30.7046V29.5264C27.0375 30.1416 26.1435 30.5541 25.1641 30.6992C24.838 30.7501 24.5882 30.6446 24.5403 30.4264C24.4902 30.1985 24.6587 30.0416 25.0029 29.99C25.5882 29.9056 26.1402 29.7036 26.6112 29.4015C27.333 28.9391 27.7266 28.2893 28.0163 27.6051C28.2145 27.1595 28.2586 26.6765 28.1434 26.211C28.033 25.7692 28.0795 25.2855 28.1514 24.8304C28.2676 24.0903 28.6771 23.4327 29.1839 22.7654C28.9516 22.5969 28.7483 22.3569 28.481 22.2744C27.7702 22.0569 27.0288 21.9072 26.262 21.7211C25.9352 21.2035 25.5932 20.6598 25.2454 20.1174C25.0058 19.7398 24.838 19.6846 24.374 19.8289C24.125 19.9058 23.8752 19.9816 23.6283 20.064C23.1577 20.2216 23.0626 20.4137 23.271 20.7913C23.4794 21.1689 23.6987 21.5562 23.9289 21.9666C21.9248 22.5381 19.8938 22.9787 18 23.7242C18.0508 24.2418 17.9339 24.714 18.1075 25.2395C18.3456 25.1734 18.5301 25.1437 18.6884 25.0746C19.734 24.6243 20.8138 24.2558 21.9734 24.0667C22.6057 23.9621 23.254 23.9437 23.8933 24.0121C23.2398 25.2631 22.77 26.5159 22.5565 27.8342C22.1368 30.4234 22.6393 32.8611 24.2636 35.1073C25.0036 36.1316 25.9701 37.0759 27.0556 37.9184C27.9672 38.6256 29.1719 39.0102 30.4163 38.9911C31.6606 38.972 32.8476 38.5507 33.7274 37.816L37.0371 35.0528C38.4364 33.4915 39.5786 31.8186 40.2103 29.9222C40.3621 29.47 40.3091 29.0961 39.7754 28.8579Z" fill="#181818"/>
<path d="M35.7891 20.0525L38.051 20.618C38.5593 20.3913 39.122 20.1561 39.6666 19.8985C40.0907 19.6973 40.4182 19.7391 40.6941 20.0749C40.8509 20.266 41.0017 20.4608 41.1465 20.6592C41.4507 21.075 41.3229 21.4653 40.8096 21.7047C40.6157 21.7956 40.4211 21.8865 40.1655 22.0041C40.2606 22.0785 40.3604 22.1485 40.4646 22.2138C42.0411 23.0557 42.4652 24.2824 42.1972 25.7583C42.0113 26.7789 41.2532 27.5463 40.6498 28.376C40.3078 28.356 40.4102 28.1687 40.4204 28.036C40.5031 26.945 40.3949 25.8777 39.936 24.8479C39.3551 23.5442 38.1258 22.8478 36.5058 22.9199C35.6511 22.9581 34.9765 23.326 34.4 23.8291C33.5613 24.5564 33.053 25.4467 32.6325 26.3747C32.2455 27.2311 31.5368 27.5214 30.4694 27.3638C29.0629 27.1559 28.5705 26.4128 28.67 25.1364C28.7354 24.2994 29.1674 23.5648 29.7425 22.8872C29.8151 22.7975 29.8957 22.709 29.9945 22.5944C29.8747 22.4732 29.7701 22.352 29.6503 22.2459C28.9852 21.6459 28.3142 21.0495 27.6491 20.4489C27.1829 20.0246 27.1974 19.6003 27.6847 19.1991C27.7616 19.1385 27.8408 19.0724 27.9214 19.0118C28.3745 18.6736 28.9198 18.6821 29.3402 19.0494C29.9756 19.6046 30.6015 20.1664 31.2282 20.7283C31.3182 20.8089 31.3908 20.9034 31.4802 21.001L33.3754 20.3234C33.3238 19.8579 33.2534 19.4179 33.236 18.9767C33.2265 18.7451 33.2432 18.4809 33.3725 18.2893C33.4669 18.1481 33.753 18.0554 33.9708 18.0239C34.2765 17.9796 34.5982 18.01 34.9148 18.0124C35.4812 18.0166 35.7803 18.2609 35.7912 18.7427C35.797 19.1773 35.7891 19.6106 35.7891 20.0525Z" fill="#181818"/>
<path d="M28.7998 34.2267L28.8108 34.2188L28.7998 34.2288V34.2267Z" fill="#181818"/>
</g>
<defs>
<filter id="filter0_d_221_1059" x="0" y="0" width="60.272" height="56.9917" filterUnits="userSpaceOnUse" color-interpolation-filters="sRGB">
<feFlood flood-opacity="0" result="BackgroundImageFix"/>
<feColorMatrix in="SourceAlpha" type="matrix" values="0 0 0 0 0 0 0 0 0 0 0 0 0 0 0 0 0 0 127 0" result="hardAlpha"/>
<feOffset/>
<feGaussianBlur stdDeviation="9"/>
<feComposite in2="hardAlpha" operator="out"/>
<feColorMatrix type="matrix" values="0 0 0 0 0 0 0 0 0 0 0 0 0 0 0 0 0 0 0.53 0"/>
<feBlend mode="normal" in2="BackgroundImageFix" result="effect1_dropShadow_221_1059"/>
<feBlend mode="normal" in="SourceGraphic" in2="effect1_dropShadow_221_1059" result="shape"/>
</filter>
</defs>
</svg>
