<svg width="12" height="8" viewBox="0 0 12 8" fill="none" xmlns="http://www.w3.org/2000/svg">
<path d="M4.37998 7.81722C2.87357 7.48621 1.53378 6.92895 0.614344 5.72564C-0.260552 4.58066 -0.192152 3.17228 0.763076 2.0808C1.58468 1.142 3.06008 0.371878 4.38197 0.202843L4.37998 7.81722Z" fill="black"/>
<path d="M6.14166 8.00037L4.78955 7.89634V0.104388L6.12814 -7.62939e-06V1.01309C6.55605 1.16652 6.74335 1.49605 6.88612 1.84713C7.24403 2.73019 7.32993 3.65227 7.22773 4.58066C7.16927 5.11191 7.03724 5.64205 6.87737 6.15622C6.7346 6.6154 6.51708 6.80858 6.14008 6.98653L6.14166 8.00037Z" fill="black"/>
<path d="M9.98453 3.64707C10.5071 3.64707 11.03 3.64707 11.5526 3.64707C11.831 3.64707 11.9952 3.78007 12 3.99258C12.0043 4.21251 11.8329 4.3507 11.543 4.35107C10.5054 4.35256 9.46781 4.35256 8.43039 4.35107C8.1385 4.35107 7.96869 4.21547 7.97147 3.9948C7.97425 3.77412 8.14367 3.64782 8.43994 3.6467C8.95454 3.64596 9.46953 3.64707 9.98453 3.64707Z" fill="black"/>
<path d="M9.96115 1.502C9.45411 1.502 8.94707 1.502 8.44003 1.502C8.14773 1.502 7.97474 1.36826 7.97196 1.15093C7.96917 0.933594 8.13859 0.796507 8.43128 0.796136C9.4687 0.79465 10.5061 0.79465 11.5435 0.796136C11.8358 0.796136 12.0048 0.933216 12.0001 1.15352C11.9953 1.37382 11.8231 1.50088 11.5288 1.502C11.0063 1.50348 10.4837 1.502 9.96115 1.502Z" fill="black"/>
<path d="M9.98655 7.20424C9.464 7.20424 8.94144 7.2061 8.41889 7.20424C8.14052 7.20424 7.97548 7.0731 7.9715 6.86023C7.96753 6.64736 8.14211 6.4995 8.42844 6.49913C9.46612 6.49739 10.5035 6.49739 11.5407 6.49913C11.8282 6.49913 12.0028 6.64067 12 6.85874C11.9972 7.07681 11.8286 7.20387 11.5311 7.20499C11.0161 7.20573 10.5015 7.20424 9.98655 7.20424Z" fill="black"/>
</svg>
