<svg width="92" height="108" viewBox="0 0 92 108" fill="none" xmlns="http://www.w3.org/2000/svg">
<path d="M17.1046 47.7797C18.8785 47.9376 20.4615 48.1449 22.0476 48.2074C23.8661 48.2931 25.6882 48.2569 27.5021 48.0988V15.682C27.5054 15.1271 27.3707 14.5804 27.1104 14.0927C26.8419 13.5923 26.4762 13.1523 26.0357 12.7996C25.5584 12.4141 25.0182 12.1168 24.4398 11.921C23.8149 11.7022 23.1585 11.591 22.4976 11.592H5.01749C4.3512 11.5899 3.68926 11.7011 3.05908 11.921C2.48197 12.1175 1.943 12.4148 1.46645 12.7996C1.02587 13.1523 0.660261 13.5923 0.391742 14.0927C0.131443 14.5804 -0.00329238 15.1271 6.11021e-05 15.682V106.99H12.9224V64.2151H14.6024V106.99H27.528V56.7723H22.3487C20.5294 55.0021 18.817 53.3634 18.3185 50.8693C17.1597 50.1849 15.8616 50.3725 14.6121 50.2508V56.0517H12.9321V50.0237C12.0581 49.8921 11.1906 49.7407 10.3424 49.5236C9.63677 49.3426 9.01202 48.8326 8.33871 48.4608C9.0541 47.3815 9.20624 47.3289 11.2844 47.3848C11.3621 47.1282 11.4333 46.8715 11.511 46.6182C11.9808 46.5276 12.4573 46.478 12.9353 46.4701V19.7818H14.6153V46.6379C15.5127 46.8429 16.3597 47.2314 17.1046 47.7797Z" fill="white"/>
<path d="M35.9928 73.1025L34.9796 70.6314L34.2254 70.3024C34.4229 66.65 34.6171 63.024 34.8178 59.3487C32.9209 58.559 31.0369 57.7726 29.1788 57.0059V107.02H35.6724C35.6724 104.717 35.6076 102.489 35.6724 100.265C35.7954 96.5136 35.9961 92.7659 36.1773 89.0148C36.2712 87.0044 36.4233 84.9874 36.4136 82.9736C36.4136 79.6471 36.2874 76.3468 35.9928 73.1025ZM29.1788 11.6052V47.8949C29.7486 47.8137 30.3183 47.7117 30.888 47.5888C34.1542 46.8946 37.5175 46.6807 41.1074 46.2233C41.2207 45.1441 40.9908 43.8279 41.1721 42.5216C41.2911 41.4756 41.4891 40.4405 41.7645 39.4254C41.8507 39.1235 41.9645 38.8305 42.1044 38.5502V11.6052H29.1788Z" fill="white"/>
<path d="M53.9229 59.9607C54.2876 67.0438 54.6523 74.1159 55.017 81.1771L53.2755 81.7792L52.505 80.746C51.712 80.6309 50.9189 80.5223 49.9381 80.3841L48.9669 79.8149C48.9087 79.8873 48.8504 79.9662 48.7954 80.0419L49.896 81.2659L52.3367 80.9369C52.5957 81.4205 52.8579 81.924 53.1395 82.4373L54.5088 82.2333V90.7027C54.457 90.7685 54.143 91.1305 53.6898 91.6602C53.8873 96.5958 54.0944 101.749 54.3081 106.987H60.1348V58.174C58.0095 58.552 55.9279 59.1507 53.9229 59.9607ZM44.2311 11.592V19.7686H47.1866V37.7473C47.834 38.7344 48.08 40.1328 47.9635 41.449C47.8113 43.1633 47.9408 44.8775 47.7595 46.5951C50.0255 47.1512 54.6156 47.2894 56.7229 47.8455C57.7296 48.112 58.8788 47.9409 59.8888 48.1515L60.1315 48.2008V19.7686H61.7889V11.592H44.2311Z" fill="white"/>
<path d="M90.5825 14.096C90.314 13.5956 89.9484 13.1556 89.5078 12.8029C89.0313 12.4181 88.4923 12.1208 87.9152 11.9244C87.2902 11.7061 86.6338 11.5949 85.973 11.5953H68.4929C67.832 11.5943 67.1755 11.7055 66.5506 11.9244C65.9722 12.1201 65.4321 12.4174 64.9548 12.8029C64.5143 13.1548 64.1496 13.595 63.8833 14.096C63.6199 14.5826 63.4839 15.1299 63.4884 15.6853V48.7602C63.8736 48.803 64.2556 48.8359 64.6408 48.8556C66.7837 48.9642 68.9396 48.8918 71.089 48.8556C72.5672 48.8905 74.0384 48.6382 75.4234 48.112C75.7444 47.9814 76.0757 47.879 76.4139 47.806V19.7719H78.094V47.5526C78.4695 47.5099 78.8385 47.4671 79.1946 47.4046C79.4762 47.7336 79.638 47.9541 79.7319 48.0627C80.58 48.1647 81.3343 48.2337 82.0788 48.3654C82.2536 48.3983 82.4025 48.6483 82.6906 48.9445C82.3473 49.2806 81.9794 49.5897 81.59 49.8691C80.5137 50.4933 79.3247 50.8906 78.094 51.0371V56.0386H76.4139V51.2181H76.3783C75.336 51.2741 74.2937 51.2181 73.1704 51.2181C72.6363 53.4293 71.8756 55.4956 70.0402 56.9171C68.1853 57.0553 65.8741 57.2725 63.4884 57.6114V106.99H76.4139V64.2151H78.094V106.99H91.0163V15.682C91.0062 15.1245 90.857 14.5788 90.5825 14.096Z" fill="white"/>
<path d="M23.3133 55.3081C23.3541 55.3441 23.3862 55.3891 23.4072 55.4397C23.4418 55.5336 23.4457 55.6363 23.4185 55.7327C23.3912 55.829 23.3341 55.914 23.2557 55.9748C23.1773 56.0357 23.0818 56.0693 22.9831 56.0707C22.8845 56.0721 22.788 56.0412 22.708 55.9826C21.9849 55.4352 21.3578 54.7678 20.8531 54.0084C20.1831 53.0706 19.5939 52.0802 18.9692 51.1128L18.9886 51.0536C19.0154 50.9708 19.0643 50.8973 19.13 50.8414C19.1957 50.7854 19.2754 50.7493 19.3603 50.7369C19.4451 50.7246 19.5317 50.7367 19.6101 50.7717C19.6886 50.8067 19.7559 50.8633 19.8043 50.9352C20.8628 52.4816 21.834 54.0939 23.3133 55.3081Z" fill="white"/>
<path d="M27.0262 50.7114L25.7994 49.8724C26.0648 49.8628 26.3264 49.9388 26.5467 50.0895C26.7671 50.2402 26.9349 50.4579 27.0262 50.7114Z" fill="white"/>
<path d="M27.1654 50.8496L31.0499 53.3075C31.7717 53.7287 32.7169 53.8406 33.0957 54.7487L30.8751 53.4984C29.4961 52.8173 28.1042 52.1559 27.1654 50.8496Z" fill="white"/>
<path d="M35.0606 56.8118C35.1142 57.0757 35.152 57.3428 35.1739 57.6114C35.1708 57.821 35.1513 58.03 35.1156 58.2365C34.9699 58.2727 34.8502 58.3517 34.7919 58.3155C31.6325 56.6045 28.4699 54.9034 25.3235 53.1595C24.8928 52.8537 24.4946 52.503 24.1355 52.1131C23.705 51.7841 23.2777 51.4748 22.8407 51.1589C23.5528 51.0174 23.8118 51.6163 24.21 52.0243C24.3168 52.0473 24.4463 52.0243 24.5337 52.0802C27.6704 54.4328 31.2247 55.874 35.0606 56.8118Z" fill="white"/>
<path d="M36.8798 63.3925H37.0708L37.019 64.4718H36.9283C36.9154 64.1197 36.8992 63.7611 36.8798 63.3925Z" fill="white"/>
<path d="M42.7388 43.8411C43.5416 44.7854 44.5322 45.2362 45.9047 44.8282C45.4321 45.5685 45.0533 46.1444 44.584 46.8748C43.7618 45.9535 42.6741 45.2954 42.7388 43.8411Z" fill="white"/>
<path d="M37.7603 55.0317C37.6146 57.5258 37.4754 59.8883 37.3362 62.2705H37.1226V54.7783C35.1803 53.574 33.0957 52.6922 31.6908 50.8661C32.0307 51.0372 32.3803 51.1951 32.7008 51.3991C34.8696 52.7877 36.9089 54.4624 39.5439 54.8803C40.6636 55.0237 41.7916 55.0896 42.9201 55.0777C44.3477 55.1041 45.7687 55.0777 47.1995 55.4068L39.6863 55.8806V66.5678H39.5212C39.3561 63.0175 39.1975 59.4638 39.026 55.8214L37.7603 55.0317Z" fill="white"/>
<path d="M45.9953 70.2366C46.114 70.4129 46.2118 70.6029 46.2866 70.8025L46.4679 71.1315L46.1895 70.9078C43.574 68.9105 41.8584 66.3506 41.3696 63.0109C41.5992 63.2572 41.7981 63.5312 41.9619 63.8269C42.9856 66.1553 44.345 68.3156 45.9953 70.2366Z" fill="white"/>
<path d="M47.439 72.6254C47.4376 72.6189 47.4376 72.6121 47.439 72.6056L47.5135 72.6352L47.439 72.6254Z" fill="white"/>
<path d="M48.7501 51.1688C49.5917 60.4805 50.2164 69.8022 49.8604 79.1568C49.4892 69.8253 49.1191 60.4959 48.7501 51.1688Z" fill="white"/>
<path d="M50.5401 85.0564L50.4754 84.8327L51.0387 84.6846L52.6993 83.7436L51.1584 84.8162L50.5401 85.0564Z" fill="white"/>
<path d="M52.5795 59.4934H52.5148V61.2209H52.5795V59.4934Z" fill="white"/>
<path d="M53.4373 83.5001L53.4114 83.4046L53.4406 83.5001H53.4373Z" fill="white"/>
<path d="M52.887 63.0306C53.0683 68.8875 53.6995 74.7213 53.5927 80.5881C52.9939 79.3739 52.4727 65.4885 52.887 63.0306Z" fill="white"/>
<path d="M41.3631 82.8058C44.1049 84.1911 46.8208 85.5862 49.7244 86.6457C52.4921 87.6624 53.7222 89.3405 53.9747 91.4332C53.9747 91.522 53.884 91.6274 53.7675 91.8708C53.6021 91.5977 53.4705 91.3048 53.3758 90.9988C53.2966 90.3738 53.0559 89.7813 52.6784 89.2814C52.3009 88.7815 51.7999 88.3921 51.2264 88.1527C50.1161 87.6526 49.0511 87.0833 47.8987 86.6391C44.6385 85.3746 41.5485 83.6964 38.7023 81.6443C38.4951 81.5193 38.2911 81.4041 38.084 81.2824L37.6437 81.1771C37.6437 81.131 37.6632 81.0817 37.6729 81.029L38.1746 81.1672C38.3753 81.2923 38.5792 81.4271 38.7799 81.5555C39.641 81.9602 40.5085 82.3649 41.3631 82.8058Z" fill="white"/>
<path d="M53.6056 54.3539C53.5409 54.242 53.4697 54.1301 53.4017 54.0248C54.6965 53.1989 58.6069 51.3925 59.9081 50.5666C58.9565 51.9354 55.0979 53.8274 53.6056 54.3539Z" fill="white"/>
<path d="M61.1933 53.811C59.8402 55.2028 55.5997 57.0783 53.5247 57.9601C54.1721 56.667 57.8365 55.6141 58.5842 55.1074C59.332 54.6006 60.2028 54.1203 61.0444 53.6497C61.4296 53.4161 61.8083 53.1759 62.1935 52.9456L61.1933 53.811Z" fill="white"/>
<path d="M66.2496 52.9851C66.4538 52.8843 66.6722 52.8166 66.897 52.7843C66.2819 53.3108 65.6863 53.8603 65.0486 54.3539C64.5469 54.7454 63.9933 55.0613 63.3848 55.4594L64.0095 55.7095C62.951 56.1011 61.9054 56.5518 60.8275 56.8644C59.4582 57.2593 55.4669 58.5293 54.0815 58.8584C54.0523 58.7531 54.02 58.6511 53.9908 58.5293C54.2045 58.4405 54.4181 58.3418 54.6383 58.2661C57.8009 57.1968 63.3848 54.7323 66.2496 52.9851Z" fill="white"/>
<path d="M71.9662 51.1721C72.1087 53.2516 71.267 54.8474 69.0885 56.463C69.5449 54.1071 71.471 53.0476 71.9662 51.1721Z" fill="white"/>
<path d="M26.4792 1.50374L26.463 4.58024H25.3494V1.37212C25.3501 1.32268 25.341 1.27359 25.3227 1.2278C25.3043 1.18202 25.2771 1.14045 25.2426 1.10558C25.2083 1.07053 25.1674 1.04286 25.1224 1.0242C25.0773 1.00555 25.029 0.996305 24.9804 0.99701C24.9322 0.996179 24.8844 1.00537 24.8399 1.02404C24.7953 1.04272 24.755 1.07047 24.7214 1.10558C24.6865 1.14028 24.6588 1.18175 24.6399 1.22752C24.621 1.2733 24.6113 1.32248 24.6114 1.37212V7.89364C24.6112 7.94282 24.6208 7.99154 24.6397 8.03679C24.6587 8.08205 24.6865 8.12291 24.7214 8.15689C24.7907 8.22537 24.8838 8.26321 24.9804 8.26216C25.078 8.26336 25.1722 8.22557 25.2426 8.15689C25.2771 8.12275 25.3044 8.08178 25.3228 8.03651C25.3412 7.99124 25.3502 7.94261 25.3494 7.89364V5.15277H26.4792V7.76531C26.4806 8.03075 26.41 8.29148 26.2752 8.51882C26.1454 8.75001 25.9564 8.94108 25.7282 9.07163C25.5022 9.20871 25.2436 9.28039 24.9804 9.27892C24.7183 9.27996 24.4609 9.20829 24.2359 9.07163C24.0109 8.93899 23.8244 8.74827 23.6953 8.51882C23.5605 8.29148 23.4899 8.03075 23.4914 7.76531V1.51358C23.4903 1.24716 23.5608 0.985524 23.6953 0.756818C23.8263 0.528843 24.0124 0.338573 24.2359 0.204016C24.4618 0.0698674 24.7188 -0.000556573 24.9804 1.40492e-05C25.2431 -0.00114392 25.5013 0.0693004 25.7282 0.204016C25.9549 0.336482 26.1436 0.527101 26.2752 0.756818C26.408 0.982648 26.4784 1.24067 26.4792 1.50374Z" fill="white"/>
<path d="M32.2023 0.138214H33.3093V9.12098H32.2023V0.138214Z" fill="white"/>
<path d="M41.8972 1.59259V7.6798C41.8972 7.83774 41.8972 7.94303 41.8972 8.00884C41.8911 8.20175 41.8606 8.39305 41.8066 8.57807C41.7463 8.75651 41.6276 8.90848 41.4702 9.00852C41.3129 9.10857 41.1265 9.15058 40.9423 9.12754H39.0453V0.144812H40.9876C41.1701 0.122511 41.3546 0.165932 41.509 0.267519C41.6633 0.369105 41.7778 0.522418 41.8325 0.700868C41.889 0.885116 41.9174 1.07709 41.9166 1.2701C41.8972 1.32274 41.8972 1.43136 41.8972 1.59259ZM40.7707 7.51528V1.77683C40.781 1.6957 40.7677 1.61327 40.7327 1.53965C40.6976 1.46603 40.6422 1.40439 40.5732 1.36224C40.5202 1.33352 40.4617 1.31668 40.4017 1.31287H40.1395V7.9792H40.3758C40.4446 7.97981 40.5125 7.96283 40.5732 7.92983C40.643 7.88605 40.6988 7.82269 40.7338 7.74736C40.7689 7.67203 40.7817 7.58798 40.7707 7.5054V7.51528Z" fill="white"/>
<path d="M50.9448 9.12098H49.841L49.7147 7.96934H48.8634L48.7404 9.12098H47.6333L48.7404 0.138214H49.841L50.9448 9.12098ZM49.2874 2.81659L49.0026 6.85061H49.5755L49.2874 2.81659Z" fill="white"/>
<path d="M59.5262 1.59259V7.6798C59.5262 7.83774 59.5262 7.94303 59.5262 8.00884C59.5201 8.20175 59.4896 8.39305 59.4356 8.57807C59.3754 8.75651 59.2566 8.90848 59.0993 9.00852C58.9419 9.10857 58.7555 9.15058 58.5713 9.12754H56.6744V0.144812H58.6166C58.7992 0.122511 58.9837 0.165932 59.138 0.267519C59.2923 0.369105 59.4068 0.522418 59.4615 0.700868C59.518 0.885116 59.5464 1.07709 59.5456 1.2701C59.523 1.32274 59.5262 1.43136 59.5262 1.59259ZM58.3997 7.51528V1.77683C58.41 1.6957 58.3968 1.61327 58.3617 1.53965C58.3266 1.46603 58.2712 1.40439 58.2023 1.36224C58.149 1.33398 58.0906 1.31717 58.0307 1.31287H57.7685V7.9792H58.0048C58.0736 7.97981 58.1416 7.96283 58.2023 7.92983C58.2702 7.88476 58.3241 7.82083 58.3573 7.74559C58.3906 7.67035 58.402 7.58699 58.39 7.5054L58.3997 7.51528Z" fill="white"/>
<path d="M67.4538 0.138214V1.26354H66.3532V4.33675H67.4538V5.46203H66.3532V7.99565H67.4538V9.12098H65.2461V0.138214H67.4538Z" fill="white"/>
</svg>
