<svg width="192" height="156" viewBox="0 0 192 156" fill="none" xmlns="http://www.w3.org/2000/svg">
<path d="M82.2207 10.4015L80.6211 1.31826C80.5103 0.688839 79.9101 0.268132 79.2806 0.378586C78.6511 0.489041 78.2307 1.08883 78.3415 1.71826L79.9411 10.8014C80.052 11.4309 80.6522 11.8516 81.2816 11.7411C81.9111 11.6307 82.3316 11.0309 82.2207 10.4015Z" fill="white"/>
<path d="M54.3936 19.9554C54.7119 20.5062 54.5228 21.2108 53.9714 21.5283V21.5283C53.4217 21.8448 52.7194 21.6566 52.4016 21.1076L47.7734 13.1149C47.4536 12.5625 47.6426 11.8554 48.1954 11.5363V11.5363C48.7476 11.2175 49.4536 11.4065 49.7725 11.9585L54.3936 19.9554Z" fill="white"/>
<path d="M31.6054 38.4921L24.5335 32.5499C24.0454 32.1399 23.3167 32.2025 22.9057 32.6898C22.4948 33.1771 22.5573 33.9045 23.0453 34.3146L30.1173 40.2568C30.6053 40.6668 31.3341 40.6042 31.745 40.1169C32.156 39.6296 32.0935 38.9022 31.6054 38.4921Z" fill="white"/>
<path d="M15.9643 63.8195C16.5614 64.0366 16.8699 64.6962 16.6536 65.2936V65.2936C16.4369 65.8919 15.7759 66.201 15.1778 65.9837L6.4844 62.8247C5.88633 62.6074 5.57779 61.9463 5.79535 61.3483V61.3483C6.01281 60.7506 6.67355 60.4423 7.27131 60.6596L15.9643 63.8195Z" fill="white"/>
<path d="M10.4136 93.5271C11.0494 93.5273 11.5648 94.0429 11.5648 94.6788V94.6788C11.5648 95.3148 11.0492 95.8304 10.4132 95.8304H1.16195C0.525826 95.8304 0.00985744 95.3153 0.00882791 94.6791V94.6791C0.00779578 94.0414 0.524594 93.5239 1.16232 93.5241L10.4136 93.5271Z" fill="white"/>
<path d="M160.743 149.505C160.254 149.095 160.191 148.367 160.602 147.879V147.879C161.012 147.393 161.738 147.33 162.225 147.739L169.303 153.671C169.793 154.082 169.857 154.813 169.445 155.302V155.302C169.034 155.79 168.306 155.853 167.817 155.443L160.743 149.505Z" fill="white"/>
<path d="M174.943 123.564C174.344 123.346 174.035 122.683 174.254 122.083V122.083C174.472 121.485 175.134 121.177 175.733 121.394L184.419 124.556C185.017 124.774 185.327 125.434 185.11 126.033V126.033C184.894 126.634 184.23 126.945 183.629 126.726L174.943 123.564Z" fill="white"/>
<path d="M181.449 95.0937C180.814 95.0931 180.299 94.5787 180.298 93.9438V93.9438C180.297 93.3068 180.813 92.7899 181.45 92.7901L190.699 92.7931C191.336 92.7933 191.852 93.308 191.854 93.9441V93.9441C191.856 94.5838 191.338 95.1033 190.698 95.1026L181.449 95.0937Z" fill="white"/>
<path d="M176.201 65.8319C175.603 66.0489 174.941 65.7404 174.723 65.1424V65.1424C174.504 64.5427 174.814 63.8792 175.414 63.6615L184.105 60.5095C184.703 60.2926 185.364 60.6003 185.583 61.1976V61.1976C185.803 61.798 185.493 62.4629 184.892 62.6809L176.201 65.8319Z" fill="white"/>
<path d="M161.888 40.4024C161.401 40.8096 160.676 40.7463 160.267 40.2609V40.2609C159.855 39.7728 159.919 39.0433 160.408 38.6335L167.49 32.7031C167.978 32.2945 168.705 32.3566 169.116 32.8421V32.8421C169.531 33.332 169.468 34.0662 168.975 34.4781L161.888 40.4024Z" fill="white"/>
<path d="M139.489 20.8613C139.169 21.4123 138.464 21.6004 137.912 21.2815V21.2815C137.36 20.9623 137.172 20.2562 137.491 19.7044L142.111 11.7188C142.43 11.1668 143.136 10.9767 143.689 11.2934V11.2934C144.247 11.6125 144.438 12.3244 144.116 12.8801L139.489 20.8613Z" fill="white"/>
<path d="M111.916 10.8144C111.805 11.4419 111.206 11.8604 110.578 11.7493V11.7493C109.95 11.6381 109.531 11.0387 109.642 10.4107L111.251 1.33078C111.363 0.702397 111.962 0.282717 112.59 0.392606V0.392606C113.221 0.502904 113.643 1.10472 113.531 1.73539L111.916 10.8144Z" fill="white"/>
<path d="M67.1447 12.8471L64.7188 6.20851C64.5511 5.74965 64.0431 5.51317 63.584 5.68031C63.125 5.84745 62.8888 6.35492 63.0564 6.81377L65.4824 13.4523C65.65 13.9112 66.1581 14.1477 66.6172 13.9805C67.0762 13.8134 67.3124 13.3059 67.1447 12.8471Z" fill="white"/>
<path d="M41.0802 27.5116L36.5309 22.0998C36.2167 21.7261 35.6585 21.6772 35.2842 21.9908C34.9099 22.3043 34.8611 22.8614 35.1753 23.2352L39.7247 28.647C40.0388 29.0207 40.597 29.0695 40.9713 28.756C41.3456 28.4425 41.3944 27.8854 41.0802 27.5116Z" fill="white"/>
<path d="M21.6161 50.1769C22.0397 50.4208 22.1851 50.9621 21.9406 51.3854V51.3854C21.6965 51.8079 21.1563 51.9528 20.7335 51.7091L14.6026 48.1751C14.1805 47.9317 14.0356 47.3923 14.279 46.9702V46.9702C14.5222 46.5484 15.0612 46.4035 15.4832 46.6464L21.6161 50.1769Z" fill="white"/>
<path d="M10.4392 77.9066C10.9206 77.991 11.2424 78.4498 11.1579 78.9312V78.9312C11.0734 79.4128 10.6143 79.7346 10.1328 79.6497L3.16034 78.4212C2.68059 78.3366 2.36022 77.8792 2.44479 77.3994V77.3994C2.52931 76.92 2.98624 76.5998 3.46572 76.6838L10.4392 77.9066Z" fill="white"/>
<path d="M176.953 139.718L170.822 136.183C170.4 135.94 169.859 136.085 169.614 136.507C169.37 136.929 169.515 137.469 169.937 137.713L176.068 141.247C176.491 141.491 177.032 141.346 177.276 140.924C177.52 140.502 177.376 139.962 176.953 139.718Z" fill="white"/>
<path d="M180.455 109.738C179.974 109.653 179.653 109.194 179.738 108.712V108.712C179.824 108.233 180.282 107.913 180.761 107.997L187.735 109.226C188.216 109.311 188.536 109.769 188.451 110.25V110.25C188.365 110.728 187.909 111.048 187.43 110.964L180.455 109.738Z" fill="white"/>
<path d="M180.764 79.8773C180.282 79.962 179.824 79.6412 179.738 79.1602V79.1602C179.653 78.6781 179.974 78.218 180.457 78.1333L187.43 76.9081C187.91 76.8237 188.368 77.1448 188.453 77.6254V77.6254C188.538 78.1059 188.217 78.5641 187.736 78.6487L180.764 79.8773Z" fill="white"/>
<path d="M170.815 51.7105C170.394 51.9535 169.855 51.8092 169.611 51.3881V51.3881C169.366 50.9655 169.511 50.4245 169.934 50.1808L176.072 46.6465C176.494 46.4035 177.033 46.5484 177.276 46.9702V46.9702C177.519 47.3922 177.374 47.9317 176.952 48.1749L170.815 51.7105Z" fill="white"/>
<path d="M151.824 28.6388C151.51 29.0124 150.953 29.0611 150.579 28.7475V28.7475C150.204 28.4334 150.156 27.8751 150.47 27.501L155.022 22.0876C155.336 21.7142 155.893 21.6661 156.266 21.98V21.98C156.639 22.2938 156.687 22.8506 156.374 23.2239L151.824 28.6388Z" fill="white"/>
<path d="M126.845 6.20618L124.413 12.8465C124.245 13.3043 124.481 13.8109 124.939 13.978C125.397 14.1451 125.904 13.9095 126.071 13.4517L128.503 6.81132C128.671 6.35355 128.436 5.84699 127.978 5.67988C127.52 5.51278 127.012 5.74841 126.845 6.20618Z" fill="white"/>
<path d="M96.6625 7.95245C96.6623 8.44178 96.265 8.83805 95.7757 8.83702V8.83702C95.2877 8.83599 94.8926 8.44009 94.8926 7.95208V0.888302C94.8926 0.398008 95.2906 0.000836382 95.7809 0.00186669V0.00186669C96.2699 0.00289425 96.6657 0.399692 96.6655 0.888678L96.6625 7.95245Z" fill="white"/>
<path d="M59.1257 93.5359C59.618 93.5662 59.9923 93.9903 59.9614 94.4825V94.4825C59.9305 94.974 59.5073 95.3475 59.0158 95.3172L52.4665 94.9128C51.9749 94.8824 51.601 94.4596 51.6308 93.9681V93.9681C51.6607 93.4759 52.0842 93.1013 52.5764 93.1317L59.1257 93.5359Z" fill="#0050CD"/>
<path d="M123.851 120.866C123.47 120.553 123.416 119.989 123.731 119.608V119.608C124.045 119.229 124.606 119.176 124.986 119.489L130.045 123.659C130.424 123.972 130.478 124.533 130.166 124.912V124.912C129.853 125.292 129.292 125.347 128.912 125.034L123.851 120.866Z" fill="#0050CD"/>
<path d="M128.271 114.543C127.834 114.315 127.664 113.776 127.892 113.339V113.339C128.12 112.901 128.659 112.732 129.096 112.959L134.915 115.992C135.35 116.219 135.52 116.757 135.293 117.193V117.193C135.066 117.629 134.528 117.799 134.092 117.572L128.271 114.543Z" fill="#0050CD"/>
<path d="M131.28 107.442C130.806 107.31 130.528 106.818 130.66 106.344V106.344C130.792 105.87 131.283 105.592 131.758 105.724L138.081 107.483C138.554 107.615 138.83 108.104 138.7 108.577V108.577C138.569 109.051 138.078 109.329 137.604 109.197L131.28 107.442Z" fill="#0050CD"/>
<path d="M132.746 99.8726C132.254 99.8422 131.88 99.4183 131.911 98.9262V98.9262C131.942 98.4347 132.365 98.0612 132.856 98.0917L139.404 98.4991C139.894 98.5296 140.267 98.9516 140.237 99.4421V99.4421C140.208 99.9334 139.785 100.307 139.294 100.277L132.746 99.8726Z" fill="#0050CD"/>
<path d="M132.598 92.1665C132.111 92.2391 131.657 91.9032 131.584 91.416V91.416C131.511 90.9278 131.848 90.4729 132.336 90.4006L138.828 89.4393C139.313 89.3675 139.765 89.7019 139.838 90.1869V90.1869C139.911 90.6734 139.576 91.127 139.089 91.1995L132.598 92.1665Z" fill="#0050CD"/>
<path d="M130.851 84.6564C130.389 84.8285 129.875 84.5936 129.702 84.1316V84.1316C129.53 83.6696 129.765 83.1554 130.227 82.9834L136.375 80.6949C136.835 80.5234 137.348 80.7569 137.521 81.217V81.217C137.694 81.6789 137.46 82.194 136.997 82.3662L130.851 84.6564Z" fill="#0050CD"/>
<path d="M127.578 77.6712C127.163 77.9351 126.612 77.8126 126.347 77.3975V77.3975C126.082 76.9813 126.205 76.4288 126.622 76.1643L132.157 72.6516C132.572 72.3884 133.121 72.5104 133.386 72.9242V72.9242C133.651 73.3398 133.529 73.8919 133.113 74.1563L127.578 77.6712Z" fill="#0050CD"/>
<path d="M122.924 71.5213C122.572 71.8662 122.007 71.8607 121.662 71.509V71.509C121.316 71.1569 121.322 70.5913 121.674 70.246L126.355 65.6585C126.706 65.3143 127.27 65.3189 127.615 65.6689V65.6689C127.962 66.0207 127.958 66.5877 127.605 66.9337L122.924 71.5213Z" fill="#0050CD"/>
<path d="M119.223 60.0348L115.605 65.4902C115.333 65.9016 115.445 66.4555 115.857 66.7276C116.269 66.9996 116.824 66.8867 117.096 66.4754L120.714 61.02C120.987 60.6087 120.874 60.0547 120.462 59.7826C120.05 59.5106 119.495 59.6235 119.223 60.0348Z" fill="#0050CD"/>
<path d="M110.329 62.7368C110.148 63.1958 109.629 63.4212 109.169 63.2403V63.2403C108.709 63.0591 108.484 62.5387 108.666 62.0789L111.078 55.9927C111.258 55.537 111.773 55.3129 112.23 55.4915V55.4915C112.689 55.6711 112.915 56.1894 112.734 56.6478L110.329 62.7368Z" fill="#0050CD"/>
<path d="M102.94 60.4918C102.858 60.9786 102.398 61.3071 101.911 61.2259V61.2259C101.423 61.1445 101.093 60.6823 101.176 60.1943L102.267 53.7414C102.349 53.2572 102.807 52.9304 103.291 53.0105V53.0105C103.778 53.0909 104.107 53.5513 104.025 54.0378L102.94 60.4918Z" fill="#0050CD"/>
<path d="M95.2423 59.8295C95.2636 60.3236 94.8799 60.7413 94.3857 60.7619V60.7619C93.8924 60.7824 93.4757 60.3994 93.4546 59.9061L93.176 53.3695C93.155 52.8771 93.5369 52.4607 94.0293 52.4391V52.4391C94.5225 52.4174 94.9397 52.7999 94.9609 53.2931L95.2423 59.8295Z" fill="#0050CD"/>
<path d="M87.5787 60.7767C87.7027 61.2561 87.4143 61.7451 86.9348 61.8686V61.8686C86.4557 61.9921 85.9673 61.7037 85.8438 61.2247L84.2107 54.8886C84.0877 54.4113 84.3746 53.9245 84.8518 53.8011V53.8011C85.3293 53.6775 85.8166 53.9645 85.9401 54.442L87.5787 60.7767Z" fill="#0050CD"/>
<path d="M80.2759 63.2939C80.4971 63.7371 80.3166 64.2757 79.873 64.496V64.496C79.4302 64.716 78.893 64.5356 78.6727 64.0929L75.7572 58.2345C75.5381 57.7942 75.7167 57.2597 76.1565 57.0397V57.0397C76.5973 56.8192 77.1333 56.998 77.3534 57.4389L80.2759 63.2939Z" fill="#0050CD"/>
<path d="M73.6597 67.2777C73.968 67.665 73.903 68.2291 73.5148 68.5363V68.5363C73.1279 68.8424 72.5663 68.7775 72.2594 68.3913L68.1843 63.2636C67.8778 62.8779 67.9419 62.3167 68.3274 62.0101V62.0101C68.713 61.7034 69.2742 61.7673 69.581 62.1528L73.6597 67.2777Z" fill="#0050CD"/>
<path d="M68.0175 72.5417C68.3989 72.8559 68.453 73.4199 68.1384 73.8009V73.8009C67.8242 74.1813 67.2612 74.2353 66.8805 73.9214L61.826 69.7546C61.4456 69.441 61.3913 68.8786 61.7045 68.498V68.498C62.0181 68.1171 62.5811 68.0626 62.9618 68.3763L68.0175 72.5417Z" fill="#0050CD"/>
<path d="M63.598 78.865C64.0366 79.0929 64.2066 79.6337 63.9775 80.0716V80.0716C63.749 80.5082 63.2102 80.6773 62.7732 80.4495L56.9533 77.4159C56.5178 77.1889 56.3488 76.652 56.5757 76.2165V76.2165C56.8025 75.7813 57.3389 75.612 57.7744 75.8384L63.598 78.865Z" fill="#0050CD"/>
<path d="M60.588 85.9658C61.0644 86.0979 61.3429 86.5917 61.2098 87.0677V87.0677C61.077 87.5424 60.5849 87.82 60.1099 87.6881L53.7905 85.9331C53.3161 85.8014 53.0378 85.3104 53.1686 84.8357V84.8357C53.2997 84.3596 53.7923 84.0803 54.2682 84.2123L60.588 85.9658Z" fill="#0050CD"/>
<path d="M17.2097 97.07C16.8223 97.07 16.4723 96.972 16.1597 96.776C15.8517 96.58 15.609 96.2953 15.4317 95.922C15.2543 95.544 15.1657 95.0867 15.1657 94.55C15.1657 94.0133 15.2543 93.5583 15.4317 93.185C15.609 92.807 15.8517 92.52 16.1597 92.324C16.4723 92.128 16.8223 92.03 17.2097 92.03C17.6017 92.03 17.9517 92.128 18.2597 92.324C18.5677 92.52 18.8103 92.807 18.9877 93.185C19.1697 93.5583 19.2607 94.0133 19.2607 94.55C19.2607 95.0867 19.1697 95.544 18.9877 95.922C18.8103 96.2953 18.5677 96.58 18.2597 96.776C17.9517 96.972 17.6017 97.07 17.2097 97.07ZM17.2097 96.279C17.4383 96.279 17.6367 96.2183 17.8047 96.097C17.9727 95.971 18.1033 95.7797 18.1967 95.523C18.2947 95.2663 18.3437 94.942 18.3437 94.55C18.3437 94.1533 18.2947 93.829 18.1967 93.577C18.1033 93.3203 17.9727 93.1313 17.8047 93.01C17.6367 92.884 17.4383 92.821 17.2097 92.821C16.9903 92.821 16.7943 92.884 16.6217 93.01C16.4537 93.1313 16.3207 93.3203 16.2227 93.577C16.1293 93.829 16.0827 94.1533 16.0827 94.55C16.0827 94.942 16.1293 95.2663 16.2227 95.523C16.3207 95.7797 16.4537 95.971 16.6217 96.097C16.7943 96.2183 16.9903 96.279 17.2097 96.279Z" fill="white"/>
<path d="M167.706 97.07C167.36 97.07 167.022 97.021 166.691 96.923C166.364 96.8203 166.089 96.6803 165.865 96.503L166.257 95.796C166.434 95.9407 166.649 96.0573 166.901 96.146C167.153 96.2347 167.416 96.279 167.692 96.279C168.018 96.279 168.273 96.2137 168.455 96.083C168.637 95.9477 168.728 95.7657 168.728 95.537C168.728 95.313 168.644 95.1357 168.476 95.005C168.308 94.8743 168.037 94.809 167.664 94.809H167.216V94.186L168.616 92.52L168.735 92.863H166.103V92.1H169.442V92.709L168.042 94.375L167.566 94.095H167.839C168.441 94.095 168.891 94.2303 169.19 94.501C169.493 94.767 169.645 95.11 169.645 95.53C169.645 95.8053 169.575 96.0597 169.435 96.293C169.295 96.5263 169.08 96.7153 168.791 96.86C168.506 97 168.144 97.07 167.706 97.07ZM172.361 97.07C171.918 97.07 171.537 96.9767 171.22 96.79C170.903 96.5987 170.66 96.3233 170.492 95.964C170.324 95.6047 170.24 95.1613 170.24 94.634C170.24 94.074 170.34 93.6003 170.541 93.213C170.746 92.8257 171.029 92.5317 171.388 92.331C171.752 92.1303 172.17 92.03 172.641 92.03C172.888 92.03 173.124 92.0557 173.348 92.107C173.577 92.1583 173.77 92.2377 173.929 92.345L173.593 93.031C173.458 92.9423 173.311 92.8817 173.152 92.849C172.998 92.8117 172.835 92.793 172.662 92.793C172.2 92.793 171.834 92.9353 171.563 93.22C171.292 93.5047 171.157 93.9247 171.157 94.48C171.157 94.5687 171.159 94.6737 171.164 94.795C171.169 94.9117 171.185 95.0307 171.213 95.152L170.933 94.844C171.017 94.6527 171.131 94.494 171.276 94.368C171.425 94.2373 171.6 94.1393 171.801 94.074C172.006 94.0087 172.228 93.976 172.466 93.976C172.788 93.976 173.075 94.039 173.327 94.165C173.579 94.2863 173.78 94.4613 173.929 94.69C174.078 94.914 174.153 95.1777 174.153 95.481C174.153 95.803 174.074 96.083 173.915 96.321C173.756 96.559 173.542 96.7433 173.271 96.874C173 97.0047 172.697 97.07 172.361 97.07ZM172.312 96.356C172.499 96.356 172.664 96.3233 172.809 96.258C172.954 96.188 173.066 96.09 173.145 95.964C173.229 95.838 173.271 95.691 173.271 95.523C173.271 95.2663 173.182 95.0633 173.005 94.914C172.828 94.7647 172.59 94.69 172.291 94.69C172.095 94.69 171.922 94.7273 171.773 94.802C171.628 94.872 171.512 94.97 171.423 95.096C171.339 95.222 171.297 95.3667 171.297 95.53C171.297 95.6793 171.337 95.817 171.416 95.943C171.495 96.069 171.61 96.1693 171.759 96.244C171.913 96.3187 172.097 96.356 172.312 96.356ZM176.673 97.07C176.285 97.07 175.935 96.972 175.623 96.776C175.315 96.58 175.072 96.2953 174.895 95.922C174.717 95.544 174.629 95.0867 174.629 94.55C174.629 94.0133 174.717 93.5583 174.895 93.185C175.072 92.807 175.315 92.52 175.623 92.324C175.935 92.128 176.285 92.03 176.673 92.03C177.065 92.03 177.415 92.128 177.723 92.324C178.031 92.52 178.273 92.807 178.451 93.185C178.633 93.5583 178.724 94.0133 178.724 94.55C178.724 95.0867 178.633 95.544 178.451 95.922C178.273 96.2953 178.031 96.58 177.723 96.776C177.415 96.972 177.065 97.07 176.673 97.07ZM176.673 96.279C176.901 96.279 177.1 96.2183 177.268 96.097C177.436 95.971 177.566 95.7797 177.66 95.523C177.758 95.2663 177.807 94.942 177.807 94.55C177.807 94.1533 177.758 93.829 177.66 93.577C177.566 93.3203 177.436 93.1313 177.268 93.01C177.1 92.884 176.901 92.821 176.673 92.821C176.453 92.821 176.257 92.884 176.085 93.01C175.917 93.1313 175.784 93.3203 175.686 93.577C175.592 93.829 175.546 94.1533 175.546 94.55C175.546 94.942 175.592 95.2663 175.686 95.523C175.784 95.7797 175.917 95.971 176.085 96.097C176.257 96.2183 176.453 96.279 176.673 96.279Z" fill="white"/>
<path d="M159.096 122.887V122.257L161.511 119.1H162.484L160.104 122.257L159.649 122.117H163.534V122.887H159.096ZM161.784 124V122.887L161.812 122.117V121.13H162.666V124H161.784ZM165.961 124.07C165.573 124.07 165.223 123.972 164.911 123.776C164.603 123.58 164.36 123.295 164.183 122.922C164.005 122.544 163.917 122.087 163.917 121.55C163.917 121.013 164.005 120.558 164.183 120.185C164.36 119.807 164.603 119.52 164.911 119.324C165.223 119.128 165.573 119.03 165.961 119.03C166.353 119.03 166.703 119.128 167.011 119.324C167.319 119.52 167.561 119.807 167.739 120.185C167.921 120.558 168.012 121.013 168.012 121.55C168.012 122.087 167.921 122.544 167.739 122.922C167.561 123.295 167.319 123.58 167.011 123.776C166.703 123.972 166.353 124.07 165.961 124.07ZM165.961 123.279C166.189 123.279 166.388 123.218 166.556 123.097C166.724 122.971 166.854 122.78 166.948 122.523C167.046 122.266 167.095 121.942 167.095 121.55C167.095 121.153 167.046 120.829 166.948 120.577C166.854 120.32 166.724 120.131 166.556 120.01C166.388 119.884 166.189 119.821 165.961 119.821C165.741 119.821 165.545 119.884 165.373 120.01C165.205 120.131 165.072 120.32 164.974 120.577C164.88 120.829 164.834 121.153 164.834 121.55C164.834 121.942 164.88 122.266 164.974 122.523C165.072 122.78 165.205 122.971 165.373 123.097C165.545 123.218 165.741 123.279 165.961 123.279ZM170.671 124.07C170.283 124.07 169.933 123.972 169.621 123.776C169.313 123.58 169.07 123.295 168.893 122.922C168.715 122.544 168.627 122.087 168.627 121.55C168.627 121.013 168.715 120.558 168.893 120.185C169.07 119.807 169.313 119.52 169.621 119.324C169.933 119.128 170.283 119.03 170.671 119.03C171.063 119.03 171.413 119.128 171.721 119.324C172.029 119.52 172.271 119.807 172.449 120.185C172.631 120.558 172.722 121.013 172.722 121.55C172.722 122.087 172.631 122.544 172.449 122.922C172.271 123.295 172.029 123.58 171.721 123.776C171.413 123.972 171.063 124.07 170.671 124.07ZM170.671 123.279C170.899 123.279 171.098 123.218 171.266 123.097C171.434 122.971 171.564 122.78 171.658 122.523C171.756 122.266 171.805 121.942 171.805 121.55C171.805 121.153 171.756 120.829 171.658 120.577C171.564 120.32 171.434 120.131 171.266 120.01C171.098 119.884 170.899 119.821 170.671 119.821C170.451 119.821 170.255 119.884 170.083 120.01C169.915 120.131 169.782 120.32 169.684 120.577C169.59 120.829 169.544 121.153 169.544 121.55C169.544 121.942 169.59 122.266 169.684 122.523C169.782 122.78 169.915 122.971 170.083 123.097C170.255 123.218 170.451 123.279 170.671 123.279Z" fill="white"/>
<path d="M145.096 147.887V147.257L147.511 144.1H148.484L146.104 147.257L145.649 147.117H149.534V147.887H145.096ZM147.784 149V147.887L147.812 147.117V146.13H148.666V149H147.784ZM149.847 147.887V147.257L152.262 144.1H153.235L150.855 147.257L150.4 147.117H154.285V147.887H149.847ZM152.535 149V147.887L152.563 147.117V146.13H153.417V149H152.535ZM156.712 149.07C156.324 149.07 155.974 148.972 155.662 148.776C155.354 148.58 155.111 148.295 154.934 147.922C154.756 147.544 154.668 147.087 154.668 146.55C154.668 146.013 154.756 145.558 154.934 145.185C155.111 144.807 155.354 144.52 155.662 144.324C155.974 144.128 156.324 144.03 156.712 144.03C157.104 144.03 157.454 144.128 157.762 144.324C158.07 144.52 158.312 144.807 158.49 145.185C158.672 145.558 158.763 146.013 158.763 146.55C158.763 147.087 158.672 147.544 158.49 147.922C158.312 148.295 158.07 148.58 157.762 148.776C157.454 148.972 157.104 149.07 156.712 149.07ZM156.712 148.279C156.94 148.279 157.139 148.218 157.307 148.097C157.475 147.971 157.605 147.78 157.699 147.523C157.797 147.266 157.846 146.942 157.846 146.55C157.846 146.153 157.797 145.829 157.699 145.577C157.605 145.32 157.475 145.131 157.307 145.01C157.139 144.884 156.94 144.821 156.712 144.821C156.492 144.821 156.296 144.884 156.124 145.01C155.956 145.131 155.823 145.32 155.725 145.577C155.631 145.829 155.585 146.153 155.585 146.55C155.585 146.942 155.631 147.266 155.725 147.523C155.823 147.78 155.956 147.971 156.124 148.097C156.296 148.218 156.492 148.279 156.712 148.279Z" fill="white"/>
<path d="M19.0957 68.887V68.257L21.5107 65.1H22.4837L20.1037 68.257L19.6487 68.117H23.5337V68.887H19.0957ZM21.7837 70V68.887L21.8117 68.117V67.13H22.6657V70H21.7837ZM25.9606 70.07C25.5733 70.07 25.2233 69.972 24.9106 69.776C24.6026 69.58 24.36 69.2953 24.1826 68.922C24.0053 68.544 23.9166 68.0867 23.9166 67.55C23.9166 67.0133 24.0053 66.5583 24.1826 66.185C24.36 65.807 24.6026 65.52 24.9106 65.324C25.2233 65.128 25.5733 65.03 25.9606 65.03C26.3526 65.03 26.7026 65.128 27.0106 65.324C27.3186 65.52 27.5613 65.807 27.7386 66.185C27.9206 66.5583 28.0116 67.0133 28.0116 67.55C28.0116 68.0867 27.9206 68.544 27.7386 68.922C27.5613 69.2953 27.3186 69.58 27.0106 69.776C26.7026 69.972 26.3526 70.07 25.9606 70.07ZM25.9606 69.279C26.1893 69.279 26.3876 69.2183 26.5556 69.097C26.7236 68.971 26.8543 68.7797 26.9476 68.523C27.0456 68.2663 27.0946 67.942 27.0946 67.55C27.0946 67.1533 27.0456 66.829 26.9476 66.577C26.8543 66.3203 26.7236 66.1313 26.5556 66.01C26.3876 65.884 26.1893 65.821 25.9606 65.821C25.7413 65.821 25.5453 65.884 25.3726 66.01C25.2046 66.1313 25.0716 66.3203 24.9736 66.577C24.8803 66.829 24.8336 67.1533 24.8336 67.55C24.8336 67.942 24.8803 68.2663 24.9736 68.523C25.0716 68.7797 25.2046 68.971 25.3726 69.097C25.5453 69.2183 25.7413 69.279 25.9606 69.279Z" fill="white"/>
<path d="M163.706 70.07C163.36 70.07 163.022 70.021 162.691 69.923C162.364 69.8203 162.089 69.6803 161.865 69.503L162.257 68.796C162.434 68.9407 162.649 69.0573 162.901 69.146C163.153 69.2347 163.416 69.279 163.692 69.279C164.018 69.279 164.273 69.2137 164.455 69.083C164.637 68.9477 164.728 68.7657 164.728 68.537C164.728 68.313 164.644 68.1357 164.476 68.005C164.308 67.8743 164.037 67.809 163.664 67.809H163.216V67.186L164.616 65.52L164.735 65.863H162.103V65.1H165.442V65.709L164.042 67.375L163.566 67.095H163.839C164.441 67.095 164.891 67.2303 165.19 67.501C165.493 67.767 165.645 68.11 165.645 68.53C165.645 68.8053 165.575 69.0597 165.435 69.293C165.295 69.5263 165.08 69.7153 164.791 69.86C164.506 70 164.144 70.07 163.706 70.07ZM166.143 70V69.391L168.089 67.543C168.252 67.389 168.373 67.2537 168.453 67.137C168.532 67.0203 168.583 66.913 168.607 66.815C168.635 66.7123 168.649 66.6167 168.649 66.528C168.649 66.304 168.572 66.1313 168.418 66.01C168.264 65.884 168.037 65.821 167.739 65.821C167.501 65.821 167.284 65.863 167.088 65.947C166.896 66.031 166.731 66.1593 166.591 66.332L165.954 65.842C166.145 65.5853 166.402 65.387 166.724 65.247C167.05 65.1023 167.414 65.03 167.816 65.03C168.17 65.03 168.478 65.0883 168.74 65.205C169.006 65.317 169.209 65.478 169.349 65.688C169.493 65.898 169.566 66.1477 169.566 66.437C169.566 66.5957 169.545 66.7543 169.503 66.913C169.461 67.067 169.381 67.2303 169.265 67.403C169.148 67.5757 168.978 67.7693 168.754 67.984L167.081 69.573L166.892 69.23H169.755V70H166.143ZM172.324 70.07C171.937 70.07 171.587 69.972 171.274 69.776C170.966 69.58 170.723 69.2953 170.546 68.922C170.369 68.544 170.28 68.0867 170.28 67.55C170.28 67.0133 170.369 66.5583 170.546 66.185C170.723 65.807 170.966 65.52 171.274 65.324C171.587 65.128 171.937 65.03 172.324 65.03C172.716 65.03 173.066 65.128 173.374 65.324C173.682 65.52 173.925 65.807 174.102 66.185C174.284 66.5583 174.375 67.0133 174.375 67.55C174.375 68.0867 174.284 68.544 174.102 68.922C173.925 69.2953 173.682 69.58 173.374 69.776C173.066 69.972 172.716 70.07 172.324 70.07ZM172.324 69.279C172.553 69.279 172.751 69.2183 172.919 69.097C173.087 68.971 173.218 68.7797 173.311 68.523C173.409 68.2663 173.458 67.942 173.458 67.55C173.458 67.1533 173.409 66.829 173.311 66.577C173.218 66.3203 173.087 66.1313 172.919 66.01C172.751 65.884 172.553 65.821 172.324 65.821C172.105 65.821 171.909 65.884 171.736 66.01C171.568 66.1313 171.435 66.3203 171.337 66.577C171.244 66.829 171.197 67.1533 171.197 67.55C171.197 67.942 171.244 68.2663 171.337 68.523C171.435 68.7797 171.568 68.971 171.736 69.097C171.909 69.2183 172.105 69.279 172.324 69.279Z" fill="white"/>
<path d="M33.1327 46.07C32.7267 46.07 32.3743 46.0093 32.0757 45.888C31.777 45.7667 31.546 45.5963 31.3827 45.377C31.2193 45.153 31.1377 44.8917 31.1377 44.593C31.1377 44.2943 31.217 44.0423 31.3757 43.837C31.5343 43.6317 31.763 43.4753 32.0617 43.368C32.3603 43.2607 32.7173 43.207 33.1327 43.207C33.548 43.207 33.905 43.2607 34.2037 43.368C34.507 43.4753 34.738 43.634 34.8967 43.844C35.06 44.0493 35.1417 44.299 35.1417 44.593C35.1417 44.8917 35.0577 45.153 34.8897 45.377C34.7263 45.5963 34.493 45.7667 34.1897 45.888C33.891 46.0093 33.5387 46.07 33.1327 46.07ZM33.1327 45.356C33.4687 45.356 33.7347 45.286 33.9307 45.146C34.1267 45.006 34.2247 44.8123 34.2247 44.565C34.2247 44.3223 34.1267 44.131 33.9307 43.991C33.7347 43.851 33.4687 43.781 33.1327 43.781C32.7967 43.781 32.533 43.851 32.3417 43.991C32.1503 44.131 32.0547 44.3223 32.0547 44.565C32.0547 44.8123 32.1503 45.006 32.3417 45.146C32.533 45.286 32.7967 45.356 33.1327 45.356ZM33.1327 43.683C32.7547 43.683 32.4303 43.634 32.1597 43.536C31.889 43.4333 31.679 43.2863 31.5297 43.095C31.385 42.899 31.3127 42.6657 31.3127 42.395C31.3127 42.115 31.3873 41.8747 31.5367 41.674C31.6907 41.4687 31.9053 41.31 32.1807 41.198C32.456 41.086 32.7733 41.03 33.1327 41.03C33.4967 41.03 33.8163 41.086 34.0917 41.198C34.367 41.31 34.5817 41.4687 34.7357 41.674C34.8897 41.8747 34.9667 42.115 34.9667 42.395C34.9667 42.6657 34.892 42.899 34.7427 43.095C34.598 43.2863 34.388 43.4333 34.1127 43.536C33.8373 43.634 33.5107 43.683 33.1327 43.683ZM33.1327 43.123C33.422 43.123 33.6507 43.0623 33.8187 42.941C33.9867 42.815 34.0707 42.647 34.0707 42.437C34.0707 42.2177 33.9843 42.0473 33.8117 41.926C33.639 41.8047 33.4127 41.744 33.1327 41.744C32.8527 41.744 32.6287 41.8047 32.4607 41.926C32.2927 42.0473 32.2087 42.2177 32.2087 42.437C32.2087 42.647 32.2903 42.815 32.4537 42.941C32.6217 43.0623 32.848 43.123 33.1327 43.123ZM37.7761 46.07C37.3887 46.07 37.0387 45.972 36.7261 45.776C36.4181 45.58 36.1754 45.2953 35.9981 44.922C35.8207 44.544 35.7321 44.0867 35.7321 43.55C35.7321 43.0133 35.8207 42.5583 35.9981 42.185C36.1754 41.807 36.4181 41.52 36.7261 41.324C37.0387 41.128 37.3887 41.03 37.7761 41.03C38.1681 41.03 38.5181 41.128 38.8261 41.324C39.1341 41.52 39.3767 41.807 39.5541 42.185C39.7361 42.5583 39.8271 43.0133 39.8271 43.55C39.8271 44.0867 39.7361 44.544 39.5541 44.922C39.3767 45.2953 39.1341 45.58 38.8261 45.776C38.5181 45.972 38.1681 46.07 37.7761 46.07ZM37.7761 45.279C38.0047 45.279 38.2031 45.2183 38.3711 45.097C38.5391 44.971 38.6697 44.7797 38.7631 44.523C38.8611 44.2663 38.9101 43.942 38.9101 43.55C38.9101 43.1533 38.8611 42.829 38.7631 42.577C38.6697 42.3203 38.5391 42.1313 38.3711 42.01C38.2031 41.884 38.0047 41.821 37.7761 41.821C37.5567 41.821 37.3607 41.884 37.1881 42.01C37.0201 42.1313 36.8871 42.3203 36.7891 42.577C36.6957 42.829 36.6491 43.1533 36.6491 43.55C36.6491 43.942 36.6957 44.2663 36.7891 44.523C36.8871 44.7797 37.0201 44.971 37.1881 45.097C37.3607 45.2183 37.5567 45.279 37.7761 45.279Z" fill="white"/>
<path d="M52.9497 29V24.45L53.3487 24.863H51.9137V24.1H53.8597V29H52.9497ZM54.7687 29V28.391L56.7147 26.543C56.878 26.389 56.9993 26.2537 57.0787 26.137C57.158 26.0203 57.2093 25.913 57.2327 25.815C57.2607 25.7123 57.2747 25.6167 57.2747 25.528C57.2747 25.304 57.1977 25.1313 57.0437 25.01C56.8897 24.884 56.6633 24.821 56.3647 24.821C56.1267 24.821 55.9097 24.863 55.7137 24.947C55.5223 25.031 55.3567 25.1593 55.2167 25.332L54.5797 24.842C54.771 24.5853 55.0277 24.387 55.3497 24.247C55.6763 24.1023 56.0403 24.03 56.4417 24.03C56.7963 24.03 57.1043 24.0883 57.3657 24.205C57.6317 24.317 57.8347 24.478 57.9747 24.688C58.1193 24.898 58.1917 25.1477 58.1917 25.437C58.1917 25.5957 58.1707 25.7543 58.1287 25.913C58.0867 26.067 58.0073 26.2303 57.8907 26.403C57.774 26.5757 57.6037 26.7693 57.3797 26.984L55.7067 28.573L55.5177 28.23H58.3807V29H54.7687ZM60.9499 29.07C60.5626 29.07 60.2126 28.972 59.8999 28.776C59.5919 28.58 59.3492 28.2953 59.1719 27.922C58.9946 27.544 58.9059 27.0867 58.9059 26.55C58.9059 26.0133 58.9946 25.5583 59.1719 25.185C59.3492 24.807 59.5919 24.52 59.8999 24.324C60.2126 24.128 60.5626 24.03 60.9499 24.03C61.3419 24.03 61.6919 24.128 61.9999 24.324C62.3079 24.52 62.5506 24.807 62.7279 25.185C62.9099 25.5583 63.0009 26.0133 63.0009 26.55C63.0009 27.0867 62.9099 27.544 62.7279 27.922C62.5506 28.2953 62.3079 28.58 61.9999 28.776C61.6919 28.972 61.3419 29.07 60.9499 29.07ZM60.9499 28.279C61.1786 28.279 61.3769 28.2183 61.5449 28.097C61.7129 27.971 61.8436 27.7797 61.9369 27.523C62.0349 27.2663 62.0839 26.942 62.0839 26.55C62.0839 26.1533 62.0349 25.829 61.9369 25.577C61.8436 25.3203 61.7129 25.1313 61.5449 25.01C61.3769 24.884 61.1786 24.821 60.9499 24.821C60.7306 24.821 60.5346 24.884 60.3619 25.01C60.1939 25.1313 60.0609 25.3203 59.9629 25.577C59.8696 25.829 59.8229 26.1533 59.8229 26.55C59.8229 26.942 59.8696 27.2663 59.9629 27.523C60.0609 27.7797 60.1939 27.971 60.3619 28.097C60.5346 28.2183 60.7306 28.279 60.9499 28.279Z" fill="white"/>
<path d="M78.9497 19V14.45L79.3487 14.863H77.9137V14.1H79.8597V19H78.9497ZM82.9527 19.07C82.5093 19.07 82.129 18.9767 81.8117 18.79C81.4943 18.5987 81.2517 18.3233 81.0837 17.964C80.9157 17.6047 80.8317 17.1613 80.8317 16.634C80.8317 16.074 80.932 15.6003 81.1327 15.213C81.338 14.8257 81.6203 14.5317 81.9797 14.331C82.3437 14.1303 82.7613 14.03 83.2327 14.03C83.48 14.03 83.7157 14.0557 83.9397 14.107C84.1683 14.1583 84.362 14.2377 84.5207 14.345L84.1847 15.031C84.0493 14.9423 83.9023 14.8817 83.7437 14.849C83.5897 14.8117 83.4263 14.793 83.2537 14.793C82.7917 14.793 82.4253 14.9353 82.1547 15.22C81.884 15.5047 81.7487 15.9247 81.7487 16.48C81.7487 16.5687 81.751 16.6737 81.7557 16.795C81.7603 16.9117 81.7767 17.0307 81.8047 17.152L81.5247 16.844C81.6087 16.6527 81.723 16.494 81.8677 16.368C82.017 16.2373 82.192 16.1393 82.3927 16.074C82.598 16.0087 82.8197 15.976 83.0577 15.976C83.3797 15.976 83.6667 16.039 83.9187 16.165C84.1707 16.2863 84.3713 16.4613 84.5207 16.69C84.67 16.914 84.7447 17.1777 84.7447 17.481C84.7447 17.803 84.6653 18.083 84.5067 18.321C84.348 18.559 84.1333 18.7433 83.8627 18.874C83.592 19.0047 83.2887 19.07 82.9527 19.07ZM82.9037 18.356C83.0903 18.356 83.256 18.3233 83.4007 18.258C83.5453 18.188 83.6573 18.09 83.7367 17.964C83.8207 17.838 83.8627 17.691 83.8627 17.523C83.8627 17.2663 83.774 17.0633 83.5967 16.914C83.4193 16.7647 83.1813 16.69 82.8827 16.69C82.6867 16.69 82.514 16.7273 82.3647 16.802C82.22 16.872 82.1033 16.97 82.0147 17.096C81.9307 17.222 81.8887 17.3667 81.8887 17.53C81.8887 17.6793 81.9283 17.817 82.0077 17.943C82.087 18.069 82.2013 18.1693 82.3507 18.244C82.5047 18.3187 82.689 18.356 82.9037 18.356ZM87.2644 19.07C86.877 19.07 86.527 18.972 86.2144 18.776C85.9064 18.58 85.6637 18.2953 85.4864 17.922C85.309 17.544 85.2204 17.0867 85.2204 16.55C85.2204 16.0133 85.309 15.5583 85.4864 15.185C85.6637 14.807 85.9064 14.52 86.2144 14.324C86.527 14.128 86.877 14.03 87.2644 14.03C87.6564 14.03 88.0064 14.128 88.3144 14.324C88.6224 14.52 88.865 14.807 89.0424 15.185C89.2244 15.5583 89.3154 16.0133 89.3154 16.55C89.3154 17.0867 89.2244 17.544 89.0424 17.922C88.865 18.2953 88.6224 18.58 88.3144 18.776C88.0064 18.972 87.6564 19.07 87.2644 19.07ZM87.2644 18.279C87.493 18.279 87.6914 18.2183 87.8594 18.097C88.0274 17.971 88.158 17.7797 88.2514 17.523C88.3494 17.2663 88.3984 16.942 88.3984 16.55C88.3984 16.1533 88.3494 15.829 88.2514 15.577C88.158 15.3203 88.0274 15.1313 87.8594 15.01C87.6914 14.884 87.493 14.821 87.2644 14.821C87.045 14.821 86.849 14.884 86.6764 15.01C86.5084 15.1313 86.3754 15.3203 86.2774 15.577C86.184 15.829 86.1374 16.1533 86.1374 16.55C86.1374 16.942 86.184 17.2663 86.2774 17.523C86.3754 17.7797 86.5084 17.971 86.6764 18.097C86.849 18.2183 87.045 18.279 87.2644 18.279Z" fill="white"/>
<path d="M104.103 19V18.391L106.049 16.543C106.212 16.389 106.333 16.2537 106.413 16.137C106.492 16.0203 106.543 15.913 106.567 15.815C106.595 15.7123 106.609 15.6167 106.609 15.528C106.609 15.304 106.532 15.1313 106.378 15.01C106.224 14.884 105.997 14.821 105.699 14.821C105.461 14.821 105.244 14.863 105.048 14.947C104.856 15.031 104.691 15.1593 104.551 15.332L103.914 14.842C104.105 14.5853 104.362 14.387 104.684 14.247C105.01 14.1023 105.374 14.03 105.776 14.03C106.13 14.03 106.438 14.0883 106.7 14.205C106.966 14.317 107.169 14.478 107.309 14.688C107.453 14.898 107.526 15.1477 107.526 15.437C107.526 15.5957 107.505 15.7543 107.463 15.913C107.421 16.067 107.341 16.2303 107.225 16.403C107.108 16.5757 106.938 16.7693 106.714 16.984L105.041 18.573L104.852 18.23H107.715V19H104.103ZM110.284 19.07C109.897 19.07 109.547 18.972 109.234 18.776C108.926 18.58 108.683 18.2953 108.506 17.922C108.329 17.544 108.24 17.0867 108.24 16.55C108.24 16.0133 108.329 15.5583 108.506 15.185C108.683 14.807 108.926 14.52 109.234 14.324C109.547 14.128 109.897 14.03 110.284 14.03C110.676 14.03 111.026 14.128 111.334 14.324C111.642 14.52 111.885 14.807 112.062 15.185C112.244 15.5583 112.335 16.0133 112.335 16.55C112.335 17.0867 112.244 17.544 112.062 17.922C111.885 18.2953 111.642 18.58 111.334 18.776C111.026 18.972 110.676 19.07 110.284 19.07ZM110.284 18.279C110.513 18.279 110.711 18.2183 110.879 18.097C111.047 17.971 111.178 17.7797 111.271 17.523C111.369 17.2663 111.418 16.942 111.418 16.55C111.418 16.1533 111.369 15.829 111.271 15.577C111.178 15.3203 111.047 15.1313 110.879 15.01C110.711 14.884 110.513 14.821 110.284 14.821C110.065 14.821 109.869 14.884 109.696 15.01C109.528 15.1313 109.395 15.3203 109.297 15.577C109.204 15.829 109.157 16.1533 109.157 16.55C109.157 16.942 109.204 17.2663 109.297 17.523C109.395 17.7797 109.528 17.971 109.696 18.097C109.869 18.2183 110.065 18.279 110.284 18.279ZM114.994 19.07C114.607 19.07 114.257 18.972 113.944 18.776C113.636 18.58 113.393 18.2953 113.216 17.922C113.039 17.544 112.95 17.0867 112.95 16.55C112.95 16.0133 113.039 15.5583 113.216 15.185C113.393 14.807 113.636 14.52 113.944 14.324C114.257 14.128 114.607 14.03 114.994 14.03C115.386 14.03 115.736 14.128 116.044 14.324C116.352 14.52 116.595 14.807 116.772 15.185C116.954 15.5583 117.045 16.0133 117.045 16.55C117.045 17.0867 116.954 17.544 116.772 17.922C116.595 18.2953 116.352 18.58 116.044 18.776C115.736 18.972 115.386 19.07 114.994 19.07ZM114.994 18.279C115.223 18.279 115.421 18.2183 115.589 18.097C115.757 17.971 115.888 17.7797 115.981 17.523C116.079 17.2663 116.128 16.942 116.128 16.55C116.128 16.1533 116.079 15.829 115.981 15.577C115.888 15.3203 115.757 15.1313 115.589 15.01C115.421 14.884 115.223 14.821 114.994 14.821C114.775 14.821 114.579 14.884 114.406 15.01C114.238 15.1313 114.105 15.3203 114.007 15.577C113.914 15.829 113.867 16.1533 113.867 16.55C113.867 16.942 113.914 17.2663 114.007 17.523C114.105 17.7797 114.238 17.971 114.406 18.097C114.579 18.2183 114.775 18.279 114.994 18.279Z" fill="white"/>
<path d="M130.103 29V28.391L132.049 26.543C132.212 26.389 132.333 26.2537 132.413 26.137C132.492 26.0203 132.543 25.913 132.567 25.815C132.595 25.7123 132.609 25.6167 132.609 25.528C132.609 25.304 132.532 25.1313 132.378 25.01C132.224 24.884 131.997 24.821 131.699 24.821C131.461 24.821 131.244 24.863 131.048 24.947C130.856 25.031 130.691 25.1593 130.551 25.332L129.914 24.842C130.105 24.5853 130.362 24.387 130.684 24.247C131.01 24.1023 131.374 24.03 131.776 24.03C132.13 24.03 132.438 24.0883 132.7 24.205C132.966 24.317 133.169 24.478 133.309 24.688C133.453 24.898 133.526 25.1477 133.526 25.437C133.526 25.5957 133.505 25.7543 133.463 25.913C133.421 26.067 133.341 26.2303 133.225 26.403C133.108 26.5757 132.938 26.7693 132.714 26.984L131.041 28.573L130.852 28.23H133.715V29H130.103ZM134.067 27.887V27.257L136.482 24.1H137.455L135.075 27.257L134.62 27.117H138.505V27.887H134.067ZM136.755 29V27.887L136.783 27.117V26.13H137.637V29H136.755ZM140.932 29.07C140.545 29.07 140.195 28.972 139.882 28.776C139.574 28.58 139.332 28.2953 139.154 27.922C138.977 27.544 138.888 27.0867 138.888 26.55C138.888 26.0133 138.977 25.5583 139.154 25.185C139.332 24.807 139.574 24.52 139.882 24.324C140.195 24.128 140.545 24.03 140.932 24.03C141.324 24.03 141.674 24.128 141.982 24.324C142.29 24.52 142.533 24.807 142.71 25.185C142.892 25.5583 142.983 26.0133 142.983 26.55C142.983 27.0867 142.892 27.544 142.71 27.922C142.533 28.2953 142.29 28.58 141.982 28.776C141.674 28.972 141.324 29.07 140.932 29.07ZM140.932 28.279C141.161 28.279 141.359 28.2183 141.527 28.097C141.695 27.971 141.826 27.7797 141.919 27.523C142.017 27.2663 142.066 26.942 142.066 26.55C142.066 26.1533 142.017 25.829 141.919 25.577C141.826 25.3203 141.695 25.1313 141.527 25.01C141.359 24.884 141.161 24.821 140.932 24.821C140.713 24.821 140.517 24.884 140.344 25.01C140.176 25.1313 140.043 25.3203 139.945 25.577C139.852 25.829 139.805 26.1533 139.805 26.55C139.805 26.942 139.852 27.2663 139.945 27.523C140.043 27.7797 140.176 27.971 140.344 28.097C140.517 28.2183 140.713 28.279 140.932 28.279Z" fill="white"/>
<path d="M147.103 46V45.391L149.049 43.543C149.212 43.389 149.333 43.2537 149.413 43.137C149.492 43.0203 149.543 42.913 149.567 42.815C149.595 42.7123 149.609 42.6167 149.609 42.528C149.609 42.304 149.532 42.1313 149.378 42.01C149.224 41.884 148.997 41.821 148.699 41.821C148.461 41.821 148.244 41.863 148.048 41.947C147.856 42.031 147.691 42.1593 147.551 42.332L146.914 41.842C147.105 41.5853 147.362 41.387 147.684 41.247C148.01 41.1023 148.374 41.03 148.776 41.03C149.13 41.03 149.438 41.0883 149.7 41.205C149.966 41.317 150.169 41.478 150.309 41.688C150.453 41.898 150.526 42.1477 150.526 42.437C150.526 42.5957 150.505 42.7543 150.463 42.913C150.421 43.067 150.341 43.2303 150.225 43.403C150.108 43.5757 149.938 43.7693 149.714 43.984L148.041 45.573L147.852 45.23H150.715V46H147.103ZM153.207 46.07C152.801 46.07 152.449 46.0093 152.15 45.888C151.851 45.7667 151.62 45.5963 151.457 45.377C151.294 45.153 151.212 44.8917 151.212 44.593C151.212 44.2943 151.291 44.0423 151.45 43.837C151.609 43.6317 151.837 43.4753 152.136 43.368C152.435 43.2607 152.792 43.207 153.207 43.207C153.622 43.207 153.979 43.2607 154.278 43.368C154.581 43.4753 154.812 43.634 154.971 43.844C155.134 44.0493 155.216 44.299 155.216 44.593C155.216 44.8917 155.132 45.153 154.964 45.377C154.801 45.5963 154.567 45.7667 154.264 45.888C153.965 46.0093 153.613 46.07 153.207 46.07ZM153.207 45.356C153.543 45.356 153.809 45.286 154.005 45.146C154.201 45.006 154.299 44.8123 154.299 44.565C154.299 44.3223 154.201 44.131 154.005 43.991C153.809 43.851 153.543 43.781 153.207 43.781C152.871 43.781 152.607 43.851 152.416 43.991C152.225 44.131 152.129 44.3223 152.129 44.565C152.129 44.8123 152.225 45.006 152.416 45.146C152.607 45.286 152.871 45.356 153.207 45.356ZM153.207 43.683C152.829 43.683 152.505 43.634 152.234 43.536C151.963 43.4333 151.753 43.2863 151.604 43.095C151.459 42.899 151.387 42.6657 151.387 42.395C151.387 42.115 151.462 41.8747 151.611 41.674C151.765 41.4687 151.98 41.31 152.255 41.198C152.53 41.086 152.848 41.03 153.207 41.03C153.571 41.03 153.891 41.086 154.166 41.198C154.441 41.31 154.656 41.4687 154.81 41.674C154.964 41.8747 155.041 42.115 155.041 42.395C155.041 42.6657 154.966 42.899 154.817 43.095C154.672 43.2863 154.462 43.4333 154.187 43.536C153.912 43.634 153.585 43.683 153.207 43.683ZM153.207 43.123C153.496 43.123 153.725 43.0623 153.893 42.941C154.061 42.815 154.145 42.647 154.145 42.437C154.145 42.2177 154.059 42.0473 153.886 41.926C153.713 41.8047 153.487 41.744 153.207 41.744C152.927 41.744 152.703 41.8047 152.535 41.926C152.367 42.0473 152.283 42.2177 152.283 42.437C152.283 42.647 152.365 42.815 152.528 42.941C152.696 43.0623 152.922 43.123 153.207 43.123ZM157.85 46.07C157.463 46.07 157.113 45.972 156.8 45.776C156.492 45.58 156.25 45.2953 156.072 44.922C155.895 44.544 155.806 44.0867 155.806 43.55C155.806 43.0133 155.895 42.5583 156.072 42.185C156.25 41.807 156.492 41.52 156.8 41.324C157.113 41.128 157.463 41.03 157.85 41.03C158.242 41.03 158.592 41.128 158.9 41.324C159.208 41.52 159.451 41.807 159.628 42.185C159.81 42.5583 159.901 43.0133 159.901 43.55C159.901 44.0867 159.81 44.544 159.628 44.922C159.451 45.2953 159.208 45.58 158.9 45.776C158.592 45.972 158.242 46.07 157.85 46.07ZM157.85 45.279C158.079 45.279 158.277 45.2183 158.445 45.097C158.613 44.971 158.744 44.7797 158.837 44.523C158.935 44.2663 158.984 43.942 158.984 43.55C158.984 43.1533 158.935 42.829 158.837 42.577C158.744 42.3203 158.613 42.1313 158.445 42.01C158.277 41.884 158.079 41.821 157.85 41.821C157.631 41.821 157.435 41.884 157.262 42.01C157.094 42.1313 156.961 42.3203 156.863 42.577C156.77 42.829 156.723 43.1533 156.723 43.55C156.723 43.942 156.77 44.2663 156.863 44.523C156.961 44.7797 157.094 44.971 157.262 45.097C157.435 45.2183 157.631 45.279 157.85 45.279Z" fill="white"/>
</svg>
