<svg width="90" height="101" viewBox="0 0 90 101" fill="none" xmlns="http://www.w3.org/2000/svg">
<path d="M50.8016 93.5524C50.1174 94.7445 49.1575 95.7552 48.0026 96.4995C46.8478 97.2438 45.5317 97.7001 44.165 97.8298C42.7984 97.9596 41.4211 97.7591 40.1489 97.2452C38.8768 96.7314 37.747 95.9191 36.8544 94.8768C35.9619 93.8344 35.3327 92.5924 35.0199 91.2552C34.707 89.918 34.7195 88.5246 35.0564 87.1923C35.3933 85.8599 36.0447 84.6274 36.9559 83.5985C37.8671 82.5696 39.0114 81.7743 40.2926 81.2794C41.9461 80.6408 43.7559 80.5301 45.4731 80.9626C47.1904 81.3951 48.7308 82.3495 49.8827 83.6948C51.0345 85.04 51.7413 86.7099 51.9059 88.4751C52.0704 90.2403 51.6847 92.014 50.8016 93.5524ZM36.6654 85.5217C35.7709 87.0949 35.4591 88.9326 35.7849 90.7114C36.1107 92.4901 37.0533 94.0957 38.4466 95.2456C39.84 96.3954 41.5947 97.0156 43.4018 96.997C45.209 96.9785 46.9526 96.3223 48.3257 95.1441C49.6988 93.9658 50.6133 92.3411 50.9082 90.556C51.2031 88.7709 50.8594 86.9398 49.9377 85.3854C49.0159 83.8309 47.5753 82.6526 45.8694 82.058C44.1636 81.4635 42.3019 81.4907 40.6122 82.1351C38.9433 82.7698 37.5473 83.9676 36.6654 85.5217Z" fill="white"/>
<path d="M41.8985 85.5061C42.6506 85.2186 43.4706 85.1608 44.2548 85.3398C45.0391 85.5189 45.7522 85.9268 46.3041 86.5121C46.856 87.0973 47.2219 87.8335 47.3553 88.6275C47.4888 89.4215 47.3838 90.2377 47.0538 90.9728C46.7238 91.7079 46.1836 92.3288 45.5014 92.757C44.8192 93.1852 44.0258 93.4015 43.2215 93.3784C42.4173 93.3553 41.6383 93.094 40.9831 92.6274C40.3279 92.1609 39.8261 91.5101 39.541 90.7574C39.3514 90.2582 39.262 89.7264 39.2778 89.1923C39.2937 88.6581 39.4146 88.1322 39.6335 87.6446C39.8524 87.1569 40.1652 86.717 40.5538 86.3501C40.9424 85.9832 41.3993 85.6964 41.8985 85.5061Z" fill="white"/>
<path d="M42.0211 90.1185L42.9867 0.0267221L44.5259 90.1074L42.0211 90.1185Z" fill="white"/>
</svg>
