<svg width="31" height="42" viewBox="0 0 31 42" fill="none" xmlns="http://www.w3.org/2000/svg">
<g filter="url(#filter0_d_221_879)">
<path d="M18.3631 27.8289L18.4816 27.9068C18.4816 28.2957 18.4871 28.6772 18.4798 29.0584C18.4737 29.3639 18.214 29.5933 17.8884 29.5939C16.998 29.5954 16.1075 29.5954 15.2168 29.5939C14.3566 29.5939 13.4965 29.5939 12.6365 29.5939C12.2299 29.5939 12.0017 29.3679 12.0005 28.9634C12.0005 28.6174 12.0005 28.2713 12.0005 27.9178L12.0921 27.8338V21.0738L12.0023 20.9944C12.0023 20.2561 11.9953 19.5184 12.0057 18.781C12.01 18.4709 12.2672 18.2571 12.6035 18.2568C13.8095 18.255 15.0156 18.255 16.2217 18.2568C16.7664 18.2568 17.3107 18.2568 17.8554 18.2568C18.258 18.2568 18.481 18.478 18.4825 18.879C18.4846 19.556 18.4825 20.2329 18.4825 20.9095C18.4825 20.94 18.4785 20.9706 18.4761 21.0033L18.3631 21.0861V27.8289ZM12.1725 28.7817H18.3105V27.9994L17.5728 27.5766V21.3319C17.8187 21.1917 18.0652 21.0512 18.3182 20.9076V20.7656C18.3182 20.1397 18.3182 19.5132 18.3182 18.8876C18.3182 18.5797 18.1541 18.4178 17.845 18.4178C16.1095 18.4178 14.3742 18.4178 12.6389 18.4178C12.3286 18.4178 12.1667 18.5776 12.1657 18.8873C12.1636 19.5184 12.1657 20.1492 12.1657 20.7812C12.1657 20.8215 12.1703 20.8615 12.1737 20.9132L12.9108 21.3347V27.5775L12.1737 28.0024L12.1725 28.7817Z" fill="white"/>
<path d="M17.7387 17.6981H16.4215V17.5148C16.4215 15.9264 16.4215 14.338 16.4215 12.7495C16.4215 12.3344 16.6418 12.0488 16.9933 12.0054C17.4033 11.9547 17.7359 12.2611 17.7378 12.7C17.7408 13.4787 17.7378 14.2579 17.7378 15.0362C17.7378 15.8508 17.7378 16.6654 17.7378 17.48L17.7387 17.6981Z" fill="white"/>
<path d="M13.9949 17.6746H12.5898C12.5898 17.2915 12.5809 16.9167 12.5937 16.5443C12.5995 16.3739 12.7504 16.2538 12.9273 16.2502C13.1659 16.245 13.4048 16.2459 13.6436 16.2502C13.8416 16.2529 13.9879 16.3806 13.9931 16.5776C14.0019 16.9347 13.9949 17.2952 13.9949 17.6746ZM13.3938 16.3672V17.5585H13.5752V16.3672H13.3938ZM13.011 16.3656V17.5619H13.1863V16.3656H13.011Z" fill="white"/>
<path d="M14.1425 17.8127V18.1297H12.441V17.8127H14.1425Z" fill="white"/>
<path d="M16.2255 18.1303V17.809H17.9248V18.1303H16.2255Z" fill="white"/>
<path d="M15.2488 18.9575C15.4015 18.9575 15.5543 18.9545 15.7052 18.9575C15.8658 18.9615 15.9379 19.0336 15.941 19.1897C15.9437 19.3217 15.944 19.4536 15.941 19.5868C15.9367 19.7261 15.8576 19.8064 15.7214 19.8089C15.4018 19.8144 15.0822 19.8144 14.7625 19.8089C14.6272 19.8064 14.5465 19.727 14.5432 19.5868C14.5398 19.4466 14.5392 19.3119 14.5432 19.176C14.5471 19.04 14.6232 18.9621 14.7631 18.9591C14.9256 18.9566 15.0878 18.9591 15.2503 18.9591L15.2488 18.9575Z" fill="white"/>
<path d="M15.2338 21.0124C15.0811 21.0124 14.9284 21.0149 14.7756 21.0124C14.6229 21.01 14.5471 20.9388 14.5416 20.7922C14.5361 20.655 14.5374 20.5173 14.5416 20.3804C14.5459 20.2436 14.626 20.1703 14.7536 20.1666C15.0795 20.1605 15.4047 20.1605 15.7293 20.1666C15.8582 20.169 15.937 20.2448 15.9407 20.3789C15.9443 20.513 15.9456 20.6538 15.9407 20.7907C15.9349 20.9385 15.8597 21.0079 15.707 21.0112C15.5488 21.0149 15.3911 21.0124 15.2338 21.0124Z" fill="white"/>
<path d="M13.3726 18.9575C13.5254 18.9575 13.6781 18.9542 13.829 18.9575C13.986 18.9618 14.0523 19.026 14.0578 19.1793C14.0627 19.311 14.0633 19.4432 14.0578 19.5749C14.0526 19.7276 13.9823 19.8052 13.8351 19.8077C13.5208 19.8129 13.2061 19.8116 12.8915 19.8077C12.7553 19.8055 12.6731 19.7328 12.6707 19.5899C12.6682 19.4469 12.6685 19.3055 12.6707 19.1637C12.6737 19.0275 12.7504 18.9606 12.8845 18.9591C13.047 18.9569 13.2092 18.9591 13.3717 18.9591L13.3726 18.9575Z" fill="white"/>
<path d="M17.1183 18.9606C17.2759 18.9606 17.4333 18.9582 17.5906 18.9606C17.7348 18.9634 17.8044 19.0312 17.8096 19.1744C17.8142 19.3113 17.8126 19.4493 17.8111 19.5853C17.8096 19.7212 17.7329 19.8064 17.5955 19.8086C17.2755 19.8139 16.9558 19.8139 16.6363 19.8086C16.5071 19.8064 16.4274 19.7337 16.4249 19.5981C16.4222 19.4509 16.4222 19.3036 16.4249 19.1567C16.4286 19.0269 16.5056 18.9634 16.6302 18.9606C16.7924 18.9569 16.9549 18.9606 17.1171 18.9606H17.1183Z" fill="white"/>
<path d="M13.3638 21.0121C13.2062 21.0121 13.0486 21.0149 12.891 21.0121C12.7483 21.0087 12.6771 20.9391 12.6722 20.7959C12.6677 20.6587 12.6698 20.5209 12.6722 20.3838C12.6747 20.2466 12.7446 20.1715 12.8778 20.1699C13.198 20.1647 13.5193 20.1632 13.8388 20.1672C13.9742 20.169 14.0575 20.242 14.0588 20.3862C14.0588 20.5237 14.0618 20.6611 14.0588 20.7983C14.0557 20.9354 13.979 21.0121 13.8373 21.0121C13.6791 21.013 13.5215 21.0121 13.3638 21.0121Z" fill="white"/>
<path d="M17.1113 21.0121C16.9536 21.0121 16.7957 21.0139 16.6381 21.0121C16.5046 21.0103 16.4285 20.9409 16.4243 20.8056C16.4206 20.6633 16.4227 20.5209 16.4243 20.378C16.4258 20.235 16.5067 20.1693 16.6347 20.1672C16.9604 20.1623 17.286 20.1641 17.6122 20.1693C17.7387 20.1715 17.8065 20.2497 17.8105 20.3749C17.8148 20.512 17.8148 20.6493 17.8105 20.787C17.8065 20.9397 17.7359 21.0091 17.5841 21.0118C17.4268 21.0146 17.2689 21.0121 17.1113 21.0121Z" fill="white"/>
<path d="M16.6498 21.5659H13.834C13.6668 21.5659 13.5312 21.7015 13.5312 21.8687V27.2131C13.5312 27.3803 13.6668 27.5158 13.834 27.5158H16.6498C16.817 27.5158 16.9525 27.3803 16.9525 27.2131V21.8687C16.9525 21.7015 16.817 21.5659 16.6498 21.5659Z" fill="white"/>
</g>
<defs>
<filter id="filter0_d_221_879" x="0" y="-7.62939e-05" width="30.4835" height="41.5951" filterUnits="userSpaceOnUse" color-interpolation-filters="sRGB">
<feFlood flood-opacity="0" result="BackgroundImageFix"/>
<feColorMatrix in="SourceAlpha" type="matrix" values="0 0 0 0 0 0 0 0 0 0 0 0 0 0 0 0 0 0 127 0" result="hardAlpha"/>
<feOffset/>
<feGaussianBlur stdDeviation="6"/>
<feComposite in2="hardAlpha" operator="out"/>
<feColorMatrix type="matrix" values="0 0 0 0 1 0 0 0 0 1 0 0 0 0 1 0 0 0 0.65 0"/>
<feBlend mode="normal" in2="BackgroundImageFix" result="effect1_dropShadow_221_879"/>
<feBlend mode="normal" in="SourceGraphic" in2="effect1_dropShadow_221_879" result="shape"/>
</filter>
</defs>
</svg>
