<svg width="10" height="10" viewBox="0 0 10 10" fill="none" xmlns="http://www.w3.org/2000/svg">
<g clip-path="url(#clip0_209_892)">
<path d="M0.738535 6.25259C0.426303 6.01022 0.414985 5.85959 0.660477 5.61488C0.931338 5.34169 1.20688 5.07708 1.47228 4.7992C1.52614 4.73858 1.59227 4.69008 1.66628 4.65691C1.74029 4.62374 1.82049 4.60666 1.9016 4.6068C2.06357 4.60329 2.22476 4.57909 2.432 4.55958C2.5967 4.38747 2.78326 4.18765 2.9745 3.99524C3.15638 3.81299 3.29454 3.81299 3.4772 3.99524C4.32412 4.8398 5.16975 5.68539 6.01408 6.53203C6.18581 6.70414 6.18503 6.84659 6.01408 7.02065C5.82362 7.21579 5.62808 7.40546 5.4103 7.62128C5.53832 8.20084 5.20774 8.58526 4.79559 8.93534C4.65236 9.05672 4.52747 9.19994 4.39399 9.33303C4.14459 9.58163 4.00838 9.57383 3.7344 9.25497C3.81129 9.20193 3.88433 9.1435 3.95296 9.08013C4.30422 8.71288 4.30656 8.20162 3.94945 7.83827C3.36167 7.23985 2.76882 6.64676 2.1709 6.05901C1.80051 5.69449 1.28767 5.69762 0.914554 6.05589C0.852108 6.11366 0.800591 6.18156 0.738535 6.25259Z" fill="black"/>
<path d="M5.45007 2.06962C5.30995 1.94551 5.17374 1.83546 5.05041 1.71291C4.87868 1.54236 4.87986 1.39796 5.05041 1.22507C5.37474 0.89646 5.70259 0.571749 6.02887 0.24587C6.27592 -0.000783622 6.42345 0.0117044 6.66075 0.313386C6.47419 0.497596 6.28373 0.682197 6.09678 0.870699C5.68385 1.28712 5.68385 1.7937 6.09912 2.2109C6.66296 2.77758 7.22823 3.34283 7.79493 3.90664C8.20434 4.3137 8.71328 4.31526 9.12191 3.91171C9.3112 3.72516 9.49542 3.53315 9.67886 3.3466C9.98133 3.54564 10.002 3.72399 9.76316 3.96362C9.4413 4.28599 9.11931 4.60823 8.79719 4.93033C8.59814 5.12781 8.46311 5.12898 8.26679 4.93033C8.15283 4.81559 8.04706 4.69227 7.9249 4.55879L6.84457 5.63985C6.5823 5.90172 6.47458 5.90172 6.21426 5.63985C5.58979 5.01541 4.96533 4.39032 4.34087 3.76458C4.10903 3.53276 4.10903 3.40827 4.34087 3.17644C4.69759 2.81934 5.05666 2.46224 5.45007 2.06962ZM6.83482 3.93162C6.81608 3.85356 6.81921 3.80478 6.79579 3.78059C6.60923 3.58545 6.43048 3.37978 6.21933 3.21508C6.16313 3.17098 5.96369 3.22406 5.90437 3.29313C5.84504 3.36221 5.82904 3.54876 5.88134 3.62018C6.02232 3.80591 6.18699 3.97242 6.37115 4.11545C6.43399 4.16579 6.57567 4.16657 6.65645 4.13144C6.73724 4.09632 6.78564 3.99094 6.83482 3.93162Z" fill="black"/>
<path d="M8.46847 3.65337C8.38104 3.60302 8.29127 3.57258 8.23078 3.51286C7.64769 2.93682 7.06772 2.35778 6.49087 1.77575C6.3289 1.61262 6.33085 1.46354 6.49282 1.30079C6.88155 0.907394 7.27249 0.516467 7.66564 0.128014C7.83854 -0.0429258 7.9806 -0.0429258 8.15428 0.128014C8.72671 0.696774 9.29705 1.26697 9.86531 1.83859C10.0452 2.01929 10.0445 2.16017 9.86531 2.34204C9.48049 2.72997 9.09488 3.11674 8.70459 3.49921C8.64175 3.56126 8.55628 3.59756 8.46847 3.65337Z" fill="black"/>
<path d="M3.65546 8.45178C3.60277 8.54155 3.57155 8.63092 3.51183 8.6918C3.12154 9.09144 2.72644 9.48732 2.32652 9.87941C2.16182 10.0418 2.0178 10.0402 1.85232 9.8759C1.27547 9.30349 0.700574 8.72862 0.127629 8.15128C-0.0437082 7.97916 -0.0421472 7.8371 0.129971 7.66304C0.514276 7.27485 0.900532 6.88848 1.28874 6.50393C1.46749 6.32713 1.61268 6.32674 1.793 6.50626C2.36048 7.07008 2.92574 7.63611 3.4888 8.20435C3.55398 8.2703 3.59496 8.36046 3.65546 8.45178Z" fill="black"/>
</g>
<defs>
<clipPath id="clip0_209_892">
<rect width="10" height="10" fill="white"/>
</clipPath>
</defs>
</svg>
