<svg width="39" height="39" viewBox="0 0 39 39" fill="none" xmlns="http://www.w3.org/2000/svg">
<g filter="url(#filter0_d_221_873)">
<path d="M19.5249 11.9999C21.0079 12.0049 22.456 12.4494 23.6864 13.2772C24.9168 14.1051 25.8741 15.2791 26.4373 16.6509C27.0006 18.0228 27.1445 19.5307 26.851 20.9843C26.5574 22.4379 25.8394 23.7719 24.7879 24.8175C23.7363 25.8632 22.3984 26.5736 20.9432 26.859C19.4879 27.1445 17.9807 26.992 16.6121 26.4211C15.2435 25.8501 14.0749 24.8862 13.254 23.6512C12.433 22.4162 11.9967 20.9655 12 19.4826C12.0022 18.497 12.1987 17.5216 12.5782 16.612C12.9576 15.7024 13.5127 14.8765 14.2115 14.1816C14.9104 13.4866 15.7394 12.9362 16.6511 12.5619C17.5628 12.1875 18.5394 11.9966 19.5249 11.9999ZM19.5038 13.4705C16.2086 13.4635 13.4765 16.1862 13.4689 19.4826C13.463 22.7994 16.1823 25.5275 19.4956 25.5292C22.7972 25.5292 25.5194 22.8182 25.5305 19.5177C25.5376 16.2026 22.8224 13.4776 19.5038 13.4705Z" fill="white"/>
<path d="M24.5913 19.857C24.5491 22.2452 22.3753 24.4981 19.9444 24.5836C19.9444 24.4201 19.9526 24.2573 19.9444 24.095C19.9274 23.802 19.744 23.6122 19.4968 23.6151C19.2495 23.618 19.0743 23.8096 19.0585 24.1049C19.0503 24.259 19.0585 24.4137 19.0585 24.5678C16.8062 24.5707 14.4544 22.3443 14.4257 19.935C14.759 19.867 15.2559 20.0668 15.2934 19.4709C15.3127 19.1668 15.1387 19.0842 14.4356 19.0157C14.4315 16.9867 16.4019 14.5779 18.9753 14.4145C19.0339 14.7537 18.8774 15.2424 19.4575 15.2746C19.7557 15.2916 19.8389 15.1141 19.904 14.4332C21.783 14.0547 24.494 16.6533 24.5966 18.9753C24.4354 18.9753 24.2749 18.9694 24.1143 18.9753C23.8214 18.9881 23.6421 19.1674 23.6456 19.427C23.6491 19.6866 23.8214 19.8424 24.1038 19.8547C24.2567 19.8623 24.412 19.857 24.5913 19.857ZM19.5079 18.8926C18.7509 18.1309 18.0296 17.4073 17.3048 16.6843C17.0593 16.4394 16.8086 16.4166 16.6123 16.6099C16.416 16.8033 16.4365 17.0599 16.6762 17.3031C17.489 18.1194 18.3034 18.9337 19.1194 19.7457C19.3843 20.0094 19.6133 20.01 19.8764 19.7504C20.3276 19.3043 20.7768 18.8551 21.224 18.4028C21.4701 18.1538 21.493 17.9101 21.2973 17.7109C21.1016 17.5116 20.8514 17.5298 20.6059 17.7747C20.2455 18.1309 19.8934 18.4966 19.5079 18.8926Z" fill="white"/>
</g>
<defs>
<filter id="filter0_d_221_873" x="0" y="-0.000169754" width="38.9994" height="38.9994" filterUnits="userSpaceOnUse" color-interpolation-filters="sRGB">
<feFlood flood-opacity="0" result="BackgroundImageFix"/>
<feColorMatrix in="SourceAlpha" type="matrix" values="0 0 0 0 0 0 0 0 0 0 0 0 0 0 0 0 0 0 127 0" result="hardAlpha"/>
<feOffset/>
<feGaussianBlur stdDeviation="6"/>
<feComposite in2="hardAlpha" operator="out"/>
<feColorMatrix type="matrix" values="0 0 0 0 1 0 0 0 0 1 0 0 0 0 1 0 0 0 0.25 0"/>
<feBlend mode="normal" in2="BackgroundImageFix" result="effect1_dropShadow_221_873"/>
<feBlend mode="normal" in="SourceGraphic" in2="effect1_dropShadow_221_873" result="shape"/>
</filter>
</defs>
</svg>
