<svg width="85" height="30" viewBox="0 0 85 30" fill="none" xmlns="http://www.w3.org/2000/svg">
<path d="M37.3645 6.54169L36.8598 2.73343C36.8247 2.46834 36.5813 2.28155 36.3162 2.31623C36.051 2.35091 35.8645 2.59392 35.8997 2.85901L36.4043 6.66727C36.4394 6.93236 36.6829 7.11915 36.948 7.08447C37.2132 7.04979 37.3996 6.80678 37.3645 6.54169Z" fill="white"/>
<path d="M48.3125 6.66847L48.8171 2.86021C48.8522 2.59512 48.6658 2.35211 48.4006 2.31743C48.1355 2.28275 47.8921 2.46953 47.8569 2.73462L47.3523 6.54288C47.3171 6.80797 47.5036 7.05098 47.7688 7.08566C48.0339 7.12034 48.2773 6.93356 48.3125 6.66847Z" fill="white"/>
<path d="M43.7207 7.36566V1.29093C43.7207 0.57797 43.1427 0 42.4297 0C41.7168 0 41.1388 0.577971 41.1388 1.29093V7.36566C41.1388 8.07862 41.7168 8.65659 42.4297 8.65659C43.1427 8.65659 43.7207 8.07862 43.7207 7.36566Z" fill="white"/>
<path d="M7.72319 26.5463L2.40587 23.4964C1.79045 23.1434 1.00256 23.3545 0.646076 23.9679C0.289595 24.5813 0.499514 25.3648 1.11494 25.7178L6.43226 28.7677C7.04769 29.1207 7.83558 28.9096 8.19206 28.2962C8.54854 27.6828 8.33862 26.8993 7.72319 26.5463Z" fill="white"/>
<path d="M32.0401 7.54402L31.0393 3.83317C30.9697 3.57507 30.7038 3.42159 30.4455 3.49036C30.1872 3.55912 30.0342 3.8241 30.1038 4.08219L31.1047 7.79304C31.1743 8.05114 31.4401 8.20462 31.6984 8.13586C31.9568 8.06709 32.1097 7.80211 32.0401 7.54402Z" fill="white"/>
<path d="M26.8228 9.23733L25.3426 5.68708C25.2398 5.44048 24.9562 5.32299 24.7091 5.42466C24.462 5.52634 24.3451 5.80868 24.4479 6.05528L25.9281 9.60553C26.0309 9.85213 26.3146 9.96962 26.5616 9.86795C26.8087 9.76627 26.9257 9.48393 26.8228 9.23733Z" fill="white"/>
<path d="M23.1333 12.1626L20.0718 6.89443C19.7141 6.279 18.9237 6.0672 18.3062 6.42136C17.6888 6.77552 17.4782 7.56153 17.8358 8.17696L20.8973 13.4451C21.255 14.0605 22.0454 14.2723 22.6629 13.9182C23.2803 13.564 23.4909 12.778 23.1333 12.1626Z" fill="white"/>
<path d="M17.2743 14.5716L14.9179 11.5207C14.7548 11.3096 14.4506 11.2695 14.2384 11.4313C14.0262 11.593 13.9864 11.8953 14.1495 12.1064L16.5059 15.1573C16.669 15.3685 16.9732 15.4085 17.1854 15.2468C17.3975 15.085 17.4373 14.7828 17.2743 14.5716Z" fill="white"/>
<path d="M13.1065 18.1197L10.3683 15.3993C10.1792 15.2115 9.87258 15.2115 9.68347 15.3993C9.49436 15.5872 9.49436 15.8918 9.68347 16.0797L12.4217 18.8001C12.6108 18.9879 12.9174 18.9879 13.1065 18.8001C13.2956 18.6122 13.2956 18.3076 13.1065 18.1197Z" fill="white"/>
<path d="M9.44041 22.1786L6.36689 19.8356C6.15507 19.6741 5.85139 19.7141 5.68858 19.9249C5.52578 20.1356 5.56551 20.4374 5.77732 20.5989L8.85084 22.9419C9.06266 23.1034 9.36634 23.0634 9.52915 22.8526C9.69195 22.6418 9.65222 22.3401 9.44041 22.1786Z" fill="white"/>
<path d="M82.4531 23.4953L77.1358 26.5453C76.5204 26.8983 76.3105 27.6817 76.667 28.2951C77.0234 28.9086 77.8113 29.1197 78.4268 28.7667L83.7441 25.7167C84.3595 25.3637 84.5694 24.5803 84.2129 23.9669C83.8565 23.3534 83.0686 23.1423 82.4531 23.4953Z" fill="white"/>
<path d="M76.0081 22.9411L79.0817 20.5981C79.2935 20.4366 79.3332 20.1348 79.1704 19.924C79.0076 19.7132 78.7039 19.6733 78.4921 19.8347L75.4186 22.1778C75.2068 22.3392 75.167 22.641 75.3298 22.8518C75.4926 23.0626 75.7963 23.1026 76.0081 22.9411Z" fill="white"/>
<path d="M72.4394 18.8004L75.1776 16.08C75.3667 15.8921 75.3667 15.5875 75.1776 15.3996C74.9885 15.2117 74.6819 15.2117 74.4928 15.3996L71.7546 18.12C71.5655 18.3079 71.5655 18.6125 71.7546 18.8004C71.9437 18.9882 72.2503 18.9882 72.4394 18.8004Z" fill="white"/>
<path d="M68.3525 15.1574L70.7089 12.1065C70.872 11.8953 70.8322 11.593 70.62 11.4313C70.4078 11.2695 70.1036 11.3096 69.9406 11.5207L67.5842 14.5716C67.4211 14.7828 67.4609 15.0851 67.6731 15.2468C67.8852 15.4086 68.1894 15.3685 68.3525 15.1574Z" fill="white"/>
<path d="M65.6236 6.49766L62.5621 11.79C62.2045 12.4082 62.4174 13.1965 63.0377 13.5507C63.6579 13.9048 64.4507 13.6907 64.8084 13.0725L67.8699 7.78019C68.2275 7.16192 68.0146 6.37361 67.3943 6.01945C66.7741 5.66529 65.9813 5.8794 65.6236 6.49766Z" fill="white"/>
<path d="M58.931 9.60703L60.4112 6.05679C60.514 5.81018 60.3971 5.52784 60.15 5.42617C59.9029 5.32449 59.6193 5.44198 59.5165 5.68858L58.0363 9.23883C57.9335 9.48543 58.0504 9.76777 58.2975 9.86945C58.5446 9.97113 58.8282 9.85364 58.931 9.60703Z" fill="white"/>
<path d="M53.7559 7.7939L54.7567 4.08305C54.8263 3.82495 54.6733 3.55998 54.415 3.49121C54.1567 3.42245 53.8908 3.57593 53.8212 3.83402L52.8204 7.54487C52.7508 7.80297 52.9038 8.06795 53.1621 8.13671C53.4204 8.20548 53.6862 8.052 53.7559 7.7939Z" fill="white"/>
</svg>
