<svg width="34" height="39" viewBox="0 0 34 39" fill="none" xmlns="http://www.w3.org/2000/svg">
<g filter="url(#filter0_d_221_876)">
<path d="M19.7654 17.2253C19.7654 18.015 19.7773 18.8047 19.7654 19.5932C19.7395 20.9971 18.6924 22.2016 17.3703 22.3689C15.9971 22.5443 14.7122 21.678 14.3416 20.3186C14.2785 20.0944 14.2448 19.8624 14.2413 19.6289C14.2328 18.0115 14.2176 16.3935 14.2413 14.7767C14.2593 13.6513 14.8232 12.83 15.7667 12.3304C16.6961 11.8385 17.6458 11.8964 18.5189 12.5018C19.3165 13.054 19.7581 13.8414 19.7654 14.858C19.7711 15.6471 19.7654 16.4374 19.7654 17.2253Z" fill="white"/>
<path d="M16.4268 25.8411V24.7104C15.9542 24.5648 15.4732 24.4811 15.0468 24.2746C13.0877 23.3264 12.0585 21.7213 12.005 19.4634C11.9972 19.1323 12 18.8006 12.005 18.469C12.0107 18.0443 12.2365 17.7787 12.5762 17.7875C12.9035 17.7957 13.1018 18.0589 13.1181 18.4684C13.1451 19.1282 13.1091 19.8044 13.2369 20.4444C13.6149 22.332 15.3211 23.6277 17.2103 23.537C19.045 23.4487 20.6103 21.967 20.8311 20.0741C20.8931 19.5447 20.8711 19.0048 20.8824 18.4695C20.8909 18.0601 21.0948 17.7962 21.422 17.7875C21.76 17.7781 21.9915 18.0443 21.9943 18.4684C21.9994 19.3938 22.0507 20.3297 21.72 21.2136C21.0249 23.0679 19.7587 24.236 17.8514 24.6063C17.7601 24.6239 17.67 24.6461 17.5697 24.6683V25.8382C18.2276 25.8382 18.8726 25.8382 19.517 25.8382C19.6387 25.8336 19.7606 25.8415 19.8809 25.8616C20.011 25.8884 20.1273 25.9634 20.2081 26.0726C20.289 26.1819 20.3288 26.3179 20.3202 26.4553C20.3098 26.5922 20.2532 26.7209 20.1605 26.8189C20.0678 26.9169 19.9449 26.9779 19.8133 26.9912C19.7571 26.9958 19.7007 26.9971 19.6443 26.9953C17.8795 26.9953 16.1153 27.0011 14.3494 26.9871C14.1579 26.9776 13.9735 26.9083 13.8205 26.7882C13.6453 26.6495 13.6233 26.4185 13.7169 26.2003C13.8233 25.9505 14.021 25.8394 14.2801 25.8388C14.8904 25.8388 15.5004 25.8388 16.1103 25.8388L16.4268 25.8411Z" fill="white"/>
</g>
<defs>
<filter id="filter0_d_221_876" x="0.00012207" y="0.000116348" width="34" height="38.9963" filterUnits="userSpaceOnUse" color-interpolation-filters="sRGB">
<feFlood flood-opacity="0" result="BackgroundImageFix"/>
<feColorMatrix in="SourceAlpha" type="matrix" values="0 0 0 0 0 0 0 0 0 0 0 0 0 0 0 0 0 0 127 0" result="hardAlpha"/>
<feOffset/>
<feGaussianBlur stdDeviation="6"/>
<feComposite in2="hardAlpha" operator="out"/>
<feColorMatrix type="matrix" values="0 0 0 0 1 0 0 0 0 1 0 0 0 0 1 0 0 0 0.25 0"/>
<feBlend mode="normal" in2="BackgroundImageFix" result="effect1_dropShadow_221_876"/>
<feBlend mode="normal" in="SourceGraphic" in2="effect1_dropShadow_221_876" result="shape"/>
</filter>
</defs>
</svg>
