<svg width="26" height="26" viewBox="0 0 26 26" fill="none" xmlns="http://www.w3.org/2000/svg">
<path d="M25.9887 17.4933V7.50864C25.9887 2.5008 21.8806 2.79248 21.8806 2.79248H18.6507C17.2358 2.79248 16.9721 0 16.9721 0H9.83577C9.83577 0 9.56893 2.79248 8.15718 2.79248H4.91481C4.91481 2.79248 0.80987 2.5008 0.80987 7.50864V17.4933C0.80987 17.4933 0.698171 18.1139 5.02341 18.1139V23.3202C5.02217 23.5545 5.0674 23.7866 5.15646 24.0033C5.24553 24.2199 5.37667 24.4167 5.54229 24.5824C5.70792 24.748 5.90474 24.8791 6.12138 24.9682C6.33801 25.0572 6.57016 25.1025 6.80438 25.1012H9.96919C9.18945 22.6923 8.95938 20.1393 9.29589 17.6298C9.30175 17.5146 9.34394 17.4042 9.4164 17.3145C9.48886 17.2248 9.58788 17.1603 9.69925 17.1303C9.82213 17.1107 9.94806 17.1301 10.0594 17.1858C10.1706 17.2414 10.2617 17.3305 10.3198 17.4405C10.4833 17.6816 10.5538 17.9737 10.5184 18.2628C10.2096 20.57 10.451 22.9175 11.2227 25.1136H15.5666C16.3392 22.9177 16.5816 20.5702 16.274 18.2628C16.2359 17.974 16.3055 17.6813 16.4695 17.4405C16.5275 17.3305 16.6186 17.2414 16.7299 17.1858C16.8412 17.1301 16.9671 17.1107 17.09 17.1303C17.2015 17.1606 17.3007 17.225 17.3736 17.3146C17.4465 17.4043 17.4895 17.5145 17.4965 17.6298C17.833 20.1393 17.6029 22.6923 16.8232 25.1012H19.9911C20.1589 25.1019 20.3261 25.0789 20.4875 25.033C20.8581 24.9249 21.1836 24.6995 21.4152 24.3907C21.6468 24.0819 21.7721 23.7063 21.7721 23.3202V18.1139C26.1004 18.1077 25.9887 17.4933 25.9887 17.4933ZM17.6361 11.0799C17.7588 11.0799 17.8788 11.1163 17.9808 11.1845C18.0829 11.2527 18.1624 11.3496 18.2094 11.463C18.2564 11.5764 18.2687 11.7011 18.2447 11.8215C18.2208 11.9419 18.1617 12.0525 18.0749 12.1392C17.9881 12.226 17.8775 12.2851 17.7572 12.3091C17.6368 12.333 17.512 12.3207 17.3986 12.2738C17.2852 12.2268 17.1883 12.1472 17.1201 12.0452C17.0519 11.9432 17.0155 11.8232 17.0155 11.7005C17.0155 11.5359 17.0809 11.378 17.1973 11.2617C17.3137 11.1453 17.4715 11.0799 17.6361 11.0799ZM9.15006 11.0799C9.2728 11.0799 9.39277 11.1163 9.49482 11.1845C9.59687 11.2527 9.67641 11.3496 9.72338 11.463C9.77034 11.5764 9.78263 11.7011 9.75869 11.8215C9.73475 11.9419 9.67564 12.0525 9.58886 12.1392C9.50207 12.226 9.3915 12.2851 9.27113 12.3091C9.15075 12.333 9.02598 12.3207 8.91259 12.2738C8.7992 12.2268 8.70228 12.1472 8.63409 12.0452C8.56591 11.9432 8.52951 11.8232 8.52951 11.7005C8.52951 11.6187 8.54567 11.5378 8.57704 11.4623C8.60842 11.3868 8.65441 11.3182 8.71236 11.2606C8.77032 11.2029 8.83909 11.1572 8.91474 11.1262C8.99039 11.0952 9.07141 11.0795 9.15317 11.0799H9.15006ZM13.8849 23.131C13.875 23.2547 13.819 23.3701 13.7278 23.4543C13.6367 23.5385 13.5171 23.5852 13.3931 23.5852C13.269 23.5852 13.1495 23.5385 13.0583 23.4543C12.9672 23.3701 12.9111 23.2547 12.9013 23.131V17.9091C12.8959 17.8412 12.9046 17.7729 12.9269 17.7086C12.9491 17.6443 12.9845 17.5852 13.0307 17.5352C13.0769 17.4852 13.1329 17.4453 13.1953 17.418C13.2577 17.3907 13.325 17.3766 13.3931 17.3766C13.4612 17.3766 13.5285 17.3907 13.5909 17.418C13.6532 17.4453 13.7093 17.4852 13.7555 17.5352C13.8017 17.5852 13.837 17.6443 13.8593 17.7086C13.8815 17.7729 13.8903 17.8412 13.8849 17.9091V23.131ZM16.3422 14.9397C15.302 14.9402 14.2816 14.6558 13.3915 14.1175C12.5015 14.6558 11.481 14.9402 10.4408 14.9397C7.11776 14.9397 4.36873 12.0759 4.04914 8.27501C4.04206 8.17144 4.06107 8.06777 4.10443 7.97345C4.1478 7.87913 4.21413 7.79718 4.29736 7.73514C4.38349 7.67163 4.48507 7.63237 4.59152 7.62143C4.69798 7.6105 4.80542 7.62828 4.90266 7.67294C4.99991 7.71761 5.08341 7.78751 5.14448 7.87539C5.20555 7.96326 5.24195 8.06592 5.24991 8.17263C5.51054 11.3467 7.73211 13.7389 10.4408 13.7389C11.521 13.7326 12.5649 13.3484 13.3915 12.653C14.2193 13.3463 15.2625 13.7302 16.3422 13.7389C19.0385 13.7389 21.2725 11.3467 21.5331 8.17263C21.5417 8.06586 21.5786 7.96332 21.64 7.87558C21.7015 7.78783 21.7852 7.71806 21.8826 7.67347C21.98 7.62889 22.0875 7.61108 22.1941 7.62193C22.3006 7.63277 22.4024 7.67185 22.4888 7.73514C22.5714 7.79752 22.6372 7.8796 22.68 7.9739C22.7228 8.0682 22.7413 8.17171 22.7339 8.27501C22.4174 12.0759 19.6715 14.9397 16.3453 14.9397H16.3422Z" fill="#3E495A"/>
</svg>
