<svg width="34" height="35" viewBox="0 0 34 35" fill="none" xmlns="http://www.w3.org/2000/svg">
<path d="M6.50714 18.2246C6.24122 18.0917 6.01519 17.9587 5.77586 17.855C4.13778 17.1902 2.49572 16.5254 0.856319 15.8606C-0.0371751 15.4963 -0.207365 15.0522 0.232734 14.2079C1.45198 11.8731 2.66857 9.53831 3.90244 7.21151C4.62449 5.81732 5.84271 4.74427 7.31687 4.20394C8.24759 3.85027 9.18762 3.52984 10.0798 3.21073C10.4933 2.62437 10.8775 2.08455 11.2578 1.53941C11.6381 0.99427 12.1287 0.750959 12.7962 0.84802C15.5192 1.24225 18.2848 1.24225 21.0078 0.84802C21.6473 0.756277 22.1313 0.996936 22.4956 1.51282C22.8812 2.05397 23.2628 2.59778 23.6923 3.20807C24.514 3.5059 25.4035 3.83431 26.297 4.15075C27.8672 4.6872 29.1668 5.81413 29.9201 7.29261C31.1248 9.58485 32.3276 11.8775 33.5287 14.1707C33.9914 15.0548 33.8292 15.4883 32.8971 15.8699C31.2591 16.5347 29.617 17.1995 27.9776 17.8723C27.7357 17.983 27.4996 18.1059 27.2702 18.2406C27.2702 18.5065 27.2583 18.7232 27.2702 18.9399C27.5566 23.606 27.8455 28.2711 28.1371 32.9354C28.205 33.9991 27.9045 34.3581 26.8434 34.3581H6.96718C5.85297 34.3581 5.56977 34.019 5.63758 32.9048C5.93364 28.2396 6.22172 23.5741 6.50182 18.908C6.5191 18.7113 6.50714 18.5131 6.50714 18.2246ZM16.8781 6.12521C16.293 6.63312 15.7771 7.0852 15.2573 7.53061C14.2055 8.43209 13.3533 8.4507 12.4345 7.39765C11.5517 6.3938 10.8071 5.27028 9.94417 4.11884L9.40169 4.31165C9.94815 5.64923 10.7313 6.75147 11.654 7.78058C12.8174 9.07827 14.1484 9.30829 15.4301 8.45601C15.4514 8.44139 15.5072 8.47994 15.5777 8.50388C15.5883 8.66742 15.6096 8.84161 15.6123 9.01579C15.6415 10.6592 15.6788 10.6844 17.2955 10.6273C17.8766 10.606 18.1558 10.3613 18.1438 9.77765C18.1345 9.33356 18.1438 8.88814 18.1438 8.31508C19.2501 9.057 20.2712 9.23251 21.2166 8.54377C22.6791 7.48009 23.6324 6.00423 24.3784 4.30499L23.6551 4.06566L23.7721 4.22788C22.9131 5.34076 22.1061 6.50018 21.1767 7.55189C20.4188 8.4055 19.5226 8.37491 18.6504 7.64097C18.0787 7.16231 17.5149 6.66504 16.89 6.1332L16.8781 6.12521ZM21.3562 1.79869H12.4212C13.6179 3.54978 15.1948 4.54166 16.886 5.4551C18.5919 4.53768 20.1635 3.53649 21.3628 1.80002L21.3562 1.79869Z" fill="white"/>
<path d="M16.89 8.61558C16.6773 8.27254 16.4619 8.07708 16.4911 7.92018C16.5204 7.76329 16.7571 7.5572 16.9405 7.5213C17.0416 7.50003 17.3075 7.77659 17.3088 7.92018C17.2969 8.09702 17.0988 8.2752 16.89 8.61558Z" fill="white"/>
</svg>
