<svg width="27" height="26" viewBox="0 0 27 26" fill="none" xmlns="http://www.w3.org/2000/svg">
<path d="M26.8731 8.04437V15.069C26.8731 15.069 19.2776 14.7588 15.2688 12.4565C15.1404 12.3816 14.9944 12.342 14.8457 12.3416C14.6969 12.3413 14.5508 12.3803 14.422 12.4546C14.2932 12.5289 14.1863 12.636 14.1121 12.7649C14.038 12.8938 13.9993 13.04 13.9998 13.1888C13.9998 15.4041 13.5499 19.2298 10.8971 21.4948C10.6868 21.6785 10.5191 21.9058 10.4055 22.1608C10.2919 22.4159 10.2352 22.6926 10.2393 22.9717V25.0909H0.93103V20.0986H4.58917C4.79683 20.0978 4.9957 20.0147 5.14224 19.8675C5.28879 19.7204 5.37107 19.5212 5.37107 19.3136C5.37148 19.2106 5.35155 19.1086 5.31244 19.0134C5.27333 18.9182 5.2158 18.8316 5.14315 18.7587C5.07051 18.6858 4.98417 18.6279 4.88911 18.5884C4.79404 18.5489 4.69211 18.5286 4.58917 18.5286H0.949646V15.671H7.33821L7.51196 15.5779C11.3656 13.5673 11.679 10.4366 11.5642 8.88524C11.5493 8.68796 11.4605 8.50358 11.3155 8.36896C11.1706 8.23435 10.9801 8.15943 10.7823 8.15921C10.7079 8.16071 10.6339 8.17112 10.562 8.19023C10.3872 8.24243 10.2359 8.35341 10.1335 8.50437C10.0312 8.65533 9.98416 8.83698 10.0004 9.01864C10.0904 10.1108 9.89177 12.3727 7.13343 13.983C7.01305 14.0536 6.87577 14.09 6.73628 14.0886H0.949646V1.24938C0.949646 1.24938 9.51944 -2.26294 14.6886 2.49048C14.6886 2.49048 20.8941 1.7272 23.9658 5.50945C24.7812 6.51602 25.7649 7.37366 26.8731 8.04437Z" fill="#3E495A"/>
</svg>
