<svg width="27" height="26" viewBox="0 0 27 26" fill="none" xmlns="http://www.w3.org/2000/svg">
<path d="M0.988953 8.04437V15.069C0.988953 15.069 8.58448 14.7588 12.5932 12.4565C12.7217 12.3816 12.8677 12.342 13.0164 12.3416C13.1651 12.3413 13.3113 12.3803 13.4401 12.4546C13.5689 12.5289 13.6758 12.636 13.7499 12.7649C13.8241 12.8938 13.8628 13.04 13.8623 13.1888C13.8623 15.4041 14.3122 19.2298 16.965 21.4948C17.1753 21.6785 17.343 21.9058 17.4566 22.1608C17.5702 22.4159 17.6269 22.6926 17.6228 22.9717V25.0909H26.931V20.0986H23.2729C23.0652 20.0978 22.8664 20.0147 22.7198 19.8675C22.5733 19.7204 22.491 19.5212 22.491 19.3136C22.4906 19.2106 22.5105 19.1086 22.5496 19.0134C22.5887 18.9182 22.6463 18.8316 22.7189 18.7587C22.7916 18.6858 22.8779 18.6279 22.973 18.5884C23.068 18.5489 23.17 18.5286 23.2729 18.5286H26.9124V15.671H20.5239L20.3501 15.5779C16.4965 13.5673 16.1831 10.4366 16.2979 8.88524C16.3128 8.68796 16.4016 8.50358 16.5465 8.36896C16.6915 8.23435 16.882 8.15943 17.0798 8.15921C17.1542 8.16071 17.2282 8.17112 17.3001 8.19023C17.4749 8.24243 17.6262 8.35341 17.7285 8.50437C17.8309 8.65533 17.8779 8.83698 17.8617 9.01864C17.7717 10.1108 17.9703 12.3727 20.7286 13.983C20.849 14.0536 20.9863 14.09 21.1258 14.0886H26.9124V1.24938C26.9124 1.24938 18.3426 -2.26294 13.1735 2.49048C13.1735 2.49048 6.96795 1.7272 3.89623 5.50945C3.08083 6.51602 2.09719 7.37366 0.988953 8.04437Z" fill="#3E495A"/>
</svg>
