<svg width="48" height="27" viewBox="0 0 48 27" fill="none" xmlns="http://www.w3.org/2000/svg">
<path d="M0.0322838 15.0971C0.0544597 14.9888 0.0995194 14.886 0.164623 14.7955C0.229727 14.7049 0.313455 14.6284 0.410519 14.5709C0.507583 14.5133 0.615871 14.476 0.728545 14.4612C0.841218 14.4464 0.955831 14.4544 1.06513 14.4849C2.46197 14.8763 3.83664 15.3395 5.24457 15.4885C6.89639 15.6681 8.59625 15.4149 10.2333 15.3521C10.2333 12.4955 10.2074 9.78619 10.2333 7.06609C10.2684 4.0264 12.0034 1.74078 14.8044 0.92385C15.7504 0.647351 16.5819 0.658137 17.5131 1.1842C21.639 3.51828 25.8073 3.20587 29.9055 1.08724C30.5775 0.728259 31.3647 0.630708 32.1079 0.81433C34.6799 1.35296 36.7271 3.48596 36.9691 6.05166C37.1114 7.56522 37.056 9.10391 37.0708 10.6211C37.0855 12.1382 37.0708 13.6733 37.0708 15.3952C38.6671 15.3952 40.3966 15.5855 42.0465 15.3413C43.4212 15.1366 44.7441 14.6231 46.0856 14.1653C46.196 14.1275 46.3131 14.1116 46.43 14.1183C46.5469 14.125 46.6612 14.1543 46.7663 14.2045C46.8714 14.2546 46.9652 14.3246 47.0421 14.4104C47.1191 14.4961 47.1777 14.5959 47.2145 14.7039C47.3439 15.0764 47.368 15.4757 47.2845 15.8604C47.201 16.245 47.0128 16.6008 46.7396 16.8908C45.5793 18.1853 44.3654 19.5085 42.9316 20.4817C38.1054 23.7512 32.6326 25.3886 26.8125 25.8842C18.6402 26.579 11.1202 24.6543 4.35214 20.1567C2.95345 19.2266 1.7654 17.9608 0.597672 16.7453C0.18564 16.318 -0.0989011 15.7596 0.0322838 15.0971ZM11.5525 15.1276C10.7044 15.8296 10.5936 16.7094 11.632 17.4204C12.586 18.0653 13.635 18.5659 14.7435 18.9053C17.5815 19.7814 20.5341 19.9933 23.494 19.961C26.4245 19.9287 29.3419 19.6809 32.1245 18.7221C33.075 18.3929 33.9637 17.915 34.7556 17.3073C35.637 16.6232 35.4947 15.6447 34.8332 15.1528C26.9898 18.0775 19.3534 18.1458 11.5525 15.1276Z" fill="white"/>
</svg>
