<svg width="25" height="26" viewBox="0 0 25 26" fill="none" xmlns="http://www.w3.org/2000/svg">
<path d="M18.3342 9.44789C18.3342 9.44789 16.3422 11.9115 12.4048 11.9518C8.4643 11.9115 6.47544 9.44789 6.47544 9.44789C6.07208 14.223 0 15.0732 0 15.0732V23.705C0 24.0778 0.148084 24.4353 0.411675 24.6989C0.675266 24.9625 1.03277 25.1106 1.40555 25.1106H23.404C23.7768 25.1106 24.1343 24.9625 24.3979 24.6989C24.6615 24.4353 24.8096 24.0778 24.8096 23.705V15.0732C24.8096 15.0732 18.7375 14.223 18.3342 9.44789ZM9.52234 14.3037L10.4035 18.3373C10.4897 18.7255 10.6464 19.0947 10.8658 19.4263L11.4243 20.261L10.4532 19.9507C10.3987 19.9338 10.3481 19.9064 10.3042 19.87C9.71994 19.4075 9.31509 18.7558 9.15932 18.027L8.42707 14.5829L9.52234 14.3037ZM11.7967 23.7205L10.9558 23.2148C10.6204 23.0165 10.2493 22.8858 9.86364 22.8301C9.73186 22.8141 9.59925 22.8058 9.46649 22.8052H3.52162C3.41338 22.8047 3.30875 22.7662 3.22597 22.6965C3.14319 22.6267 3.08751 22.5302 3.06862 22.4236C3.06554 22.3968 3.06554 22.3697 3.06862 22.3429C3.06944 22.2217 3.11818 22.1057 3.20421 22.0202C3.29024 21.9348 3.40657 21.8868 3.52783 21.8868H9.51303C10.1413 21.8863 10.7525 22.0912 11.2537 22.4701C11.4243 22.5986 11.5628 22.765 11.6581 22.9561C11.7534 23.1473 11.803 23.358 11.8029 23.5716L11.7967 23.7205ZM13.9438 19.4201C14.1632 19.0884 14.3199 18.7193 14.4061 18.3311L15.2873 14.2975L16.3825 14.5829L15.6503 18.027C15.4945 18.7558 15.0897 19.4075 14.5054 19.87C14.4615 19.9064 14.4109 19.9338 14.3564 19.9507L13.3853 20.261L13.9438 19.4201ZM21.741 22.4236C21.7221 22.5302 21.6664 22.6267 21.5836 22.6965C21.5008 22.7662 21.3962 22.8047 21.288 22.8052H15.3431C15.2103 22.8058 15.0777 22.8141 14.9459 22.8301C14.5603 22.8858 14.1892 23.0165 13.8538 23.2148L13.0129 23.7205V23.5716C13.0128 23.358 13.0624 23.1473 13.1577 22.9561C13.253 22.765 13.3915 22.5986 13.5621 22.4701C14.0633 22.0912 14.6745 21.8863 15.3028 21.8868H21.288C21.4092 21.8868 21.5256 21.9348 21.6116 22.0202C21.6976 22.1057 21.7464 22.2217 21.7472 22.3429C21.749 22.373 21.7469 22.4033 21.741 22.4329V22.4236Z" fill="#3E495A"/>
<path d="M12.4048 10.8938C17.4716 10.8938 21.5765 6.01623 21.5765 0H3.22995C3.22995 6.01623 7.33799 10.8938 12.4048 10.8938Z" fill="#3E495A"/>
</svg>
