<svg width="23" height="26" viewBox="0 0 23 26" fill="none" xmlns="http://www.w3.org/2000/svg">
<path d="M9.54941 2.03853C8.92494 2.13719 8.35322 2.44713 7.92978 2.91659C7.53162 3.35621 7.28856 3.91425 7.23786 4.5052C6.98964 7.23872 6.34117 15.4145 7.07032 19.1502C7.12107 19.3969 7.10176 19.6529 7.01458 19.8893C6.92739 20.1256 6.77581 20.3328 6.57698 20.4875C5.54377 21.2911 3.43389 22.6594 0.992027 22.7494C0.774986 22.7519 0.565644 22.8301 0.400205 22.9707C0.234766 23.1112 0.123633 23.3051 0.0860242 23.5189L0.0146623 23.9253C-0.00963054 24.0606 -0.00367954 24.1995 0.0320897 24.3322C0.0678589 24.4649 0.132558 24.588 0.221542 24.6927C0.310527 24.7974 0.421591 24.8811 0.546759 24.9378C0.671927 24.9945 0.808095 25.0227 0.945487 25.0206L9.27326 24.8096C9.43242 24.8054 9.58894 24.7679 9.7327 24.6995C9.87646 24.6311 10.0043 24.5333 10.1079 24.4125C10.2265 24.269 10.3103 24.1002 10.353 23.9191L10.4275 23.5809C10.5776 22.9145 10.637 22.2309 10.6043 21.5486C10.4869 19.437 10.6255 17.319 11.017 15.2407C11.4514 12.9695 11.8175 9.86677 11.2249 7.54591C11.2249 7.54591 20.1236 8.45191 22.6399 7.04016V0L9.54941 2.03853ZM21.3771 2.0044C20.046 2.47602 18.2744 2.62495 17.1543 2.69942L16.6516 2.71801C16.5788 2.72051 16.5061 2.70831 16.4381 2.68214C16.3701 2.65598 16.308 2.61639 16.2556 2.56572C16.2032 2.51504 16.1615 2.45433 16.1331 2.38721C16.1046 2.32009 16.09 2.24793 16.09 2.17503V2.10678C16.0899 1.96563 16.1444 1.82995 16.2422 1.72814C16.34 1.62633 16.4733 1.56631 16.6144 1.56069C17.5607 1.52966 19.593 1.40868 20.9831 0.921546C21.1095 0.876441 21.2482 0.880028 21.3721 0.931658C21.496 0.983288 21.5962 1.07923 21.6532 1.20076L21.6843 1.25663C21.7152 1.32551 21.7314 1.40005 21.7321 1.47555C21.7327 1.55104 21.7177 1.62587 21.688 1.69526C21.6582 1.76466 21.6144 1.82712 21.5593 1.87873C21.5042 1.93034 21.439 1.96995 21.3678 1.99509L21.3771 2.0044Z" fill="#3E495A"/>
</svg>
