<svg width="24" height="26" viewBox="0 0 24 26" fill="none" xmlns="http://www.w3.org/2000/svg">
<path d="M13.7304 2.03853C14.3549 2.13719 14.9266 2.44713 15.3501 2.91659C15.7482 3.35621 15.9913 3.91425 16.042 4.5052C16.2902 7.23872 16.9387 15.4145 16.2095 19.1502C16.1588 19.3969 16.1781 19.6529 16.2653 19.8893C16.3525 20.1256 16.504 20.3328 16.7029 20.4875C17.7361 21.2911 19.846 22.6594 22.2878 22.7494C22.5049 22.7519 22.7142 22.8301 22.8796 22.9707C23.0451 23.1112 23.1562 23.3051 23.1938 23.5189L23.2652 23.9253C23.2895 24.0606 23.2835 24.1995 23.2478 24.3322C23.212 24.4649 23.1473 24.588 23.0583 24.6927C22.9693 24.7974 22.8583 24.8811 22.7331 24.9378C22.6079 24.9945 22.4718 25.0227 22.3344 25.0206L14.0066 24.8096C13.8474 24.8054 13.6909 24.7679 13.5471 24.6995C13.4034 24.6311 13.2756 24.5333 13.1719 24.4125C13.0534 24.269 12.9695 24.1002 12.9268 23.9191L12.8524 23.5809C12.7023 22.9145 12.6428 22.2309 12.6755 21.5486C12.7929 19.437 12.6543 17.319 12.2628 15.2407C11.8284 12.9695 11.4623 9.86677 12.0549 7.54591C12.0549 7.54591 3.15626 8.45191 0.639927 7.04016V0L13.7304 2.03853ZM1.90275 2.0044C3.23383 2.47602 5.0055 2.62495 6.12559 2.69942L6.62823 2.71801C6.70109 2.72051 6.7737 2.70831 6.84175 2.68214C6.90979 2.65598 6.97187 2.61639 7.02428 2.56572C7.07668 2.51504 7.11835 2.45433 7.14679 2.38721C7.17524 2.32009 7.18988 2.24793 7.18984 2.17503V2.10678C7.18995 1.96563 7.13541 1.82995 7.03765 1.72814C6.93989 1.62633 6.80651 1.56631 6.66547 1.56069C5.71914 1.52966 3.68683 1.40868 2.29679 0.921546C2.17036 0.876441 2.03166 0.880028 1.90775 0.931658C1.78384 0.983288 1.6836 1.07923 1.6266 1.20076L1.59558 1.25663C1.56468 1.32551 1.5484 1.40005 1.54776 1.47555C1.54713 1.55104 1.56216 1.62587 1.5919 1.69526C1.62164 1.76466 1.66544 1.82712 1.72055 1.87873C1.77566 1.93034 1.84086 1.96995 1.91206 1.99509L1.90275 2.0044Z" fill="#3E495A"/>
</svg>
