<svg width="16" height="17" viewBox="0 0 16 17" fill="none" xmlns="http://www.w3.org/2000/svg">
<path d="M8.92017 10.3359C8.86924 10.3672 8.81004 10.39 8.76804 10.4297C7.77588 11.3687 6.7857 12.3122 5.78957 13.2487C5.35963 13.6517 5.22734 14.1178 5.4142 14.6586C5.45714 14.7874 5.52811 14.9062 5.62255 15.0075C5.92913 15.3199 6.23902 15.6323 6.57139 15.9213C7.18785 16.4558 7.9634 16.4318 8.56498 15.8738C8.98202 15.4874 9.39178 15.0928 9.80518 14.7039C11.7148 12.9001 13.6249 11.0966 15.5356 9.29347C15.9748 8.88016 16.111 8.40032 15.9076 7.85487C15.8305 7.66066 15.7098 7.4845 15.5538 7.33848C13.229 5.13086 10.8994 2.92835 8.56498 0.730939C7.96373 0.164561 7.12006 0.168623 6.51451 0.730939C6.26625 0.960032 6.02085 1.19214 5.77832 1.42728C5.17343 2.01271 5.17343 2.77403 5.78295 3.35477C6.77666 4.30113 7.77235 5.24551 8.77002 6.18791C8.81136 6.22728 8.85072 6.2682 8.91984 6.33787L8.69363 6.33787C6.27407 6.33787 3.85419 6.35255 1.43496 6.32974C0.55194 6.32162 0.0393224 6.87956 0.0128647 7.55966C-0.00697935 8.09073 -0.00499568 8.62181 0.0267541 9.15132C0.0598266 9.72801 0.547971 10.286 1.3546 10.2819C3.79631 10.2691 6.23802 10.2772 8.67974 10.2772L8.87453 10.2772L8.92017 10.3359Z" fill="white"/>
</svg>
