<svg width="25" height="25" viewBox="0 0 25 25" fill="none" xmlns="http://www.w3.org/2000/svg">
<path d="M6.97351 11.9657L2.47951 2.4717H0V0H4.11298L5.24039 2.46779H5.83926C11.6671 2.46779 17.494 2.46779 23.3199 2.46779C23.5638 2.45853 23.808 2.47095 24.0497 2.50491C24.7932 2.63973 25.2269 3.54439 24.8743 4.17062C23.6837 6.28215 22.4976 8.39595 21.3162 10.512C20.9723 11.1187 20.6206 11.7235 20.3041 12.3458C19.7999 13.3286 18.9891 13.736 17.9193 13.7282C15.0881 13.723 12.2549 13.723 9.4198 13.7282H8.83363C8.49169 14.5332 7.8938 15.2249 7.71502 16.2087H22.4446V18.7185H21.8975C17.1934 18.7185 12.4894 18.7097 7.78536 18.7253C6.72145 18.7253 5.8715 18.3873 5.32245 17.4553C4.748 16.4783 4.92679 15.515 5.44946 14.5859C5.94282 13.7106 6.46061 12.847 6.97351 11.9657Z" fill="white"/>
<path d="M9.96786 22.4807C9.96244 23.1456 9.69351 23.7812 9.22006 24.248C8.74662 24.7149 8.10732 24.9749 7.44243 24.971C6.78571 24.9538 6.16117 24.6829 5.69994 24.2151C5.2387 23.7474 4.97664 23.1191 4.96878 22.4622C4.97983 21.797 5.25275 21.1631 5.72831 20.698C6.20386 20.2329 6.84367 19.9741 7.50886 19.9778C8.16585 19.9868 8.79272 20.2548 9.25319 20.7235C9.71366 21.1922 9.9705 21.8237 9.96786 22.4807Z" fill="white"/>
<path d="M19.9719 19.9797C20.3014 19.9786 20.6278 20.0429 20.9322 20.1688C21.2367 20.2947 21.5132 20.4796 21.7458 20.713C21.9784 20.9464 22.1624 21.2235 22.2872 21.5285C22.412 21.8334 22.4751 22.16 22.4729 22.4895C22.4648 23.1458 22.2002 23.7728 21.7357 24.2365C21.2713 24.7003 20.6438 24.9639 19.9875 24.971C18.6198 24.971 17.464 23.8142 17.4738 22.4543C17.4872 21.7982 17.7554 21.173 18.2217 20.7111C18.688 20.2492 19.3156 19.9869 19.9719 19.9797Z" fill="white"/>
</svg>
